<?xml version="1.0" standalone="no"?>
<!DOCTYPE svg PUBLIC "-//W3C//DTD SVG 1.1//EN" "http://www.w3.org/Graphics/SVG/1.1/DTD/svg11.dtd" >
<svg xmlns="http://www.w3.org/2000/svg">
<metadata></metadata>
<defs>
<font id="crimsonbold" horiz-adv-x="492" >
<font-face units-per-em="1024" ascent="717" descent="-307" />
<missing-glyph horiz-adv-x="213" />
<glyph horiz-adv-x="0" />
<glyph unicode="&#xd;" horiz-adv-x="341" />
<glyph unicode=" "  horiz-adv-x="213" />
<glyph unicode="&#x09;" horiz-adv-x="213" />
<glyph unicode="&#xa0;" horiz-adv-x="213" />
<glyph unicode="!" horiz-adv-x="270" d="M59 66q0 30 22 51.5t53 21.5t53 -23t22 -53t-21.5 -52t-52.5 -22q-32 0 -54 22.5t-22 54.5zM138 642q25 0 43.5 -18.5t18.5 -49.5q0 -20 -16 -151.5t-26 -201.5q-7 -22 -20 -26q-13 0 -23 17q-10 61 -26.5 194.5t-16.5 168.5q0 31 19 49t47 18z" />
<glyph unicode="&#x22;" horiz-adv-x="331" d="M258 700q19 0 31 -16q0 -79 -17 -230q-8 -14 -24 -23q-7 0 -10 8q-42 143 -42 178q0 28 18 55.5t44 27.5zM98 700q19 0 31 -16q0 -79 -17 -230q-8 -14 -24 -23q-7 0 -10 8q-42 143 -42 178q0 28 18 55.5t44 27.5z" />
<glyph unicode="#" horiz-adv-x="475" d="M408 339h-329q-5 2 -4 16.5t7.5 31.5t12.5 19h326q6 -2 5.5 -16t-6.5 -31t-12 -20zM380 148h-329q-5 2 -4 16.5t8 31.5t13 19h326q6 -2 5.5 -16t-7 -31t-12.5 -20zM379 528l-79 -492q-1 -4 -11 -8.5t-20 -4.5q-4 0 -7 1t-4 2v1l79 491q4 13 29 13q8 0 13 -3zM218 528 l-80 -492q-1 -4 -10.5 -8.5t-19.5 -4.5q-4 0 -7 1t-3 2l-1 1l79 491q4 13 29 13q9 0 13 -3z" />
<glyph unicode="$" horiz-adv-x="518" d="M265 641q20 0 42 -3t37 -6t41.5 -9t40.5 -9q4 -38 10 -159q-4 -5 -10 -5q-28 0 -29 6q-7 50 -42 97.5t-85 47.5q-33 0 -57.5 -19.5t-24.5 -63.5q0 -69 139 -157q7 -5 31.5 -19.5t34 -21t28 -23.5t26 -32.5t14.5 -41t7 -56.5q0 -76 -63.5 -126.5t-145.5 -50.5 q-72 0 -182 25q-16 67 -23 163q3 4 13.5 8.5t14.5 4.5q11 0 12 -8q8 -48 52.5 -100.5t102.5 -52.5q36 0 64.5 21.5t28.5 72.5q0 18 -8 36t-17.5 30.5t-28 28.5t-29 23.5t-32.5 22t-26 17.5q-1 1 -20 13.5t-21.5 14.5t-19 13.5t-19.5 15.5t-15.5 15.5t-16 18.5t-11 19.5 t-10 23t-5 24t-2.5 28.5q0 72 63.5 122.5t140.5 50.5zM288 668q39 0 39 -8l-114 -700q-39 0 -39 9z" />
<glyph unicode="%" horiz-adv-x="686" d="M187 611q-53 0 -53 -111q0 -50 17.5 -91t51.5 -41q54 0 54 109q0 51 -18 92.5t-52 41.5zM195 641q69 0 113 -42.5t44 -106.5t-45.5 -109.5t-110.5 -45.5q-69 0 -113 43t-44 107q0 63 45.5 108.5t110.5 45.5zM484 274q-53 0 -53 -111q0 -50 17.5 -91t51.5 -41q54 0 54 109 q0 51 -18 92.5t-52 41.5zM492 304q69 0 113 -42.5t44 -106.5t-45.5 -109.5t-110.5 -45.5q-69 0 -113 43t-44 107t45 109t111 45zM623 635l-516 -640q-3 -5 -16 -10t-25 -5q-7 0 -10.5 3t-3.5 6l-1 3l516 640q15 13 40 13q16 0 16 -10z" />
<glyph unicode="&#x26;" horiz-adv-x="696" d="M382 95q-75 101 -158 218q-38 -33 -38 -93q0 -56 34.5 -102t97.5 -46q37 0 64 23zM312 609q-26 0 -41.5 -23t-15.5 -60q0 -53 49 -119q65 34 65 106q0 33 -13.5 64.5t-43.5 31.5zM295 645q77 0 127 -32t50 -84q0 -61 -42.5 -100t-99.5 -59q14 -18 69 -93t71 -96 q61 71 61 81t-10 14t-24 4h-15q-3 4 -3 17.5t4 14.5l68 -1q37 -1 128 3q3 -1 2.5 -15t-4.5 -18q-1 0 -11.5 -1t-19.5 -2t-20.5 -4t-17.5 -8t-27.5 -28.5t-46.5 -52.5t-36 -40l6 -7q6 -8 11.5 -14t14 -14.5t15.5 -14.5t14.5 -10.5t12.5 -4.5q7 0 14 3t12.5 7t12 11t10 11.5 t9 12t6.5 8.5q16 0 25 -18q-7 -20 -54.5 -69t-87.5 -49q-25 0 -47 10.5t-33.5 21t-29.5 31.5q-67 -64 -172 -64q-68 0 -124.5 44.5t-56.5 115.5q0 51 25 93t45.5 58t60.5 41l9 6q-2 3 -13.5 18.5t-16.5 24t-12.5 24.5t-11 33t-3.5 36q0 68 43 111.5t113 43.5z" />
<glyph unicode="'" horiz-adv-x="181" d="M106 711q28 0 38 -22q-13 -160 -23 -219q-8 -13 -26 -19q-7 0 -12 6q-3 7 -11.5 29t-12 31.5t-9.5 28t-9 30t-5.5 26t-2.5 25.5q0 34 21 59t52 25z" />
<glyph unicode="(" horiz-adv-x="291" d="M144 305q0 -152 47 -264.5t90 -150.5q1 -3 -2.5 -14t-6.5 -13q-33 15 -70 47t-77 84.5t-66 134t-26 176.5t26 176.5t66 134t77 84.5t70 47q3 -2 6.5 -13t2.5 -14q-43 -38 -90 -150.5t-47 -264.5z" />
<glyph unicode=")" horiz-adv-x="291" d="M258 305q0 -95 -26 -176.5t-66 -134t-77 -84.5t-70 -47q-3 2 -6.5 13t-2.5 14q43 38 90 150.5t47 264.5t-47 264.5t-90 150.5q-1 3 2.5 14t6.5 13q33 -15 70 -47t77 -84.5t66 -134t26 -176.5z" />
<glyph unicode="*" horiz-adv-x="441" d="M287 618q15 17 37 18.5t32 -10.5q13 -13 13.5 -31.5t-14.5 -37.5q-17 -19 -50.5 -29t-46.5 -22q-7 -8 -7 -13t8 -8q17 -8 50 -8.5t56 -10.5q21 -9 28.5 -29t0.5 -35q-8 -16 -26 -22t-40 2q-24 10 -44 39t-35 37q-1 1 -2.5 1.5l-6 2t-5.5 -0.5q-3 -1 -4 -8 q-2 -18 7.5 -49.5t6.5 -56.5q-2 -22 -18.5 -35.5t-32.5 -11.5q-18 3 -30 18.5t-10 37.5q3 26 24 54t24 45q1 10 -2 14q-1 2 -9 1q-17 -4 -44.5 -22t-52.5 -24q-22 -5 -39.5 6.5t-20.5 27.5q-2 18 8.5 34t32.5 21q25 6 58.5 -5.5t50.5 -9.5q12 1 13 6q1 3 -4 11q-9 16 -35 36 t-39 42q-11 21 -6 40.5t20 27.5q14 9 34 3t31 -25q13 -23 12.5 -57t6.5 -51q5 -10 10 -11q5 0 9 4q12 13 23 44t28 50z" />
<glyph unicode="+" horiz-adv-x="542" d="M241 474q13 11 42 11q16 0 16 -9l-1 -201h204q9 0 9 -14q0 -27 -14 -44h-198v-198q-17 -11 -47 -11q-11 0 -11 8v201h-204q-6 0 -6 16q0 27 10 42h199z" />
<glyph unicode="," horiz-adv-x="224" d="M119 139q22 0 44 -16q14 -26 14 -65q0 -68 -40.5 -127.5t-96.5 -87.5q-8 2 -14.5 10.5t-6.5 13.5q22 14 46.5 44t24.5 62q0 13 -12 23.5t-24 27t-12 44.5q0 21 18.5 46t58.5 25z" />
<glyph unicode="-" horiz-adv-x="375" d="M71 267q208 11 241 12q7 0 7 -9q0 -28 -15 -60q-20 -1 -241 -11q-7 0 -7 11q0 25 15 57z" />
<glyph unicode="." horiz-adv-x="234" d="M42 66q0 30 22 51.5t53 21.5t53 -23t22 -53t-21.5 -52t-52.5 -22q-32 0 -54 22.5t-22 54.5z" />
<glyph unicode="/" horiz-adv-x="422" d="M374 761q17 0 19 -8l-296 -767q-6 -21 -50 -21q-7 0 -11.5 1.5t-5.5 3.5l-1 2l296 767q11 22 49 22z" />
<glyph unicode="0" d="M250 583q-47 0 -70.5 -78t-23.5 -203q0 -115 27 -189t67 -74q45 0 65.5 79.5t20.5 209.5q0 119 -23 187t-63 68zM248 625q94 0 156 -84.5t62 -229.5q0 -130 -63.5 -222t-154.5 -92q-94 0 -158 84.5t-64 229.5q0 130 66 222t156 92z" />
<glyph unicode="1" d="M196 145v337q0 32 -4 42.5t-17 10.5q-8 0 -32.5 -7.5t-39.5 -15.5q-13 7 -13 19q0 11 2 12q49 21 107.5 46.5t89.5 39.5t32 14h2q9 0 12 -19q-9 -29 -9 -94v-385q0 -74 8 -94q6 -13 64 -18q4 -5 4 -18.5t-4 -18.5q-68 7 -136.5 7t-137.5 -7q-3 5 -3 18.5t3 18.5 q59 5 64 18q8 20 8 94z" />
<glyph unicode="2" d="M462 192q-3 -16 -12.5 -47.5t-18.5 -58.5t-18 -54.5t-11 -31.5h-364q-6 7 -8 18q14 16 43 47t44 48.5t38 44.5t42.5 54t40.5 59q58 92 58 178q0 48 -33 81.5t-75 33.5q-19 0 -37 -6.5t-31 -16.5t-22 -19t-16.5 -18.5t-7.5 -10.5q-6 0 -14 7t-8 17q8 16 24 35.5t40.5 40.5 t60.5 35t75 14q75 0 124.5 -45t49.5 -123q0 -85 -76 -174q-105 -122 -188 -198h172q10 0 18.5 1.5t16 6t13 7.5t11.5 10.5t9 11t8.5 14t6.5 12.5t6 13.5t5 12.5q3 7 14 7q13 0 20 -6z" />
<glyph unicode="3" d="M262 642q21 0 44.5 -6.5t48 -20t41 -40t16.5 -61.5q0 -54 -37.5 -91.5t-70.5 -50.5q16 -1 37.5 -8.5t48.5 -23t45 -47t18 -73.5q0 -100 -82 -163t-185 -63q-89 0 -135 37q-12 15 -12 43q0 20 14 36.5t38 16.5q4 0 8.5 -1t9 -3t7.5 -3.5t7.5 -6t7 -6t7 -7t6 -7t6 -7 t5.5 -6.5q38 -44 71 -44q46 0 70 37t24 105q0 59 -30 101.5t-79 42.5q-22 0 -55 -9q-9 11 -9 24q0 6 1 9q56 10 101.5 37.5t45.5 74.5t-25 78.5t-69 31.5q-35 0 -66 -19t-43 -33q-5 1 -8.5 10.5t-3.5 17.5q31 41 78.5 69.5t103.5 28.5z" />
<glyph unicode="4" d="M385 644q5 0 16 -10t11 -18v-374h45q14 0 14 -47q0 -7 -2.5 -12t-4.5 -7l-2 -2h-50v-170q-26 -9 -68 -9q-58 0 -58 13v166h-254q-11 6 -11 25q65 80 181 226.5t163 204.5q12 14 20 14zM286 466q-153 -196 -179 -224v0v0v0v0v0v0h1v0v0h1v0h1v0h1h1v0h1h1h1h1h1h1h1h1h1h1 h1h1h1h1h1h1h1h1h1h1h1h1h1h1h1h1h1h1h1h1h1h1h1h1h1h1h1h1h1h1h1h1h1h1h1h1h1h1h1h1h1h1h1h1h1h1h1h1h1h1h1h1h1h1h1h1h2h1h1h1h1h1h1h1h1h1h2h1h1h1h1h1h1h1h2h1h1h1h1h1h1h2h1h1h1h1h1h2h1h1h1h1h1h2h1h1h1h1h1h2h1h1h1h1h1h2h1h1h1h1h2h1h1h1h1h1h2h1h1h1h1h1h2h1h1h1h1 h1h1h2h1h1h1h1h1h1h1h2h1h1h1h1h9v224z" />
<glyph unicode="5" d="M250 423q76 0 138 -58t62 -135q0 -68 -39 -123t-98.5 -84t-124.5 -29q-44 0 -80.5 11.5t-53.5 25.5q-5 6 -8.5 20t-3.5 23q0 20 14 36.5t38 16.5q4 0 8 -1t8.5 -3t8 -3.5t8 -6t6.5 -6t7 -7t6 -7t6 -7t6 -6.5q37 -44 70 -44q47 0 70.5 37t23.5 105q0 64 -45 107t-93 43 q-56 0 -92 -14q-4 0 -7 7t-3 13q1 2 13 66t26 138t17 97h178q41 0 92 11q1 0 4 -1t3.5 -1.5t2.5 -2t3 -4t1 -5.5q0 -11 -14.5 -46t-23.5 -50q-61 -6 -150 -8q-32 -1 -66 -1l-24 -117q55 13 106 13z" />
<glyph unicode="6" d="M176 327q-6 -49 -6 -106q0 -34 4 -65t13.5 -59t26.5 -44.5t40 -16.5q29 0 48.5 40t19.5 106q0 71 -23 117.5t-73 46.5q-30 0 -50 -19zM270 405q81 0 132.5 -48t51.5 -150q0 -86 -65 -149.5t-147 -63.5q-83 0 -143.5 74.5t-60.5 173.5q0 77 33.5 146.5t82.5 122.5 q59 62 127 94t129 40q11 -8 8 -26q-177 -73 -230 -239q44 25 82 25z" />
<glyph unicode="7" d="M364 637q15 0 36 1t36.5 2t17.5 1q6 0 6 -15q0 -5 -26 -61l-272 -573q-4 -3 -18 -3q-11 0 -27.5 6t-16.5 18q32 45 121 212.5t157 310.5h-232q-17 0 -30.5 -7t-23 -21.5t-14 -25.5t-10.5 -30q-2 -5 -12 -6q-15 -1 -24 8q19 74 44 182z" />
<glyph unicode="8" d="M250 36q35 0 54.5 23.5t19.5 58.5q0 27 -11.5 52.5t-33.5 47.5t-34 32.5t-31 24.5q-7 5 -10 5q-4 0 -4 -1q-32 -39 -32 -123q0 -48 20.5 -84t61.5 -36zM242 592q-28 0 -45 -23t-17 -57q0 -45 28.5 -78t57.5 -48q8 -5 12 -5t6 3q22 32 22 102q0 39 -17 72.5t-47 33.5z M244 633q74 0 130 -38.5t56 -105.5q0 -44 -31.5 -79.5t-78.5 -55.5q-2 -1 -2 -2.5t2 -2.5q18 -11 37 -26t43.5 -38.5t40 -55t15.5 -62.5q0 -77 -65 -125t-149 -48q-41 0 -75.5 8.5t-65 26t-48 49.5t-17.5 75q0 57 38.5 97.5t89.5 55.5q3 1 -2 5q-2 2 -16 13.5t-21 18 t-20.5 20t-21 25t-16 27.5t-12 34t-3.5 37q0 63 58.5 105t133.5 42z" />
<glyph unicode="9" d="M316 312q6 34 6 106q0 34 -4 65t-13.5 59t-26.5 44.5t-40 16.5q-29 0 -48.5 -40t-19.5 -106q0 -71 23 -117.5t73 -46.5q30 0 50 19zM74 20q177 73 230 239q-44 -25 -82 -25q-81 0 -132.5 48t-51.5 150q0 86 65 149.5t147 63.5q83 0 143.5 -74.5t60.5 -173.5 q0 -77 -33.5 -146.5t-82.5 -122.5q-59 -62 -127 -94t-129 -40q-11 8 -8 26z" />
<glyph unicode=":" horiz-adv-x="262" d="M56 358q0 30 22 51.5t53 21.5t53 -23t22 -53t-21.5 -52t-52.5 -22q-32 0 -54 22.5t-22 54.5zM56 66q0 30 22 51.5t53 21.5t53 -23t22 -53t-21.5 -52t-52.5 -22q-32 0 -54 22.5t-22 54.5z" />
<glyph unicode=";" horiz-adv-x="254" d="M139 139q22 0 44 -16q14 -26 14 -65q0 -68 -40.5 -127.5t-96.5 -87.5q-8 2 -14.5 10.5t-6.5 13.5q22 14 46.5 44t24.5 62q0 13 -12 23.5t-24 27t-12 44.5q0 21 18.5 46t58.5 25zM49 359q0 30 22.5 51.5t53.5 21.5q30 0 50.5 -21.5t20.5 -51.5q0 -31 -20.5 -54.5 t-50.5 -23.5q-31 0 -53.5 23.5t-22.5 54.5z" />
<glyph unicode="&#x3c;" horiz-adv-x="495" d="M444 45q0 -8 -6 -34t-10 -26q-1 0 -5 2l-375 190q-18 10 -18 40q0 15 18 24l373 187q4 2 5 2q6 0 17 -57l-3 -9l-318 -155l319 -158q3 -1 3 -6z" />
<glyph unicode="=" horiz-adv-x="559" d="M477 134h-406q-5 2 -4 14t7 27.5t13 17.5h403q6 -2 6 -14t-6 -27t-13 -18zM477 278h-406q-5 2 -4 14t7 27.5t13 17.5h403q6 -2 6 -14t-6 -27t-13 -18z" />
<glyph unicode="&#x3e;" horiz-adv-x="495" d="M51 45l3 6l319 158l-318 155l-3 9q11 57 17 57q1 0 5 -2l373 -187q18 -9 18 -24q0 -30 -18 -40l-375 -190q-4 -2 -5 -2q-4 0 -10 26t-6 34z" />
<glyph unicode="?" horiz-adv-x="399" d="M67 66q0 31 21.5 52t50.5 21q32 0 53.5 -21t21.5 -52t-20.5 -54t-50.5 -23q-29 0 -52.5 22t-23.5 55zM116 518q-27 0 -44.5 20t-17.5 46q0 33 15 46q30 17 90 17q16 0 39 -4.5t53 -17.5t54.5 -32t42 -51t17.5 -71q0 -18 -3.5 -34t-13 -30t-15.5 -23t-23 -21.5 t-22.5 -16.5t-26 -16.5t-22.5 -13.5q-6 -4 -21.5 -13t-24 -14.5t-19.5 -14.5t-17 -18q-5 -7 -5 -42q-2 -5 -7 -11.5t-8 -6.5q-11 0 -23 12q-20 46 -20 100q0 39 21.5 64.5t58.5 49.5q106 70 106 110q0 18 -14.5 33t-39.5 15q-17 0 -52.5 -31t-57.5 -31z" />
<glyph unicode="@" horiz-adv-x="767" d="M446 578q140 0 213 -81.5t73 -206.5q0 -115 -67 -206t-154 -91q-41 0 -69.5 21.5t-28.5 64.5q0 18 4 29q-19 -37 -60 -75t-82 -38q-45 0 -71 26.5t-26 98.5q0 71 46.5 147t119 126t141.5 50q74 0 109 -13l-56 -303q-3 -12 -3 -25v-7v-8.5t0.5 -8.5t2 -9t4 -7t6.5 -5.5 t10 -1.5q41 0 85.5 70t44.5 158q0 111 -59.5 183t-182.5 72q-98 0 -180.5 -56t-127 -140t-44.5 -172q0 -83 38.5 -148t96.5 -99q35 -20 77 -27q0 -6 -14 -13t-26 -7q-22 0 -45 9q-73 27 -124 103t-51 177q0 73 30.5 147t82 133t127.5 96t160 37zM443 389q-60 0 -101 -75 t-41 -166q0 -54 40 -54q32 0 62 49t46 131l20 102q-12 13 -26 13z" />
<glyph unicode="A" horiz-adv-x="675" d="M94 134l213 490q5 11 17 24.5t20 13.5q16 0 21 -7l205 -507q7 -16 15.5 -39t12.5 -33q18 -43 79 -43q4 -7 4.5 -20.5t-2.5 -16.5q-9 0 -58.5 4t-75.5 4q-7 0 -151 -8q-4 4 -4 20.5t4 16.5q38 0 59 18q9 7 9 17q0 4 -15 42t-30 74l-15 36q-4 4 -7 4q-19 1 -96 1 q-69 0 -104 -1q-5 0 -7 -5q-25 -56 -36 -84q-22 -55 -22 -68q0 -17 30.5 -25.5t46.5 -8.5q4 -6 4 -19.5t-3 -17.5q-70 8 -108 8q-39 0 -109 -8q-3 3 -4 15.5t2 20.5q11 0 37 10.5t33 21.5q17 28 35 70zM295 476l-85 -196q0 -4 2 -4q30 -3 83 -3q49 0 80 2l3 5z" />
<glyph unicode="B" horiz-adv-x="619" d="M250 332v-223q0 -46 8 -58q9 -12 63 -12q41 0 73.5 33.5t32.5 103.5q0 65 -29.5 110.5t-95.5 45.5h-52zM250 371h52q39 0 62.5 30.5t23.5 85.5q0 133 -83 133q-45 0 -50 -12t-5 -61v-176zM334 660q51 0 94.5 -14.5t75.5 -51.5t32 -92q0 -52 -37 -88t-71 -48q-8 -3 -5 -6 q50 -6 105.5 -52.5t55.5 -115.5q0 -48 -28.5 -90.5t-76.5 -71.5q-28 -16 -66.5 -24t-65.5 -9t-76 0h-233q-3 5 -3.5 18.5t3.5 18.5q59 5 64 17q8 20 8 94v368q0 74 -8 94q-4 11 -64 16q-4 5 -3.5 18.5t3.5 18.5q45 -3 143 -3q19 0 70.5 1.5t82.5 1.5z" />
<glyph unicode="C" horiz-adv-x="674" d="M386 667q115 0 208 -19l17 -72t17 -79q0 -5 -8.5 -10t-17.5 -5q-10 0 -14 4q-5 19 -15.5 38.5t-31 44t-59 40t-87.5 15.5q-67 0 -112.5 -40t-64 -99t-18.5 -133q0 -82 21.5 -151t71.5 -116.5t122 -47.5q78 0 124 43q19 17 36 47.5t24.5 49.5t9.5 27q21 0 35 -12 q0 -14 -15.5 -81t-25.5 -71q-43 -16 -66.5 -23.5t-66.5 -15.5t-86 -8q-143 0 -243.5 94.5t-100.5 234.5q0 144 101.5 244.5t244.5 100.5z" />
<glyph unicode="D" horiz-adv-x="761" d="M250 547v-406q0 -59 8 -79q4 -10 23 -16.5t40 -6.5q122 0 180 70t58 216q0 143 -69.5 219t-184.5 76q-45 0 -50 -12t-5 -61zM334 660q175 0 279.5 -86t104.5 -238q0 -167 -109.5 -253t-281.5 -86h-289q-3 5 -3.5 18.5t3.5 18.5q59 5 64 17q8 20 8 94v368q0 74 -8 94 q-4 11 -64 16q-4 5 -3.5 18.5t3.5 18.5q45 -3 143 -3q24 0 78.5 1.5t74.5 1.5z" />
<glyph unicode="E" horiz-adv-x="602" d="M181 657q24 0 165.5 3.5t159.5 3.5q1 -10 29 -148q-5 -5 -23 -5q-13 0 -16 8q-19 49 -42.5 75t-65.5 26h-83q-45 0 -50 -12t-5 -61v-179q0 -11 43 -11h53q44 0 60 13t28 57q2 8 12 8q14 0 19 -5v-192q-4 -4 -18 -4q-12 0 -14 8q-13 51 -35 61q-17 7 -76 7q-72 0 -72 -14 v-155q0 -59 8 -79q9 -20 65 -20h66q60 0 93 33q29 29 54 95q2 6 14 6q24 0 30 -6q-49 -138 -54 -172q-449 0 -488 -1q-3 5 -3.5 18.5t3.5 18.5q59 5 64 17q8 20 8 94v368q0 74 -8 94q-4 11 -64 16q-4 5 -3.5 18.5t3.5 18.5q45 -3 143 -3z" />
<glyph unicode="F" horiz-adv-x="549" d="M181 657q24 0 165.5 3.5t159.5 3.5q1 -10 29 -148q-5 -5 -23 -5q-13 0 -16 8q-19 49 -42.5 75t-65.5 26h-83q-45 0 -50 -12t-5 -61v-183q0 -11 43 -11h53q44 0 60 13t28 57q2 8 12 8q14 0 19 -5v-192q-4 -4 -18 -4q-12 0 -14 8q-13 51 -35 61q-17 7 -76 7q-72 0 -72 -14 v-147q0 -74 8 -94q5 -13 73 -18q4 -5 3.5 -18.5t-3.5 -18.5q-68 7 -152 7q-73 0 -141 -7q-3 5 -3.5 18.5t3.5 18.5q59 5 64 18q8 20 8 94v368q0 74 -8 94q-4 11 -64 16q-4 5 -3.5 18.5t3.5 18.5q45 -3 143 -3z" />
<glyph unicode="G" horiz-adv-x="722" d="M499 183q0 33 -5 51q-8 27 -66 27q-4 0 -4.5 16.5t3.5 20.5q17 -1 48 -2.5t56.5 -2.5t48.5 -1q3 0 123 6q2 -6 2 -15t-1 -15.5t-2 -6.5q-8 0 -27 -4t-26 -9q-12 -8 -12 -43v-107q0 -5 3 -16t3 -13q0 -13 -35 -26q-131 -50 -224 -50q-143 0 -243.5 94.5t-100.5 234.5 q0 141 102 243t244 102q115 0 208 -19l17 -72q17 -72 17 -79q0 -5 -8.5 -10t-17.5 -5q-10 0 -14 4q-5 19 -15 38.5t-30.5 44t-58.5 40t-87 15.5q-53 0 -92.5 -23t-61.5 -63.5t-32.5 -88t-10.5 -102.5q0 -81 23 -150t72.5 -115t116.5 -46q42 0 78 16q9 4 9 15v116z" />
<glyph unicode="H" horiz-adv-x="741" d="M181 655q73 0 141 7q3 -5 3.5 -18.5t-3.5 -18.5q-59 -5 -64 -18q-8 -20 -8 -94v-142l2 -3q117 -3 121 -3q9 0 117 3q2 2 2 4l-1 141q0 74 -8 94q-5 13 -64 18q-4 5 -3.5 18.5t3.5 18.5q68 -7 143 -7q73 0 141 7q3 -5 3.5 -18.5t-3.5 -18.5q-59 -5 -64 -18q-8 -20 -8 -94 v-368q0 -74 8 -94q5 -13 64 -18q4 -5 3.5 -18.5t-3.5 -18.5q-68 7 -143 7q-73 0 -141 -7q-3 5 -3.5 18.5t3.5 18.5q59 5 64 18q8 20 8 94v165l-2 5q-74 2 -116 2q-116 0 -122 -4l-1 -4v-164q0 -74 8 -94q5 -13 64 -18q4 -5 3.5 -18.5t-3.5 -18.5q-68 7 -143 7q-73 0 -141 -7 q-3 5 -3.5 18.5t3.5 18.5q59 5 64 18q8 20 8 94v368q0 74 -8 94q-5 13 -64 18q-4 5 -3.5 18.5t3.5 18.5q68 -7 143 -7z" />
<glyph unicode="I" horiz-adv-x="360" d="M181 655q73 0 141 7q3 -5 3.5 -18.5t-3.5 -18.5q-59 -5 -64 -18q-8 -20 -8 -94v-368q0 -74 8 -94q5 -13 64 -18q4 -5 3.5 -18.5t-3.5 -18.5q-68 7 -143 7q-73 0 -141 -7q-3 5 -3.5 18.5t3.5 18.5q59 5 64 18q8 20 8 94v368q0 74 -8 94q-5 13 -64 18q-4 5 -3.5 18.5 t3.5 18.5q68 -7 143 -7z" />
<glyph unicode="J" horiz-adv-x="345" d="M175 655q73 0 141 7q3 -5 3.5 -18.5t-3.5 -18.5q-59 -5 -64 -18q-8 -20 -8 -94v-370q0 -170 -79.5 -265.5t-216.5 -95.5q-13 0 -31.5 6t-25.5 12q-16 25 -16 43q0 26 18 46.5t42 20.5q26 0 57 -33l8 -8l8.5 -8.5t7.5 -6.5t8 -6t7 -3.5t8 -1.5q15 0 26.5 9t18.5 30.5 t11 43.5t6 60.5t2.5 68t0.5 80.5v378q0 74 -8 94q-5 13 -64 18q-4 5 -3.5 18.5t3.5 18.5q68 -7 143 -7z" />
<glyph unicode="K" horiz-adv-x="719" d="M181 655q73 0 141 7q3 -5 3.5 -18.5t-3.5 -18.5q-59 -5 -64 -18q-8 -20 -8 -94v-176q70 56 104 91q11 11 31.5 32t29 29.5t22 23t24.5 28t23 29.5q10 13 10 33q0 23 -56 23q-4 6 -4 18t2 18l130 -7q59 0 124 7q2 -5 2 -18t-4 -17q-78 -9 -113 -44q-113 -115 -188 -194 q-7 -9 -3 -16l180 -243q21 -26 45 -46t43 -29t38 -14.5t27 -6.5t13 -1q3 -7 2 -20.5t-2 -16.5q-58 -4 -131 -4q-98 0 -153 75q-11 16 -44.5 60.5t-74.5 98.5t-57 76q-4 4 -10 4q-7 0 -10 -6v-155q0 -74 8 -94q5 -13 64 -18q4 -5 3.5 -18.5t-3.5 -18.5q-68 7 -143 7 q-73 0 -141 -7q-3 5 -3.5 18.5t3.5 18.5q59 5 64 18q8 20 8 94v368q0 74 -8 94q-5 13 -64 18q-4 5 -3.5 18.5t3.5 18.5q68 -7 143 -7z" />
<glyph unicode="L" horiz-adv-x="579" d="M250 141q0 -59 8 -79q9 -20 65 -20h66q60 0 93 33q29 29 54 95q2 6 14 6q24 0 30 -6q-49 -138 -54 -172h-345h-63.5t-54 -0.5t-25.5 -0.5q-3 5 -3.5 18.5t3.5 18.5q59 5 64 17q8 20 8 94v368q0 74 -8 94q-5 13 -64 18q-4 5 -3.5 18.5t3.5 18.5q68 -7 143 -7q73 0 141 7 q3 -5 3.5 -18.5t-3.5 -18.5q-59 -5 -64 -18q-8 -20 -8 -94v-372z" />
<glyph unicode="M" horiz-adv-x="907" d="M171 656q20 0 56.5 2.5t48.5 3.5q74 -162 189 -424q3 -2 4 -2q4 0 4 6q75 184 118 304l33 112q27 -3 108 -3q20 0 62.5 3t54.5 4q3 -3 5 -17.5t-1 -20.5q-36 0 -52 -11q-15 -11 -14 -41q1 -21 6.5 -183.5t8.5 -236.5q4 -78 13 -101q4 -9 27 -13.5t36 -4.5q8 -18 2 -37 q-8 0 -59 4t-77 4q-27 0 -87 -4t-70 -4q-3 3 -3.5 17t1.5 20q15 0 39.5 5t30.5 14q8 13 8 35q0 43 -1 61l-10 349q0 26 -7 26q-2 0 -5 -7l-176 -476q-3 -10 -17 -26t-26 -16q-3 0 -9 2l-223 523q-3 -79 -5 -151t-3.5 -120.5t-4.5 -117.5q-2 -47 4 -69q4 -13 38.5 -22.5 t48.5 -9.5q8 -18 2 -37q-12 1 -55.5 4.5t-68.5 3.5q-26 0 -67 -3.5t-58 -4.5q-3 5 -3 17t2 19q17 0 47.5 9.5t37.5 26.5q8 19 12 88q3 52 6.5 146t6.5 180.5t4 98.5q0 15 -5 22q-6 8 -28.5 15t-36.5 7q-4 7 -3 21t3 16q16 -1 49 -3.5t59 -2.5z" />
<glyph unicode="N" horiz-adv-x="760" d="M151 655q53 0 109 7q13 -27 51 -78.5t75.5 -97.5t100 -122.5t94.5 -115.5q2 7 2 41v187q0 104 -11 128q-5 12 -33.5 17t-47.5 5q-1 0 -2 7.5t-0.5 16.5t2.5 13q18 -1 57 -4.5t65 -3.5q25 0 70 3.5t56 4.5q7 -22 -2 -38q-74 0 -83 -23q-10 -28 -10 -123v-340q0 -36 4 -140 q-4 -4 -25 -4q-13 0 -31 23l-407 501v-362q0 -66 11 -97q4 -12 35.5 -19t46.5 -7q9 -16 2 -38q-11 1 -55.5 4.5t-70.5 3.5t-65 -3.5t-57 -4.5q-2 4 -2.5 13t0.5 16.5t2 7.5q16 0 45.5 7t34.5 19q12 26 12 101v354q0 64 -18 90q-6 9 -29.5 15t-36.5 6q-4 0 -5 16.5t3 20.5 q108 -7 113 -7z" />
<glyph unicode="O" horiz-adv-x="760" d="M356 624q-56 0 -92.5 -41.5t-50 -97.5t-13.5 -122q0 -61 11 -117t33.5 -105t63 -78.5t93.5 -29.5q56 0 93.5 41t51.5 96.5t14 121.5q0 61 -11.5 117t-34.5 105.5t-64 79.5t-94 30zM380 667q134 0 237 -100.5t103 -238.5t-103 -238t-237 -100t-237 100t-103 238t103 238.5 t237 100.5z" />
<glyph unicode="P" horiz-adv-x="585" d="M565 482q0 -86 -60.5 -140.5t-140.5 -54.5q-46 0 -69 23q-7 7 -7 25q0 7 3 7q13 -4 41 -4q37 0 60.5 36t23.5 94q0 62 -31 107t-80 45q-45 0 -50 -12t-5 -61v-402q0 -74 8 -94q5 -13 64 -18q4 -5 3.5 -18.5t-3.5 -18.5q-68 7 -143 7q-73 0 -141 -7q-3 5 -3.5 18.5 t3.5 18.5q59 5 64 18q8 20 8 94v368q0 74 -8 94q-4 11 -64 16q-4 5 -3.5 18.5t3.5 18.5q45 -3 143 -3q19 0 70.5 1.5t83.5 1.5q98 0 164 -47.5t66 -130.5z" />
<glyph unicode="Q" horiz-adv-x="760" d="M380 667q134 0 237 -100.5t103 -238.5q0 -110 -68 -198.5t-170 -122.5q23 -11 57.5 -30.5t51.5 -28t47.5 -15.5t66.5 -7q18 0 34 2t25.5 4t11.5 2q15 0 23 -13l2 -5q-45 -24 -103.5 -41.5t-101.5 -17.5q-48 0 -97 28t-102.5 65t-95.5 50q-111 29 -186 120.5t-75 207.5 q0 138 103 238.5t237 100.5zM356 624q-56 0 -92.5 -41.5t-50 -97.5t-13.5 -122q0 -61 11 -117t33.5 -105t63 -78.5t93.5 -29.5q56 0 93.5 41t51.5 96.5t14 121.5q0 61 -11.5 117t-34.5 105.5t-64 79.5t-94 30z" />
<glyph unicode="R" horiz-adv-x="693" d="M335 660q97 0 158 -47.5t61 -134.5q0 -56 -46.5 -103.5t-89.5 -58.5q32 -44 68.5 -90.5t56.5 -71.5l20 -24q21 -26 45 -46t43 -29t38 -14.5t27 -6.5t13 -1q3 -7 2 -20.5t-2 -16.5q-58 -4 -131 -4q-98 0 -153 75l-162 217q-10 15 -18 15h-15v-154q0 -74 8 -94 q5 -13 64 -18q4 -5 3.5 -18.5t-3.5 -18.5q-68 7 -143 7q-73 0 -141 -7q-3 5 -3.5 18.5t3.5 18.5q59 5 64 18q8 20 8 94v368q0 74 -8 94q-4 11 -64 16q-4 5 -3.5 18.5t3.5 18.5q45 -3 143 -3q19 0 70.5 1.5t83.5 1.5zM405 468q0 152 -100 152q-45 0 -50 -12t-5 -61v-209h46 q44 0 76.5 37t32.5 93z" />
<glyph unicode="S" horiz-adv-x="521" d="M267 670q21 0 44 -3t38 -6t44 -9.5t42 -9.5q6 -63 11 -166q-4 -6 -11 -6q-28 0 -30 7q-7 51 -44 101t-89 50q-35 0 -60 -20.5t-25 -66.5q0 -22 12.5 -44t38.5 -45t44.5 -36.5t49.5 -34.5q4 -3 20 -13.5t21 -14t19.5 -14t20 -16t17.5 -17t17 -20.5l12.5 -22.5t11 -26 t6 -29t2.5 -33.5q0 -80 -66 -132.5t-152 -52.5q-79 0 -190 26q-17 76 -24 170q3 4 14 9t15 5q12 0 13 -8q8 -50 54.5 -105t107.5 -55q42 0 69.5 23.5t27.5 73.5q0 13 -5 26.5t-11 24t-18 23.5t-20.5 21t-25 20.5t-23.5 17.5t-24.5 16.5t-20.5 13.5q-35 23 -45 30t-36.5 29.5 t-36 38.5t-19 42.5t-9.5 56.5q0 75 66.5 128t146.5 53z" />
<glyph unicode="T" horiz-adv-x="634" d="M483 657q43 0 72.5 9.5t31.5 9.5q6 0 12 -3l27 -184q-7 -7 -29 -7q-9 0 -10 5q-8 50 -39 88t-68 38h-93v-468q0 -74 8 -94q5 -13 64 -18q4 -5 3.5 -18.5t-3.5 -18.5q-68 7 -143 7q-73 0 -141 -7q-3 5 -3.5 18.5t3.5 18.5q59 5 64 18q8 20 8 94v468h-93q-37 0 -68 -38 t-39 -88q-1 -5 -10 -5q-22 0 -29 7l27 184q6 3 12 3q2 0 31.5 -9.5t72.5 -9.5h332z" />
<glyph unicode="U" horiz-adv-x="730" d="M165 655q73 0 141 7q3 -5 3.5 -18.5t-3.5 -18.5q-59 -5 -64 -18q-8 -20 -8 -94v-183q0 -113 25 -171q41 -96 152 -96q67 0 114.5 62t47.5 184v170q0 87 -14 122q-8 19 -75 24q-4 5 -3.5 18.5t3.5 18.5q82 -7 125 -7q25 0 65 3t52 4q3 -5 3.5 -18.5t-3.5 -18.5 q-70 -5 -77 -24q-14 -35 -14 -121v-194q0 -145 -78.5 -220t-195.5 -75q-141 0 -211 88q-56 70 -56 222v212q0 74 -8 94q-5 13 -64 18q-4 5 -3.5 18.5t3.5 18.5q68 -7 143 -7z" />
<glyph unicode="V" horiz-adv-x="684" d="M140 655q73 0 141 7q3 -5 3.5 -18.5t-3.5 -18.5q-61 -5 -61 -27q0 -19 24 -75l149 -337q122 307 132 335q22 64 22 80q0 18 -80 24q-4 5 -3.5 18.5t3.5 18.5q82 -7 119 -7q25 0 62 3t50 4q3 -5 3.5 -18.5t-3.5 -18.5q-60 -5 -70 -18q-13 -18 -41 -83 q-47 -115 -114 -273.5t-93 -220.5q-6 -13 -22.5 -27t-25.5 -14q-4 0 -6 1.5t-4.5 6t-3.5 6.5l-218 507q-22 52 -35 82q-13 29 -68 33q-4 5 -3.5 18.5t3.5 18.5q68 -7 143 -7z" />
<glyph unicode="W" horiz-adv-x="951" d="M141 655q73 0 141 7q3 -5 3.5 -18.5t-3.5 -18.5q-61 -5 -61 -27q0 -12 24 -75l98 -272q109 309 133 374q14 37 31 37q6 0 12 -16l171 -432q88 275 98 307q20 65 20 80q0 18 -78 24q-4 5 -3.5 18.5t3.5 18.5q82 -7 119 -7q25 0 62 3t50 4q3 -5 3.5 -18.5t-3.5 -18.5 q-60 -5 -70 -18q-26 -34 -41 -83q-22 -66 -164 -484q-7 -19 -19 -35t-21 -16t-19 14l-165 415q-78 -230 -127 -374q-20 -55 -35 -55q-9 0 -19 14l-180 507q-5 16 -35 82q-13 29 -68 33q-4 6 -3.5 19t3.5 18q68 -7 143 -7z" />
<glyph unicode="X" horiz-adv-x="710" d="M176 656q24 0 144 6q2 -4 1.5 -20.5t-3.5 -16.5q-15 0 -33.5 -5.5t-19.5 -15.5q0 -10 8 -22l111 -168q14 18 47.5 58.5t54.5 68.5t28 43q3 6 3 10q0 12 -23.5 21.5t-50.5 9.5q-4 0 -4.5 16.5t3.5 20.5q61 -7 133 -7q69 0 120 7q3 -5 3 -21t-4 -16q-67 0 -112 -53 l-171 -203q172 -260 201 -293q19 -23 50 -33t49 -10q3 -7 3.5 -19t-3.5 -18q-120 6 -160 6q-33 0 -91 -3t-67 -3q-4 4 -3 20.5t5 16.5q13 0 34.5 8t21.5 20q0 7 -3 11l-133 201q-121 -161 -138 -190q-8 -13 -8 -17q0 -16 27.5 -24.5t55.5 -8.5q9 -13 3 -37q-99 6 -132 6 q-8 0 -128 -6q-4 4 -4 18t4 19q11 0 25.5 2t42 13t41.5 31l178 243l-140 215q-44 66 -54 73q-21 15 -68 15q-4 0 -4 16.5t4 20.5q147 -6 156 -6z" />
<glyph unicode="Y" horiz-adv-x="624" d="M233 145v139q0 10 -5 20q-11 24 -42.5 82.5t-57.5 104.5l-26 46q-17 31 -31 55q-17 29 -68 33q-4 5 -3.5 18.5t3.5 18.5q68 -7 143 -7q73 0 141 7q3 -5 3.5 -18.5t-3.5 -18.5q-61 -5 -61 -27q0 -4 7 -16l120 -221q1 -1 5 4.5t10.5 16t15 24.5t18.5 31.5t19.5 35.5t20 37 t19.5 35.5t18 32.5q5 10 5 23q0 18 -74 24q-4 5 -3.5 18.5t3.5 18.5q82 -7 113 -7q25 0 62 3t50 4q3 -5 3.5 -18.5t-3.5 -18.5q-61 -5 -74 -25q-20 -29 -91.5 -146t-90.5 -156q-6 -14 -6 -19v-134q0 -74 8 -94q5 -13 64 -18q4 -5 3.5 -18.5t-3.5 -18.5q-68 7 -143 7 q-73 0 -141 -7q-3 5 -3.5 18.5t3.5 18.5q59 5 64 18q8 20 8 94z" />
<glyph unicode="Z" horiz-adv-x="640" d="M233 610q-19 0 -36 -4t-28 -8t-22.5 -15.5t-17 -16.5t-13.5 -22.5t-10 -21.5t-9.5 -25t-8.5 -23q-2 -6 -13 -6q-24 0 -29 5q4 19 11.5 57t14 71t10.5 61q28 -7 131 -7l140 1q110 1 232 10q3 -1 6.5 -13t3.5 -20l-389 -586h216q60 0 95 35q32 32 53 88q2 6 14 6 q24 0 30 -6q-5 -16 -27 -80t-27 -89l-514 -1q-6 0 -13 4.5t-11 10t-2 7.5l396 588h-183z" />
<glyph unicode="[" horiz-adv-x="309" d="M94 770q123 0 205 16q6 0 6 -9t-4 -17t-6 -9q-13 -7 -34 -12t-47 -9.5t-32 -5.5v-800q6 -1 32 -5.5t47 -9.5t34 -12q2 -1 6 -9t4 -17t-6 -9q-82 16 -205 16q-19 1 -19 23v846q0 22 19 23z" />
<glyph unicode="\" horiz-adv-x="419" d="M27 755q5 6 19 6q32 0 38 -16q306 -765 306 -771q-1 -3 -9.5 -6.5t-18.5 -3.5q-22 0 -30 18q-59 149 -159.5 404.5t-145.5 368.5z" />
<glyph unicode="]" horiz-adv-x="309" d="M215 770q19 -1 19 -23v-846q0 -22 -19 -23q-123 0 -205 -16q-6 0 -6 9t4 17t6 9q13 7 34 12t47 9.5t32 5.5v800q-6 1 -32 5.5t-47 9.5t-34 12q-2 1 -6 9t-4 17t6 9q82 -16 205 -16z" />
<glyph unicode="^" horiz-adv-x="391" d="M186 669q12 0 20 -14q15 -26 40.5 -72t44 -77t42.5 -69q0 -8 -6 -13t-13 -5q-26 24 -58 58.5t-51 56.5l-19 22q-70 -83 -128 -137q-7 0 -13.5 5t-6.5 13q38 58 129 218q8 14 19 14z" />
<glyph unicode="_" horiz-adv-x="493" d="M8 -33q5 46 15 46h449q4 0 4 -5q0 -8 -10 -45q-1 -3 -2.5 -4.5t-2.5 -1.5h-1h-445q-7 0 -7 10z" />
<glyph unicode="`" horiz-adv-x="249" d="M44 658q0 9 11.5 19t34.5 10q25 0 34 -9q17 -20 40 -53t38 -57.5t15 -27.5q0 -5 -6 -11.5t-11 -6.5q-13 0 -84.5 55.5t-71.5 80.5z" />
<glyph unicode="a" horiz-adv-x="472" d="M227 62q17 0 29 7.5t12 13.5v140q-3 -2 -28.5 -13t-37.5 -19q-38 -24 -36 -67q1 -30 20 -46t41 -16zM248 449q63 0 106.5 -43t43.5 -110v-187q0 -41 24 -41q9 0 29 10q7 -4 7 -17q0 -8 -4 -15q-56 -52 -103 -52q-24 0 -46.5 15.5t-29.5 34.5q-12 -11 -51 -31.5t-62 -20.5 q-55 0 -93 38t-38 84q0 28 15.5 51t36.5 29q17 5 51 18t75 29t59 23v21v26q0 39 -17 69.5t-42 30.5q-26 0 -37.5 -21t-20.5 -63q-10 -44 -56 -44q-21 0 -36.5 14t-15.5 34q0 17 14 41q19 19 76.5 48t114.5 29z" />
<glyph unicode="b" horiz-adv-x="542" d="M243 -8q-29 0 -72.5 11.5t-53.5 11.5q-21 0 -37 -7q-3 0 -13.5 10t-10.5 15q12 31 12 119v406q0 31 -7 48q-3 8 -25 13t-35 5q-2 0 -3 7t0 15t3 10q31 3 62.5 8t53.5 10t39.5 10t27.5 8l10 3q4 -1 9 -7t6 -10q-11 -45 -11 -101v-162v-5t0.5 -5.5t2 -3.5t3.5 1 q59 47 99 47q88 0 148 -60.5t60 -152.5q0 -113 -81 -178.5t-187 -65.5zM253 375q-32 0 -52 -22q-3 -3 -3 -9v-246q0 -26 18 -44t48 -18q45 0 74 50t29 110q0 179 -114 179z" />
<glyph unicode="c" horiz-adv-x="447" d="M413 382q0 -23 -16 -42.5t-42 -19.5q-8 0 -15 2.5t-13.5 8.5t-11 10t-11.5 12.5t-9 11.5q-28 31 -68 31q-31 0 -50.5 -44t-19.5 -94q0 -96 43.5 -139.5t100.5 -43.5q66 0 112 50q12 -3 12 -18t-3 -19q-20 -31 -69.5 -64t-111.5 -33q-88 0 -149 57t-61 152 q0 93 79.5 170.5t181.5 77.5q73 0 101 -18q20 -22 20 -48z" />
<glyph unicode="d" horiz-adv-x="547" d="M294 446q24 0 40 -2q5 0 5 23v91q0 31 -7 48q-3 8 -25 13t-35 5q-2 0 -3 7t0 15t3 10q31 3 62.5 8t53.5 10t39.5 10t27.5 8l10 3q4 -1 9 -7t6 -10q-11 -45 -11 -101v-469q0 -28 9 -38t45 -10q3 -3 3 -13t-6 -19q-26 -3 -66 -11.5t-70.5 -16t-35.5 -7.5q-9 0 -9 24v16 q0 7 -3 5q-67 -46 -123 -46q-73 0 -127 60.5t-54 147.5q0 49 18.5 91t47.5 69.5t64.5 47.5t69 29t62.5 9zM261 395q-45 0 -66 -43t-21 -109q0 -83 27.5 -135t73.5 -52q20 0 42 13.5t22 23.5v257q0 15 -24 30t-54 15z" />
<glyph unicode="e" horiz-adv-x="460" d="M163 282q7 -1 59 2.5t70 5.5q13 1 13 16q0 40 -15 70t-46 30q-27 0 -46.5 -25t-27 -51.5t-7.5 -47.5zM162 242q0 -49 15 -84.5t38.5 -52t45 -23.5t41.5 -7q66 0 112 50q12 -3 12 -18t-3 -19q-20 -31 -69.5 -64t-111.5 -33q-88 0 -149 57t-61 152t68 171t154 76 q88 0 131.5 -48.5t43.5 -102.5q0 -17 -8 -29t-19 -13q-90 -8 -240 -12z" />
<glyph unicode="f" horiz-adv-x="355" d="M306 698q29 0 64 -10q39 -21 39 -46q0 -27 -14 -48t-37 -21q-11 0 -21 4t-16 8.5t-15.5 13.5t-13.5 12q-18 15 -40 15q-12 0 -21 -23.5t-9 -58.5q0 -54 4 -116h117q6 0 6 -13q0 -7 -7.5 -18t-15.5 -16h-97v-236q0 -74 8 -94q5 -13 64 -18q4 -5 3.5 -18.5t-3.5 -18.5 q-68 7 -137 7t-137 -7q-3 5 -3.5 18.5t3.5 18.5q59 5 64 18q8 20 8 94v236h-71q-5 2 -5 13q13 18 32 34h44v15q0 96 72.5 175.5t134.5 79.5z" />
<glyph unicode="g" horiz-adv-x="478" d="M215 406q-18 0 -30 -8.5t-17 -25t-6.5 -30.5t-1.5 -35q0 -49 17.5 -85.5t53.5 -36.5q18 0 29.5 8t15.5 26.5t5 30t1 35.5q0 49 -15.5 85t-51.5 36zM260 -14h-110q-16 -18 -16 -44q0 -49 33 -76.5t87 -27.5q64 0 91 25.5t27 57.5q0 31 -31 48t-81 17zM326 96 q62 -3 97.5 -40t35.5 -70q0 -88 -81 -146t-187 -58q-74 0 -120.5 32t-46.5 83q0 27 26.5 54t58.5 43q-25 7 -42.5 36.5t-17.5 61.5q0 13 25.5 34t57.5 39q-43 17 -68 51.5t-25 77.5q0 62 52.5 105.5t128.5 43.5q70 0 107 -25q3 -3 6 -3l125 12q11 -4 11 -11q0 -6 -9 -25.5 t-16 -24.5q-19 2 -56 6q-6 0 -6 -3q21 -29 21 -70q0 -63 -52 -107t-129 -44q-25 0 -52 5q-24 -20 -24 -31t14.5 -18t33.5 -7q114 0 132 -1z" />
<glyph unicode="h" horiz-adv-x="583" d="M367 446q81 0 108.5 -54.5t27.5 -181.5v-65q0 -74 8 -94q5 -13 64 -18q4 -5 3.5 -18.5t-3.5 -18.5q-68 7 -137 7q-57 0 -125 -7q-3 5 -3.5 18.5t3.5 18.5q46 4 52 18q8 20 8 94v79q0 141 -67 141q-29 0 -58.5 -20t-29.5 -36v-164q0 -74 8 -94q5 -14 57 -18 q4 -5 3.5 -18.5t-3.5 -18.5q-68 7 -130 7q-69 0 -137 -7q-3 5 -3.5 18.5t3.5 18.5q59 5 64 18q8 20 8 94v413q0 31 -7 48q-3 8 -25 13t-35 5q-2 0 -3 7t0 15t3 10q31 3 62.5 8t53.5 10t39.5 10t27.5 8l10 3q4 -1 9 -7t6 -10q-11 -62 -11 -102v-204q0 -5 1 -6q2 0 7 5 q23 26 66 50.5t75 24.5z" />
<glyph unicode="i" horiz-adv-x="315" d="M231 309v-164q0 -74 8 -94q5 -14 57 -18q4 -5 3.5 -18.5t-3.5 -18.5q-68 7 -130 7q-69 0 -137 -7q-3 5 -3.5 18.5t3.5 18.5q59 5 64 18q8 20 8 94v115q0 65 -9 82q-5 10 -28 15t-35 5q-3 2 -3 16.5t4 14.5q52 4 106.5 20t88.5 33q5 -1 11 -7.5t6 -9.5q-7 -20 -10 -57 q-1 -22 -1 -63zM84 616q0 30 21 51t51 21t51.5 -21t21.5 -51t-21.5 -51t-51.5 -21t-51 21t-21 51z" />
<glyph unicode="j" horiz-adv-x="286" d="M89 64v196q0 65 -9 82q-5 10 -28 15t-35 5q-3 2 -3 16.5t4 14.5q52 4 106.5 20t88.5 33q5 -1 11 -7.5t6 -9.5q-7 -20 -10 -57q-1 -22 -1 -63v-189q0 -152 -48 -222q-33 -47 -86.5 -81.5t-82.5 -34.5q-14 8 -14 17q0 6 1 7q5 2 12.5 7.5t24 25t29.5 46t23.5 74t10.5 105.5 zM72 616q0 31 21.5 52.5t52.5 21.5t52.5 -21.5t21.5 -52.5t-21.5 -52.5t-52.5 -21.5t-52.5 21.5t-21.5 52.5z" />
<glyph unicode="k" horiz-adv-x="590" d="M218 145q0 -74 8 -94q5 -13 64 -18q4 -5 3.5 -18.5t-3.5 -18.5q-68 7 -137 7t-137 -7q-3 5 -3.5 18.5t3.5 18.5q59 5 64 18q8 20 8 94v413q0 31 -7 48q-3 8 -25 13t-35 5q-2 0 -3 7t0 15t3 10q31 3 62.5 8t53.5 10t39.5 10t27.5 8l10 3q4 -1 9 -7t6 -10q-11 -62 -11 -102 l-1 -340q26 9 75 51q88 75 88 96q0 8 -23 14.5t-41 7.5q-2 7 -2 20t4 14q89 -4 131 -4q16 0 33 1t39.5 2t38.5 2q4 -8 3 -20.5t-6 -14.5q-63 -6 -99 -31q-9 -7 -27.5 -23.5t-49.5 -45t-55 -49.5q41 -48 83 -93.5t59 -64.5q26 -29 49 -43t36 -16.5t34 -2.5q8 -14 0 -30 q-32 -12 -101 -12q-86 0 -137 59q-69 74 -118 135l-13 13v-56z" />
<glyph unicode="l" horiz-adv-x="306" d="M88 558q0 31 -7 48q-3 8 -25 13t-35 5q-2 0 -3 7t0 15t3 10q31 3 62.5 8t53.5 10t39.5 10t27.5 8l10 3q4 -1 9 -7t6 -10q-11 -62 -11 -102v-431q0 -74 8 -94q5 -13 64 -18q4 -5 3.5 -18.5t-3.5 -18.5q-68 7 -137 7t-137 -7q-3 5 -3.5 18.5t3.5 18.5q59 5 64 18q8 20 8 94 v413z" />
<glyph unicode="m" horiz-adv-x="883" d="M380 446q49 0 77 -19.5t46 -66.5q35 34 83 60t81 26q81 0 108.5 -54.5t27.5 -181.5v-65q0 -74 8 -94q5 -13 64 -18q4 -5 3.5 -18.5t-3.5 -18.5q-68 7 -137 7q-57 0 -125 -7q-3 5 -3.5 18.5t3.5 18.5q46 4 52 18q8 20 8 94v79q0 141 -67 141q-29 0 -61.5 -19.5 t-32.5 -35.5v-6q4 -56 4 -94v-65q0 -74 8 -94q5 -14 62 -18q4 -5 3.5 -18.5t-3.5 -18.5q-68 7 -135 7q-59 0 -127 -7q-3 5 -3.5 18.5t3.5 18.5q49 4 54 18q8 20 8 94v79q0 141 -67 141q-29 0 -58.5 -20t-29.5 -36v-164q0 -74 8 -94q5 -14 57 -18q4 -5 3.5 -18.5t-3.5 -18.5 q-68 7 -130 7q-69 0 -137 -7q-3 5 -3.5 18.5t3.5 18.5q59 5 64 18q8 20 8 94v115q0 65 -9 82q-5 10 -28 15t-35 5q-3 2 -3 16.5t4 14.5q52 4 106.5 20t88.5 33q5 -1 11 -7.5t6 -9.5q-2 -6 -6.5 -31t-3.5 -26q0 -5 1 -6q2 0 7 5q23 27 65.5 51t74.5 24z" />
<glyph unicode="n" horiz-adv-x="596" d="M380 446q81 0 108.5 -54.5t27.5 -181.5v-65q0 -74 8 -94q5 -13 64 -18q4 -5 3.5 -18.5t-3.5 -18.5q-68 7 -137 7q-57 0 -125 -7q-3 5 -3.5 18.5t3.5 18.5q46 4 52 18q8 20 8 94v79q0 141 -67 141q-29 0 -58.5 -20t-29.5 -36v-164q0 -74 8 -94q5 -14 57 -18 q4 -5 3.5 -18.5t-3.5 -18.5q-68 7 -130 7q-69 0 -137 -7q-3 5 -3.5 18.5t3.5 18.5q59 5 64 18q8 20 8 94v115q0 65 -9 82q-5 10 -28 15t-35 5q-3 2 -3 16.5t4 14.5q52 4 106.5 20t88.5 33q4 0 10.5 -6.5t6.5 -10.5q-10 -40 -10 -57q0 -5 1 -6q2 0 7 5q23 27 65.5 51t74.5 24 z" />
<glyph unicode="o" horiz-adv-x="532" d="M254 406q-26 0 -43 -15t-24.5 -43t-10 -53t-2.5 -58q0 -77 26.5 -139.5t76.5 -62.5q81 0 81 167q0 77 -27 140.5t-77 63.5zM265 447q103 0 169 -63t66 -159q0 -95 -67.5 -163.5t-165.5 -68.5q-103 0 -169 64t-66 160q0 95 67.5 162.5t165.5 67.5z" />
<glyph unicode="p" horiz-adv-x="553" d="M325 448q87 0 141.5 -63.5t54.5 -150.5q0 -73 -39 -130t-94 -84.5t-112 -27.5q-12 0 -25.5 2t-22.5 4.5t-10 2.5q-3 0 -3 -16v-54q0 -74 8 -94q5 -13 64 -18q4 -5 3.5 -18.5t-3.5 -18.5q-68 7 -137 7t-137 -7q-3 5 -3.5 18.5t3.5 18.5q59 5 64 18q8 20 8 94v329 q0 65 -9 82q-5 10 -28 15t-35 5q-3 2 -3 16.5t4 14.5q52 4 106.5 20t88.5 33q5 -1 11 -7.5t6 -9.5q-9 -27 -9 -34q2 -5 4 -6q23 25 52.5 42t51.5 17zM270 375q-17 0 -30.5 -6t-19 -12.5t-5.5 -9.5v-251q0 -28 20 -44t48 -16q31 0 62.5 42.5t31.5 120.5q0 176 -107 176z" />
<glyph unicode="q" horiz-adv-x="534" d="M262 394q-48 0 -68 -44t-20 -107q0 -46 9 -86t33 -70.5t60 -30.5q16 0 31 5.5t22 10.5t7 8v264q0 7 -7 17.5t-25 21.5t-42 11zM300 446q20 0 62 -11.5t56 -11.5q15 0 36 7q5 -2 14.5 -11t9.5 -14q-12 -29 -12 -114v-360q0 -74 8 -94q5 -13 64 -18q4 -5 3.5 -18.5 t-3.5 -18.5q-68 7 -137 7t-137 -7q-3 5 -3.5 18.5t3.5 18.5q59 5 64 18q8 20 8 94v86v5t-0.5 5.5t-2 3.5t-3.5 -1q-16 -12 -49.5 -25t-64.5 -13q-75 0 -129.5 59.5t-54.5 140.5q0 112 83 183t185 71z" />
<glyph unicode="r" horiz-adv-x="449" d="M363 447q45 0 63 -17q11 -16 11 -49q0 -27 -18 -53t-42 -26q-5 0 -10 1.5t-10 4.5t-8 5.5t-8 7t-7 6.5t-5.5 5t-5 5t-5 4.5t-6 3.5t-6.5 2t-8 1q-27 0 -47 -30t-20 -51v-122q0 -74 8 -94q5 -13 74 -18q4 -5 3.5 -18.5t-3.5 -18.5q-68 7 -147 7q-69 0 -137 -7 q-3 5 -3.5 18.5t3.5 18.5q59 5 64 18q8 20 8 94v115q0 65 -9 82q-5 10 -28 15t-35 5q-3 2 -3 16.5t4 14.5q52 4 106.5 20t88.5 33q5 -1 11 -7.5t6 -9.5q-2 -6 -6 -37t-4 -42q0 -3 2.5 -4t3.5 1q56 100 125 100z" />
<glyph unicode="s" horiz-adv-x="404" d="M224 448q21 0 39.5 -2.5t42.5 -9t30 -7.5q21 -89 21 -123q0 -7 -18 -7q-7 0 -19 8q-22 101 -106 101q-26 0 -41.5 -14t-15.5 -40q0 -15 5.5 -26.5t18.5 -21t22.5 -15t29 -14t26.5 -12.5q59 -30 78 -50q30 -33 30 -85q0 -70 -55.5 -104t-141.5 -34q-30 0 -117 21 q-8 46 -8 130q0 7 15 7q17 0 22 -10q9 -59 40 -83.5t68 -24.5q25 0 41 16t16 38q0 18 -11 32t-21.5 21t-36 19t-34.5 17q-52 28 -79 58t-27 77q0 68 58 103t128 35z" />
<glyph unicode="t" horiz-adv-x="342" d="M212 428h114q6 0 6 -13q0 -7 -7.5 -18t-15.5 -16h-97v-248q0 -76 54 -76q29 0 53 24q7 -7 7 -14q0 -11 -8 -19q-50 -55 -106 -55q-54 0 -92 34.5t-38 111.5v242h-71q-5 2 -5 13q13 18 32 34h44v53q23 19 63.5 62t41.5 44q8 5 16 5t9 -5v-159z" />
<glyph unicode="u" horiz-adv-x="566" d="M356 260q0 63 -10 82q-5 10 -27.5 15t-34.5 5q-3 2 -3 16.5t3 14.5q52 4 107.5 20t88.5 33q5 -1 10.5 -7.5t5.5 -9.5q-7 -20 -10 -57v-63v-201q0 -29 8 -38q9 -10 46 -10q2 -2 2 -13q0 -10 -6 -19q-26 -3 -66 -11.5t-70.5 -16t-35.5 -7.5q-8 0 -8 24v16q0 2 -1 4t-3 1 q-63 -43 -140 -43q-68 0 -98 50t-30 129v86q0 63 -10 82q-5 10 -27.5 15t-34.5 5q-3 2 -3 16.5t3 14.5q52 4 107.5 20t88.5 33q5 -1 10.5 -7.5t5.5 -9.5q-7 -20 -10 -57v-63v-90q0 -84 17 -123.5t61 -39.5q21 0 42.5 13t21.5 24v167z" />
<glyph unicode="v" horiz-adv-x="533" d="M135 436q68 0 126 7q4 -4 4 -18.5t-4 -18.5q-14 0 -36.5 -8t-22.5 -19q0 -10 2 -15l103 -197q46 101 79 175q11 22 11 37q0 11 -17.5 18t-30.5 8t-23 1q-4 4 -4 18t3 19q53 -7 105 -7t104 7q3 -4 3.5 -18t-3.5 -19q-10 0 -23.5 -2t-32.5 -10t-25 -21l-154 -328 q-29 -56 -45 -56q-4 0 -12 8q-19 38 -80 165t-99 206q-8 19 -29.5 28.5t-33.5 9.5q-4 6 -3.5 19t3.5 18q61 -7 135 -7z" />
<glyph unicode="w" horiz-adv-x="789" d="M128 436q75 0 133 7q4 -4 4 -18.5t-4 -18.5q-14 0 -36.5 -8t-22.5 -19q0 -10 2 -15l97 -192q66 148 66 163t-9 33q-10 19 -31 28.5t-32 9.5q-5 7 -4.5 19.5t3.5 17.5q36 -4 135 -7q68 0 126 7q4 -4 4 -18.5t-4 -18.5q-14 0 -36.5 -8t-22.5 -19q0 -10 2 -15l84 -184 q36 89 68 162q11 28 11 37q0 11 -17.5 18t-30.5 8t-23 1q-4 4 -4 18t3 19q53 -7 105 -7q42 0 95 7q3 -4 3.5 -18t-3.5 -19q-55 0 -68 -31q-80 -185 -147 -331q-12 -26 -27 -40.5t-23 -14.5q-4 0 -12 8q-78 201 -111 279l-99 -232q-11 -26 -26 -40.5t-24 -14.5q-4 0 -12 8 q-126 269 -177 371q-9 19 -30 28.5t-33 9.5q-4 6 -3.5 19t3.5 18q61 -7 128 -7z" />
<glyph unicode="x" horiz-adv-x="558" d="M155 436q68 0 126 7q4 -4 4 -18.5t-4 -18.5q-14 0 -31 -5.5t-17 -16.5q0 -2 10 -14l64 -82q77 82 77 91q0 11 -17.5 18t-30.5 8t-23 1q-4 4 -4 18t3 19q52 -7 105 -7q69 0 121 7q3 -4 3.5 -18t-3.5 -19q-52 0 -83 -32q-39 -41 -115 -128q24 -31 68.5 -87t73.5 -93 q13 -17 34.5 -25t32.5 -8q5 -7 4.5 -19.5t-3.5 -17.5q-35 4 -139 7q-69 0 -127 -7q-4 4 -4 18t4 19q14 0 31 5.5t17 16.5q0 1 -10 14l-71 87q-7 -8 -24 -25.5t-30.5 -31.5t-20.5 -24q-8 -11 -8 -15q0 -11 17.5 -18t30.5 -8t23 -1q4 -4 4 -18t-3 -19q-52 7 -105 7 q-75 0 -127 -7q-3 4 -3.5 18t3.5 19q16 0 42 9t42 25q22 21 41.5 41.5t43 46t41.5 44.5q-18 24 -42 57t-44.5 60t-44.5 58q-13 17 -35 24.5t-34 7.5q-5 7 -4.5 19.5t3.5 17.5q35 -4 138 -7z" />
<glyph unicode="y" horiz-adv-x="534" d="M135 436q68 0 126 7q4 -4 4 -18.5t-4 -18.5q-14 0 -36.5 -8t-22.5 -19q0 -10 2 -15l103 -197q46 101 79 175q11 22 11 37q0 11 -17.5 18t-30.5 8t-23 1q-4 4 -4 18t3 19q53 -7 105 -7t104 7q3 -4 3.5 -18t-3.5 -19q-10 0 -23.5 -2t-32.5 -10t-25 -21q-102 -216 -165 -348 q-5 -10 -20 -42.5t-21 -44t-19 -33t-28 -40.5q-66 -83 -127 -83q-30 0 -48.5 16t-18.5 37q0 31 23 47q65 0 100.5 15t64.5 63q15 25 35 71l-166 337q-8 19 -29.5 28.5t-33.5 9.5q-4 6 -3.5 19t3.5 18q61 -7 135 -7z" />
<glyph unicode="z" horiz-adv-x="460" d="M150 428h138q63 0 129 8q3 -5 3 -24l-243 -366h114q41 0 69.5 33t35.5 68q1 7 13 7q15 0 25 -10l-40 -144h-355q-10 8 -10 17t4 17l224 347q-72 1 -104 1q-18 0 -32 -9t-24 -26t-14.5 -28.5t-10.5 -30.5q-2 -7 -23 -7q-12 0 -12 4q14 73 18 149q59 -6 95 -6z" />
<glyph unicode="{" horiz-adv-x="298" d="M107 424q0 25 -17 80q-10 36 -10 62q0 70 69 130t116 64q3 0 7 -10.5t0 -15.5q-28 -15 -53 -48.5t-25 -76.5q0 -29 16 -75q12 -34 12 -75q0 -59 -45.5 -105t-78.5 -46q33 0 78.5 -46t45.5 -105q0 -41 -12 -75q-16 -46 -16 -75q0 -43 25 -76.5t53 -48.5q4 -5 0 -15.5 t-7 -10.5q-47 4 -116 64t-69 130q0 32 14 76q13 46 13 66q0 37 -26.5 65.5t-61.5 39.5q-3 3 -3 11t3 11q35 11 61.5 39.5t26.5 65.5z" />
<glyph unicode="|" horiz-adv-x="202" d="M127 -108q0 -5 -21 -10t-27 -5q-5 0 -5 8v872q-1 6 5 8q17 5 39 5q4 0 6 -1.5t2 -2.5v-2z" />
<glyph unicode="}" horiz-adv-x="299" d="M34 760q47 -4 116 -64t69 -130q0 -28 -12 -68q-15 -51 -15 -74q0 -37 26.5 -65.5t61.5 -39.5q3 -3 3 -11t-3 -11q-35 -11 -61.5 -39.5t-26.5 -65.5q0 -29 13 -68q14 -44 14 -74q0 -70 -69 -130t-116 -64q-3 0 -7 10.5t0 15.5q28 15 53 48.5t25 76.5q0 32 -15 73 q-13 32 -13 77q0 59 45.5 105t78.5 46q-33 0 -78.5 46t-45.5 105q0 42 17 87q11 28 11 63q0 43 -25 76.5t-53 48.5q-4 5 0 15.5t7 10.5z" />
<glyph unicode="~" horiz-adv-x="550" d="M261 273q-3 1 -17.5 7t-19.5 8t-18.5 6.5t-22 6.5t-20 3.5t-22.5 1.5q-26 0 -50 -15.5t-36 -31.5q-5 2 -7 8q0 31 40 65t83 34q45 0 124 -34q80 -33 120 -33q26 0 50 15.5t36 31.5q5 -2 7 -8q0 -31 -40 -65t-83 -34q-11 0 -23.5 2t-21 3.5t-22.5 6.5t-19.5 7t-20 8 t-17.5 7z" />
<glyph unicode="&#xa1;" horiz-adv-x="247" d="M49 369q0 30 21.5 52t52.5 22q32 0 54 -22.5t22 -54.5q0 -30 -22 -51.5t-53 -21.5t-53 23t-22 53zM120 -210q-25 0 -43.5 18.5t-18.5 49.5q0 20 16 151.5t26 201.5q7 22 20 26q13 0 23 -17q10 -61 26.5 -194.5t16.5 -168.5q0 -31 -19 -49t-47 -18z" />
<glyph unicode="&#xa2;" horiz-adv-x="482" d="M281 481q35 0 35 -8l-83 -511q-31 0 -35 9zM425 382q0 26 -20 48q-28 18 -101 18q-102 0 -181.5 -77.5t-79.5 -170.5q0 -95 61 -152t149 -57q62 0 111.5 33t69.5 64q3 4 3 19t-12 18q-46 -50 -112 -50q-57 0 -100.5 43.5t-43.5 139.5q0 50 19.5 94t50.5 44q40 0 68 -31 q2 -3 9 -11.5t11.5 -12.5t11 -10t13.5 -8.5t15 -2.5q26 0 42 19.5t16 42.5z" />
<glyph unicode="&#xa3;" horiz-adv-x="478" d="M316 636q36 0 71 -22q9 -9 9 -32q0 -26 -14 -42.5t-35 -16.5q-31 0 -51 26q-25 31 -43 31q-49 0 -49 -121q0 -39 20 -94.5t20 -81.5q0 -50 -23 -94t-48 -67q27 15 65 15q17 0 56 -21.5t67 -21.5q13 0 23.5 4.5t18.5 14t11 14t8 14.5q7 4 16 -7q5 -6 5 -19 q-14 -39 -49 -81t-86 -42q-33 0 -82 29.5t-87 29.5q-9 0 -21 -7.5t-20 -14.5t-21 -20l-15 -15q-6 0 -11 7.5t-5 14.5q0 8 3.5 17t10.5 18.5t12 16t13.5 15.5t10.5 11q34 38 34 138q0 28 -15.5 84.5t-15.5 67.5q0 98 71.5 175t145.5 77zM67 349h316q8 -10 2.5 -23.5 t-12.5 -18.5h-326q-5 5 4 23.5t16 18.5z" />
<glyph unicode="&#xa4;" horiz-adv-x="563" d="M288 160q37 0 59 38t22 96q0 68 -28 115t-67 47q-37 0 -60.5 -40t-23.5 -97q0 -68 29 -113.5t69 -45.5zM393 455l59 55q4 4 12.5 -2t17 -18t11.5 -24l-60 -56q29 -48 29 -103q0 -59 -33 -108l54 -58q4 -4 -2 -12.5t-18 -17t-24 -11.5l-52 55q-48 -35 -106 -35 q-64 0 -114 40l-53 -50q-4 -4 -12.5 2t-17 18t-11.5 24l54 51q-30 47 -30 102q0 65 38 116l-52 56q-4 4 2 12.5t18 17t24 11.5l52 -55q45 31 102 31q63 0 112 -41z" />
<glyph unicode="&#xa5;" horiz-adv-x="692" d="M182 191h316q8 -10 2.5 -23.5t-12.5 -18.5h-326q-5 5 4 23.5t16 18.5zM182 271h316q8 -10 2.5 -23.5t-12.5 -18.5h-326q-5 5 4 23.5t16 18.5zM261 145v119q0 8 -3 16q-9 21 -41 80.5t-59 108.5l-28 49q-17 31 -31 55q-17 29 -68 33q-4 5 -3.5 18.5t3.5 18.5q68 -7 143 -7 q73 0 141 7q3 -5 3.5 -18.5t-3.5 -18.5q-61 -5 -61 -27q0 -4 7 -16l120 -221q1 -1 5 4.5t10.5 16t15 24.5t18.5 31.5t19.5 35.5t20 37t19.5 35.5t18 32.5q5 10 5 23q0 18 -74 24q-4 5 -3.5 18.5t3.5 18.5q82 -7 113 -7q25 0 62 3t50 4q3 -5 3.5 -18.5t-3.5 -18.5 q-61 -5 -74 -25q-25 -38 -94.5 -151.5t-87.5 -151.5q-5 -12 -5 -19l-1 -114q0 -74 8 -94q5 -13 64 -18q4 -5 3.5 -18.5t-3.5 -18.5q-68 7 -143 7q-73 0 -141 -7q-3 5 -3.5 18.5t3.5 18.5q59 5 64 18q8 20 8 94z" />
<glyph unicode="&#xa6;" horiz-adv-x="210" d="M132 400q0 -5 -21 -10t-27 -5q-5 0 -5 8v364q-1 6 5 8q17 5 40 5q4 0 6 -1.5t2 -2.5v-2v-364zM79 -115v364q-1 6 5 8q17 5 40 5q4 0 6 -1.5t2 -2.5v-2v-364q0 -5 -21 -10t-27 -5q-5 0 -5 8z" />
<glyph unicode="&#xa7;" horiz-adv-x="467" d="M321 653q-81 0 -138.5 -52t-57.5 -115q0 -19 6.5 -37.5t24 -39t26 -30t35.5 -33.5t30 -26q35 -33 55 -54.5t39 -59t19 -76.5q0 -30 -9 -48.5t-30 -44.5q-21 -22 -28 -40q-3 -2 -2.5 -15.5t0.5 -15.5q38 26 89 95.5t51 122.5q0 33 -8 60t-29.5 54t-35.5 41t-47 45 q-128 117 -128 165q0 26 24 40t52 14q24 0 39 -13q22 -20 41 -20q39 0 39 40q0 16 -7 30q-30 13 -50 13zM146 -92q-22 0 -50 14q-7 12 -7 26q0 43 40 43q21 0 43 -22q11 -11 36 -11q28 0 52 14t24 40q0 48 -128 165q-33 31 -47 45t-35.5 41t-29.5 54t-8 60q0 53 51 122.5 t89 95.5q0 -2 0.5 -15.5t-2.5 -15.5q-3 -8 -10 -18t-12 -16l-6 -7q-22 -27 -30.5 -44.5t-8.5 -47.5q0 -39 19 -76.5t39 -59t55 -54.5q3 -2 30 -26t35.5 -33.5t26 -30t24 -39t6.5 -37.5q0 -63 -57.5 -115t-138.5 -52z" />
<glyph unicode="&#xa8;" horiz-adv-x="407" d="M308 581q29 0 48.5 -19.5t19.5 -47.5t-20 -48t-48 -20t-48 20t-20 48t19.5 47.5t48.5 19.5zM97 581q29 0 48.5 -19.5t19.5 -47.5t-19.5 -48t-48.5 -20q-28 0 -47.5 19.5t-19.5 48.5q0 28 19 47.5t48 19.5z" />
<glyph unicode="&#xa9;" horiz-adv-x="653" d="M441 252q0 -6 -6.5 -34t-10.5 -29q-6 -2 -20 -7.5t-23.5 -9t-24 -6.5t-27.5 -3q-65 0 -105 38.5t-40 103.5t44.5 107.5t104.5 42.5q10 0 87 -16q0 -1 4 -16t7 -29.5t3 -16.5q0 -1 -5.5 -3.5t-9.5 -2.5q-5 0 -6 1q-14 57 -77 57q-40 0 -60 -35t-20 -84q0 -52 22 -87 t63 -35q33 0 52 17q17 16 29 51q15 0 19 -4zM98 310q0 -94 67 -161t161 -67t161 67t67 161t-67 161t-161 67t-161 -67t-67 -161zM53 311q0 113 80 193t193 80t193.5 -80t80.5 -193t-80.5 -193t-193.5 -80t-193 80t-80 193z" />
<glyph unicode="&#xaa;" horiz-adv-x="387" d="M186 296q10 0 19.5 5.5t9.5 9.5v88q-39 -14 -49 -20q-25 -15 -25 -42q1 -20 14.5 -30.5t30.5 -10.5zM201 557q46 0 77.5 -30t31.5 -75v-125q0 -25 18 -25q4 0 9 2t9 4.5t5 2.5q7 -2 7 -14q0 -6 -4 -12q-40 -36 -78 -36q-18 0 -34.5 9.5t-21.5 21.5q-10 -7 -37 -19.5 t-44 -12.5q-40 0 -68 25.5t-28 56.5q0 18 11.5 34t26.5 22q101 37 134 49v10v18q0 26 -12 45t-30 19q-19 0 -27.5 -13t-14.5 -41q-8 -29 -41 -29q-15 0 -26.5 9t-11.5 23t10 29q13 13 55.5 32.5t83.5 19.5z" />
<glyph unicode="&#xab;" horiz-adv-x="502" d="M213 248q0 8 7 15q27 16 52.5 33.5t45.5 32.5t38 29t31 25.5t22 20t14.5 14t6.5 5.5q6 -1 15 -6.5t12 -12.5q-3 -4 -27.5 -34t-57 -68t-49.5 -54q17 -16 49.5 -54t57 -68t27.5 -34q-3 -7 -12 -12.5t-15 -6.5q-1 0 -6.5 5.5t-14.5 14t-22 20t-31 25.5t-38 29t-45.5 32.5 t-52.5 33.5q-7 7 -7 15zM26 248q0 8 7 15q27 16 52.5 33.5t45.5 32.5t38 29t31 25.5t22 20t14.5 14t6.5 5.5q6 -1 15 -6.5t12 -12.5q-3 -4 -27.5 -34t-57 -68t-49.5 -54q17 -16 49.5 -54t57 -68t27.5 -34q-3 -7 -12 -12.5t-15 -6.5q-1 0 -6.5 5.5t-14.5 14t-22 20t-31 25.5 t-38 29t-45.5 32.5t-52.5 33.5q-7 7 -7 15z" />
<glyph unicode="&#xac;" horiz-adv-x="589" d="M520 420v-251q-1 -1 -10.5 -3t-24 -4t-24.5 -2q-4 0 -7.5 2t-4.5 4l-1 1v195h-396q-6 0 -6 10q5 48 15 48h459z" />
<glyph unicode="&#xad;" horiz-adv-x="375" d="M71 267q208 11 241 12q7 0 7 -9q0 -28 -15 -60q-20 -1 -241 -11q-7 0 -7 11q0 25 15 57z" />
<glyph unicode="&#xae;" horiz-adv-x="653" d="M325 501q39 0 65.5 -19.5t26.5 -54.5q0 -22 -21.5 -41t-39.5 -24q13 -17 28.5 -35.5t24.5 -28.5l9 -10q33 -37 57 -37v-17q-24 -2 -45 -2q-38 0 -66 36l-60 81q-4 6 -7 6h-6v-60q0 -29 3 -37t26 -8q2 -2 2 -8t-2 -8q-24 3 -58 3q-35 0 -59 -3q-1 2 -1 8t1 8q23 0 26 8 t3 37v146q0 29 -3 37q-2 6 -26 6q-1 2 -1 9t1 8q18 -1 60 -1q8 0 28.5 0.5t33.5 0.5zM355 424q0 25 -11 41.5t-31 16.5q-18 0 -20 -4q-2 -5 -2 -25v-79h16q20 0 34 13.5t14 36.5zM98 361q0 -95 67 -161.5t161 -66.5t161 66.5t67 161.5t-67 161.5t-161 66.5t-161 -66.5 t-67 -161.5zM53 362q0 113 80 193t193 80t193.5 -80t80.5 -193t-80.5 -193t-193.5 -80t-193 80t-80 193z" />
<glyph unicode="&#xaf;" horiz-adv-x="469" d="M562 556q0 41 12 41h215q5 0 5 -7q0 -14 -6 -36q-1 -3 -2.5 -4.5t-3.5 -1.5l-1 -1h-213l-4 2q-2 3 -2 7z" />
<glyph unicode="&#xb0;" horiz-adv-x="290" d="M81 537q0 -27 18.5 -46.5t45.5 -19.5t46 19.5t19 46.5t-19 46t-46 19t-45.5 -19t-18.5 -46zM34 537q0 46 32.5 78t78.5 32t78.5 -32t32.5 -78t-32.5 -79t-78.5 -33t-78.5 33t-32.5 79z" />
<glyph unicode="&#xb1;" horiz-adv-x="582" d="M61 67h461q9 0 9 -14q0 -25 -15 -44h-460q-6 0 -6 16q0 25 11 42zM61 364h199v199q13 11 42 11q16 0 16 -9v-201h204q9 0 9 -14q0 -25 -15 -44h-198v-198q-16 -11 -47 -11q-11 0 -11 8v201h-204q-6 0 -6 16q0 26 11 42z" />
<glyph unicode="&#xb2;" horiz-adv-x="352" d="M310 382q-17 -70 -38 -128h-227q-3 4 -7 14q68 75 119 141q47 60 47 116q0 29 -18.5 46.5t-45.5 17.5q-15 0 -29 -7t-21 -15t-14 -17l-7 -10q-16 0 -16 14q13 27 48.5 57.5t81.5 30.5q54 0 85 -26.5t31 -77.5q0 -60 -81 -135q-51 -46 -95 -78h112q7 0 13.5 3t10.5 6 t8.5 10.5t6.5 11t6 13t5 11.5q2 5 11 5q10 0 14 -3z" />
<glyph unicode="&#xb3;" horiz-adv-x="338" d="M179 642q34 0 65 -21.5t31 -62.5q0 -40 -23.5 -58t-49.5 -23q28 -1 65 -26.5t37 -73.5q0 -62 -55 -97t-121 -35q-58 0 -83 21q-9 14 -9 27t8.5 24t23.5 11q20 0 40 -31q16 -25 45 -25q61 0 61 82q0 35 -21 62t-51 27q-22 0 -32 -3q-6 9 -6 15q0 8 2 12q33 4 61 21t28 50 q0 25 -16.5 41.5t-43.5 16.5q-21 0 -39 -12t-25 -21q-5 1 -10 5.5t-4 11.5q19 24 53.5 43t68.5 19z" />
<glyph unicode="&#xb4;" horiz-adv-x="236" d="M155 687q23 0 34.5 -10t11.5 -19q0 -25 -71.5 -80.5t-84.5 -55.5q-5 0 -11 6.5t-6 11.5q0 3 15 27.5t38 57.5t40 53q9 9 34 9z" />
<glyph unicode="&#xb5;" horiz-adv-x="521" d="M241 220q6 -40 25 -73t53 -33q44 0 79 32t35 71q-7 56 -7 112q0 17 -2 93q15 24 30 24q10 0 46 -15.5t36 -24.5q0 -20 -26 -124q-4 -16 -12 -43.5t-12 -43.5q-1 -91 52 -91q38 0 69 53q4 0 10 -10.5t8 -17.5q2 -8 -2 -20q-38 -113 -81 -113q-34 1 -56.5 37.5t-29.5 88.5 q-16 -57 -46 -93.5t-70 -36.5q-36 0 -69 48t-39 97q0 -4 2 -47t5 -88.5t8.5 -104.5t13.5 -100q-5 -7 -17.5 -15.5t-24.5 -8.5q-14 0 -37.5 21t-23.5 31q0 24 8.5 174t16.5 217q0 12 -8 82.5t-8 81.5q0 32 3 44q8 22 25 22q10 0 44.5 -15.5t34.5 -24.5q0 -33 -14 -98 q-5 -23 -11.5 -53t-7.5 -35z" />
<glyph unicode="&#xb6;" horiz-adv-x="529" d="M355 338v260q-5 5 -29 5q-22 0 -28 -6v-264q50 0 57 5zM354 292q-4 0 -16 -1t-22.5 -2t-17.5 -1v-170q0 -52 5 -66q2 -5 23 -5t22 4q6 13 6 61v180zM404 299v-182q0 -43 5 -57q4 -12 31.5 -19t41.5 -7q9 -16 2 -38q-126 7 -156 7q-12 0 -156 -7q-2 4 -2.5 13t0.5 16.5 t2 7.5q14 0 39.5 7t30.5 19q6 13 6 57v171q-99 0 -157 47t-58 135q0 49 18.5 86.5t48.5 57.5t62 29.5t65 9.5q29 0 54 -2t54 -2l120 5q4 -4 3.5 -19.5t-4.5 -17.5q-13 0 -28 -6t-18 -14q-3 -10 -3 -64v-188l49 13q4 0 4 -10q-1 -8 -9.5 -22t-13.5 -16q-19 -8 -31 -10z" />
<glyph unicode="&#xb7;" horiz-adv-x="241" d="M47 265q0 30 21.5 51.5t52.5 21.5q30 0 51.5 -21.5t21.5 -51.5t-20.5 -53t-50.5 -23q-31 0 -53.5 23t-22.5 53z" />
<glyph unicode="&#xb8;" horiz-adv-x="454" d="M233 -25q16 2 22 2q20 0 35 -14.5t15 -34.5q0 -36 -26 -60t-71 -24q-32 0 -48 16q-4 6 -4 20q0 7 3 7q30 -15 48 -15q44 0 44 30q0 33 -26 33q-9 0 -26 -7q-3 0 -8 5.5t-5 9.5q18 30 28 55h32q-8 -14 -13 -23z" />
<glyph unicode="&#xb9;" horiz-adv-x="291" d="M114 511q0 47 -19 47q-10 0 -45 -16q-4 1 -7.5 7.5t-3.5 12.5t1 7q31 13 70 31t62 29.5t24 11.5h1q3 0 9 -8.5t7 -11.5q-12 -44 -12 -85v-190q0 -45 10 -55q5 -6 22.5 -9.5t24.5 -3.5q1 0 1 -12.5t-1 -13.5q-96 4 -100 4q-6 0 -102 -4q-2 2 -2 14t2 12q8 0 25.5 4.5 t22.5 9.5q3 4 6.5 24.5t3.5 30.5v164z" />
<glyph unicode="&#xba;" horiz-adv-x="406" d="M194 523q-25 0 -38.5 -19t-16 -39.5t-2.5 -51.5q0 -50 18.5 -90.5t55.5 -40.5q58 0 58 108q0 50 -19 91.5t-56 41.5zM202 553q74 0 121.5 -42.5t47.5 -105.5q0 -64 -48.5 -109t-119.5 -45q-74 0 -121 42.5t-47 106.5q0 63 48.5 108t118.5 45z" />
<glyph unicode="&#xbb;" horiz-adv-x="502" d="M289 248q0 -8 -7 -15q-27 -16 -52.5 -33.5t-45.5 -32.5t-38 -29t-31 -25.5t-22 -20t-14.5 -14t-6.5 -5.5q-6 1 -15 6.5t-12 12.5q3 4 27.5 34t57 68t49.5 54q-17 16 -49.5 54t-57 68t-27.5 34q3 7 12 12.5t15 6.5q1 0 6.5 -5.5t14.5 -14t22 -20t31 -25.5t38 -29 t45.5 -32.5t52.5 -33.5q7 -7 7 -15zM476 248q0 -8 -7 -15q-27 -16 -52.5 -33.5t-45.5 -32.5t-38 -29t-31 -25.5t-22 -20t-14.5 -14t-6.5 -5.5q-6 1 -15 6.5t-12 12.5q3 4 27.5 34t57 68t49.5 54q-17 16 -49.5 54t-57 68t-27.5 34q3 7 12 12.5t15 6.5q1 0 6.5 -5.5t14.5 -14 t22 -20t31 -25.5t38 -29t45.5 -32.5t52.5 -33.5q7 -7 7 -15z" />
<glyph unicode="&#xbc;" horiz-adv-x="737" d="M644 386q4 0 12 -6t8 -13v-229h25q19 -18 10 -46h-35v-90q-20 -5 -47 -5q-40 0 -40 8v87h-153q-12 5 -12 17q18 21 219 269q6 8 13 8zM577 138v124q-13 -15 -55 -66.5t-47 -57.5v0v0v0v0h1v0h1h1v0h1h1h1h1h1h1h1h1h1h1h1h1h1h1h1h1h1h1h1h1h1h1h1h1h1h1h1h1h1h1h1h1h1h1 h1h1h1h1h1h1h1h1h1h1h1h1h2h1h1h1h1h1h1h1h1h2h1h1h1h1h1h1h1h2h1h1h1h1h1h1h2h1h1h1h1h1h1h1h2h1h1h1h1h1h10zM194 536v-190q0 -45 10 -55q5 -6 22.5 -9.5t24.5 -3.5q1 0 1 -12.5t-1 -13.5q-96 4 -100 4q-6 0 -102 -4q-2 2 -2 14t2 12q8 0 25.5 4.5t22.5 9.5q3 4 6.5 24.5 t3.5 30.5v164q0 47 -19 47q-10 0 -45 -16q-3 1 -7 13.5t-3 13.5q31 13 70 31t62.5 29.5t24.5 11.5q15 -17 16 -20q-12 -44 -12 -85zM219 -34q-7 -1 -11 1t-5 5l-1 3l345 688q10 15 36 21q16 4 18 -7l-345 -688q-2 -6 -13.5 -13t-23.5 -10z" />
<glyph unicode="&#xbd;" horiz-adv-x="748" d="M587 386q54 0 85 -26.5t31 -77.5q0 -60 -81 -135q-51 -46 -95 -78h112q7 0 13.5 3t10.5 6t8.5 10.5t6.5 11t6 13t5 11.5q2 5 11 5q10 0 14 -3q-17 -70 -38 -128h-227q-3 4 -7 14q68 75 119 141q47 60 47 116q0 29 -18.5 46.5t-45.5 17.5q-15 0 -29 -7t-21 -15t-14 -17 l-7 -10q-16 0 -16 14q13 27 48.5 57.5t81.5 30.5zM195 536v-190q0 -45 10 -55q5 -6 22.5 -9.5t24.5 -3.5q1 0 1 -12.5t-1 -13.5q-96 4 -100 4q-6 0 -102 -4q-2 2 -2 14t2 12q8 0 25.5 4.5t22.5 9.5q3 4 6.5 24.5t3.5 30.5v164q0 47 -19 47q-10 0 -45 -16q-4 1 -8 11.5 t-2 15.5q31 13 70 31t62.5 29.5t24.5 11.5q14 -14 16 -20q-12 -44 -12 -85zM580 677l-345 -688q-2 -6 -13.5 -13t-23.5 -10q-7 -1 -11 1t-5 5l-1 3l345 688q10 15 36 21q16 4 18 -7z" />
<glyph unicode="&#xbe;" horiz-adv-x="740" d="M647 386q4 0 12 -6t8 -13v-229h25q19 -18 10 -46h-35v-90q-20 -5 -47 -5q-40 0 -40 8v87h-153q-12 5 -12 17q17 21 219 269q6 8 13 8zM580 138v124q-13 -15 -55 -66.5t-47 -57.5v0v0v0v0h1v0h1h1v0h1h1h1h1h1h1h1h1h1h1h1h1h1h1h1h1h1h1h1h1h1h1h1h1h1h1h1h1h1h1h1h1h1h1 h1h1h1h1h1h1h1h1h1h1h1h1h2h1h1h1h1h1h1h1h1h2h1h1h1h1h1h1h1h2h1h1h1h1h1h1h2h1h1h1h1h1h1h1h2h1h1h1h1h1h10zM177 642q34 0 65 -21.5t31 -62.5q0 -40 -23.5 -58t-49.5 -23q28 -1 65 -26.5t37 -73.5q0 -62 -55 -97t-121 -35q-58 0 -83 21q-9 14 -9 27t8.5 24t23.5 11 q20 0 40 -31q16 -25 45 -25q61 0 61 82q0 35 -21 62t-51 27q-22 0 -32 -3q-6 9 -6 15q0 8 2 12q33 4 61 21t28 50q0 25 -16.5 41.5t-43.5 16.5q-21 0 -39 -12t-25 -21q-5 1 -10 5.5t-4 11.5q19 24 53.5 43t68.5 19zM614 677l-345 -688q-2 -6 -13.5 -13t-23.5 -10 q-7 -1 -11 1t-5 5l-1 3l345 688q10 15 36 21q16 4 18 -7z" />
<glyph unicode="&#xbf;" horiz-adv-x="388" d="M330 367q0 -31 -21.5 -52t-50.5 -21q-32 0 -53.5 21t-21.5 52t20.5 54t50.5 23q29 0 52.5 -22t23.5 -55zM283 225q20 -46 20 -100q0 -39 -21.5 -64.5t-58.5 -49.5q-106 -70 -106 -110q0 -18 14.5 -33t39.5 -15q17 0 52.5 31t57.5 31q27 0 44.5 -20t17.5 -46 q0 -33 -15 -46q-30 -17 -90 -17q-16 0 -39 4.5t-53 17.5t-54.5 32t-42 51t-17.5 71q0 18 3.5 34t13 30t15.5 23t23 21.5t22.5 16.5t26 16.5t22.5 13.5q6 4 21.5 13t24 14.5t19.5 14.5t17 18q5 7 5 42q2 5 7 11.5t8 6.5q11 0 23 -12z" />
<glyph unicode="&#xc0;" horiz-adv-x="675" d="M383 748q0 -5 -4.5 -12.5t-9.5 -7.5q-18 0 -99 39.5t-81 63.5q0 19 19 28.5t37 9.5q10 0 18 -4q33 -25 76.5 -68t43.5 -49zM94 134l213 490q5 11 17 24.5t20 13.5q16 0 21 -7l205 -507q7 -16 15.5 -39t12.5 -33q18 -43 79 -43q4 -7 4.5 -20.5t-2.5 -16.5q-9 0 -58.5 4 t-75.5 4q-7 0 -151 -8q-4 4 -4 20.5t4 16.5q38 0 59 18q9 7 9 17q0 4 -15 42t-30 74l-15 36q-4 4 -7 4q-19 1 -96 1q-69 0 -104 -1q-5 0 -7 -5q-25 -56 -36 -84q-22 -55 -22 -68q0 -17 30.5 -25.5t46.5 -8.5q4 -6 4 -19.5t-3 -17.5q-70 8 -108 8q-39 0 -109 -8q-3 3 -4 15.5 t2 20.5q11 0 37 10.5t33 21.5q17 28 35 70zM295 476l-85 -196q0 -4 2 -4q30 -3 83 -3q49 0 80 2l3 5z" />
<glyph unicode="&#xc1;" horiz-adv-x="675" d="M289 748q0 6 43.5 49t76.5 68q8 4 18 4q18 0 37 -9.5t19 -28.5q0 -24 -81 -63.5t-99 -39.5q-5 0 -9.5 7.5t-4.5 12.5zM94 134l213 490q5 11 17 24.5t20 13.5q16 0 21 -7l205 -507q7 -16 15.5 -39t12.5 -33q18 -43 79 -43q4 -7 4.5 -20.5t-2.5 -16.5q-9 0 -58.5 4t-75.5 4 q-7 0 -151 -8q-4 4 -4 20.5t4 16.5q38 0 59 18q9 7 9 17q0 4 -15 42t-30 74l-15 36q-4 4 -7 4q-19 1 -96 1q-69 0 -104 -1q-5 0 -7 -5q-25 -56 -36 -84q-22 -55 -22 -68q0 -17 30.5 -25.5t46.5 -8.5q4 -6 4 -19.5t-3 -17.5q-70 8 -108 8q-39 0 -109 -8q-3 3 -4 15.5t2 20.5 q11 0 37 10.5t33 21.5q17 28 35 70zM295 476l-85 -196q0 -4 2 -4q30 -3 83 -3q49 0 80 2l3 5z" />
<glyph unicode="&#xc2;" horiz-adv-x="675" d="M468 730q-10 2 -54 24t-66 36q-22 -14 -65 -35.5t-55 -24.5q-10 5 -10 17q11 8 72 65q13 12 45 48q8 10 13 10q3 0 13 -10q24 -26 42 -44q56 -55 75 -69q0 -14 -10 -17zM94 134l213 490q5 11 17 24.5t20 13.5q16 0 21 -7l205 -507q7 -16 15.5 -39t12.5 -33q18 -43 79 -43 q4 -7 4.5 -20.5t-2.5 -16.5q-9 0 -58.5 4t-75.5 4q-7 0 -151 -8q-4 4 -4 20.5t4 16.5q38 0 59 18q9 7 9 17q0 4 -15 42t-30 74l-15 36q-4 4 -7 4q-19 1 -96 1q-69 0 -104 -1q-5 0 -7 -5q-25 -56 -36 -84q-22 -55 -22 -68q0 -17 30.5 -25.5t46.5 -8.5q4 -6 4 -19.5t-3 -17.5 q-70 8 -108 8q-39 0 -109 -8q-3 3 -4 15.5t2 20.5q11 0 37 10.5t33 21.5q17 28 35 70zM295 476l-85 -196q0 -4 2 -4q30 -3 83 -3q49 0 80 2l3 5z" />
<glyph unicode="&#xc3;" horiz-adv-x="675" d="M275 854q38 0 90 -29q58 -32 83 -32q24 0 43 11.5t30.5 25t13.5 14.5q8 0 8 -14q0 -23 -19 -48q-40 -49 -93 -49q-38 0 -90 29q-60 33 -83 33q-24 0 -43 -11.5t-30.5 -25.5t-13.5 -15q-8 0 -8 15q0 23 19 48q39 48 93 48zM94 134l213 490q5 11 17 24.5t20 13.5 q16 0 21 -7l205 -507q7 -16 15.5 -39t12.5 -33q18 -43 79 -43q4 -7 4.5 -20.5t-2.5 -16.5q-9 0 -58.5 4t-75.5 4q-7 0 -151 -8q-4 4 -4 20.5t4 16.5q38 0 59 18q9 7 9 17q0 4 -15 42t-30 74l-15 36q-4 4 -7 4q-19 1 -96 1q-69 0 -104 -1q-5 0 -7 -5q-25 -56 -36 -84 q-22 -55 -22 -68q0 -17 30.5 -25.5t46.5 -8.5q4 -6 4 -19.5t-3 -17.5q-70 8 -108 8q-39 0 -109 -8q-3 3 -4 15.5t2 20.5q11 0 37 10.5t33 21.5q17 28 35 70zM295 476l-85 -196q0 -4 2 -4q30 -3 83 -3q49 0 80 2l3 5z" />
<glyph unicode="&#xc4;" horiz-adv-x="675" d="M391 797q0 28 19.5 47.5t48.5 19.5t48.5 -19.5t19.5 -47.5q0 -29 -20 -48.5t-48 -19.5t-48 19.5t-20 48.5zM166 797q0 29 19.5 48t47.5 19q29 0 48.5 -19.5t19.5 -47.5q0 -29 -20 -48.5t-48 -19.5t-47.5 19.5t-19.5 48.5zM94 134l213 490q5 11 17 24.5t20 13.5 q16 0 21 -7l205 -507q7 -16 15.5 -39t12.5 -33q18 -43 79 -43q4 -7 4.5 -20.5t-2.5 -16.5q-9 0 -58.5 4t-75.5 4q-7 0 -151 -8q-4 4 -4 20.5t4 16.5q38 0 59 18q9 7 9 17q0 4 -15 42t-30 74l-15 36q-4 4 -7 4q-19 1 -96 1q-69 0 -104 -1q-5 0 -7 -5q-25 -56 -36 -84 q-22 -55 -22 -68q0 -17 30.5 -25.5t46.5 -8.5q4 -6 4 -19.5t-3 -17.5q-70 8 -108 8q-39 0 -109 -8q-3 3 -4 15.5t2 20.5q11 0 37 10.5t33 21.5q17 28 35 70zM295 476l-85 -196q0 -4 2 -4q30 -3 83 -3q49 0 80 2l3 5z" />
<glyph unicode="&#xc5;" horiz-adv-x="675" d="M296 759q0 -23 15.5 -38.5t37.5 -15.5t37.5 15.5t15.5 38.5t-15.5 38.5t-37.5 15.5t-37.5 -15.5t-15.5 -38.5zM250 759q0 40 29 69t70 29q40 0 69 -28.5t29 -69.5t-29 -70t-69 -29t-69.5 29t-29.5 70zM94 134l213 490q5 11 17 24.5t20 13.5q16 0 21 -7l205 -507 q7 -16 15.5 -39t12.5 -33q18 -43 79 -43q4 -7 4.5 -20.5t-2.5 -16.5q-9 0 -58.5 4t-75.5 4q-7 0 -151 -8q-4 4 -4 20.5t4 16.5q38 0 59 18q9 7 9 17q0 4 -15 42t-30 74l-15 36q-4 4 -7 4q-19 1 -96 1q-69 0 -104 -1q-5 0 -7 -5q-25 -56 -36 -84q-22 -55 -22 -68 q0 -17 30.5 -25.5t46.5 -8.5q4 -6 4 -19.5t-3 -17.5q-70 8 -108 8q-39 0 -109 -8q-3 3 -4 15.5t2 20.5q11 0 37 10.5t33 21.5q17 28 35 70zM295 476l-85 -196q0 -4 2 -4q30 -3 83 -3q49 0 80 2l3 5z" />
<glyph unicode="&#xc6;" horiz-adv-x="901" d="M409 275v245l-151 -240q-1 -4 1 -4q30 -3 76 -3q47 0 74 2zM480 657q24 0 165.5 3.5t159.5 3.5q1 -10 29 -148q-5 -5 -23 -5q-13 0 -16 8q-19 49 -42.5 75t-65.5 26h-83q-45 0 -50 -12t-5 -61v-179q0 -11 43 -11h53q44 0 60 13t28 57q2 8 12 8q14 0 19 -5v-192 q-4 -4 -18 -4q-12 0 -14 8q-13 51 -35 61q-17 7 -76 7q-72 0 -72 -14v-155q0 -59 8 -79q9 -20 65 -20h66q60 0 93 33q29 29 54 95q1 6 14 6q24 0 30 -6q-49 -138 -54 -172h-340h-66.5t-55.5 -0.5t-26 -0.5q-3 5 -3.5 18.5t3.5 18.5q59 5 64 17q8 20 8 94v80h-79 q-63 0 -98 -1q-6 0 -8 -5q-39 -59 -55 -87q-32 -54 -34 -66t13 -20t29.5 -10.5t21.5 -2.5q4 -5 4 -19.5t-3 -17.5q-68 8 -111 8q-37 0 -109 -8q-3 4 -3 15.5t4 20.5q11 0 40 10.5t38 21.5q25 30 49 70l294 470q0 2 -1 3q-6 12 -64 16q-4 5 -3.5 18.5t3.5 18.5q45 -3 143 -3z " />
<glyph unicode="&#xc7;" horiz-adv-x="674" d="M397 -26q18 2 24 2q22 0 38 -15.5t16 -36.5q0 -39 -28 -64.5t-76 -25.5q-35 0 -52 17q-4 6 -4 21q0 8 3 8q32 -16 51 -16q25 0 36.5 9.5t11.5 22.5q0 35 -28 35q-9 0 -28 -7q-3 0 -8.5 6t-5.5 10q20 31 30 59h34q-9 -15 -14 -25zM387 667q115 0 208 -19l17 -72t17 -79 q0 -5 -8.5 -10t-17.5 -5q-10 0 -14 4q-5 19 -15.5 38.5t-31 44t-59 40t-87.5 15.5q-67 0 -112.5 -40t-64 -99t-18.5 -133q0 -82 21.5 -151t71.5 -116.5t122 -47.5q78 0 124 43q19 17 36 47.5t24.5 49.5t9.5 27q21 0 35 -12q0 -14 -15.5 -81t-25.5 -71q-43 -16 -66.5 -23.5 t-66.5 -15.5t-86 -8q-143 0 -243.5 94.5t-100.5 234.5q0 144 101.5 244.5t244.5 100.5z" />
<glyph unicode="&#xc8;" horiz-adv-x="602" d="M373 748q0 -5 -4.5 -12.5t-9.5 -7.5q-18 0 -99 39.5t-81 63.5q0 19 19 28.5t37 9.5q10 0 18 -4q33 -25 76.5 -68t43.5 -49zM181 657q24 0 165.5 3.5t159.5 3.5q1 -10 29 -148q-5 -5 -23 -5q-13 0 -16 8q-19 49 -42.5 75t-65.5 26h-83q-45 0 -50 -12t-5 -61v-179 q0 -11 43 -11h53q44 0 60 13t28 57q2 8 12 8q14 0 19 -5v-192q-4 -4 -18 -4q-12 0 -14 8q-13 51 -35 61q-17 7 -76 7q-72 0 -72 -14v-155q0 -59 8 -79q9 -20 65 -20h66q60 0 93 33q29 29 54 95q2 6 14 6q24 0 30 -6q-49 -138 -54 -172q-449 0 -488 -1q-3 5 -3.5 18.5 t3.5 18.5q59 5 64 17q8 20 8 94v368q0 74 -8 94q-4 11 -64 16q-4 5 -3.5 18.5t3.5 18.5q45 -3 143 -3z" />
<glyph unicode="&#xc9;" horiz-adv-x="602" d="M229 748q0 6 43.5 49t76.5 68q8 4 18 4q18 0 37 -9.5t19 -28.5q0 -24 -81 -63.5t-99 -39.5q-5 0 -9.5 7.5t-4.5 12.5zM181 657q24 0 165.5 3.5t159.5 3.5q1 -10 29 -148q-5 -5 -23 -5q-13 0 -16 8q-19 49 -42.5 75t-65.5 26h-83q-45 0 -50 -12t-5 -61v-179q0 -11 43 -11 h53q44 0 60 13t28 57q2 8 12 8q14 0 19 -5v-192q-4 -4 -18 -4q-12 0 -14 8q-13 51 -35 61q-17 7 -76 7q-72 0 -72 -14v-155q0 -59 8 -79q9 -20 65 -20h66q60 0 93 33q29 29 54 95q2 6 14 6q24 0 30 -6q-49 -138 -54 -172q-449 0 -488 -1q-3 5 -3.5 18.5t3.5 18.5q59 5 64 17 q8 20 8 94v368q0 74 -8 94q-4 11 -64 16q-4 5 -3.5 18.5t3.5 18.5q45 -3 143 -3z" />
<glyph unicode="&#xca;" horiz-adv-x="602" d="M418 730q-10 2 -54 24t-66 36q-22 -14 -65 -35.5t-55 -24.5q-10 5 -10 17q11 8 72 65q13 12 45 48q8 10 13 10q3 0 13 -10q24 -26 42 -44q56 -55 75 -69q0 -14 -10 -17zM181 657q24 0 165.5 3.5t159.5 3.5q1 -10 29 -148q-5 -5 -23 -5q-13 0 -16 8q-19 49 -42.5 75 t-65.5 26h-83q-45 0 -50 -12t-5 -61v-179q0 -11 43 -11h53q44 0 60 13t28 57q2 8 12 8q14 0 19 -5v-192q-4 -4 -18 -4q-12 0 -14 8q-13 51 -35 61q-17 7 -76 7q-72 0 -72 -14v-155q0 -59 8 -79q9 -20 65 -20h66q60 0 93 33q29 29 54 95q2 6 14 6q24 0 30 -6 q-49 -138 -54 -172q-449 0 -488 -1q-3 5 -3.5 18.5t3.5 18.5q59 5 64 17q8 20 8 94v368q0 74 -8 94q-4 11 -64 16q-4 5 -3.5 18.5t3.5 18.5q45 -3 143 -3z" />
<glyph unicode="&#xcb;" horiz-adv-x="602" d="M341 797q0 28 19.5 47.5t48.5 19.5t48.5 -19.5t19.5 -47.5q0 -29 -20 -48.5t-48 -19.5t-48 19.5t-20 48.5zM116 797q0 29 19.5 48t47.5 19q29 0 48.5 -19.5t19.5 -47.5q0 -29 -20 -48.5t-48 -19.5t-47.5 19.5t-19.5 48.5zM181 657q24 0 165.5 3.5t159.5 3.5 q1 -10 29 -148q-5 -5 -23 -5q-13 0 -16 8q-19 49 -42.5 75t-65.5 26h-83q-45 0 -50 -12t-5 -61v-179q0 -11 43 -11h53q44 0 60 13t28 57q2 8 12 8q14 0 19 -5v-192q-4 -4 -18 -4q-12 0 -14 8q-13 51 -35 61q-17 7 -76 7q-72 0 -72 -14v-155q0 -59 8 -79q9 -20 65 -20h66 q60 0 93 33q29 29 54 95q2 6 14 6q24 0 30 -6q-49 -138 -54 -172q-449 0 -488 -1q-3 5 -3.5 18.5t3.5 18.5q59 5 64 17q8 20 8 94v368q0 74 -8 94q-4 11 -64 16q-4 5 -3.5 18.5t3.5 18.5q45 -3 143 -3z" />
<glyph unicode="&#xcc;" horiz-adv-x="360" d="M251 748q0 -5 -4.5 -12.5t-9.5 -7.5q-18 0 -99 39.5t-81 63.5q0 19 19 28.5t37 9.5q10 0 18 -4q33 -25 76.5 -68t43.5 -49zM181 655q73 0 141 7q3 -5 3.5 -18.5t-3.5 -18.5q-59 -5 -64 -18q-8 -20 -8 -94v-368q0 -74 8 -94q5 -13 64 -18q4 -5 3.5 -18.5t-3.5 -18.5 q-68 7 -143 7q-73 0 -141 -7q-3 5 -3.5 18.5t3.5 18.5q59 5 64 18q8 20 8 94v368q0 74 -8 94q-5 13 -64 18q-4 5 -3.5 18.5t3.5 18.5q68 -7 143 -7z" />
<glyph unicode="&#xcd;" horiz-adv-x="360" d="M109 748q0 6 43.5 49t76.5 68q8 4 18 4q18 0 37 -9.5t19 -28.5q0 -24 -81 -63.5t-99 -39.5q-5 0 -9.5 7.5t-4.5 12.5zM181 655q73 0 141 7q3 -5 3.5 -18.5t-3.5 -18.5q-59 -5 -64 -18q-8 -20 -8 -94v-368q0 -74 8 -94q5 -13 64 -18q4 -5 3.5 -18.5t-3.5 -18.5 q-68 7 -143 7q-73 0 -141 -7q-3 5 -3.5 18.5t3.5 18.5q59 5 64 18q8 20 8 94v368q0 74 -8 94q-5 13 -64 18q-4 5 -3.5 18.5t3.5 18.5q68 -7 143 -7z" />
<glyph unicode="&#xce;" horiz-adv-x="360" d="M302 730q-10 2 -54 24t-66 36q-22 -14 -65 -35.5t-55 -24.5q-10 5 -10 17q11 8 72 65q13 12 45 48q8 10 13 10q3 0 13 -10q24 -26 42 -44q56 -55 75 -69q0 -14 -10 -17zM181 655q73 0 141 7q3 -5 3.5 -18.5t-3.5 -18.5q-59 -5 -64 -18q-8 -20 -8 -94v-368q0 -74 8 -94 q5 -13 64 -18q4 -5 3.5 -18.5t-3.5 -18.5q-68 7 -143 7q-73 0 -141 -7q-3 5 -3.5 18.5t3.5 18.5q59 5 64 18q8 20 8 94v368q0 74 -8 94q-5 13 -64 18q-4 5 -3.5 18.5t3.5 18.5q68 -7 143 -7z" />
<glyph unicode="&#xcf;" horiz-adv-x="360" d="M226 797q0 28 19.5 47.5t48.5 19.5t48.5 -19.5t19.5 -47.5q0 -29 -20 -48.5t-48 -19.5t-48 19.5t-20 48.5zM1 797q0 29 19.5 48t47.5 19q29 0 48.5 -19.5t19.5 -47.5q0 -29 -20 -48.5t-48 -19.5t-47.5 19.5t-19.5 48.5zM182 655q73 0 141 7q3 -5 3.5 -18.5t-3.5 -18.5 q-59 -5 -64 -18q-8 -20 -8 -94v-368q0 -74 8 -94q5 -13 64 -18q4 -5 3.5 -18.5t-3.5 -18.5q-68 7 -143 7q-73 0 -141 -7q-3 5 -3.5 18.5t3.5 18.5q59 5 64 18q8 20 8 94v368q0 74 -8 94q-5 13 -64 18q-4 5 -3.5 18.5t3.5 18.5q68 -7 143 -7z" />
<glyph unicode="&#xd0;" horiz-adv-x="765" d="M383 308h-350q-2 0 -3 8t0 18t4 14h349q3 0 3 -16.5t-3 -23.5zM254 547v-406q0 -59 8 -79q4 -10 23 -16.5t40 -6.5q122 0 180 70t58 216q0 143 -69.5 219t-184.5 76q-45 0 -50 -12t-5 -61zM338 660q175 0 279.5 -86t104.5 -238q0 -167 -109.5 -253t-281.5 -86h-289 q-3 5 -3.5 18.5t3.5 18.5q59 5 64 17q8 20 8 94v368q0 74 -8 94q-4 11 -64 16q-4 5 -3.5 18.5t3.5 18.5q45 -3 143 -3q24 0 78.5 1.5t74.5 1.5z" />
<glyph unicode="&#xd1;" horiz-adv-x="760" d="M312 854q38 0 90 -29q58 -32 83 -32q24 0 43 11.5t30.5 25t13.5 14.5q8 0 8 -14q0 -23 -19 -48q-40 -49 -93 -49q-38 0 -90 29q-60 33 -83 33q-24 0 -43 -11.5t-30.5 -25.5t-13.5 -15q-8 0 -8 15q0 23 19 48q39 48 93 48zM151 655q53 0 109 7q13 -27 51 -78.5t75.5 -97.5 t100 -122.5t94.5 -115.5q2 7 2 41v187q0 104 -11 128q-5 12 -33.5 17t-47.5 5q-1 0 -2 7.5t-0.5 16.5t2.5 13q18 -1 57 -4.5t65 -3.5q25 0 70 3.5t56 4.5q7 -22 -2 -38q-74 0 -83 -23q-10 -28 -10 -123v-340q0 -36 4 -140q-4 -4 -25 -4q-13 0 -31 23l-407 501v-362 q0 -66 11 -97q4 -12 35.5 -19t46.5 -7q9 -16 2 -38q-11 1 -55.5 4.5t-70.5 3.5t-65 -3.5t-57 -4.5q-2 4 -2.5 13t0.5 16.5t2 7.5q16 0 45.5 7t34.5 19q12 26 12 101v354q0 64 -18 90q-6 9 -29.5 15t-36.5 6q-4 0 -5 16.5t3 20.5q108 -7 113 -7z" />
<glyph unicode="&#xd2;" horiz-adv-x="760" d="M429 748q0 -5 -4.5 -12.5t-9.5 -7.5q-18 0 -99 39.5t-81 63.5q0 19 19 28.5t37 9.5q10 0 18 -4q33 -25 76.5 -68t43.5 -49zM356 624q-56 0 -92.5 -41.5t-50 -97.5t-13.5 -122q0 -61 11 -117t33.5 -105t63 -78.5t93.5 -29.5q56 0 93.5 41t51.5 96.5t14 121.5 q0 61 -11.5 117t-34.5 105.5t-64 79.5t-94 30zM380 667q134 0 237 -100.5t103 -238.5t-103 -238t-237 -100t-237 100t-103 238t103 238.5t237 100.5z" />
<glyph unicode="&#xd3;" horiz-adv-x="760" d="M319 748q0 6 43.5 49t76.5 68q8 4 18 4q18 0 37 -9.5t19 -28.5q0 -24 -81 -63.5t-99 -39.5q-5 0 -9.5 7.5t-4.5 12.5zM356 624q-56 0 -92.5 -41.5t-50 -97.5t-13.5 -122q0 -61 11 -117t33.5 -105t63 -78.5t93.5 -29.5q56 0 93.5 41t51.5 96.5t14 121.5q0 61 -11.5 117 t-34.5 105.5t-64 79.5t-94 30zM380 667q134 0 237 -100.5t103 -238.5t-103 -238t-237 -100t-237 100t-103 238t103 238.5t237 100.5z" />
<glyph unicode="&#xd4;" horiz-adv-x="760" d="M502 730q-10 2 -54 24t-66 36q-22 -14 -65 -35.5t-55 -24.5q-10 5 -10 17q11 8 72 65q13 12 45 48q8 10 13 10q3 0 13 -10q24 -26 42 -44q56 -55 75 -69q0 -14 -10 -17zM356 624q-56 0 -92.5 -41.5t-50 -97.5t-13.5 -122q0 -61 11 -117t33.5 -105t63 -78.5t93.5 -29.5 q56 0 93.5 41t51.5 96.5t14 121.5q0 61 -11.5 117t-34.5 105.5t-64 79.5t-94 30zM380 667q134 0 237 -100.5t103 -238.5t-103 -238t-237 -100t-237 100t-103 238t103 238.5t237 100.5z" />
<glyph unicode="&#xd5;" horiz-adv-x="760" d="M309 854q38 0 90 -29q58 -32 83 -32q24 0 43 11.5t30.5 25t13.5 14.5q8 0 8 -14q0 -23 -19 -48q-40 -49 -93 -49q-38 0 -90 29q-60 33 -83 33q-24 0 -43 -11.5t-30.5 -25.5t-13.5 -15q-8 0 -8 15q0 23 19 48q39 48 93 48zM356 624q-56 0 -92.5 -41.5t-50 -97.5 t-13.5 -122q0 -61 11 -117t33.5 -105t63 -78.5t93.5 -29.5q56 0 93.5 41t51.5 96.5t14 121.5q0 61 -11.5 117t-34.5 105.5t-64 79.5t-94 30zM380 667q134 0 237 -100.5t103 -238.5t-103 -238t-237 -100t-237 100t-103 238t103 238.5t237 100.5z" />
<glyph unicode="&#xd6;" horiz-adv-x="760" d="M425 797q0 28 19.5 47.5t48.5 19.5t48.5 -19.5t19.5 -47.5q0 -29 -20 -48.5t-48 -19.5t-48 19.5t-20 48.5zM200 797q0 29 19.5 48t47.5 19q29 0 48.5 -19.5t19.5 -47.5q0 -29 -20 -48.5t-48 -19.5t-47.5 19.5t-19.5 48.5zM356 624q-56 0 -92.5 -41.5t-50 -97.5 t-13.5 -122q0 -61 11 -117t33.5 -105t63 -78.5t93.5 -29.5q56 0 93.5 41t51.5 96.5t14 121.5q0 61 -11.5 117t-34.5 105.5t-64 79.5t-94 30zM380 667q134 0 237 -100.5t103 -238.5t-103 -238t-237 -100t-237 100t-103 238t103 238.5t237 100.5z" />
<glyph unicode="&#xd7;" horiz-adv-x="465" d="M196 248l-142 142q0 10 10.5 25.5t17.5 15.5q5 0 7 -2q145 -140 147 -142l143 142q2 2 6 2q6 0 16 -18t10 -26q-135 -134 -138 -137l138 -143q0 -12 -9 -27.5t-17 -15.5q-5 0 -7 2l-145 145l-147 -147q-2 -2 -6 -2q-6 0 -16 18.5t-10 26.5q138 137 142 141z" />
<glyph unicode="&#xd8;" horiz-adv-x="759" d="M541 676q40 -15 38 -21l-377 -673q-40 15 -38 22zM356 624q-56 0 -92.5 -41.5t-50 -97.5t-13.5 -122q0 -61 11 -117t33.5 -105t63 -78.5t93.5 -29.5q56 0 93.5 41t51.5 96.5t14 121.5q0 61 -11.5 117t-34.5 105.5t-64 79.5t-94 30zM380 667q134 0 237 -100.5t103 -238.5 t-103 -238t-237 -100t-237 100t-103 238t103 238.5t237 100.5z" />
<glyph unicode="&#xd9;" horiz-adv-x="730" d="M457 748q0 -5 -4.5 -12.5t-9.5 -7.5q-18 0 -99 39.5t-81 63.5q0 19 19 28.5t37 9.5q10 0 18 -4q33 -25 76.5 -68t43.5 -49zM165 655q73 0 141 7q3 -5 3.5 -18.5t-3.5 -18.5q-59 -5 -64 -18q-8 -20 -8 -94v-183q0 -113 25 -171q41 -96 152 -96q67 0 114.5 62t47.5 184v170 q0 87 -14 122q-8 19 -75 24q-4 5 -3.5 18.5t3.5 18.5q82 -7 125 -7q25 0 65 3t52 4q3 -5 3.5 -18.5t-3.5 -18.5q-70 -5 -77 -24q-14 -35 -14 -121v-194q0 -145 -78.5 -220t-195.5 -75q-141 0 -211 88q-56 70 -56 222v212q0 74 -8 94q-5 13 -64 18q-4 5 -3.5 18.5t3.5 18.5 q68 -7 143 -7z" />
<glyph unicode="&#xda;" horiz-adv-x="730" d="M311 748q0 6 43.5 49t76.5 68q8 4 18 4q18 0 37 -9.5t19 -28.5q0 -24 -81 -63.5t-99 -39.5q-5 0 -9.5 7.5t-4.5 12.5zM165 655q73 0 141 7q3 -5 3.5 -18.5t-3.5 -18.5q-59 -5 -64 -18q-8 -20 -8 -94v-183q0 -113 25 -171q41 -96 152 -96q67 0 114.5 62t47.5 184v170 q0 87 -14 122q-8 19 -75 24q-4 5 -3.5 18.5t3.5 18.5q82 -7 125 -7q25 0 65 3t52 4q3 -5 3.5 -18.5t-3.5 -18.5q-70 -5 -77 -24q-14 -35 -14 -121v-194q0 -145 -78.5 -220t-195.5 -75q-141 0 -211 88q-56 70 -56 222v212q0 74 -8 94q-5 13 -64 18q-4 5 -3.5 18.5t3.5 18.5 q68 -7 143 -7z" />
<glyph unicode="&#xdb;" horiz-adv-x="730" d="M514 730q-10 2 -54 24t-66 36q-22 -14 -65 -35.5t-55 -24.5q-10 5 -10 17q11 8 72 65q13 12 45 48q8 10 13 10q3 0 13 -10q24 -26 42 -44q56 -55 75 -69q0 -14 -10 -17zM165 655q73 0 141 7q3 -5 3.5 -18.5t-3.5 -18.5q-59 -5 -64 -18q-8 -20 -8 -94v-183q0 -113 25 -171 q41 -96 152 -96q67 0 114.5 62t47.5 184v170q0 87 -14 122q-8 19 -75 24q-4 5 -3.5 18.5t3.5 18.5q82 -7 125 -7q25 0 65 3t52 4q3 -5 3.5 -18.5t-3.5 -18.5q-70 -5 -77 -24q-14 -35 -14 -121v-194q0 -145 -78.5 -220t-195.5 -75q-141 0 -211 88q-56 70 -56 222v212 q0 74 -8 94q-5 13 -64 18q-4 5 -3.5 18.5t3.5 18.5q68 -7 143 -7z" />
<glyph unicode="&#xdc;" horiz-adv-x="730" d="M438 797q0 28 19.5 47.5t48.5 19.5t48.5 -19.5t19.5 -47.5q0 -29 -20 -48.5t-48 -19.5t-48 19.5t-20 48.5zM213 797q0 29 19.5 48t47.5 19q29 0 48.5 -19.5t19.5 -47.5q0 -29 -20 -48.5t-48 -19.5t-47.5 19.5t-19.5 48.5zM165 655q73 0 141 7q3 -5 3.5 -18.5t-3.5 -18.5 q-59 -5 -64 -18q-8 -20 -8 -94v-183q0 -113 25 -171q41 -96 152 -96q67 0 114.5 62t47.5 184v170q0 87 -14 122q-8 19 -75 24q-4 5 -3.5 18.5t3.5 18.5q82 -7 125 -7q25 0 65 3t52 4q3 -5 3.5 -18.5t-3.5 -18.5q-70 -5 -77 -24q-14 -35 -14 -121v-194q0 -145 -78.5 -220 t-195.5 -75q-141 0 -211 88q-56 70 -56 222v212q0 74 -8 94q-5 13 -64 18q-4 5 -3.5 18.5t3.5 18.5q68 -7 143 -7z" />
<glyph unicode="&#xdd;" horiz-adv-x="624" d="M290 748q0 6 43.5 49t76.5 68q8 4 18 4q18 0 37 -9.5t19 -28.5q0 -24 -81 -63.5t-99 -39.5q-5 0 -9.5 7.5t-4.5 12.5zM233 145v139q0 10 -5 20q-11 24 -42.5 82.5t-57.5 104.5l-26 46q-17 31 -31 55q-17 29 -68 33q-4 5 -3.5 18.5t3.5 18.5q68 -7 143 -7q73 0 141 7 q3 -5 3.5 -18.5t-3.5 -18.5q-61 -5 -61 -27q0 -4 7 -16l120 -221q1 -1 5 4.5t10.5 16t15 24.5t18.5 31.5t19.5 35.5t20 37t19.5 35.5t18 32.5q5 10 5 23q0 18 -74 24q-4 5 -3.5 18.5t3.5 18.5q82 -7 113 -7q25 0 62 3t50 4q3 -5 3.5 -18.5t-3.5 -18.5q-61 -5 -74 -25 q-20 -29 -91.5 -146t-90.5 -156q-6 -14 -6 -19v-134q0 -74 8 -94q5 -13 64 -18q4 -5 3.5 -18.5t-3.5 -18.5q-68 7 -143 7q-73 0 -141 -7q-3 5 -3.5 18.5t3.5 18.5q59 5 64 18q8 20 8 94z" />
<glyph unicode="&#xde;" horiz-adv-x="583" d="M181 655q73 0 141 7q3 -5 3.5 -18.5t-3.5 -18.5q-59 -5 -64 -18q-8 -20 -8 -68v-22q52 2 85 2q97 0 161.5 -47.5t64.5 -130.5q0 -87 -59 -141t-138 -54q-46 0 -69 23q-7 7 -7 25q0 7 3 7q13 -4 41 -4q37 0 62 36.5t25 93.5q0 61 -32.5 106.5t-81.5 45.5q-45 0 -50 -12 q-2 -5 -3.5 -20.5t-1.5 -28.5v-12v-261q0 -74 8 -94q5 -13 64 -18q4 -5 3.5 -18.5t-3.5 -18.5q-68 7 -143 7q-73 0 -141 -7q-3 5 -3.5 18.5t3.5 18.5q59 5 64 18q8 20 8 94v368q0 74 -8 94q-5 13 -64 18q-4 5 -3.5 18.5t3.5 18.5q68 -7 143 -7z" />
<glyph unicode="&#xdf;" horiz-adv-x="590" d="M328 698q68 0 121.5 -38.5t53.5 -96.5q0 -49 -51 -93q-4 -3 -14.5 -12t-16.5 -14.5t-13.5 -13t-11 -14.5t-3.5 -14q0 -13 12 -30.5t24.5 -29.5t34 -31.5t26.5 -24.5q23 -22 35.5 -37t24.5 -41t12 -55q0 -71 -54 -117t-116 -46q-66 0 -91 27q-9 18 -9 37q0 26 14 47t35 21 q6 0 12 -1.5t10.5 -3.5t9 -6.5t7 -7.5t6 -9t4.5 -8t4.5 -8.5t3.5 -7.5q18 -36 40 -36q32 0 32 48q0 8 -1.5 15.5t-5 16t-6 14.5t-9.5 14.5t-10.5 13.5t-12.5 14.5t-12 12.5l-14 14l-13 13q-7 7 -25 24t-27 26.5t-21 25t-17.5 30.5t-5.5 32q0 8 2.5 16t9 17t11 14.5 t14.5 16.5t14 15q23 25 33 45.5t10 52.5q0 49 -20.5 87.5t-60.5 38.5q-31 0 -55 -46.5t-24 -118.5v-341q0 -74 8 -94q6 -15 43 -18q4 -5 3.5 -18.5t-3.5 -18.5q-68 7 -116 7q-69 0 -137 -7q-3 5 -3.5 18.5t3.5 18.5q59 5 64 18q8 20 8 94v236h-59q-5 2 -5 13q13 18 32 34h32 v15q0 99 76 177t158 78z" />
<glyph unicode="&#xe0;" horiz-adv-x="472" d="M120 646q0 9 11.5 19t34.5 10q25 0 34 -9q17 -20 40 -53t38 -57.5t15 -27.5q0 -5 -6 -11.5t-11 -6.5q-13 0 -84.5 55.5t-71.5 80.5zM227 62q17 0 29 7.5t12 13.5v140q-3 -2 -28.5 -13t-37.5 -19q-38 -24 -36 -67q1 -30 20 -46t41 -16zM248 449q63 0 106.5 -43t43.5 -110 v-187q0 -41 24 -41q9 0 29 10q7 -4 7 -17q0 -8 -4 -15q-56 -52 -103 -52q-24 0 -46.5 15.5t-29.5 34.5q-12 -11 -51 -31.5t-62 -20.5q-55 0 -93 38t-38 84q0 28 15.5 51t36.5 29q17 5 51 18t75 29t59 23v21v26q0 39 -17 69.5t-42 30.5q-26 0 -37.5 -21t-20.5 -63 q-10 -44 -56 -44q-21 0 -36.5 14t-15.5 34q0 17 14 41q19 19 76.5 48t114.5 29z" />
<glyph unicode="&#xe1;" horiz-adv-x="472" d="M293 675q23 0 34.5 -10t11.5 -19q0 -25 -71.5 -80.5t-84.5 -55.5q-5 0 -11 6.5t-6 11.5q0 3 15 27.5t38 57.5t40 53q9 9 34 9zM227 62q17 0 29 7.5t12 13.5v140q-3 -2 -28.5 -13t-37.5 -19q-38 -24 -36 -67q1 -30 20 -46t41 -16zM248 449q63 0 106.5 -43t43.5 -110v-187 q0 -41 24 -41q9 0 29 10q7 -4 7 -17q0 -8 -4 -15q-56 -52 -103 -52q-24 0 -46.5 15.5t-29.5 34.5q-12 -11 -51 -31.5t-62 -20.5q-55 0 -93 38t-38 84q0 28 15.5 51t36.5 29q17 5 51 18t75 29t59 23v21v26q0 39 -17 69.5t-42 30.5q-26 0 -37.5 -21t-20.5 -63q-10 -44 -56 -44 q-21 0 -36.5 14t-15.5 34q0 17 14 41q19 19 76.5 48t114.5 29z" />
<glyph unicode="&#xe2;" horiz-adv-x="472" d="M340 510q-8 2 -48.5 29.5t-60.5 44.5q-20 -17 -59 -43t-50 -31q-9 4 -9 23q24 24 66 78q21 27 39 57q6 10 13 10q4 0 12 -10q3 -4 15 -21.5t22 -30.5q44 -58 69 -83q0 -19 -9 -23zM227 62q17 0 29 7.5t12 13.5v140q-3 -2 -28.5 -13t-37.5 -19q-38 -24 -36 -67 q1 -30 20 -46t41 -16zM248 449q63 0 106.5 -43t43.5 -110v-187q0 -41 24 -41q9 0 29 10q7 -4 7 -17q0 -8 -4 -15q-56 -52 -103 -52q-24 0 -46.5 15.5t-29.5 34.5q-12 -11 -51 -31.5t-62 -20.5q-55 0 -93 38t-38 84q0 28 15.5 51t36.5 29q17 5 51 18t75 29t59 23v21v26 q0 39 -17 69.5t-42 30.5q-26 0 -37.5 -21t-20.5 -63q-10 -44 -56 -44q-21 0 -36.5 14t-15.5 34q0 17 14 41q19 19 76.5 48t114.5 29z" />
<glyph unicode="&#xe3;" horiz-adv-x="472" d="M158 639q28 0 73 -31q45 -33 71 -33q20 0 34.5 12t22.5 26t10 15q8 0 8 -12q0 -21 -17 -53q-32 -51 -75 -51q-28 0 -73 31q-46 34 -71 34q-19 0 -33 -12t-21 -26.5t-9 -15.5q-10 0 -10 15q0 23 15 51q31 50 75 50zM227 62q17 0 29 7.5t12 13.5v140q-3 -2 -28.5 -13 t-37.5 -19q-38 -24 -36 -67q1 -30 20 -46t41 -16zM248 449q63 0 106.5 -43t43.5 -110v-187q0 -41 24 -41q9 0 29 10q7 -4 7 -17q0 -8 -4 -15q-56 -52 -103 -52q-24 0 -46.5 15.5t-29.5 34.5q-12 -11 -51 -31.5t-62 -20.5q-55 0 -93 38t-38 84q0 28 15.5 51t36.5 29 q17 5 51 18t75 29t59 23v21v26q0 39 -17 69.5t-42 30.5q-26 0 -37.5 -21t-20.5 -63q-10 -44 -56 -44q-21 0 -36.5 14t-15.5 34q0 17 14 41q19 19 76.5 48t114.5 29z" />
<glyph unicode="&#xe4;" horiz-adv-x="472" d="M324 649q29 0 48.5 -19.5t19.5 -47.5t-20 -48t-48 -20t-48 20t-20 48t19.5 47.5t48.5 19.5zM113 649q29 0 48.5 -19.5t19.5 -47.5t-19.5 -48t-48.5 -20q-28 0 -47.5 19.5t-19.5 48.5q0 28 19 47.5t48 19.5zM227 62q17 0 29 7.5t12 13.5v140q-3 -2 -28.5 -13t-37.5 -19 q-38 -24 -36 -67q1 -30 20 -46t41 -16zM248 449q63 0 106.5 -43t43.5 -110v-187q0 -41 24 -41q9 0 29 10q7 -4 7 -17q0 -8 -4 -15q-56 -52 -103 -52q-24 0 -46.5 15.5t-29.5 34.5q-12 -11 -51 -31.5t-62 -20.5q-55 0 -93 38t-38 84q0 28 15.5 51t36.5 29q17 5 51 18t75 29 t59 23v21v26q0 39 -17 69.5t-42 30.5q-26 0 -37.5 -21t-20.5 -63q-10 -44 -56 -44q-21 0 -36.5 14t-15.5 34q0 17 14 41q19 19 76.5 48t114.5 29z" />
<glyph unicode="&#xe5;" horiz-adv-x="472" d="M193 610q0 -27 18.5 -46.5t45.5 -19.5t46 19.5t19 46.5t-19 46t-46 19t-45.5 -19t-18.5 -46zM146 610q0 46 32.5 78t78.5 32t78.5 -32t32.5 -78t-32.5 -79t-78.5 -33t-78.5 33t-32.5 79zM227 62q17 0 29 7.5t12 13.5v140q-3 -2 -28.5 -13t-37.5 -19q-38 -24 -36 -67 q1 -30 20 -46t41 -16zM248 449q63 0 106.5 -43t43.5 -110v-187q0 -41 24 -41q9 0 29 10q7 -4 7 -17q0 -8 -4 -15q-56 -52 -103 -52q-24 0 -46.5 15.5t-29.5 34.5q-12 -11 -51 -31.5t-62 -20.5q-55 0 -93 38t-38 84q0 28 15.5 51t36.5 29q17 5 51 18t75 29t59 23v21v26 q0 39 -17 69.5t-42 30.5q-26 0 -37.5 -21t-20.5 -63q-10 -44 -56 -44q-21 0 -36.5 14t-15.5 34q0 17 14 41q19 19 76.5 48t114.5 29z" />
<glyph unicode="&#xe6;" horiz-adv-x="696" d="M202 191q-38 -24 -36 -67q1 -30 20 -46t41 -16q19 0 44 14t25 26q-15 47 -15 92q0 14 1 29q-71 -26 -80 -32zM480 406q-27 0 -46.5 -25t-27 -51.5t-7.5 -47.5q7 -1 59 2.5t70 5.5q13 1 13 16q0 40 -15 70t-46 30zM490 447q88 0 131.5 -48.5t43.5 -102.5q0 -17 -8 -29 t-19 -13q-90 -8 -240 -12q0 -49 15 -84.5t38.5 -52t45 -23.5t41.5 -7q66 0 112 50q12 -3 12 -18t-3 -19q-20 -31 -69.5 -64t-111.5 -33q-107 0 -160 73q-37 -30 -83.5 -51t-72.5 -21q-55 0 -93 38t-38 84q0 28 15.5 51t36.5 29q62 20 202 69q8 6 8 22q0 22 -2 33 q-7 41 -31 67t-51 26q-26 0 -37.5 -21t-20.5 -63q-10 -44 -56 -44q-21 0 -36.5 14t-15.5 34q0 17 14 41q19 19 76.5 48t114.5 29q73 0 117 -55q58 53 125 53z" />
<glyph unicode="&#xe7;" horiz-adv-x="447" d="M250 -25q16 2 22 2q20 0 35 -14.5t15 -34.5q0 -36 -26 -60t-71 -24q-32 0 -48 16q-4 6 -4 20q0 7 3 7q30 -15 48 -15q44 0 44 30q0 33 -26 33q-9 0 -26 -7q-3 0 -8 5.5t-5 9.5q18 30 28 55h32q-8 -14 -13 -23zM413 382q0 -23 -16 -42.5t-42 -19.5q-8 0 -15 2.5t-13.5 8.5 t-11 10t-11.5 12.5t-9 11.5q-28 31 -68 31q-31 0 -50.5 -44t-19.5 -94q0 -96 43.5 -139.5t100.5 -43.5q66 0 112 50q12 -3 12 -18t-3 -19q-20 -31 -69.5 -64t-111.5 -33q-88 0 -149 57t-61 152q0 93 79.5 170.5t181.5 77.5q73 0 101 -18q20 -22 20 -48z" />
<glyph unicode="&#xe8;" horiz-adv-x="460" d="M127 646q0 9 11.5 19t34.5 10q25 0 34 -9q17 -20 40 -53t38 -57.5t15 -27.5q0 -5 -6 -11.5t-11 -6.5q-13 0 -84.5 55.5t-71.5 80.5zM163 282q7 -1 59 2.5t70 5.5q13 1 13 16q0 40 -15 70t-46 30q-27 0 -46.5 -25t-27 -51.5t-7.5 -47.5zM162 242q0 -49 15 -84.5t38.5 -52 t45 -23.5t41.5 -7q66 0 112 50q12 -3 12 -18t-3 -19q-20 -31 -69.5 -64t-111.5 -33q-88 0 -149 57t-61 152t68 171t154 76q88 0 131.5 -48.5t43.5 -102.5q0 -17 -8 -29t-19 -13q-90 -8 -240 -12z" />
<glyph unicode="&#xe9;" horiz-adv-x="460" d="M314 675q23 0 34.5 -10t11.5 -19q0 -25 -71.5 -80.5t-84.5 -55.5q-5 0 -11 6.5t-6 11.5q0 3 15 27.5t38 57.5t40 53q9 9 34 9zM163 282q7 -1 59 2.5t70 5.5q13 1 13 16q0 40 -15 70t-46 30q-27 0 -46.5 -25t-27 -51.5t-7.5 -47.5zM162 242q0 -49 15 -84.5t38.5 -52 t45 -23.5t41.5 -7q66 0 112 50q12 -3 12 -18t-3 -19q-20 -31 -69.5 -64t-111.5 -33q-88 0 -149 57t-61 152t68 171t154 76q88 0 131.5 -48.5t43.5 -102.5q0 -17 -8 -29t-19 -13q-90 -8 -240 -12z" />
<glyph unicode="&#xea;" horiz-adv-x="460" d="M351 510q-8 2 -48.5 29.5t-60.5 44.5q-20 -17 -59 -43t-50 -31q-9 4 -9 23q24 24 66 78q21 27 39 57q6 10 13 10q4 0 12 -10q3 -4 15 -21.5t22 -30.5q44 -58 69 -83q0 -19 -9 -23zM163 282q7 -1 59 2.5t70 5.5q13 1 13 16q0 40 -15 70t-46 30q-27 0 -46.5 -25t-27 -51.5 t-7.5 -47.5zM162 242q0 -49 15 -84.5t38.5 -52t45 -23.5t41.5 -7q66 0 112 50q12 -3 12 -18t-3 -19q-20 -31 -69.5 -64t-111.5 -33q-88 0 -149 57t-61 152t68 171t154 76q88 0 131.5 -48.5t43.5 -102.5q0 -17 -8 -29t-19 -13q-90 -8 -240 -12z" />
<glyph unicode="&#xeb;" horiz-adv-x="460" d="M343 649q29 0 48.5 -19.5t19.5 -47.5t-20 -48t-48 -20t-48 20t-20 48t19.5 47.5t48.5 19.5zM132 649q29 0 48.5 -19.5t19.5 -47.5t-19.5 -48t-48.5 -20q-28 0 -47.5 19.5t-19.5 48.5q0 28 19 47.5t48 19.5zM163 282q7 -1 59 2.5t70 5.5q13 1 13 16q0 40 -15 70t-46 30 q-27 0 -46.5 -25t-27 -51.5t-7.5 -47.5zM162 242q0 -49 15 -84.5t38.5 -52t45 -23.5t41.5 -7q66 0 112 50q12 -3 12 -18t-3 -19q-20 -31 -69.5 -64t-111.5 -33q-88 0 -149 57t-61 152t68 171t154 76q88 0 131.5 -48.5t43.5 -102.5q0 -17 -8 -29t-19 -13q-90 -8 -240 -12z " />
<glyph unicode="&#xec;" horiz-adv-x="315" d="M59 646q0 9 11.5 19t34.5 10q25 0 34 -9q17 -20 40 -53t38 -57.5t15 -27.5q0 -5 -6 -11.5t-11 -6.5q-13 0 -84.5 55.5t-71.5 80.5zM234 309v-164q0 -74 8 -94q5 -14 57 -18q4 -5 3.5 -18.5t-3.5 -18.5q-68 7 -130 7q-69 0 -137 -7q-3 5 -3.5 18.5t3.5 18.5q59 5 64 18 q8 20 8 94v115q0 65 -9 82q-5 10 -28 15t-35 5q-3 2 -3 16.5t4 14.5q52 4 106.5 20t88.5 33q5 -1 11 -7.5t6 -9.5q-7 -20 -10 -57q-1 -22 -1 -63z" />
<glyph unicode="&#xed;" horiz-adv-x="315" d="M222 675q23 0 34.5 -10t11.5 -19q0 -25 -71.5 -80.5t-84.5 -55.5q-5 0 -11 6.5t-6 11.5q0 3 15 27.5t38 57.5t40 53q9 9 34 9zM234 309v-164q0 -74 8 -94q5 -14 57 -18q4 -5 3.5 -18.5t-3.5 -18.5q-68 7 -130 7q-69 0 -137 -7q-3 5 -3.5 18.5t3.5 18.5q59 5 64 18 q8 20 8 94v115q0 65 -9 82q-5 10 -28 15t-35 5q-3 2 -3 16.5t4 14.5q52 4 106.5 20t88.5 33q5 -1 11 -7.5t6 -9.5q-7 -20 -10 -57q-1 -22 -1 -63z" />
<glyph unicode="&#xee;" horiz-adv-x="315" d="M267 510q-8 2 -48.5 29.5t-60.5 44.5q-20 -17 -59 -43t-50 -31q-9 4 -9 23q24 24 66 78q21 27 39 57q6 10 13 10q4 0 12 -10q3 -4 15 -21.5t22 -30.5q44 -58 69 -83q0 -19 -9 -23zM234 309v-164q0 -74 8 -94q5 -14 57 -18q4 -5 3.5 -18.5t-3.5 -18.5q-68 7 -130 7 q-69 0 -137 -7q-3 5 -3.5 18.5t3.5 18.5q59 5 64 18q8 20 8 94v115q0 65 -9 82q-5 10 -28 15t-35 5q-3 2 -3 16.5t4 14.5q52 4 106.5 20t88.5 33q5 -1 11 -7.5t6 -9.5q-7 -20 -10 -57q-1 -22 -1 -63z" />
<glyph unicode="&#xef;" horiz-adv-x="315" d="M260 650q29 0 49.5 -20.5t20.5 -48.5t-20.5 -49t-49.5 -21q-28 0 -48.5 20.5t-20.5 49.5q0 28 20 48.5t49 20.5zM59 650q29 0 49.5 -20.5t20.5 -48.5t-21 -49t-49 -21t-49 21t-21 49t20.5 48.5t49.5 20.5zM235 309v-164q0 -74 8 -94q5 -14 57 -18q4 -5 3.5 -18.5 t-3.5 -18.5q-68 7 -130 7q-69 0 -137 -7q-3 5 -3.5 18.5t3.5 18.5q59 5 64 18q8 20 8 94v115q0 65 -9 82q-5 10 -28 15t-35 5q-3 2 -3 16.5t4 14.5q52 4 106.5 20t88.5 33q5 -1 11 -7.5t6 -9.5q-7 -20 -10 -57q-1 -22 -1 -63z" />
<glyph unicode="&#xf0;" horiz-adv-x="540" d="M367 708q25 -30 21 -34l-253 -172q-25 30 -20 35zM264 406q-33 0 -55 -30.5t-30 -72t-8 -91.5q0 -80 30 -128t64 -48q32 0 51.5 30t26.5 69.5t7 89.5q0 92 -29 150q-22 31 -57 31zM246 448q31 0 65 -8q-52 151 -214 223q-4 20 7 28q60 -9 141 -51.5t140 -109.5 q104 -116 104 -271q0 -114 -63.5 -189.5t-162.5 -75.5q-42 0 -81 13t-73.5 39t-55 70.5t-20.5 101.5q0 108 65.5 169t147.5 61z" />
<glyph unicode="&#xf1;" horiz-adv-x="596" d="M233 639q28 0 73 -31q45 -33 71 -33q20 0 34.5 12t22.5 26t10 15q8 0 8 -12q0 -21 -17 -53q-32 -51 -75 -51q-28 0 -73 31q-46 34 -71 34q-19 0 -33 -12t-21 -26.5t-9 -15.5q-10 0 -10 15q0 23 15 51q31 50 75 50zM380 446q81 0 108.5 -54.5t27.5 -181.5v-65q0 -74 8 -94 q5 -13 64 -18q4 -5 3.5 -18.5t-3.5 -18.5q-68 7 -137 7q-57 0 -125 -7q-3 5 -3.5 18.5t3.5 18.5q46 4 52 18q8 20 8 94v79q0 141 -67 141q-29 0 -58.5 -20t-29.5 -36v-164q0 -74 8 -94q5 -14 57 -18q4 -5 3.5 -18.5t-3.5 -18.5q-68 7 -130 7q-69 0 -137 -7q-3 5 -3.5 18.5 t3.5 18.5q59 5 64 18q8 20 8 94v115q0 65 -9 82q-5 10 -28 15t-35 5q-3 2 -3 16.5t4 14.5q52 4 106.5 20t88.5 33q4 0 10.5 -6.5t6.5 -10.5q-10 -40 -10 -57q0 -5 1 -6q2 0 7 5q23 27 65.5 51t74.5 24z" />
<glyph unicode="&#xf2;" horiz-adv-x="532" d="M147 646q0 9 11.5 19t34.5 10q25 0 34 -9q17 -20 40 -53t38 -57.5t15 -27.5q0 -5 -6 -11.5t-11 -6.5q-13 0 -84.5 55.5t-71.5 80.5zM254 406q-26 0 -43 -15t-24.5 -43t-10 -53t-2.5 -58q0 -77 26.5 -139.5t76.5 -62.5q81 0 81 167q0 77 -27 140.5t-77 63.5zM265 447 q103 0 169 -63t66 -159q0 -95 -67.5 -163.5t-165.5 -68.5q-103 0 -169 64t-66 160q0 95 67.5 162.5t165.5 67.5z" />
<glyph unicode="&#xf3;" horiz-adv-x="532" d="M350 675q23 0 34.5 -10t11.5 -19q0 -25 -71.5 -80.5t-84.5 -55.5q-5 0 -11 6.5t-6 11.5q0 3 15 27.5t38 57.5t40 53q9 9 34 9zM254 406q-26 0 -43 -15t-24.5 -43t-10 -53t-2.5 -58q0 -77 26.5 -139.5t76.5 -62.5q81 0 81 167q0 77 -27 140.5t-77 63.5zM265 447 q103 0 169 -63t66 -159q0 -95 -67.5 -163.5t-165.5 -68.5q-103 0 -169 64t-66 160q0 95 67.5 162.5t165.5 67.5z" />
<glyph unicode="&#xf4;" horiz-adv-x="532" d="M377 510q-8 2 -48.5 29.5t-60.5 44.5q-20 -17 -59 -43t-50 -31q-9 4 -9 23q24 24 66 78q21 27 39 57q6 10 13 10q4 0 12 -10q3 -4 15 -21.5t22 -30.5q44 -58 69 -83q0 -19 -9 -23zM254 406q-26 0 -43 -15t-24.5 -43t-10 -53t-2.5 -58q0 -77 26.5 -139.5t76.5 -62.5 q81 0 81 167q0 77 -27 140.5t-77 63.5zM265 447q103 0 169 -63t66 -159q0 -95 -67.5 -163.5t-165.5 -68.5q-103 0 -169 64t-66 160q0 95 67.5 162.5t165.5 67.5z" />
<glyph unicode="&#xf5;" horiz-adv-x="532" d="M206 639q28 0 73 -31q45 -33 71 -33q20 0 34.5 12t22.5 26t10 15q8 0 8 -12q0 -21 -17 -53q-32 -51 -75 -51q-28 0 -73 31q-46 34 -71 34q-19 0 -33 -12t-21 -26.5t-9 -15.5q-10 0 -10 15q0 23 15 51q31 50 75 50zM254 406q-26 0 -43 -15t-24.5 -43t-10 -53t-2.5 -58 q0 -77 26.5 -139.5t76.5 -62.5q81 0 81 167q0 77 -27 140.5t-77 63.5zM265 447q103 0 169 -63t66 -159q0 -95 -67.5 -163.5t-165.5 -68.5q-103 0 -169 64t-66 160q0 95 67.5 162.5t165.5 67.5z" />
<glyph unicode="&#xf6;" horiz-adv-x="532" d="M367 649q29 0 48.5 -19.5t19.5 -47.5t-20 -48t-48 -20t-48 20t-20 48t19.5 47.5t48.5 19.5zM156 649q29 0 48.5 -19.5t19.5 -47.5t-19.5 -48t-48.5 -20q-28 0 -47.5 19.5t-19.5 48.5q0 28 19 47.5t48 19.5zM254 406q-26 0 -43 -15t-24.5 -43t-10 -53t-2.5 -58 q0 -77 26.5 -139.5t76.5 -62.5q81 0 81 167q0 77 -27 140.5t-77 63.5zM265 447q103 0 169 -63t66 -159q0 -95 -67.5 -163.5t-165.5 -68.5q-103 0 -169 64t-66 160q0 95 67.5 162.5t165.5 67.5z" />
<glyph unicode="&#xf7;" horiz-adv-x="592" d="M233 432q0 26 18.5 44t43.5 18t43.5 -18t18.5 -44t-18.5 -44t-43.5 -18t-43.5 18t-18.5 44zM233 64q0 26 18.5 44t43.5 18t43.5 -18t18.5 -44t-18.5 -44t-43.5 -18t-43.5 18t-18.5 44zM63 223q-6 0 -6 16q0 27 11 42h460q9 0 9 -14q0 -27 -14 -44h-460z" />
<glyph unicode="&#xf8;" horiz-adv-x="532" d="M373 455q34 -13 32 -19l-253 -452q-34 13 -32 20zM254 406q-26 0 -43 -15t-24.5 -43t-10 -53t-2.5 -58q0 -77 26.5 -139.5t76.5 -62.5q81 0 81 167q0 77 -27 140.5t-77 63.5zM265 447q103 0 169 -63t66 -159q0 -95 -67.5 -163.5t-165.5 -68.5q-103 0 -169 64t-66 160 q0 95 67.5 162.5t165.5 67.5z" />
<glyph unicode="&#xf9;" horiz-adv-x="566" d="M134 646q0 9 11.5 19t34.5 10q25 0 34 -9q17 -20 40 -53t38 -57.5t15 -27.5q0 -5 -6 -11.5t-11 -6.5q-13 0 -84.5 55.5t-71.5 80.5zM356 260q0 63 -10 82q-5 10 -27.5 15t-34.5 5q-3 2 -3 16.5t3 14.5q52 4 107.5 20t88.5 33q5 -1 10.5 -7.5t5.5 -9.5q-7 -20 -10 -57v-63 v-201q0 -29 8 -38q9 -10 46 -10q2 -2 2 -13q0 -10 -6 -19q-26 -3 -66 -11.5t-70.5 -16t-35.5 -7.5q-8 0 -8 24v16q0 2 -1 4t-3 1q-63 -43 -140 -43q-68 0 -98 50t-30 129v86q0 63 -10 82q-5 10 -27.5 15t-34.5 5q-3 2 -3 16.5t3 14.5q52 4 107.5 20t88.5 33q5 -1 10.5 -7.5 t5.5 -9.5q-7 -20 -10 -57v-63v-90q0 -84 17 -123.5t61 -39.5q21 0 42.5 13t21.5 24v167z" />
<glyph unicode="&#xfa;" horiz-adv-x="566" d="M375 675q23 0 34.5 -10t11.5 -19q0 -25 -71.5 -80.5t-84.5 -55.5q-5 0 -11 6.5t-6 11.5q0 3 15 27.5t38 57.5t40 53q9 9 34 9zM356 260q0 63 -10 82q-5 10 -27.5 15t-34.5 5q-3 2 -3 16.5t3 14.5q52 4 107.5 20t88.5 33q5 -1 10.5 -7.5t5.5 -9.5q-7 -20 -10 -57v-63v-201 q0 -29 8 -38q9 -10 46 -10q2 -2 2 -13q0 -10 -6 -19q-26 -3 -66 -11.5t-70.5 -16t-35.5 -7.5q-8 0 -8 24v16q0 2 -1 4t-3 1q-63 -43 -140 -43q-68 0 -98 50t-30 129v86q0 63 -10 82q-5 10 -27.5 15t-34.5 5q-3 2 -3 16.5t3 14.5q52 4 107.5 20t88.5 33q5 -1 10.5 -7.5 t5.5 -9.5q-7 -20 -10 -57v-63v-90q0 -84 17 -123.5t61 -39.5q21 0 42.5 13t21.5 24v167z" />
<glyph unicode="&#xfb;" horiz-adv-x="566" d="M380 510q-8 2 -48.5 29.5t-60.5 44.5q-20 -17 -59 -43t-50 -31q-9 4 -9 23q24 24 66 78q21 27 39 57q6 10 13 10q4 0 12 -10q3 -4 15 -21.5t22 -30.5q44 -58 69 -83q0 -19 -9 -23zM356 260q0 63 -10 82q-5 10 -27.5 15t-34.5 5q-3 2 -3 16.5t3 14.5q52 4 107.5 20 t88.5 33q5 -1 10.5 -7.5t5.5 -9.5q-7 -20 -10 -57v-63v-201q0 -29 8 -38q9 -10 46 -10q2 -2 2 -13q0 -10 -6 -19q-26 -3 -66 -11.5t-70.5 -16t-35.5 -7.5q-8 0 -8 24v16q0 2 -1 4t-3 1q-63 -43 -140 -43q-68 0 -98 50t-30 129v86q0 63 -10 82q-5 10 -27.5 15t-34.5 5 q-3 2 -3 16.5t3 14.5q52 4 107.5 20t88.5 33q5 -1 10.5 -7.5t5.5 -9.5q-7 -20 -10 -57v-63v-90q0 -84 17 -123.5t61 -39.5q21 0 42.5 13t21.5 24v167z" />
<glyph unicode="&#xfc;" horiz-adv-x="566" d="M376 649q29 0 48.5 -19.5t19.5 -47.5t-20 -48t-48 -20t-48 20t-20 48t19.5 47.5t48.5 19.5zM165 649q29 0 48.5 -19.5t19.5 -47.5t-19.5 -48t-48.5 -20q-28 0 -47.5 19.5t-19.5 48.5q0 28 19 47.5t48 19.5zM356 260q0 63 -10 82q-5 10 -27.5 15t-34.5 5q-3 2 -3 16.5 t3 14.5q52 4 107.5 20t88.5 33q5 -1 10.5 -7.5t5.5 -9.5q-7 -20 -10 -57v-63v-201q0 -29 8 -38q9 -10 46 -10q2 -2 2 -13q0 -10 -6 -19q-26 -3 -66 -11.5t-70.5 -16t-35.5 -7.5q-8 0 -8 24v16q0 2 -1 4t-3 1q-63 -43 -140 -43q-68 0 -98 50t-30 129v86q0 63 -10 82 q-5 10 -27.5 15t-34.5 5q-3 2 -3 16.5t3 14.5q52 4 107.5 20t88.5 33q5 -1 10.5 -7.5t5.5 -9.5q-7 -20 -10 -57v-63v-90q0 -84 17 -123.5t61 -39.5q21 0 42.5 13t21.5 24v167z" />
<glyph unicode="&#xfd;" horiz-adv-x="534" d="M389 675q23 0 34.5 -10t11.5 -19q0 -25 -71.5 -80.5t-84.5 -55.5q-5 0 -11 6.5t-6 11.5q0 3 15 27.5t38 57.5t40 53q9 9 34 9zM135 436q68 0 126 7q4 -4 4 -18.5t-4 -18.5q-14 0 -36.5 -8t-22.5 -19q0 -10 2 -15l103 -197q46 101 79 175q11 22 11 37q0 11 -17.5 18 t-30.5 8t-23 1q-4 4 -4 18t3 19q53 -7 105 -7t104 7q3 -4 3.5 -18t-3.5 -19q-10 0 -23.5 -2t-32.5 -10t-25 -21q-102 -216 -165 -348q-5 -10 -20 -42.5t-21 -44t-19 -33t-28 -40.5q-66 -83 -127 -83q-30 0 -48.5 16t-18.5 37q0 31 23 47q65 0 100.5 15t64.5 63q15 25 35 71 l-166 337q-8 19 -29.5 28.5t-33.5 9.5q-4 6 -3.5 19t3.5 18q61 -7 135 -7z" />
<glyph unicode="&#xfe;" horiz-adv-x="535" d="M307 448q87 0 141.5 -63.5t54.5 -150.5q0 -73 -39 -130t-94 -84.5t-112 -27.5q-12 0 -25.5 2t-22.5 4.5t-10 2.5q-3 0 -3 -16v-54q0 -74 8 -94q5 -13 64 -18q4 -5 3.5 -18.5t-3.5 -18.5q-68 7 -137 7t-137 -7q-3 5 -3.5 18.5t3.5 18.5q59 5 64 18q8 20 8 94v627 q0 31 -7 48q-3 8 -25 13t-35 5q-2 0 -3 7t0 15t3 10q31 3 62.5 8t53.5 10t39.5 10t27.5 8l10 3q4 -1 9 -7t6 -10q-11 -62 -11 -102v-182q0 -1 1 -2v-2q1 -4 3 -2q23 25 53.5 42.5t52.5 17.5zM252 375q-17 0 -30.5 -6t-19 -12.5t-5.5 -9.5v-251q0 -28 20 -44t48 -16 q31 0 62.5 42.5t31.5 120.5q0 176 -107 176z" />
<glyph unicode="&#xff;" horiz-adv-x="534" d="M390 649q29 0 48.5 -19.5t19.5 -47.5t-20 -48t-48 -20t-48 20t-20 48t19.5 47.5t48.5 19.5zM179 649q29 0 48.5 -19.5t19.5 -47.5t-19.5 -48t-48.5 -20q-28 0 -47.5 19.5t-19.5 48.5q0 28 19 47.5t48 19.5zM135 436q68 0 126 7q4 -4 4 -18.5t-4 -18.5q-14 0 -36.5 -8 t-22.5 -19q0 -10 2 -15l103 -197q46 101 79 175q11 22 11 37q0 11 -17.5 18t-30.5 8t-23 1q-4 4 -4 18t3 19q53 -7 105 -7t104 7q3 -4 3.5 -18t-3.5 -19q-10 0 -23.5 -2t-32.5 -10t-25 -21q-102 -216 -165 -348q-5 -10 -20 -42.5t-21 -44t-19 -33t-28 -40.5 q-66 -83 -127 -83q-30 0 -48.5 16t-18.5 37q0 31 23 47q65 0 100.5 15t64.5 63q15 25 35 71l-166 337q-8 19 -29.5 28.5t-33.5 9.5q-4 6 -3.5 19t3.5 18q61 -7 135 -7z" />
<glyph unicode="&#x131;" horiz-adv-x="315" d="M231 309v-164q0 -74 8 -94q5 -14 57 -18q4 -5 3.5 -18.5t-3.5 -18.5q-68 7 -130 7q-69 0 -137 -7q-3 5 -3.5 18.5t3.5 18.5q59 5 64 18q8 20 8 94v115q0 65 -9 82q-5 10 -28 15t-35 5q-3 2 -3 16.5t4 14.5q52 4 106.5 20t88.5 33q5 -1 11 -7.5t6 -9.5q-7 -20 -10 -57 q-1 -22 -1 -63z" />
<glyph unicode="&#x152;" horiz-adv-x="1015" d="M594 657q24 0 165.5 3.5t159.5 3.5q1 -10 29 -148q-5 -5 -23 -5q-13 0 -16 8q-19 49 -42.5 75t-65.5 26h-83q-45 0 -50 -12t-5 -61v-179q0 -11 43 -11h53q44 0 60 13t28 57q2 8 12 8q14 0 19 -5v-192q-4 -4 -18 -4q-12 0 -14 8q-13 51 -35 61q-17 7 -76 7q-72 0 -72 -14 v-155q0 -59 8 -79q9 -20 65 -20h66q60 0 93 33q29 29 54 95q1 6 14 6q24 0 30 -6q-49 -138 -54 -172q-1 0 -135.5 -0.5t-215.5 -0.5h-137h-1h-1h-1v0h1v0h1h1h1h1h1h1h1h1h1h1h1h1h1h1h1h1h1h1h1v0h1h1v0h1v0h1v0h1v0v0h1v0v0v0v0v0v0v0v0v0v0h-1v0v0h-1v0v0h-1v0h-1v0h-1v0 h-1v0h-1h-1v0h-1h-1h-1h-1v0h-1h-1h-1h-1h-1h-1h-1h-1h-1h-1h-1h-1h-1h-1h-1h-1h-1h-1h-1h-1h-1h-1h-1h-1h-1h-1h-1h-1h-1h-1h-1h-1h-1h-1h-1h-1h-1h-1h-1h-1h-1h-1h-1h-1h-1h-1h-1h-1h-1h-1h-1h-1h-1h-1h-1h-1h-1h-1h-1h-1h-1h-1h-1h-1h-1h-1h-1h-1h-1h-1h-1h-1h-1h-10 q-135 0 -237 96.5t-102 234.5t101.5 236.5t235.5 98.5q57 0 130 -3t87 -3zM353 622q-56 0 -94 -40.5t-53 -97t-15 -121.5q0 -82 19.5 -153t68.5 -122t119 -51q29 0 60 8t44 24q21 25 21 80v332q0 66 -33 101q-38 40 -137 40z" />
<glyph unicode="&#x153;" horiz-adv-x="786" d="M570 406q-27 0 -46.5 -25t-27 -51.5t-7.5 -47.5q7 -1 59 2.5t70 5.5q13 1 13 16q0 40 -15 70t-46 30zM254 406q-26 0 -43 -15t-24.5 -43t-10 -53t-2.5 -58q0 -77 26.5 -139.5t76.5 -62.5q81 0 81 167q0 77 -27 140.5t-77 63.5zM628 75q66 0 112 50q12 -3 12 -18t-3 -19 q-20 -31 -69.5 -64t-111.5 -33q-88 0 -149 58q-66 -56 -152 -56q-103 0 -169 64t-66 160q0 95 67.5 162.5t165.5 67.5q104 0 171 -65q63 65 144 65q88 0 131.5 -48.5t43.5 -102.5q0 -17 -8 -29t-19 -13q-90 -8 -240 -12q0 -49 15 -84.5t38.5 -52t45 -23.5t41.5 -7z" />
<glyph unicode="&#x178;" horiz-adv-x="624" d="M370 797q0 28 19.5 47.5t48.5 19.5t48.5 -19.5t19.5 -47.5q0 -29 -20 -48.5t-48 -19.5t-48 19.5t-20 48.5zM145 797q0 29 19.5 48t47.5 19q29 0 48.5 -19.5t19.5 -47.5q0 -29 -20 -48.5t-48 -19.5t-47.5 19.5t-19.5 48.5zM233 145v139q0 10 -5 20q-11 24 -42.5 82.5 t-57.5 104.5l-26 46q-17 31 -31 55q-17 29 -68 33q-4 5 -3.5 18.5t3.5 18.5q68 -7 143 -7q73 0 141 7q3 -5 3.5 -18.5t-3.5 -18.5q-61 -5 -61 -27q0 -4 7 -16l120 -221q1 -1 5 4.5t10.5 16t15 24.5t18.5 31.5t19.5 35.5t20 37t19.5 35.5t18 32.5q5 10 5 23q0 18 -74 24 q-4 5 -3.5 18.5t3.5 18.5q82 -7 113 -7q25 0 62 3t50 4q3 -5 3.5 -18.5t-3.5 -18.5q-61 -5 -74 -25q-20 -29 -91.5 -146t-90.5 -156q-6 -14 -6 -19v-134q0 -74 8 -94q5 -13 64 -18q4 -5 3.5 -18.5t-3.5 -18.5q-68 7 -143 7q-73 0 -141 -7q-3 5 -3.5 18.5t3.5 18.5 q59 5 64 18q8 20 8 94z" />
<glyph unicode="&#x300;" horiz-adv-x="249" d="M44 658q0 9 11.5 19t34.5 10q25 0 34 -9q17 -20 40 -53t38 -57.5t15 -27.5q0 -5 -6 -11.5t-11 -6.5q-13 0 -84.5 55.5t-71.5 80.5z" />
<glyph unicode="&#x301;" horiz-adv-x="236" d="M155 687q23 0 34.5 -10t11.5 -19q0 -25 -71.5 -80.5t-84.5 -55.5q-5 0 -11 6.5t-6 11.5q0 3 15 27.5t38 57.5t40 53q9 9 34 9z" />
<glyph unicode="&#x302;" horiz-adv-x="285" d="M258 493q-8 2 -48.5 29.5t-60.5 44.5q-20 -17 -59 -43t-50 -31q-9 4 -9 23q24 24 66 78q21 27 39 57q6 10 13 10q4 0 12 -10q3 -4 15 -21.5t22 -30.5q44 -58 69 -83q0 -19 -9 -23z" />
<glyph unicode="&#x303;" horiz-adv-x="693" d="M156 646q28 0 73 -31q45 -33 71 -33q20 0 34.5 12t22.5 26t10 15q8 0 8 -12q0 -21 -17 -53q-32 -51 -75 -51q-28 0 -73 31q-46 34 -71 34q-19 0 -33 -12t-21 -26.5t-9 -15.5q-10 0 -10 15q0 23 15 51q31 50 75 50z" />
<glyph unicode="&#x2000;" horiz-adv-x="442" />
<glyph unicode="&#x2001;" horiz-adv-x="885" />
<glyph unicode="&#x2002;" horiz-adv-x="442" />
<glyph unicode="&#x2003;" horiz-adv-x="885" />
<glyph unicode="&#x2004;" horiz-adv-x="295" />
<glyph unicode="&#x2005;" horiz-adv-x="221" />
<glyph unicode="&#x2006;" horiz-adv-x="147" />
<glyph unicode="&#x2007;" horiz-adv-x="147" />
<glyph unicode="&#x2008;" horiz-adv-x="110" />
<glyph unicode="&#x2009;" horiz-adv-x="177" />
<glyph unicode="&#x200a;" horiz-adv-x="49" />
<glyph unicode="&#x2010;" horiz-adv-x="375" d="M71 267q208 11 241 12q7 0 7 -9q0 -28 -15 -60q-20 -1 -241 -11q-7 0 -7 11q0 25 15 57z" />
<glyph unicode="&#x2011;" horiz-adv-x="375" d="M71 267q208 11 241 12q7 0 7 -9q0 -28 -15 -60q-20 -1 -241 -11q-7 0 -7 11q0 25 15 57z" />
<glyph unicode="&#x2012;" horiz-adv-x="375" d="M71 267q208 11 241 12q7 0 7 -9q0 -28 -15 -60q-20 -1 -241 -11q-7 0 -7 11q0 25 15 57z" />
<glyph unicode="&#x2013;" horiz-adv-x="560" d="M58 203q0 12 3.5 38.5t10.5 26.5h425q6 0 6 -9q0 -22 -9 -58q-1 -3 -2.5 -4.5t-3.5 -2.5h-1h-423l-4 2q-2 3 -2 7z" />
<glyph unicode="&#x2014;" horiz-adv-x="944" d="M58 203q0 12 3.5 38.5t10.5 26.5h810q6 0 6 -9q0 -22 -9 -58q-1 -3 -2.5 -4.5l-2.5 -2.5h-2h-808l-4 2q-2 3 -2 7z" />
<glyph unicode="&#x2018;" horiz-adv-x="187" d="M40 555q0 26 10.5 51.5t25.5 42.5t31.5 30.5t28 20t14.5 6.5q14 0 21 -18q-60 -36 -60 -74q0 -30 20 -54q2 -2 6.5 -7t6.5 -7.5t4.5 -6.5t3.5 -7.5t1 -7.5q0 -18 -18.5 -34t-42.5 -16q-23 0 -37 11q-15 22 -15 70z" />
<glyph unicode="&#x2019;" horiz-adv-x="194" d="M167 625q0 -26 -10.5 -51.5t-25.5 -42.5t-31.5 -30.5t-28 -20t-14.5 -6.5q-14 0 -21 18q60 36 60 74q0 30 -20 54q-2 2 -6.5 7t-6.5 7.5t-4.5 6.5t-3.5 7.5t-1 7.5q0 18 18.5 34t42.5 16q23 0 37 -11q15 -22 15 -70z" />
<glyph unicode="&#x201a;" horiz-adv-x="202" d="M155 44q0 -26 -10.5 -51.5t-25.5 -42.5t-31.5 -30.5t-28 -20t-14.5 -6.5q-14 0 -21 18q60 36 60 74q0 29 -21 54t-21 36q0 18 18.5 34t42.5 16q23 0 37 -11q15 -22 15 -70z" />
<glyph unicode="&#x201c;" horiz-adv-x="335" d="M188 555q0 26 10.5 51.5t25.5 42.5t31.5 30.5t28 20t14.5 6.5q14 0 21 -18q-60 -36 -60 -74q0 -30 20 -54q2 -2 6.5 -7t6.5 -7.5t4.5 -6.5t3.5 -7.5t1 -7.5q0 -18 -18.5 -34t-42.5 -16q-23 0 -37 11q-15 22 -15 70zM40 555q0 26 10.5 51.5t25.5 42.5t31.5 30.5t28 20 t14.5 6.5q14 0 21 -18q-60 -36 -60 -74q0 -30 20 -54q2 -2 6.5 -7t6.5 -7.5t4.5 -6.5t3.5 -7.5t1 -7.5q0 -18 -18.5 -34t-42.5 -16q-23 0 -37 11q-15 22 -15 70z" />
<glyph unicode="&#x201d;" horiz-adv-x="342" d="M167 625q0 -26 -10.5 -51.5t-25.5 -42.5t-31.5 -30.5t-28 -20t-14.5 -6.5q-14 0 -21 18q60 36 60 74q0 30 -20 54q-2 2 -6.5 7t-6.5 7.5t-4.5 6.5t-3.5 7.5t-1 7.5q0 18 18.5 34t42.5 16q23 0 37 -11q15 -22 15 -70zM315 625q0 -26 -10.5 -51.5t-25.5 -42.5t-31.5 -30.5 t-28 -20t-14.5 -6.5q-14 0 -21 18q60 36 60 74q0 30 -20 54q-2 2 -6.5 7t-6.5 7.5t-4.5 6.5t-3.5 7.5t-1 7.5q0 18 18.5 34t42.5 16q23 0 37 -11q15 -22 15 -70z" />
<glyph unicode="&#x201e;" horiz-adv-x="349" d="M154 43q0 -26 -10.5 -51.5t-25.5 -42.5t-31.5 -30.5t-28 -20t-14.5 -6.5q-14 0 -21 18q60 36 60 74q0 29 -21 54t-21 36q0 18 18.5 34t42.5 16q23 0 37 -11q15 -22 15 -70zM302 43q0 -26 -10.5 -51.5t-25.5 -42.5t-31.5 -30.5t-28 -20t-14.5 -6.5q-14 0 -21 18 q60 36 60 74q0 29 -21 54t-21 36q0 18 18.5 34t42.5 16q23 0 37 -11q15 -22 15 -70z" />
<glyph unicode="&#x2022;" horiz-adv-x="421" d="M71 263q0 58 41 99.5t99 41.5t98.5 -41.5t40.5 -99.5t-40.5 -99t-98.5 -41t-99 41t-41 99z" />
<glyph unicode="&#x2026;" horiz-adv-x="790" d="M748 63q0 -30 -21.5 -52t-52.5 -22q-32 0 -54 22.5t-22 54.5q0 30 22 51.5t53 21.5t53 -23t22 -53zM470 63q0 -30 -21.5 -52t-52.5 -22q-32 0 -54 22.5t-22 54.5q0 30 22 51.5t53 21.5t53 -23t22 -53zM192 63q0 -30 -21.5 -52t-52.5 -22q-32 0 -54 22.5t-22 54.5 q0 30 22 51.5t53 21.5t53 -23t22 -53z" />
<glyph unicode="&#x202f;" horiz-adv-x="177" />
<glyph unicode="&#x2039;" horiz-adv-x="315" d="M26 248q0 8 7 15q27 16 52.5 33.5t45.5 32.5t38 29t31 25.5t22 20t14.5 14t6.5 5.5q6 -1 15 -6.5t12 -12.5q-3 -4 -27.5 -34t-57 -68t-49.5 -54q17 -16 49.5 -54t57 -68t27.5 -34q-3 -7 -12 -12.5t-15 -6.5q-1 0 -6.5 5.5t-14.5 14t-22 20t-31 25.5t-38 29t-45.5 32.5 t-52.5 33.5q-7 7 -7 15z" />
<glyph unicode="&#x203a;" horiz-adv-x="315" d="M289 248q0 -8 -7 -15q-27 -16 -52.5 -33.5t-45.5 -32.5t-38 -29t-31 -25.5t-22 -20t-14.5 -14t-6.5 -5.5q-6 1 -15 6.5t-12 12.5q3 4 27.5 34t57 68t49.5 54q-17 16 -49.5 54t-57 68t-27.5 34q3 7 12 12.5t15 6.5q1 0 6.5 -5.5t14.5 -14t22 -20t31 -25.5t38 -29 t45.5 -32.5t52.5 -33.5q7 -7 7 -15z" />
<glyph unicode="&#x205f;" horiz-adv-x="221" />
<glyph unicode="&#x20ac;" horiz-adv-x="716" d="M60 294h373q8 -10 2.5 -23.5t-12.5 -18.5h-383q-5 5 4 23.5t16 18.5zM60 400h373q8 -10 2.5 -23.5t-12.5 -18.5h-383q-5 5 4 23.5t16 18.5zM670 185q0 -14 -15 -78.5t-25 -68.5q-44 -15 -66 -22t-64.5 -15t-84.5 -8q-139 0 -237.5 93t-98.5 224q0 136 99 234t239 98 q118 0 205 -18q0 -1 16.5 -70t16.5 -76q0 -5 -8.5 -9.5t-17.5 -4.5t-13 4q-4 14 -10 28.5t-21 34.5t-34.5 34.5t-52.5 25t-72 10.5q-98 0 -148 -75.5t-50 -186.5q0 -79 22.5 -146t73 -112.5t121.5 -45.5q75 0 122 42q18 17 35 45.5t24.5 47t9.5 26.5q21 0 34 -11z" />
<glyph unicode="&#x25fc;" horiz-adv-x="445" d="M0 445h445v-445h-445v445z" />
<glyph unicode="&#xf890;" horiz-adv-x="246" d="M223 764q0 -5 -4.5 -12.5t-9.5 -7.5q-18 0 -99 39.5t-81 63.5q0 19 19 28.5t37 9.5q10 0 18 -4q33 -25 76.5 -68t43.5 -49z" />
<glyph unicode="&#xf891;" horiz-adv-x="246" d="M29 764q0 6 43.5 49t76.5 68q8 4 18 4q18 0 37 -9.5t19 -28.5q0 -24 -81 -63.5t-99 -39.5q-5 0 -9.5 7.5t-4.5 12.5z" />
<glyph unicode="&#xf892;" horiz-adv-x="349" d="M296 704q-10 2 -54 24t-66 36q-22 -14 -65 -35.5t-55 -24.5q-10 5 -10 17q11 8 72 65q13 12 45 48q8 10 13 10q3 0 13 -10q24 -26 42 -44q56 -55 75 -69q0 -14 -10 -17z" />
<glyph unicode="&#xf893;" horiz-adv-x="314" d="M119 759q0 -23 15.5 -38.5t37.5 -15.5t37.5 15.5t15.5 38.5t-15.5 38.5t-37.5 15.5t-37.5 -15.5t-15.5 -38.5zM73 759q0 40 29 69t70 29q40 0 69 -28.5t29 -69.5t-29 -70t-69 -29t-69.5 29t-29.5 70z" />
<glyph unicode="&#xf894;" horiz-adv-x="675" d="M274 854q38 0 90 -29q58 -32 83 -32q24 0 43 11.5t30.5 25t13.5 14.5q8 0 8 -14q0 -23 -19 -48q-40 -49 -93 -49q-38 0 -90 29q-60 33 -83 33q-24 0 -43 -11.5t-30.5 -25.5t-13.5 -15q-8 0 -8 15q0 23 19 48q39 48 93 48z" />
<glyph unicode="&#xf897;" horiz-adv-x="1044" d="M250 -27q18 2 24 2q22 0 38 -15.5t16 -36.5q0 -39 -28 -64.5t-76 -25.5q-35 0 -52 17q-4 6 -4 21q0 8 3 8q32 -16 51 -16q25 0 36.5 9.5t11.5 22.5q0 35 -28 35q-9 0 -28 -7q-3 0 -8.5 6t-5.5 10q20 31 30 59h34q-9 -15 -14 -25z" />
<glyph unicode="&#xf89d;" horiz-adv-x="406" d="M282 785q0 28 19.5 47.5t48.5 19.5t48.5 -19.5t19.5 -47.5q0 -29 -20 -48.5t-48 -19.5t-48 19.5t-20 48.5zM57 785q0 29 19.5 48t47.5 19q29 0 48.5 -19.5t19.5 -47.5q0 -29 -20 -48.5t-48 -19.5t-47.5 19.5t-19.5 48.5z" />
<glyph unicode="&#xf89e;" horiz-adv-x="391" d="M301 681q29 0 49.5 -20.5t20.5 -48.5t-20.5 -49t-49.5 -21q-28 0 -48.5 20.5t-20.5 49.5q0 28 20 48.5t49 20.5zM100 681q29 0 49.5 -20.5t20.5 -48.5t-21 -49t-49 -21t-49 21t-21 49t20.5 48.5t49.5 20.5z" />
</font>
</defs>
</svg>
