<svg xmlns="http://www.w3.org/2000/svg" width="25" height="30" viewBox="0 0 25 30">
  <g fill="none" fill-rule="evenodd">
    <rect width="24" height="3" fill="#545559"/>
    <rect width="24" height="3" y="7" fill="#545559"/>
    <rect width="24" height="3" y="14" fill="#545559"/>
    <path fill="#666666" d="M-0.23,30 L1.09,30 L1.09,27.61 C1.09,26.97 0.97,26.02 0.9,25.39 L0.94,25.39 L1.46,26.94 L2.39,29.43 L3.2,29.43 L4.13,26.94 L4.66,25.39 L4.7,25.39 C4.63,26.02 4.51,26.97 4.51,27.61 L4.51,30 L5.85,30 L5.85,23.48 L4.25,23.48 L3.22,26.38 C3.09,26.76 2.98,27.18 2.85,27.58 L2.81,27.58 C2.68,27.18 2.56,26.76 2.43,26.38 L1.38,23.48 L-0.23,23.48 L-0.23,30 Z M7.39,30 L11.57,30 L11.57,28.76 L8.86,28.76 L8.86,27.26 L11.08,27.26 L11.08,26.03 L8.86,26.03 L8.86,24.72 L11.47,24.72 L11.47,23.48 L7.39,23.48 L7.39,30 Z M12.87,30 L14.27,30 L14.27,27.69 C14.27,26.92 14.15,26.05 14.09,25.33 L14.13,25.33 L14.77,26.75 L16.47,30 L17.98,30 L17.98,23.48 L16.58,23.48 L16.58,25.78 C16.58,26.55 16.7,27.47 16.76,28.16 L16.72,28.16 L16.08,26.72 L14.38,23.48 L12.87,23.48 L12.87,30 Z M22.09,30.12 C23.77,30.12 24.66,29.17 24.66,26.98 L24.66,23.48 L23.24,23.48 L23.24,27.13 C23.24,28.41 22.82,28.85 22.09,28.85 C21.36,28.85 20.96,28.41 20.96,27.13 L20.96,23.48 L19.48,23.48 L19.48,26.98 C19.48,29.17 20.4,30.12 22.09,30.12 Z"/>
  </g>
</svg>
