<?xml version="1.0" encoding="utf-8"?>
<!-- Generator: Adobe Illustrator 21.1.0, SVG Export Plug-In . SVG Version: 6.00 Build 0)  -->
<svg version="1.1" id="Signature_Templates" xmlns="http://www.w3.org/2000/svg" xmlns:xlink="http://www.w3.org/1999/xlink"
	 x="0px" y="0px" viewBox="0 0 720 148" style="enable-background:new 0 0 720 148;" xml:space="preserve">
<style type="text/css">
	.st0{fill:#FFFFFF;}
	.st1{fill:#FFFFFF;}
</style>
<g>
	<g>
		<path class="st0" d="M114.6,111.8c-10.2,0-11-7.8-11-10.1c0-2.8,0.8-7.7,7.3-10.1c6.7-2.5,8.2-2.8,12.8-4.2v-1.2
			c0-2.2,0-2.8-0.4-4.2c-0.9-2.7-3.4-4.3-6.9-4.3c-5.1,0-7.2,3.9-7.2,3.9l-0.4,0.8l-1.9-1.1l0.2-0.6c0.9-2.9,4.6-7.9,12.7-7.9
			c5.3,0,8.7,1.5,10.8,4.7c1.6,2.6,1.7,6.1,1.7,9.8c0,3.2-0.1,6.9-0.1,9.8c0,2-0.1,3.7-0.1,4.8c0,2.7,0.4,4.7,2.6,4.7
			c0.6,0,0.9-0.1,1.2-0.4l0.6-0.5l1.2,1.4l-0.4,0.5c-2,2.5-4,4.2-7.4,4.2c-3,0-5.1-1.4-5.8-3.8C122.4,109.6,119.4,111.8,114.6,111.8
			z M123.7,92c-5,1.5-6.7,2.3-8.3,3.1c-2.2,1.1-3.3,3.3-3.3,5.9c0,2,0.7,5.5,5.6,5.5c1.6,0,3.9-0.3,5.9-1.7V92z"/>
	</g>
	<g>
		<g>
			<path class="st0" d="M52.3,111.7c-4.9,0-8.6-0.5-12.4-1.8l-0.6-0.2V107c0-3.6-0.1-5.1-0.2-6.2L39,98.9l2.2,0l0,0.8
				c0.1,1.7,0.7,3.4,1.7,4.5c1.6,1.8,5.3,2.9,8.7,2.9c7.2,0,10.5-2.7,10.5-8.6c0-5-3.1-7.1-7.4-10l-0.7-0.5l-4.5-3
				c-6.3-4.2-9.5-7.5-9.5-14.1c0-3.2,1.2-13.9,17-13.9c6.5,0,11.5,0.9,11.7,0.9l0.7,0.1l0,0.7c0,0-0.1,2.1-0.1,4.3
				c0,1.8,0,3.3,0,4.9l0.1,1.2h-1.9l0-0.7c-0.1-2-0.7-3.5-1.8-4.6c-1.5-1.5-4.9-2.2-8.4-2.2c-8.4,0-9.3,4.3-9.3,7.5
				c0,4.4,2.3,5.9,7.2,9.2l5.7,3.8c4.9,3.2,9.4,6.3,9.4,14.4C70.5,110.2,57.7,111.7,52.3,111.7z"/>
		</g>
		<g>
			<path class="st0" d="M89.7,111.9c-5.8,0-9.1-2.1-10.5-6.7c-0.6-1.9-0.6-5.5-0.6-7.7c0-6,0.1-10.9,0.1-16.4l0-2.6h-5V77l0.5-0.2
				c2.3-1,3.2-1.6,4.2-2.4c3.6-2.8,6.1-7.6,6.2-7.6l0.8-1.4h1.6v8.5H100v4.7H87.1v19.8c0,5.9,1.1,9.3,6.7,9.3c2.6,0,4.6-1,4.6-1
				l0.8-0.4l0.7,1.5l-0.3,0.4C99.4,108.1,96.5,111.9,89.7,111.9z"/>
		</g>
		<g>
			<path class="st0" d="M140.9,111.5v-1.8l0.7-0.1c0.6-0.1,2.2-0.3,3.3-1.6c1.2-1.3,1.2-4.5,1.2-10.9V86.4c0-4.6-0.1-6.6-0.7-7.6
				c-0.8-1.1-2.5-1.2-3.4-1.3c-0.1,0-0.2,0-0.3,0l-0.7-0.1v-2.2l0.9,0.1c0.1,0,0.3,0,0.6,0c1.2,0,3.9-0.2,6.8-0.7
				c2.2-0.4,3.5-1.1,4-1.3l0.4-0.2l0.7,0.4v3c1.9-1.4,5.7-3.6,10.9-3.6c6.8,0,11.2,3.2,12.5,8.9c0.4,1.4,0.5,4.9,0.5,6.7v11
				c0,6.2,0.2,8,1.4,9.1c0.6,0.5,1.8,1,2.9,1.1l0.7,0.1v1.8l-1.9-0.1c-2.7-0.1-5-0.3-7.5-0.3c-2.8,0-5.2,0-8.6,0.3l-0.9,0.1v-1.7
				l0.7-0.1c1.5-0.2,2.5-0.6,3.1-1.3c1.2-1.2,1.3-4.1,1.4-6.6c0-0.4,0-0.9,0.1-1.3C170,99,170,96,170,93.9c0-2.8,0-5.7-0.3-8.6
				c-0.6-4.9-3.1-7.1-8-7.1c-3.4,0-5.5,0.8-7.1,1.6v19.8c0,6.2,0.3,8,1.4,9.1c0.6,0.5,1.8,1,2.9,1.1l0.7,0.1v1.8l-2-0.1
				c-2.6-0.1-4.9-0.3-7.2-0.3c-2.7,0-5.3,0-8.6,0.3L140.9,111.5z"/>
		</g>
		<g>
			<path class="st0" d="M187.9,111.5v-1.8l0.7-0.1c0.6,0,2.2-0.3,3.3-1.6c1.2-1.3,1.2-4.5,1.2-10.9V78.4h-4.9v-2.1l0.5-0.2
				c2.1-0.9,3.4-1.6,4.4-2.3c0-3.3,0.1-7.6,0.6-10c1.5-7.8,6.6-11.7,15.1-11.7c3.7,0,7.2,1.2,9.2,2.9l0.3,0.2l0.1,0.8l-3.7,5.2
				l-0.9,0l-0.2-0.5c-1.4-3.2-3.5-4.4-6.3-4.4c-1.2,0-2.8,0.4-3.8,1.4c-1.6,1.6-1.9,4.1-1.9,8.9v7.3h8.4v4.7h-8.4v20.9
				c0,5,0.2,7.4,0.8,8.4c1.1,1.6,4.3,1.7,5.2,1.7h0.8v2l-0.8,0c-4.1-0.2-7.2-0.3-9.5-0.3c-2.8,0-6,0-9.3,0.3L187.9,111.5z"/>
		</g>
		<g>
			<path class="st0" d="M231.2,112.1c-11.5,0-18.4-7.2-18.4-19.2c0-9.3,5-20.2,19.2-20.2c11.5,0,18.4,7.2,18.4,19.1
				C250.4,101.2,245.4,112.1,231.2,112.1z M231.7,77.1c-2.2,0-4,0.6-5.3,1.7c-3,2.5-4.6,7.2-4.6,13.7c0,2.5,0.5,15.2,9.7,15.2
				c2.2,0,4-0.6,5.3-1.7c3-2.5,4.6-7.2,4.6-13.7C241.4,89.8,241,77.1,231.7,77.1z"/>
		</g>
		<g>
			<path class="st0" d="M254,111.5v-1.9l0.7-0.1c0.6,0,2.2-0.3,3.3-1.6c1.2-1.3,1.2-4.4,1.2-10.8V86.4c0-4.6-0.1-6.6-0.7-7.6
				c-0.8-1.1-2.5-1.2-3.4-1.3c-0.1,0-0.2,0-0.3,0l-0.7-0.1v-2.3l0.8,0c0.1,0,0.4,0,0.6,0c1.2,0,3.9-0.1,6.8-0.7
				c1.8-0.3,3.4-0.8,4-1.1l0.4-0.2l0.7,0.4v3.3c1.8-1.7,4.7-3.5,8.7-3.5c2.6,0,4.8,0.7,6.3,2.1l0.3,0.2v1.2l-3.2,5.8h-1.5l-0.2-0.4
				c-0.9-1.4-2.6-3-6.1-3c-1.6,0-2.9,0.4-4.1,1.2v19c0,5,0.2,7.3,0.8,8.3c1.1,1.6,4.3,1.7,5.2,1.7h0.8v2.1l-0.8,0
				c-4.1-0.2-7.2-0.3-9.5-0.3c-2.8,0-6,0-9.3,0.3L254,111.5z"/>
		</g>
		<g>
			<path class="st0" d="M313.2,112l-1-0.3v-3.2c-1.9,1.4-5.6,3.5-10.5,3.5c-10.3,0-17-7.2-17-18.3c0-3.7,0.7-7.2,2.1-10.1
				c3.2-6.8,9.7-10.8,18-10.8c3,0,5.7,0.4,7.4,0.7v-8c0-4.7-0.1-7.2-0.7-8.2c-0.8-1.1-2.4-1.2-3.3-1.3c-0.1,0-0.2,0-0.3,0l-0.7-0.1
				l0.2-1.7h0.8c0.2,0,4.5-0.4,8.1-1.1c1.5-0.2,3-0.6,3.7-0.9l0.4-0.1l0.6,0.4l0,0.4c-0.2,3.1-0.3,9.7-0.3,14.7v30.7
				c0,4.6,0.1,7.4,0.7,8.3c0.8,1.1,2.4,1.3,3.3,1.4c0.1,0,0.2,0,0.3,0l0.7,0v2h-0.8c-0.8,0-4.1,0.2-7.3,0.8
				c-1.8,0.3-3.2,0.6-3.8,0.9L313.2,112z M304.5,77.3c-7.3,0-10.9,5-10.9,15.4c0,4.2,1.2,13.9,12.1,13.9h0.4c1.3,0,3.8-0.2,6-1.5
				V79.9C311.4,79.2,309.2,77.3,304.5,77.3z"/>
		</g>
	</g>
</g>
<g>
	<g>
		<rect x="341.6" y="37" class="st1" width="2.4" height="74.8"/>
	</g>
	<g>
    <g>
      <path class="st1" d="M360.8,39.2h8.4c6.1,0,10.2,2.1,10.2,8.1c0,5.8-4.1,8.5-10.2,8.5h-5v10.9h-3.5V39.2z M368.8,53
        c4.8,0,7.1-1.8,7.1-5.7c0-4-2.4-5.3-7.1-5.3h-4.5v11H368.8z"/>
      <path class="st1" d="M384.3,46.3h2.9l0.3,3.7h0.1c1.4-2.6,3.5-4.2,5.8-4.2c0.9,0,1.5,0.1,2.2,0.4l-0.7,3c-0.7-0.2-1.1-0.3-2-0.3
        c-1.7,0-3.8,1.3-5.2,4.7v13.1h-3.4V46.3z"/>
      <path class="st1" d="M406.6,45.8c5.2,0,8.1,3.7,8.1,9.6c0,0.7,0,1.4-0.1,1.9h-13.8c0.3,4.4,2.9,7.2,6.8,7.2
        c1.9,0,3.6-0.6,5.1-1.6l1.2,2.3c-1.8,1.1-3.9,2.1-6.7,2.1c-5.5,0-9.8-4-9.8-10.7C397.4,49.9,401.9,45.8,406.6,45.8z M411.7,55
        c0-4.2-1.9-6.5-5-6.5c-2.9,0-5.5,2.4-5.9,6.5H411.7z"/>
      <path class="st1" d="M419.3,54.9h9.7v2.6h-9.7V54.9z"/>
      <path class="st1" d="M446.3,38.7c3.3,0,5.9,1.6,7.5,3.4l-2,2.2c-1.4-1.6-3.2-2.6-5.5-2.6c-5.2,0-8.7,4.3-8.7,11.1
        c0,6.9,3.3,11.3,8.5,11.3c2.6,0,4.6-1.1,6.3-3.1l2,2.1c-2.2,2.5-4.9,4-8.4,4c-6.9,0-12.1-5.3-12.1-14.3
        C434,44.1,439.2,38.7,446.3,38.7z"/>
      <path class="st1" d="M467.1,45.8c5,0,9.4,3.9,9.4,10.8c0,6.8-4.5,10.7-9.4,10.7c-5,0-9.4-3.9-9.4-10.7
        C457.7,49.7,462.1,45.8,467.1,45.8z M467.1,64.4c3.5,0,5.9-3.2,5.9-7.8c0-4.7-2.4-7.9-5.9-7.9c-3.5,0-5.9,3.2-5.9,7.9
        C461.3,61.2,463.7,64.4,467.1,64.4z"/>
      <path class="st1" d="M482,36.8h3.4v26c0,1.1,0.5,1.5,1,1.5c0.2,0,0.4,0,0.8-0.1l0.5,2.6c-0.5,0.2-1.1,0.3-2,0.3
        c-2.6,0-3.7-1.6-3.7-4.6V36.8z"/>
      <path class="st1" d="M492.4,36.8h3.4v26c0,1.1,0.5,1.5,1,1.5c0.2,0,0.4,0,0.8-0.1l0.5,2.6c-0.5,0.2-1.1,0.3-2,0.3
        c-2.6,0-3.7-1.6-3.7-4.6V36.8z"/>
      <path class="st1" d="M510.5,45.8c5.2,0,8.1,3.7,8.1,9.6c0,0.7,0,1.4-0.1,1.9h-13.8c0.3,4.4,2.9,7.2,6.8,7.2
        c1.9,0,3.6-0.6,5.1-1.6l1.2,2.3c-1.8,1.1-3.9,2.1-6.7,2.1c-5.5,0-9.8-4-9.8-10.7C501.3,49.9,505.8,45.8,510.5,45.8z M515.6,55
        c0-4.2-1.8-6.5-5-6.5c-2.9,0-5.5,2.4-5.9,6.5H515.6z"/>
      <path class="st1" d="M525.2,66v-0.2c-1-0.6-1.8-1.7-1.8-3.3c0-1.7,1.2-3.1,2.2-3.8v-0.2c-1.3-1.1-2.6-3.1-2.6-5.5
        c0-4.5,3.5-7.3,7.7-7.3c1.1,0,2.1,0.2,2.9,0.5h7.1V49h-4.2c1,0.9,1.7,2.5,1.7,4.2c0,4.4-3.3,7.1-7.5,7.1c-1,0-2.1-0.3-3.1-0.7
        c-0.7,0.6-1.3,1.3-1.3,2.4c0,1.3,0.8,2.2,3.6,2.2h3.9c4.7,0,7.1,1.5,7.1,4.9c0,3.8-4,7.1-10.3,7.1c-5,0-8.4-2-8.4-5.5
        C522.2,68.9,523.3,67.3,525.2,66z M531.1,73.7c3.9,0,6.5-2,6.5-4.2c0-1.9-1.5-2.5-4.1-2.5H530c-0.8,0-1.8-0.1-2.6-0.3
        c-1.5,1-2.1,2.3-2.1,3.4C525.2,72.4,527.4,73.7,531.1,73.7z M535,53.1c0-3-1.9-4.7-4.3-4.7c-2.4,0-4.3,1.8-4.3,4.7
        c0,3,2,4.9,4.3,4.9C533,58,535,56.1,535,53.1z"/>
      <path class="st1" d="M544.4,39.9c0-1.3,1.1-2.2,2.4-2.2c1.3,0,2.4,0.9,2.4,2.2c0,1.3-1.1,2.2-2.4,2.2
        C545.4,42.1,544.4,41.2,544.4,39.9z M545,46.3h3.4v20.4H545V46.3z"/>
      <path class="st1" d="M566.4,53.8c0-2.6-0.9-5.1-4.2-5.1c-2.4,0-4.5,1.1-6.1,2.2l-1.4-2.4c1.9-1.2,4.7-2.6,8-2.6
        c5,0,7.1,3.3,7.1,8.4v12.5H567l-0.3-2.4h-0.1c-2,1.6-4.2,2.9-6.8,2.9c-3.4,0-6-2.1-6-5.8C553.8,57,557.7,54.8,566.4,53.8z
         M560.8,64.5c2,0,3.6-1,5.6-2.7v-5.7c-6.8,0.8-9.2,2.5-9.2,5.1C557.2,63.5,558.8,64.5,560.8,64.5z"/>
      <path class="st1" d="M576.7,49.1h-3v-2.6l3.2-0.2l0.4-5.7h2.9v5.7h5.5v2.8h-5.5v11.3c0,2.5,0.8,3.9,3.2,3.9
        c0.7,0,1.6-0.3,2.3-0.5l0.7,2.6c-1.1,0.4-2.5,0.8-3.8,0.8c-4.4,0-5.8-2.8-5.8-6.8V49.1z"/>
      <path class="st1" d="M597.6,45.8c5.2,0,8.1,3.7,8.1,9.6c0,0.7,0,1.4-0.1,1.9h-13.8c0.3,4.4,2.9,7.2,6.8,7.2
        c1.9,0,3.6-0.6,5.1-1.6l1.2,2.3c-1.8,1.1-3.9,2.1-6.7,2.1c-5.5,0-9.8-4-9.8-10.7C588.5,49.9,592.9,45.8,597.6,45.8z M602.7,55
        c0-4.2-1.8-6.5-5-6.5c-2.9,0-5.5,2.4-5.9,6.5H602.7z"/>
      <path class="st1" d="M360.9,105.7c2,2.1,4.7,3.4,7.6,3.4c3.6,0,5.8-1.8,5.8-4.5c0-2.8-2-3.7-4.6-4.9l-3.9-1.7
        c-2.6-1.1-5.6-3.1-5.6-7.1c0-4.2,3.7-7.3,8.6-7.3c3.3,0,6.2,1.4,8.1,3.4l-1.9,2.3c-1.7-1.6-3.7-2.6-6.3-2.6c-3.1,0-5.1,1.6-5.1,4
        c0,2.6,2.4,3.7,4.6,4.6l3.9,1.7c3.2,1.4,5.7,3.3,5.7,7.3c0,4.4-3.6,7.9-9.4,7.9c-3.9,0-7.3-1.6-9.7-4.1L360.9,105.7z"/>
      <path class="st1" d="M382.6,91.3h3.5v12.5c0,3.8,1.1,5.5,3.8,5.5c2.1,0,3.6-1.1,5.5-3.4V91.3h3.4v20.4H396l-0.3-3.2h-0.1
        c-1.9,2.2-3.9,3.7-6.7,3.7c-4.3,0-6.3-2.8-6.3-8V91.3z"/>
      <path class="st1" d="M405.5,91.3h2.9l0.3,2.9h0.1c1.8-1.9,3.9-3.4,6.3-3.4c3.1,0,4.8,1.5,5.6,3.9c2.1-2.3,4.2-3.9,6.7-3.9
        c4.2,0,6.2,2.8,6.2,8v12.9h-3.4V99.3c0-3.8-1.2-5.5-3.8-5.5c-1.6,0-3.2,1.1-5.1,3.1v14.8h-3.4V99.3c0-3.8-1.2-5.5-3.8-5.5
        c-1.5,0-3.2,1.1-5.1,3.1v14.8h-3.4V91.3z"/>
      <path class="st1" d="M440.2,91.3h2.9l0.3,2.9h0.1c1.8-1.9,3.9-3.4,6.3-3.4c3.1,0,4.8,1.5,5.6,3.9c2.1-2.3,4.2-3.9,6.7-3.9
        c4.2,0,6.2,2.8,6.2,8v12.9H465V99.3c0-3.8-1.2-5.5-3.8-5.5c-1.6,0-3.2,1.1-5.1,3.1v14.8h-3.4V99.3c0-3.8-1.2-5.5-3.8-5.5
        c-1.5,0-3.2,1.1-5.1,3.1v14.8h-3.4V91.3z"/>
      <path class="st1" d="M482.9,90.8c5.2,0,8.1,3.7,8.1,9.6c0,0.7,0,1.4-0.1,1.9h-13.8c0.3,4.4,2.9,7.2,6.8,7.2
        c1.9,0,3.6-0.6,5.1-1.6l1.2,2.3c-1.8,1.1-3.9,2.1-6.7,2.1c-5.5,0-9.8-4-9.8-10.7C473.7,94.9,478.2,90.8,482.9,90.8z M488,100
        c0-4.2-1.8-6.5-5-6.5c-2.9,0-5.5,2.4-5.9,6.5H488z"/>
      <path class="st1" d="M496.3,91.3h2.9l0.3,3.7h0.1c1.4-2.6,3.5-4.2,5.8-4.2c0.9,0,1.5,0.1,2.2,0.4l-0.7,3c-0.7-0.2-1.1-0.3-2-0.3
        c-1.7,0-3.8,1.3-5.2,4.7v13.1h-3.4V91.3z"/>
      <path class="st1" d="M519.7,84.2h3.5v27.5h-3.5V84.2z"/>
      <path class="st1" d="M530.1,91.3h2.9l0.3,2.9h0.1c1.9-1.9,4-3.4,6.8-3.4c4.3,0,6.2,2.8,6.2,8v12.9H543V99.3
        c0-3.8-1.2-5.5-3.9-5.5c-2.1,0-3.5,1.1-5.6,3.1v14.8h-3.4V91.3z"/>
      <path class="st1" d="M552.6,107.1c1.8,1.4,3.6,2.4,6,2.4c2.7,0,4-1.4,4-3.2c0-2.1-2.4-3-4.7-3.9c-2.9-1-6.1-2.4-6.1-5.9
        c0-3.3,2.6-5.8,7-5.8c2.6,0,4.8,1.1,6.3,2.3l-1.6,2.2c-1.4-1.1-2.9-1.8-4.7-1.8c-2.6,0-3.7,1.4-3.7,2.9c0,1.9,2.2,2.6,4.5,3.5
        c2.9,1.1,6.2,2.3,6.2,6.2c0,3.3-2.6,6.1-7.5,6.1c-2.9,0-5.7-1.2-7.6-2.8L552.6,107.1z"/>
      <path class="st1" d="M571.9,94.1h-3v-2.6l3.2-0.2l0.4-5.7h2.9v5.7h5.5v2.8h-5.5v11.3c0,2.5,0.8,3.9,3.1,3.9
        c0.7,0,1.6-0.3,2.3-0.5l0.7,2.6c-1.1,0.4-2.5,0.8-3.8,0.8c-4.4,0-5.8-2.8-5.8-6.8V94.1z"/>
      <path class="st1" d="M585.1,84.9c0-1.3,1.1-2.2,2.4-2.2c1.3,0,2.4,0.9,2.4,2.2c0,1.3-1.1,2.2-2.4,2.2
        C586.1,87.1,585.1,86.2,585.1,84.9z M585.7,91.3h3.4v20.4h-3.4V91.3z"/>
      <path class="st1" d="M596.6,94.1h-3v-2.6l3.2-0.2l0.4-5.7h2.9v5.7h5.5v2.8h-5.5v11.3c0,2.5,0.8,3.9,3.1,3.9
        c0.7,0,1.6-0.3,2.3-0.5l0.7,2.6c-1.1,0.4-2.5,0.8-3.8,0.8c-4.4,0-5.8-2.8-5.8-6.8V94.1z"/>
      <path class="st1" d="M609.9,91.3h3.5v12.5c0,3.8,1.1,5.5,3.8,5.5c2.1,0,3.6-1.1,5.5-3.4V91.3h3.4v20.4h-2.9l-0.3-3.2h-0.1
        c-1.9,2.2-3.9,3.7-6.7,3.7c-4.3,0-6.3-2.8-6.3-8V91.3z"/>
      <path class="st1" d="M633.6,94.1h-3v-2.6l3.2-0.2l0.4-5.7h2.9v5.7h5.5v2.8h-5.5v11.3c0,2.5,0.8,3.9,3.2,3.9
        c0.7,0,1.6-0.3,2.3-0.5l0.7,2.6c-1.1,0.4-2.5,0.8-3.8,0.8c-4.4,0-5.8-2.8-5.8-6.8V94.1z"/>
      <path class="st1" d="M654.5,90.8c5.2,0,8.1,3.7,8.1,9.6c0,0.7,0,1.4-0.1,1.9h-13.8c0.3,4.4,2.9,7.2,6.8,7.2
        c1.9,0,3.6-0.6,5.1-1.6l1.2,2.3c-1.8,1.1-3.9,2.1-6.7,2.1c-5.5,0-9.8-4-9.8-10.7C645.3,94.9,649.8,90.8,654.5,90.8z M659.6,100
        c0-4.2-1.8-6.5-5-6.5c-2.9,0-5.5,2.4-5.9,6.5H659.6z"/>
      <path class="st1" d="M667.5,107.1c1.8,1.4,3.6,2.4,6,2.4c2.7,0,4-1.4,4-3.2c0-2.1-2.4-3-4.7-3.9c-2.9-1-6.1-2.4-6.1-5.9
        c0-3.3,2.6-5.8,7-5.8c2.6,0,4.8,1.1,6.3,2.3l-1.6,2.2c-1.4-1.1-2.9-1.8-4.7-1.8c-2.6,0-3.7,1.4-3.7,2.9c0,1.9,2.2,2.6,4.5,3.5
        c2.9,1.1,6.2,2.3,6.2,6.2c0,3.3-2.6,6.1-7.5,6.1c-2.9,0-5.7-1.2-7.6-2.8L667.5,107.1z"/>
    </g>
	</g>
</g>
</svg>
