<?xml version="1.0" encoding="utf-8"?>
<!-- Generator: Adobe Illustrator 19.2.1, SVG Export Plug-In . SVG Version: 6.00 Build 0)  -->
<svg version="1.1" id="Layer_1" xmlns="http://www.w3.org/2000/svg" xmlns:xlink="http://www.w3.org/1999/xlink" x="0px" y="0px"
	 viewBox="0 0 30 30" style="enable-background:new 0 0 30 30;" xml:space="preserve">
<path d="M24.4,20.3c-0.5-2-2.6-3.3-4.6-2.8c0,0,0,0-0.1,0l-1.6-6.3c1.3-0.7,2-2.2,1.7-3.7c-0.4-1.8-2.2-2.8-4-2.4
	c-0.9,0.2-1.6,0.7-2,1.5c-0.5,0.8-0.6,1.6-0.4,2.5c0.1,0.4,0.3,0.8,0.6,1.2l-5,5.3c-0.5-0.2-1-0.2-1.5-0.1c-1.4,0.3-2.3,1.8-1.9,3.2
	c0.3,1.2,1.4,2,2.6,2c0.2,0,0.4,0,0.6-0.1c0.6-0.2,1.1-0.5,1.5-1l6.7,1.8c0,0.2,0,0.4,0.1,0.6c0.4,1.7,2,2.9,3.7,2.9
	c0.3,0,0.6,0,0.9-0.1C23.7,24.4,24.9,22.3,24.4,20.3z M15.2,7.4c0.2-0.4,0.6-0.7,1-0.8c0.1,0,0.3,0,0.4,0c0.3,0,0.6,0.1,0.9,0.2
	c0.4,0.2,0.7,0.6,0.8,1c0.2,0.9-0.3,1.8-1.2,2.1c-0.4,0.1-0.9,0-1.3-0.2c-0.4-0.2-0.7-0.6-0.8-1C14.9,8.3,15,7.8,15.2,7.4z
	 M8.4,19.1c-0.3,0.1-0.6,0-0.8-0.1c-0.2-0.1-0.4-0.4-0.5-0.7c-0.1-0.6,0.2-1.1,0.8-1.3c0.1,0,0.2,0,0.3,0c0.2,0,0.4,0.1,0.5,0.2
	c0.2,0.1,0.4,0.4,0.5,0.7C9.3,18.4,8.9,19,8.4,19.1z M10.7,17.4c-0.1-0.3-0.2-0.6-0.4-0.9l5-5.3c0.4,0.2,0.9,0.3,1.4,0.3l1.6,6.7
	c-0.5,0.4-0.9,1-1.2,1.7l-6.4-1.7C10.8,17.9,10.7,17.7,10.7,17.4z M21.3,23.3c-1.2,0.3-2.4-0.4-2.7-1.6c-0.3-1.2,0.4-2.4,1.6-2.7
	c0.2,0,0.4-0.1,0.5-0.1c1,0,1.9,0.7,2.2,1.7v0C23.2,21.8,22.5,23,21.3,23.3z"/>
</svg>
