<?xml version="1.0" encoding="utf-8"?>
<!-- Generator: Adobe Illustrator 19.2.1, SVG Export Plug-In . SVG Version: 6.00 Build 0)  -->
<svg version="1.1" id="Layer_1" xmlns="http://www.w3.org/2000/svg" xmlns:xlink="http://www.w3.org/1999/xlink" x="0px" y="0px"
	 viewBox="0 0 30 30" style="enable-background:new 0 0 30 30;" xml:space="preserve">
<path d="M23.3,7.3H6.7C5.7,7.3,5,8,5,8.9v12.1c0,0.9,0.7,1.7,1.7,1.7h16.7c0.9,0,1.7-0.7,1.7-1.7V8.9C25,8,24.3,7.3,23.3,7.3z
	 M22.8,8.6l-7.7,7.7c-0.1,0.1-0.1,0.1-0.2,0L7.2,8.6H22.8z M23.3,21.4H6.7c-0.2,0-0.3-0.1-0.3-0.3V9.7l7.6,7.6
	c0.3,0.3,0.7,0.4,1.1,0.4c0.4,0,0.8-0.2,1.1-0.4l7.6-7.6v11.4C23.6,21.2,23.5,21.4,23.3,21.4z"/>
</svg>
