<?xml version="1.0" encoding="utf-8"?>
<!-- Generator: Adobe Illustrator 21.1.0, SVG Export Plug-In . SVG Version: 6.00 Build 0)  -->
<svg version="1.1" id="Signature_Templates" xmlns="http://www.w3.org/2000/svg" xmlns:xlink="http://www.w3.org/1999/xlink"
	 x="0px" y="0px" viewBox="0 0 684.2 157.2" style="enable-background:new 0 0 684.2 157.2;" xml:space="preserve">
<style type="text/css">
	.st0{fill:#FFFFFF;}
</style>
<g>
	<path class="st0" d="M363.8,39.3"/>
	<path class="st0" d="M363.8,118.7"/>
	<rect x="362.5" y="39.3" class="st0" width="2.5" height="79.4"/>
</g>
<g>
	<g>
		<path class="st0" d="M121.4,118.7c-10.8,0-11.7-8.2-11.7-10.8c0-3,0.8-8.2,7.7-10.8c7.1-2.6,8.7-2.9,13.6-4.5v-1.3
			c0-2.4,0-3-0.5-4.4c-0.9-2.8-3.7-4.6-7.3-4.6c-5.4,0-7.6,4.1-7.7,4.2l-0.4,0.8l-2-1.2l0.2-0.6c1-3.1,4.9-8.4,13.5-8.4
			c5.6,0,9.2,1.6,11.5,5c1.7,2.7,1.8,6.5,1.8,10.4c0,3.4-0.1,7.3-0.2,10.4c0,2.1-0.1,4-0.1,5.1c0,2.8,0.4,5,2.8,5
			c0.6,0,1-0.1,1.3-0.4l0.6-0.5l1.3,1.5l-0.4,0.6c-2.2,2.6-4.2,4.5-7.9,4.5c-3.2,0-5.4-1.5-6.1-4.1
			C129.7,116.4,126.4,118.7,121.4,118.7z M131,97.7c-5.3,1.6-7.1,2.5-8.8,3.3c-2.3,1.2-3.5,3.5-3.5,6.3c0,2.2,0.8,5.8,6,5.8
			c1.7,0,4.2-0.3,6.3-1.9V97.7z"/>
	</g>
	<g>
		<g>
			<path class="st0" d="M55.1,118.6c-5.2,0-9.1-0.6-13.2-1.9l-0.6-0.2v-2.9c0-3.9-0.1-5.4-0.2-6.6l-0.1-2l2.4,0l0,0.8
				c0.1,1.8,0.7,3.6,1.8,4.8c1.7,1.9,5.6,3.1,9.3,3.1c7.6,0,11.2-2.9,11.2-9.1c0-5.3-3.3-7.5-7.8-10.6l-0.7-0.5l-4.8-3.2
				c-6.7-4.4-10-7.9-10-15c0-3.5,1.3-14.7,18.1-14.7c6.9,0,12.2,0.9,12.4,0.9l0.7,0.1l0,0.7c0,0-0.1,2.2-0.1,4.6c0,1.9,0,3.5,0,5.2
				l0.1,1.3h-2l0-0.8c-0.1-2.1-0.8-3.7-1.9-4.8c-1.6-1.6-5.2-2.4-9-2.4c-8.9,0-9.9,4.6-9.9,8c0,4.7,2.4,6.3,7.7,9.8l6.1,4
				c5.2,3.4,10,6.7,10,15.3C74.5,117.1,60.9,118.6,55.1,118.6z"/>
		</g>
		<g>
			<path class="st0" d="M94.9,118.9c-6.2,0-9.6-2.2-11.1-7.1c-0.6-2-0.6-5.8-0.6-8.2c0-6.4,0.1-11.5,0.1-17.5l0-2.8H78v-1.6l0.5-0.2
				c2.5-1,3.4-1.7,4.5-2.5c3.8-3,6.5-8,6.6-8.1l0.9-1.5h1.7v9h13.6v5H92.2v21c0,6.3,1.2,9.9,7.1,9.9c2.8,0,4.9-1.1,4.9-1.1l0.8-0.4
				l0.7,1.6l-0.3,0.4C105.2,114.9,102.1,118.9,94.9,118.9z"/>
		</g>
		<g>
			<path class="st0" d="M149.3,118.4v-1.9l0.8-0.1c0.7-0.1,2.4-0.3,3.5-1.7c1.2-1.4,1.3-4.8,1.3-11.6V91.7c0-4.9-0.1-7-0.8-8.1
				c-0.8-1.2-2.6-1.3-3.6-1.4c-0.1,0-0.2,0-0.3,0l-0.8-0.1v-2.3l0.9,0.1c0.2,0,0.4,0,0.6,0c1.2,0,4.2-0.2,7.2-0.8
				c2.4-0.4,3.7-1.2,4.2-1.4l0.5-0.2l0.8,0.5v3.2c2-1.5,6.1-3.9,11.6-3.9c7.2,0,11.9,3.4,13.3,9.5c0.4,1.5,0.5,5.2,0.5,7.2v11.7
				c0,6.6,0.3,8.5,1.5,9.6c0.6,0.6,1.9,1,3.1,1.1l0.8,0.1v1.9l-2-0.1c-2.9-0.1-5.3-0.3-7.9-0.3c-3,0-5.5,0-9.1,0.3l-0.9,0.1v-1.9
				l0.7-0.1c1.6-0.2,2.6-0.7,3.3-1.4c1.3-1.3,1.4-4.4,1.5-7c0-0.4,0-0.9,0.1-1.4c0.1-1.5,0.1-4.6,0.1-6.9c0-3,0-6.1-0.3-9.2
				c-0.6-5.2-3.3-7.6-8.5-7.6c-3.6,0-5.8,0.8-7.5,1.7v21c0,6.6,0.3,8.5,1.5,9.6c0.6,0.6,1.9,1,3.1,1.1l0.8,0.1v1.9l-2.1-0.1
				c-2.8-0.1-5.2-0.3-7.7-0.3c-2.9,0-5.6,0-9.2,0.3L149.3,118.4z"/>
		</g>
		<g>
			<path class="st0" d="M199.2,118.4v-1.9l0.8-0.1c0.7,0,2.4-0.3,3.6-1.7c1.2-1.4,1.3-4.8,1.3-11.6V83.3h-5.2v-2.2l0.5-0.2
				c2.3-0.9,3.7-1.7,4.7-2.5c0-3.5,0.1-8.1,0.6-10.6c1.6-8.3,7-12.5,16.1-12.5c3.9,0,7.6,1.3,9.8,3l0.3,0.2l0.1,0.9l-4,5.5l-1,0
				l-0.2-0.5c-1.5-3.4-3.7-4.7-6.7-4.7c-1.3,0-3,0.4-4,1.4c-1.7,1.7-2,4.3-2,9.4v7.7h8.9v5h-8.9v22.2c0,5.3,0.2,7.9,0.9,8.9
				c1.1,1.7,4.5,1.8,5.5,1.8h0.8v2.1l-0.9,0c-4.4-0.2-7.7-0.3-10.1-0.3c-3,0-6.3,0-9.9,0.3L199.2,118.4z"/>
		</g>
		<g>
			<path class="st0" d="M245.3,119.1c-12.2,0-19.5-7.6-19.5-20.4c0-9.9,5.3-21.4,20.4-21.4c12.2,0,19.5,7.6,19.5,20.3
				C265.6,107.5,260.3,119.1,245.3,119.1z M245.8,81.9c-2.4,0-4.3,0.6-5.7,1.8c-3.2,2.7-4.8,7.6-4.8,14.6c0,2.7,0.5,16.2,10.4,16.2
				c2.3,0,4.3-0.6,5.7-1.8c3.2-2.7,4.8-7.6,4.8-14.6C256.1,95.3,255.6,81.9,245.8,81.9z"/>
		</g>
		<g>
			<path class="st0" d="M269.5,118.4v-2l0.8-0.1c0.7,0,2.4-0.3,3.6-1.7c1.2-1.4,1.3-4.7,1.3-11.5V91.7c0-4.9-0.1-7-0.8-8.1
				c-0.8-1.2-2.6-1.3-3.6-1.4c-0.1,0-0.2,0-0.3,0l-0.8-0.1v-2.4l0.9,0c0.1,0,0.4,0,0.7,0c1.2,0,4.2-0.2,7.2-0.8
				c1.9-0.3,3.6-0.8,4.3-1.1l0.5-0.2l0.7,0.4v3.5c1.9-1.8,5-3.7,9.3-3.7c2.8,0,5.1,0.7,6.7,2.2l0.3,0.3v1.3l-3.4,6.2h-1.6l-0.2-0.4
				c-0.9-1.5-2.8-3.2-6.4-3.2c-1.7,0-3.1,0.4-4.4,1.3v20.2c0,5.3,0.2,7.8,0.9,8.8c1.1,1.7,4.5,1.8,5.5,1.8h0.8v2.2l-0.9,0
				c-4.4-0.2-7.7-0.3-10.1-0.3c-3,0-6.3,0-9.9,0.3L269.5,118.4z"/>
		</g>
		<g>
			<path class="st0" d="M332.4,118.9l-1.1-0.4v-3.4c-2,1.5-5.9,3.8-11.2,3.8c-11,0-18.1-7.6-18.1-19.4c0-3.9,0.8-7.6,2.2-10.8
				c3.3-7.3,10.3-11.4,19.1-11.4c3.2,0,6.1,0.4,7.8,0.8v-8.5c0-5-0.1-7.6-0.8-8.7c-0.8-1.2-2.6-1.3-3.5-1.4c-0.1,0-0.2,0-0.3,0
				l-0.8-0.1l0.2-1.8h0.8c0.2,0,4.8-0.4,8.6-1.1c1.6-0.3,3.1-0.6,4-0.9l0.4-0.1l0.7,0.4l0,0.4c-0.3,3.3-0.3,10.4-0.3,15.6v32.6
				c0,4.9,0.1,7.9,0.8,8.9c0.8,1.2,2.6,1.4,3.5,1.5c0.1,0,0.2,0,0.3,0l0.8,0v2.1h-0.8c-0.9,0-4.4,0.2-7.8,0.8
				c-1.9,0.3-3.4,0.6-4.1,0.9L332.4,118.9z M323.2,82.1c-7.8,0-11.6,5.3-11.6,16.3c0,4.4,1.3,14.8,12.9,14.8h0.4
				c1.4,0,4-0.2,6.3-1.6V84.8C330.5,84.2,328.1,82.1,323.2,82.1z"/>
		</g>
	</g>
</g>
<g>
	<g>
		<path class="st0" d="M382.9,41.6h9c6.5,0,10.8,2.2,10.8,8.6c0,6.2-4.4,9.1-10.8,9.1h-5.3v11.6h-3.7V41.6z M391.4,56.2
			c5.1,0,7.5-1.9,7.5-6c0-4.2-2.5-5.6-7.5-5.6h-4.8v11.6H391.4z"/>
		<path class="st0" d="M407.9,49.2h3l0.3,3.9h0.1c1.5-2.7,3.7-4.5,6.2-4.5c0.9,0,1.6,0.1,2.3,0.4l-0.7,3.2c-0.7-0.2-1.2-0.4-2.1-0.4
			c-1.8,0-4,1.3-5.5,5v13.9h-3.7V49.2z"/>
		<path class="st0" d="M431.6,48.7c5.5,0,8.7,4,8.7,10.2c0,0.8,0,1.5-0.1,2h-14.6c0.3,4.7,3.1,7.6,7.2,7.6c2.1,0,3.8-0.7,5.4-1.7
			l1.3,2.4c-1.9,1.2-4.2,2.2-7.1,2.2c-5.8,0-10.4-4.2-10.4-11.3S426.6,48.7,431.6,48.7z M437,58.4c0-4.4-2-6.9-5.4-6.9
			c-3,0-5.8,2.5-6.3,6.9H437z"/>
		<path class="st0" d="M445.1,58.3h10.3v2.8h-10.3V58.3z"/>
		<path class="st0" d="M473.8,41.1c3.5,0,6.3,1.7,8,3.6l-2.1,2.4c-1.5-1.7-3.4-2.7-5.8-2.7c-5.6,0-9.2,4.6-9.2,11.8
			c0,7.4,3.5,12,9.1,12c2.8,0,4.9-1.2,6.7-3.3l2.1,2.3c-2.3,2.7-5.2,4.2-8.9,4.2c-7.4,0-12.8-5.6-12.8-15.2
			C460.8,46.8,466.3,41.1,473.8,41.1z"/>
		<path class="st0" d="M495.9,48.7c5.3,0,10,4.2,10,11.4c0,7.2-4.7,11.3-10,11.3c-5.3,0-10-4.1-10-11.3
			C485.9,52.8,490.6,48.7,495.9,48.7z M495.9,68.4c3.7,0,6.2-3.3,6.2-8.3c0-5-2.5-8.4-6.2-8.4c-3.7,0-6.2,3.4-6.2,8.4
			C489.7,65,492.2,68.4,495.9,68.4z"/>
		<path class="st0" d="M511.7,39.1h3.7v27.7c0,1.2,0.5,1.6,1,1.6c0.2,0,0.4,0,0.8-0.1l0.5,2.8c-0.5,0.2-1.1,0.4-2.1,0.4
			c-2.8,0-3.9-1.7-3.9-4.9V39.1z"/>
		<path class="st0" d="M522.8,39.1h3.7v27.7c0,1.2,0.5,1.6,1,1.6c0.2,0,0.4,0,0.8-0.1l0.5,2.8c-0.5,0.2-1.1,0.4-2.1,0.4
			c-2.8,0-3.9-1.7-3.9-4.9V39.1z"/>
		<path class="st0" d="M542,48.7c5.5,0,8.7,4,8.7,10.2c0,0.8,0,1.5-0.1,2h-14.6c0.3,4.7,3.1,7.6,7.2,7.6c2.1,0,3.8-0.7,5.4-1.7
			l1.3,2.4c-1.9,1.2-4.2,2.2-7.1,2.2c-5.8,0-10.4-4.2-10.4-11.3S537,48.7,542,48.7z M547.4,58.4c0-4.4-2-6.9-5.4-6.9
			c-3,0-5.8,2.5-6.2,6.9H547.4z"/>
		<path class="st0" d="M557.6,70.1v-0.2c-1.1-0.7-1.9-1.8-1.9-3.5c0-1.8,1.2-3.3,2.4-4v-0.2c-1.4-1.2-2.8-3.3-2.8-5.8
			c0-4.7,3.7-7.7,8.2-7.7c1.2,0,2.3,0.2,3.1,0.5h7.5V52h-4.5c1,1,1.8,2.6,1.8,4.5c0,4.6-3.5,7.5-7.9,7.5c-1.1,0-2.3-0.3-3.3-0.8
			c-0.8,0.7-1.4,1.4-1.4,2.6c0,1.4,0.9,2.4,3.8,2.4h4.2c5,0,7.6,1.6,7.6,5.2c0,4-4.2,7.5-11,7.5c-5.3,0-9-2.1-9-5.8
			C554.4,73.2,555.6,71.5,557.6,70.1z M563.9,78.3c4.1,0,6.9-2.1,6.9-4.4c0-2-1.6-2.7-4.4-2.7h-3.8c-0.8,0-1.9-0.1-2.8-0.4
			c-1.6,1.1-2.2,2.4-2.2,3.7C557.6,76.9,560,78.3,563.9,78.3z M568,56.4c0-3.2-2.1-5-4.6-5c-2.5,0-4.6,1.9-4.6,5
			c0,3.2,2.1,5.2,4.6,5.2S568,59.5,568,56.4z"/>
		<path class="st0" d="M578,42.4c0-1.4,1.1-2.4,2.5-2.4s2.5,0.9,2.5,2.4c0,1.4-1.1,2.4-2.5,2.4S578,43.7,578,42.4z M578.7,49.2h3.7
			v21.7h-3.7V49.2z"/>
		<path class="st0" d="M601.4,57.1c0-2.8-0.9-5.4-4.5-5.4c-2.5,0-4.8,1.2-6.5,2.3l-1.5-2.5c2-1.3,5-2.8,8.5-2.8
			c5.3,0,7.5,3.5,7.5,8.9v13.3h-3l-0.3-2.6h-0.1c-2.1,1.7-4.5,3.1-7.2,3.1c-3.7,0-6.4-2.3-6.4-6.2C588.1,60.5,592.2,58.2,601.4,57.1
			z M595.5,68.5c2.1,0,3.8-1,5.9-2.9v-6c-7.3,0.9-9.7,2.7-9.7,5.4C591.7,67.4,593.3,68.5,595.5,68.5z"/>
		<path class="st0" d="M612.3,52.2h-3.2v-2.8l3.4-0.2l0.4-6.1h3.1v6.1h5.8v3h-5.8v12c0,2.7,0.9,4.2,3.3,4.2c0.8,0,1.7-0.3,2.5-0.6
			l0.7,2.8c-1.2,0.4-2.7,0.8-4,0.8c-4.6,0-6.2-2.9-6.2-7.2V52.2z"/>
		<path class="st0" d="M634.6,48.7c5.5,0,8.7,4,8.7,10.2c0,0.8,0,1.5-0.1,2h-14.6c0.3,4.7,3.1,7.6,7.2,7.6c2.1,0,3.8-0.7,5.4-1.7
			l1.3,2.4c-1.9,1.2-4.2,2.2-7.1,2.2c-5.8,0-10.4-4.2-10.4-11.3S629.6,48.7,634.6,48.7z M640,58.4c0-4.4-2-6.9-5.4-6.9
			c-3,0-5.8,2.5-6.2,6.9H640z"/>
		<path class="st0" d="M383,112.3c2.1,2.2,5,3.7,8.1,3.7c3.8,0,6.1-1.9,6.1-4.8c0-3-2.1-3.9-4.9-5.2l-4.2-1.8
			c-2.8-1.2-5.9-3.3-5.9-7.5c0-4.5,3.9-7.8,9.2-7.8c3.5,0,6.6,1.5,8.7,3.6l-2,2.4c-1.8-1.7-3.9-2.8-6.6-2.8c-3.3,0-5.4,1.7-5.4,4.3
			c0,2.8,2.5,3.9,4.9,4.9l4.2,1.8c3.4,1.5,6,3.5,6,7.8c0,4.6-3.8,8.3-9.9,8.3c-4.1,0-7.7-1.7-10.3-4.3L383,112.3z"/>
		<path class="st0" d="M406.7,100h-3.2v-2.8l3.4-0.2l0.4-6.1h3.1V97h5.8v3h-5.8v12c0,2.7,0.8,4.2,3.3,4.2c0.8,0,1.7-0.3,2.5-0.6
			l0.7,2.8c-1.2,0.4-2.7,0.8-4,0.8c-4.6,0-6.2-2.9-6.2-7.2V100z"/>
		<path class="st0" d="M420.8,97h3.7v13.3c0,4.1,1.2,5.8,4.1,5.8c2.2,0,3.8-1.1,5.8-3.7V97h3.7v21.7h-3l-0.3-3.4h-0.1
			c-2,2.4-4.2,3.9-7.1,3.9c-4.6,0-6.6-2.9-6.6-8.5V97z"/>
		<path class="st0" d="M453.4,96.5c2.5,0,4.2,0.9,6.1,2.5l-0.2-3.7v-8.3h3.7v31.8h-3l-0.3-2.5h-0.1c-1.7,1.6-4,3.1-6.6,3.1
			c-5.4,0-9-4.1-9-11.3C444,100.8,448.4,96.5,453.4,96.5z M453.7,116.1c2,0,3.8-1,5.5-3v-11.3c-1.8-1.7-3.5-2.3-5.3-2.3
			c-3.5,0-6.2,3.3-6.2,8.3C447.7,113,449.9,116.1,453.7,116.1z"/>
		<path class="st0" d="M469.4,90.2c0-1.4,1.1-2.4,2.5-2.4s2.5,0.9,2.5,2.4c0,1.4-1.1,2.4-2.5,2.4S469.4,91.6,469.4,90.2z M470.1,97
			h3.7v21.7h-3.7V97z"/>
		<path class="st0" d="M489.1,96.5c5.5,0,8.7,4,8.7,10.2c0,0.8,0,1.5-0.1,2H483c0.3,4.7,3.1,7.6,7.2,7.6c2.1,0,3.8-0.7,5.4-1.7
			l1.3,2.4c-1.9,1.2-4.2,2.2-7.1,2.2c-5.8,0-10.4-4.2-10.4-11.3S484.1,96.5,489.1,96.5z M494.5,106.2c0-4.4-2-6.9-5.4-6.9
			c-3,0-5.8,2.5-6.2,6.9H494.5z"/>
		<path class="st0" d="M502.9,113.8c1.9,1.5,3.8,2.6,6.4,2.6c2.9,0,4.3-1.5,4.3-3.4c0-2.2-2.6-3.2-5-4.1c-3.1-1.1-6.5-2.6-6.5-6.2
			c0-3.5,2.8-6.2,7.4-6.2c2.7,0,5.1,1.1,6.7,2.5l-1.7,2.3c-1.5-1.1-3-1.9-5-1.9c-2.7,0-4,1.5-4,3.1c0,2.1,2.4,2.8,4.8,3.7
			c3.1,1.2,6.6,2.5,6.6,6.6c0,3.5-2.8,6.5-7.9,6.5c-3.1,0-6-1.3-8.1-3L502.9,113.8z"/>
	</g>
</g>
</svg>
