<?xml version="1.0" standalone="no"?>
<!DOCTYPE svg PUBLIC "-//W3C//DTD SVG 1.1//EN" "http://www.w3.org/Graphics/SVG/1.1/DTD/svg11.dtd" >
<svg xmlns="http://www.w3.org/2000/svg">
<metadata>Generated by IcoMoon</metadata>
<defs>
<font id="proofpoint" horiz-adv-x="1024">
<font-face units-per-em="1024" ascent="960" descent="-64" />
<missing-glyph horiz-adv-x="1024" />
<glyph unicode="&#x20;" horiz-adv-x="512" d="" />
<glyph unicode="&#xe900;" glyph-name="plus" d="M512 874.667q17.667 0 30.167-12.5t12.5-30.167v-341.333h341.333q17.667 0 30.167-12.5t12.5-30.167-12.5-30.167-30.167-12.5h-341.333v-341.333q0-17.667-12.5-30.167t-30.167-12.5-30.167 12.5-12.5 30.167v341.333h-341.333q-17.667 0-30.167 12.5t-12.5 30.167 12.5 30.167 30.167 12.5h341.333v341.333q0 17.667 12.5 30.167t30.167 12.5z" />
<glyph unicode="&#xe901;" glyph-name="minus" d="M128 490.667h768q17.667 0 30.167-12.5t12.5-30.167-12.5-30.167-30.167-12.5h-768q-17.667 0-30.167 12.5t-12.5 30.167 12.5 30.167 30.167 12.5z" />
<glyph unicode="&#xe902;" glyph-name="caret-right" horiz-adv-x="329" d="M329.143 448q0-14.857-10.857-25.714l-256-256q-10.857-10.857-25.714-10.857t-25.714 10.857-10.857 25.714v512q0 14.857 10.857 25.714t25.714 10.857 25.714-10.857l256-256q10.857-10.857 10.857-25.714z" />
<glyph unicode="&#xe903;" glyph-name="caret-left" horiz-adv-x="402" d="M365.714 704v-512q0-14.857-10.857-25.714t-25.714-10.857-25.714 10.857l-256 256q-10.857 10.857-10.857 25.714t10.857 25.714l256 256q10.857 10.857 25.714 10.857t25.714-10.857 10.857-25.714z" />
<glyph unicode="&#xe904;" glyph-name="check" d="M954.857 636.571q0-22.857-16-38.857l-491.429-491.429q-16-16-38.857-16t-38.857 16l-284.571 284.571q-16 16-16 38.857t16 38.857l77.714 77.714q16 16 38.857 16t38.857-16l168-168.571 374.857 375.429q16 16 38.857 16t38.857-16l77.714-77.714q16-16 16-38.857z" />
<glyph unicode="&#xe905;" glyph-name="close-ppoint" d="M127.997 662.671l169.275 169.275 214.819-214.756 214.639 214.756 169.275-169.275-214.7-214.7 214.7-214.756-169.275-169.275-214.639 214.756-214.819-214.7-169.275 169.275 214.819 214.7z" />
<glyph unicode="&#xe906;" glyph-name="price-tags" horiz-adv-x="1280" d="M1232 960h-384c-26.4 0-63.274-15.274-81.942-33.942l-476.116-476.116c-18.668-18.668-18.668-49.214 0-67.882l412.118-412.118c18.668-18.668 49.214-18.668 67.882 0l476.118 476.118c18.666 18.666 33.94 55.54 33.94 81.94v384c0 26.4-21.6 48-48 48zM992 576c-53.020 0-96 42.98-96 96s42.98 96 96 96 96-42.98 96-96-42.98-96-96-96zM128 416l544 544h-80c-26.4 0-63.274-15.274-81.942-33.942l-476.116-476.116c-18.668-18.668-18.668-49.214 0-67.882l412.118-412.118c18.668-18.668 49.214-18.668 67.882 0l30.058 30.058-416 416z" />
<glyph unicode="&#xe907;" glyph-name="hamburger-close-ppoint" horiz-adv-x="1048" d="M226.236 839.65l688.881-688.881-93.056-93.056-688.881 688.881 93.056 93.056zM915.12 746.563l-688.881-688.881-93.056 93.056 688.881 688.881 93.056-93.056z" />
<glyph unicode="&#xe908;" glyph-name="hamburger-ppoint" horiz-adv-x="1001" d="M69.338 722.824h862.782v-115.748h-862.782v115.748zM69.338 505.875h862.782v-115.748h-862.782v115.748zM69.338 288.966h862.782v-115.748h-862.782v115.748z" />
<glyph unicode="&#xe909;" glyph-name="search-ppoint" horiz-adv-x="801" d="M582.858 353.718c96.116 94.86 116.683 243.862 48.479 361.596-82.687 142.499-265.059 190.976-407.555 108.499s-190.976-264.849-108.499-407.345c68.417-117.944 207.764-174.189 337.881-137.88l143.125-246.59 129.486 74.922-142.916 246.8zM471.001 397.159c-92.968-53.937-212.384-22.036-266.316 70.935-53.937 93.178-22.036 212.594 70.935 266.526 92.968 53.727 212.384 22.036 266.316-70.935 53.937-93.178 22.036-212.594-70.935-266.526z" />
<glyph unicode="&#xe90a;" glyph-name="caret-up" horiz-adv-x="585" d="M585.143 265.143c0-20-16.571-36.571-36.571-36.571h-512c-20 0-36.571 16.571-36.571 36.571 0 9.714 4 18.857 10.857 25.714l256 256c6.857 6.857 16 10.857 25.714 10.857s18.857-4 25.714-10.857l256-256c6.857-6.857 10.857-16 10.857-25.714z" />
<glyph unicode="&#xe90b;" glyph-name="menu" d="M64 768h896v-192h-896zM64 512h896v-192h-896zM64 256h896v-192h-896z" />
<glyph unicode="&#xe90c;" glyph-name="files-empty" d="M917.806 602.924c-22.21 30.292-53.174 65.7-87.178 99.704s-69.412 64.964-99.704 87.178c-51.574 37.82-76.592 42.194-90.924 42.194h-368c-44.114 0-80-35.888-80-80v-736c0-44.112 35.886-80 80-80h608c44.112 0 80 35.888 80 80v496c0 14.332-4.372 39.35-42.194 90.924zM785.374 657.374c30.7-30.7 54.8-58.398 72.58-81.374h-153.954v153.946c22.982-17.78 50.678-41.878 81.374-72.572v0zM896 16c0-8.672-7.328-16-16-16h-608c-8.672 0-16 7.328-16 16v736c0 8.672 7.328 16 16 16 0 0 367.956 0.002 368 0v-224c0-17.672 14.324-32 32-32h224v-496zM602.924 917.804c-51.574 37.822-76.592 42.196-90.924 42.196h-368c-44.112 0-80-35.888-80-80v-736c0-38.632 27.528-70.958 64-78.39v814.39c0 8.672 7.328 16 16 16h486.876c-9.646 7.92-19.028 15.26-27.952 21.804z" />
<glyph unicode="&#xe90d;" glyph-name="caret-down" horiz-adv-x="585" d="M585.143 557.714c0-9.714-4-18.857-10.857-25.714l-256-256c-6.857-6.857-16-10.857-25.714-10.857s-18.857 4-25.714 10.857l-256 256c-6.857 6.857-10.857 16-10.857 25.714 0 20 16.571 36.571 36.571 36.571h512c20 0 36.571-16.571 36.571-36.571z" />
<glyph unicode="&#xe90e;" glyph-name="quote" d="M272.128 785.869c-82.432 0-149.299-68.762-149.299-153.6 0-84.787 66.867-153.6 149.299-153.6 149.248 0 49.766-296.909-149.299-296.909v-71.68c355.277-0.051 494.49 675.789 149.299 675.789zM702.208 785.869c-82.381 0-149.248-68.762-149.248-153.6 0-84.787 66.867-153.6 149.248-153.6 149.299 0 49.818-296.909-149.248-296.909v-71.68c355.226-0.051 494.438 675.789 149.248 675.789z" />
<glyph unicode="&#xe90f;" glyph-name="bullhorn-ppoint" horiz-adv-x="1233" d="M1035.283 796.508c8.063-11.758 5.093-27.764-6.694-35.705l-77.038-53.081c-11.798-7.951-27.803-4.981-35.711 6.684-1.853 2.675-3.101 5.635-3.822 8.707-2.37 10.003 1.403 20.92 10.385 26.976l77.193 52.984c11.633 8.039 27.648 5.069 35.687-6.563zM1114.411 399.19c14.134-1.92 23.982-14.884 22.028-28.886-1.935-14.134-14.898-23.982-28.902-22.028l-92.764 12.644c-10.786 1.509-19.067 9.558-21.438 19.56-0.706 2.946-0.919 6.152-0.46 9.369 1.79 14.105 14.753 23.948 28.886 22.018l92.648-12.676zM1062.971 589.69c13.839 3.28 27.638-5.224 30.928-19.067 3.28-13.849-5.219-27.638-19.067-30.928l-91.008-21.602c-13.849-3.28-27.648 5.219-30.928 19.067-1.64 6.917-0.31 13.873 3.111 19.425s9.026 9.863 15.947 11.502l91.018 21.602zM823.206 879.96l167.349-705.137-738.938 78.915-50.798 214.070zM666.677 136c0 0 34.082-64.892-40.389-82.568-74.477-17.679-157.535-37.394-157.535-37.394l1.533 55.746 128.557 30.512-19.314 81.392 77.687-7.836 9.461-39.857zM171.363 465.814l51.925-218.806-50.251-11.928c0 0-35.755-5.635-51.277 59.727-15.483 65.246-23.852 100.501-23.852 100.501s-11.92 50.242 30.765 60.382l42.687 10.124z" />
<glyph unicode="&#xe910;" glyph-name="phone-ppoint" d="M797.72-53.271c-125.313 0-320.813 90.23-511.298 275.698-255.65 260.663-330.84 531.344-235.597 621.574 5.013 5.013 10.027 10.027 15.040 20.053 40.097 40.097 85.217 90.23 150.38 85.217 45.11 0 90.23-30.080 130.327-80.203 115.296-145.367 70.177-210.53 0-275.698l-5.013-5.013c0-10.027 15.040-55.137 130.327-170.433v0c115.296-115.296 160.407-130.327 170.433-130.327l5.013 5.013c65.163 70.177 135.34 115.296 275.698 0 50.123-40.097 80.203-85.217 80.203-130.327 5.013-65.163-45.11-115.296-85.217-150.38-5.013-5.013-10.027-10.027-15.040-15.040-20.053-35.093-60.15-50.123-105.27-50.123zM211.24 854.030c-25.067 0-50.123-30.080-80.203-55.137-5.013-10.027-10.027-15.040-15.040-20.053-35.093-35.093 5.013-250.637 240.61-491.247 235.597-235.597 451.141-275.698 491.247-240.61 5.013 5.013 10.027 10.027 20.053 20.053 30.080 25.067 60.15 55.137 60.15 80.203 0 15.040-15.040 40.097-45.11 60.15-90.23 70.177-105.27 55.137-155.393 10.027l-15.040-5.013c-35.093-35.093-90.23-30.080-155.393 10.027-40.097 25.067-85.217 65.163-145.367 120.3-55.137 55.137-95.243 105.27-120.3 145.367-45.11 70.177-50.123 120.3-10.027 155.393l10.027 10.027c50.123 50.123 65.163 65.163-10.027 155.393-30.080 30.080-50.123 45.11-70.177 45.11 0 0 0 0 0 0zM807.747 448c0 0 0 0 0 0-25.067 0-45.11 25.067-45.11 50.123 0 50.123-20.053 95.243-55.137 130.327s-80.203 55.137-130.327 55.137c-25.067 0-45.11 20.053-45.11 45.11s20.053 45.11 45.11 45.11c0 0 0 0 0 0 75.19 0 145.367-30.080 195.498-80.203s80.203-120.3 80.203-195.498c5.013-25.067-20.053-50.123-45.11-50.123zM933.069 483.093c0 0 0 0 0 0-25.067 0-45.11 20.053-45.11 45.11 0 80.203-30.080 150.38-85.217 210.53s-130.327 85.217-205.517 85.217c-25.067 0-45.11 20.053-45.11 45.11s20.053 45.11 45.11 45.11c0 0 0 0 0 0 105.27 0 200.503-40.097 275.698-115.296s115.296-170.433 115.296-275.698c-5.013-20.053-25.067-40.097-55.137-40.097z" />
<glyph unicode="&#xe911;" glyph-name="clock-ppoint" d="M511.992 959.996c-281.592 0-511.988-230.394-511.988-511.988s230.394-511.988 511.988-511.988 511.988 230.394 511.988 511.988-230.394 511.988-511.988 511.988zM511.992-2.541c-245.753 0-450.549 199.674-450.549 450.549s199.674 450.549 450.549 450.549 450.549-199.674 450.549-450.549-204.794-450.549-450.549-450.549zM711.666 350.731l-174.076 71.679v307.192c0 15.36-15.36 30.719-30.719 30.719s-30.719-15.36-30.719-30.719v-332.792c0 0 0 0 0 0 0-5.119 0-5.119 0-10.24 0 0 0 0 0-5.119 0 0 0-5.119 5.119-5.119 0 0 0-5.119 5.119-5.119 0 0 0 0 0 0s5.119-5.119 10.24-5.119c0 0 0 0 0 0l194.555-76.798c5.119 0 10.24 0 10.24 0 10.24 0 25.6 5.119 30.719 20.479s-5.119 30.719-20.479 40.96z" />
<glyph unicode="&#xe912;" glyph-name="announcement-ppoint" d="M1023.619 544.862c0 66.507-46.048 127.907-107.437 143.259v173.953c0 40.931-15.352 71.625-40.931 86.977s-61.4 15.352-97.211-5.117l-240.462-138.142h-393.955c-76.742-5.117-143.259-66.507-143.259-148.376v-230.235c0-81.859 66.507-143.259 143.259-143.259h56.283l97.211-214.884c25.578-56.283 56.283-133.025 138.142-133.025 51.165 0 102.329 25.578 127.907 61.4 20.46 25.578 25.578 56.283 15.352 86.977 0 0 0 0 0 0l-86.977 194.415h46.048l240.462-138.142c35.812-20.46 71.625-20.46 97.211-5.117s40.931 46.048 40.931 86.977v173.953c66.507 20.46 107.437 81.859 107.437 148.376zM542.686 335.097h-92.094c-10.235 0-15.352-5.117-20.46-10.235s-5.117-15.352 0-25.578l102.329-230.235c5.117-15.352 0-30.695-5.117-40.931-15.352-20.46-51.165-40.931-86.977-40.931-46.048 0-66.507 30.695-92.094 102.329l-102.329 230.235c-5.117 10.235-15.352 15.352-25.578 15.352h-76.742c-51.165 0-92.094 40.931-92.094 92.094v230.235c0 51.165 40.931 92.094 92.094 92.094h399.072c5.117 0 10.235 0 15.352 5.117l127.907 76.742v-573.022l-127.907 76.742c-5.117 0-10.235 0-15.352 0zM870.133 227.65c0-20.46-5.117-35.812-15.352-46.048-10.235-5.117-30.695-5.117-46.048 5.117l-66.507 40.931v629.301l66.507 40.931c20.46 10.235 35.812 15.352 46.048 5.117 5.117-5.117 15.352-20.46 15.352-40.931v-634.417z" />
<glyph unicode="&#xe913;" glyph-name="webinar-ppoint" d="M911.35 852.47h-798.701c-61.439 0-112.636-51.198-112.636-112.636v-583.666c0-61.439 51.198-112.636 112.636-112.636h798.701c61.439 0 112.636 51.198 112.636 112.636v583.666c0 61.439-51.198 112.636-112.636 112.636zM112.649 806.39h798.701c35.839 0 66.558-30.719 66.558-66.558v-92.158h-931.818v92.158c0 35.839 30.719 66.558 66.558 66.558zM911.35 89.61h-798.701c-35.839 0-66.558 30.719-66.558 66.558v445.429h931.818v-445.429c0-35.839-30.719-66.558-66.558-66.558zM619.518 396.802c-35.839 20.479-97.277 56.319-133.117 76.798s-66.558 5.12-66.558-35.839c0-40.96 0-112.636 0-153.597s30.719-61.439 66.558-35.839 97.277 56.319 133.117 76.798c35.839 15.36 35.839 51.198 0 71.679zM778.233 729.593c0-16.966-13.753-30.719-30.719-30.719s-30.719 13.753-30.719 30.719c0 16.966 13.753 30.719 30.719 30.719s30.719-13.753 30.719-30.719zM906.232 729.593c0-16.966-13.753-30.719-30.719-30.719s-30.719 13.753-30.719 30.719c0 16.966 13.753 30.719 30.719 30.719s30.719-13.753 30.719-30.719z" />
<glyph unicode="&#xe914;" glyph-name="event-ppoint" d="M890.863 893.438h-158.716v40.96c0 15.36-10.24 25.6-25.6 25.6s-25.6-10.24-25.6-25.6v-35.839h-332.792v35.839c0 15.36-10.24 25.6-25.6 25.6s-25.6-10.24-25.6-25.6v-35.839h-163.836c-71.679-5.119-133.117-61.439-133.117-138.237v-691.182c0-71.679 61.439-133.117 133.117-133.117h757.741c71.679 0 133.117 61.439 133.117 133.117v691.182c0 76.798-61.439 133.117-133.117 133.117zM133.121 842.24h158.716v-71.679c0-15.36 10.24-25.6 25.6-25.6s25.6 10.24 25.6 25.6v71.679h332.792v-71.679c0-15.36 10.24-25.6 25.6-25.6s25.6 10.24 25.6 25.6v71.679h158.716c51.198 0 87.039-35.839 87.039-81.917v-117.758h-921.578v117.758c0 46.079 35.839 81.917 81.917 81.917zM890.863-12.781h-757.741c-46.079 0-81.917 35.839-81.917 81.917v522.227h921.578v-522.227c0-46.079-35.839-81.917-81.917-81.917zM737.267 488.968c-20.479 15.36-56.319 10.24-71.679-10.24l-174.075-235.514-102.398 102.398c-20.479 20.479-56.319 20.479-76.798 0s-20.479-56.319 0-76.798l143.356-143.356c10.24-10.24 25.6-15.36 35.839-15.36 0 0 5.119 0 5.119 0 15.36 0 30.719 10.24 40.96 20.479l215.034 286.713c15.36 20.479 10.24 56.319-15.36 71.679z" />
<glyph unicode="&#xe915;" glyph-name="calendar-ppoint" d="M830.39 891.22h-96.794v35.661c0 15.283-15.283 30.566-30.566 30.566s-30.566-15.283-30.566-30.566v-30.566h-320.952v30.566c0 15.283-15.283 30.566-30.566 30.566s-30.566-15.283-30.566-30.566v-30.566h-96.794c-106.984-5.094-193.591-86.606-193.591-193.591v-575.677c0-101.89 86.606-188.495 193.591-188.495h636.81c106.984 0 193.591 86.606 193.591 193.591v570.581c-5.094 106.984-91.7 188.495-193.591 188.495zM193.58 830.086h96.794v-66.228c0-15.283 15.283-30.566 30.566-30.566s30.566 15.283 30.566 30.566v66.228h320.952v-66.228c0-15.283 15.283-30.566 30.566-30.566s30.566 15.283 30.566 30.566v66.228h96.794c71.323 0 127.361-56.040 127.361-127.361v-117.174h-891.532v117.174c0 71.323 56.040 127.361 127.361 127.361zM830.39-0.314h-636.81c-71.323 0-127.361 56.040-127.361 127.361v392.275h891.532v-392.275c0-66.228-61.134-127.361-127.361-127.361z" />
<glyph unicode="&#xe916;" glyph-name="location-ppoint" d="M512 959.996c-102.398 0-204.795-40.96-276.474-112.637s-112.637-168.956-112.637-276.474c0-337.912 358.391-609.267 373.751-619.506l15.36-15.36 15.36 15.36c15.36 10.24 373.751 281.593 373.751 619.506 0 215.035-174.076 389.111-389.111 389.111zM512 12.818c-71.679 56.319-327.672 291.833-332.793 558.067 0 87.039 35.839 168.956 97.277 230.395s148.477 97.277 235.514 97.277c184.316 0 332.793-148.477 332.793-332.793 0-266.234-261.114-496.628-332.793-552.948zM512 709.122c-71.679 0-127.997-56.319-127.997-127.997s56.319-127.997 127.997-127.997c71.679 0 127.997 56.319 127.997 127.997s-56.319 127.997-127.997 127.997zM512 514.566c-35.839 0-66.558 30.719-66.558 66.558s30.719 66.558 66.558 66.558c35.839 0 66.558-30.719 66.558-66.558s-30.719-66.558-66.558-66.558z" />
<glyph unicode="&#xe917;" glyph-name="stats-mobile-ppoint" d="M996.002 373.585l-111.936 111.936c0 0 0 0 0 0s0 0 0 0l-447.745 447.745c-35.615 35.615-96.672 35.615-132.288 0l-274.752-284.929c-35.615-35.615-35.615-96.672 0-132.288l554.591-554.591c15.264-15.264 40.704-25.44 66.144-25.44s45.792 10.177 66.144 25.44l279.84 279.84c15.264 15.264 25.44 40.704 25.44 66.144s-10.177 45.792-25.44 66.144zM85.248 592.37l279.84 279.84c5.088 5.088 10.177 5.088 10.177 5.088s5.088 0 10.177-5.088l417.216-417.216-300.193-300.193-417.216 417.216c-5.088 5.088-5.088 15.264 0 20.352zM940.034 297.264l-279.84-279.84c-5.088-5.088-10.177-5.088-10.177-5.088s-5.088 0-10.177 5.088l-81.407 81.407 300.193 300.193 81.407-81.407c5.088-5.088 5.088-10.177 5.088-10.177 0-5.088 0-10.177-5.088-10.177zM787.393 261.649l-86.496-86.496c-10.177-10.177-10.177-25.44 0-40.704 5.088-5.088 10.177-10.177 20.352-10.177s15.264 5.088 20.352 10.177l86.496 86.496c10.177 10.177 10.177 25.44 0 40.704s-30.528 10.177-40.704 0z" />
<glyph unicode="&#xe918;" glyph-name="stats-social-ppoint" d="M995.508 172.87c-25.744 102.974-133.866 169.906-236.839 144.163 0 0 0 0-5.148 0l-82.378 324.367c66.932 36.040 102.974 113.27 87.528 190.501-20.594 92.676-113.27 144.163-205.947 123.568-46.338-10.298-82.378-36.040-102.974-77.23-25.744-41.19-30.892-82.378-20.594-128.717 5.148-20.594 15.446-41.19 30.892-61.784l-257.435-272.881c-25.744 10.298-51.486 10.298-77.23 5.148-72.082-15.446-118.42-92.676-97.824-164.758 15.446-61.784 72.082-102.974 133.866-102.974 10.298 0 20.594 0 30.892 5.148 30.892 10.298 56.636 25.744 77.23 51.486l344.961-92.676c0-10.298 0-20.594 5.148-30.892 20.594-87.528 102.974-149.312 190.501-149.312 15.446 0 30.892 0 46.338 5.148 102.974 20.594 164.758 128.717 139.014 231.691zM521.831 837.050c10.298 20.594 30.892 36.040 51.486 41.19 5.148 0 15.446 0 20.594 0 15.446 0 30.892-5.148 46.338-10.298 20.594-10.298 36.040-30.892 41.19-51.486 10.298-46.338-15.446-92.676-61.784-108.122-20.594-5.148-46.338 0-66.932 10.298s-36.040 30.892-41.19 51.486c-5.148 20.594 0 46.338 10.298 66.932zM171.72 234.655c-15.446-5.148-30.892 0-41.19 5.148s-20.594 20.594-25.744 36.040c-5.148 30.892 10.298 56.636 41.19 66.932 5.148 0 10.298 0 15.446 0 10.298 0 20.594-5.148 25.744-10.298 10.298-5.148 20.594-20.594 25.744-36.040 5.148-25.744-15.446-56.636-41.19-61.784zM290.14 322.183c-5.148 15.446-10.298 30.892-20.594 46.338l257.435 272.881c20.594-10.298 46.338-15.446 72.082-15.446l82.378-344.961c-25.744-20.594-46.338-51.486-61.784-87.528l-329.515 87.528c5.148 15.446 0 25.744 0 41.19zM835.9 18.41c-61.784-15.446-123.568 20.594-139.014 82.378s20.594 123.568 82.378 139.014c10.298 0 20.594 5.148 25.744 5.148 51.486 0 97.824-36.040 113.27-87.528v0c15.446-61.784-20.594-123.568-82.378-139.014z" />
<glyph unicode="&#xe919;" glyph-name="stats-mail-ppoint" d="M932.281 840.257h-845.666c-50.943 0-86.605-35.66-86.605-81.51v-616.419c0-45.849 35.66-86.605 86.605-86.605h850.762c45.849 0 86.605 35.66 86.605 86.605v616.419c-5.094 45.849-40.756 81.51-91.699 81.51zM906.809 774.029l-392.268-392.268c-5.094-5.094-5.094-5.094-10.189 0l-392.268 392.268h794.723zM932.281 121.949h-845.666c-10.189 0-15.283 5.094-15.283 15.283v580.759l387.172-387.172c15.283-15.283 35.66-20.377 56.039-20.377s40.756 10.189 56.039 20.377l387.172 387.172v-580.759c-10.189-5.094-15.283-15.283-25.472-15.283z" />
<glyph unicode="&#xe91a;" glyph-name="check-ppoint" d="M435.163 12.593c-30.735 0-61.469 10.245-81.959 35.857l-317.592 317.592c-46.102 46.102-46.102 117.817 0 163.919s117.817 46.102 163.919 0l225.388-225.388 389.305 522.49c40.98 51.224 112.693 61.469 163.919 25.613 51.224-40.98 61.469-112.693 25.613-163.919l-471.266-635.183c-20.489-25.613-51.224-46.102-87.082-46.102-5.122 5.122-5.122 5.122-10.245 5.122z" />
<glyph unicode="&#xe91b;" glyph-name="mail-ppoint-2" d="M840.582 845.362h-662.269c-96.793 0-178.304-81.51-178.304-178.304v-438.117c0-96.793 81.51-178.304 178.304-178.304h667.364c96.793 0 178.304 81.51 178.304 178.304v438.117c-5.094 96.793-81.51 178.304-183.398 178.304zM932.281 228.942c0-50.943-40.756-91.699-91.699-91.699h-662.269c-50.943 0-91.699 40.756-91.699 91.699v438.117c0 50.943 40.756 91.699 91.699 91.699h667.364c50.943 0 91.699-40.756 91.699-91.699v-438.117zM845.676 692.53c-15.283 15.283-45.849 15.283-61.133 0l-239.436-244.53c-15.283-15.283-50.943-15.283-66.226 0l-244.53 244.53c-15.283 15.283-45.849 15.283-61.133 0s-15.283-45.849 0-61.133l244.53-244.53c25.472-25.472 56.039-40.756 91.699-40.756s71.322 15.283 91.699 40.756l244.53 244.53c20.377 15.283 20.377 45.849 0 61.133zM275.106 381.774l-106.982-106.982c-15.283-15.283-15.283-45.849 0-61.133 10.189-10.189 20.377-10.189 30.566-10.189s20.377 5.094 30.566 10.189l106.982 106.982c15.283 15.283 15.283 45.849 0 61.133-15.283 20.377-40.756 20.377-61.133 0zM743.788 381.774c-15.283 15.283-45.849 15.283-61.133 0s-15.283-45.849 0-61.133l106.982-106.982c10.189-10.189 20.377-10.189 30.566-10.189s20.377 5.094 30.566 10.189c15.283 15.283 15.283 45.849 0 61.133l-106.982 106.982z" />
<glyph unicode="&#xe91c;" glyph-name="demo-ppoint" d="M895.977 156.169h-767.976c-71.678 0-127.995 56.319-127.995 127.995v501.745c0 66.557 56.319 122.876 127.995 122.876h773.095c66.557 0 122.876-56.319 122.876-122.876v-501.745c0-71.678-56.319-127.995-127.995-127.995zM128.001 806.388c-15.36 0-25.6-10.24-25.6-20.479v-501.745c0-10.24 10.24-20.479 20.479-20.479h773.095c10.24 0 20.479 10.24 20.479 20.479v501.745c5.119 10.24-5.119 20.479-20.479 20.479h-767.976zM716.782-12.785h-409.587c-30.719 0-51.198 25.6-51.198 51.198s25.6 51.198 51.198 51.198h409.587c30.719 0 51.198-25.6 51.198-51.198s-20.479-51.198-51.198-51.198zM430.072 458.24c0 40.959 0 107.517 0 148.476s30.719 56.319 61.438 35.838c35.838-20.479 92.157-51.198 127.995-71.678s35.838-51.198 0-71.678c-35.838-20.479-92.157-51.198-127.995-71.678-35.838-25.6-61.438-5.119-61.438 30.719z" />
<glyph unicode="&#xe91d;" glyph-name="industry-video-ppoint" d="M779.44 924.307h-539.992c-132.452 0-239.431-106.98-239.431-239.431v-473.767c0-132.452 106.98-239.431 239.431-239.431h545.088c132.452 0 239.431 106.98 239.431 239.431v473.767c-5.094 132.452-112.073 239.431-244.525 239.431zM932.268 216.204c0-81.508-66.225-152.828-152.828-152.828h-539.992c-81.508 0-152.828 66.225-152.828 152.828v473.767c0 81.508 66.225 152.828 152.828 152.828h545.088c81.508 0 152.828-66.225 152.828-152.828v-473.767zM657.178 465.823l-61.131 35.659c-25.472 15.283-61.131 35.659-81.508 50.942l-61.131 35.659c-25.472 15.283-40.755 0-40.755-25.472v-71.32c0-25.472 0-71.32 0-96.791v-71.32c0-25.472 20.377-35.659 40.755-25.472l61.131 35.659c25.472 15.283 61.131 35.659 81.508 50.942l61.131 35.659c25.472 10.189 25.472 30.566 0 45.848z" />
<glyph unicode="&#xe91e;" glyph-name="industry-datasheet-ppoint" d="M686.068 959.983h-501.728c-40.958 0-76.795-35.837-76.795-76.795v-870.344c0-40.958 35.837-76.795 76.795-76.795h655.318c40.958 0 76.795 35.837 76.795 76.795v711.633l-230.385 235.504zM706.548 842.231l97.273-97.273h-97.273v97.273zM839.658 2.605h-655.318c-5.119 0-10.24 5.119-10.24 10.24v870.344c0 5.119 5.119 10.24 10.24 10.24h455.651v-158.709c0-35.837 25.599-61.436 61.436-61.436h143.35v-665.556c5.119 0 0-5.119-5.119-5.119zM501.76 427.538c-25.599 0-46.077-20.478-46.077-46.077v-174.068c0-25.599 20.478-46.077 46.077-46.077s46.077 20.478 46.077 46.077v174.068c0 25.599-20.478 46.077-46.077 46.077zM547.837 519.692c0-25.447-20.63-46.077-46.077-46.077s-46.077 20.63-46.077 46.077c0 25.447 20.63 46.077 46.077 46.077s46.077-20.63 46.077-46.077z" />
<glyph unicode="&#xe91f;" glyph-name="industry-infographic-ppoint" d="M918.493 959.984h-812.988c-46.309 0-82.327-36.018-82.327-82.327v-859.297c0-46.309 36.018-82.327 82.327-82.327h812.988c46.309 0 82.327 36.018 82.327 82.327v859.297c0 46.309-36.018 82.327-82.327 82.327zM933.929 13.215c0-10.291-5.145-15.436-15.436-15.436h-812.988c-10.291 0-15.436 5.145-15.436 15.436v864.442c0 10.291 5.145 15.436 15.436 15.436h812.988c10.291 0 15.436-5.145 15.436-15.436v-864.442zM409.090 553.491c-123.492 0-221.255-97.764-221.255-221.255s97.764-221.255 221.255-221.255c123.492 0 221.255 97.764 221.255 221.255s-97.764 221.255-221.255 221.255zM409.090 183.016c-82.327 0-149.22 66.891-149.22 149.22s66.891 149.22 149.22 149.22v-149.22l138.928 66.891c10.291-20.581 15.436-41.164 15.436-66.891-5.145-82.327-72.037-149.22-154.365-149.22zM825.874 666.691h-596.877c-20.581 0-36.018-15.436-36.018-36.018s15.436-30.873 36.018-30.873h602.022c20.581 0 36.018 15.436 36.018 36.018s-20.581 30.873-41.164 30.873zM820.729 373.399h-108.055c-20.581 0-36.018-15.436-36.018-36.018s15.436-36.018 36.018-36.018h108.055c20.581 0 36.018 15.436 36.018 36.018s-20.581 36.018-36.018 36.018zM825.874 790.183h-596.877c-20.581 0-36.018-15.436-36.018-36.018s15.436-36.018 36.018-36.018h602.022c20.581 0 36.018 15.436 36.018 36.018s-20.581 36.018-41.164 36.018zM820.729 239.617h-108.055c-20.581 0-36.018-15.436-36.018-36.018s15.436-36.018 36.018-36.018h108.055c20.581 0 36.018 15.436 36.018 36.018-5.145 20.581-20.581 36.018-36.018 36.018zM820.729 507.182h-108.055c-20.581 0-36.018-15.436-36.018-36.018s15.436-36.018 36.018-36.018h108.055c20.581 0 36.018 15.436 36.018 36.018-5.145 20.581-20.581 36.018-36.018 36.018z" />
<glyph unicode="&#xe920;" glyph-name="industry-research-ppoint" d="M819.18 110.118h-87.035c56.317 76.795 87.035 168.949 87.035 261.103 0 112.632-40.958 220.145-117.753 302.061-5.119 5.119-10.24 10.24-15.359 10.24l71.676 122.872c10.24 20.478 15.359 40.958 10.24 61.436s-20.478 35.837-35.837 46.077l-61.436 35.837c-40.958 20.478-87.035 10.24-107.513-30.718l-245.744-430.052v-10.24c0-71.676 0-117.753 35.837-138.231 10.24-5.119 20.478-10.24 35.837-10.24 25.599 0 61.436 15.359 117.753 40.958l10.24 5.119 127.991 225.266c56.317-61.436 87.035-143.35 87.035-230.385 0-56.317-15.359-112.632-40.958-163.83-25.599 46.077-76.795 76.795-127.991 76.795s-92.154-25.599-117.753-61.436l-209.907 97.273c-20.478 10.24-46.077 0-56.317-20.478s0-46.077 20.478-56.317l215.026-102.394c0-5.119 0-5.119 0-10.24 0-10.24 0-15.359 0-25.599h-209.907c-40.958 0-76.795-35.837-76.795-76.795v-15.359c-5.119-40.958 30.718-76.795 76.795-76.795h614.36c40.958 0 76.795 35.837 76.795 76.795v15.359c5.119 46.077-30.718 81.914-76.795 81.914zM517.119 519.692l-81.914 51.196 127.991 225.266 81.914-46.077-127.991-230.385zM639.991 893.428l56.317-35.837c5.119 0 5.119-5.119 5.119-10.24 0 0 0-5.119 0-10.24l-20.478-30.718-81.914 46.077 20.478 35.837c5.119 5.119 10.24 10.24 20.478 5.119zM389.128 396.82c-5.119 10.24-5.119 51.196-5.119 76.795l25.599 40.958 81.914-51.196-20.478-35.837c-56.317-25.599-76.795-30.718-81.914-30.718zM552.958 207.392c40.958 0 76.795-35.837 76.795-76.795s-35.837-76.795-76.795-76.795-76.795 35.837-76.795 76.795c5.119 46.077 35.837 76.795 76.795 76.795zM189.461 12.845v15.359c0 5.119 5.119 15.359 15.359 15.359h230.385c15.359-20.478 30.718-35.837 51.196-46.077h-281.581c-10.24 5.119-15.359 10.24-15.359 15.359zM834.539 12.845c0-5.119-5.119-15.359-15.359-15.359h-199.667c20.478 10.24 40.958 25.599 51.196 46.077h148.471c5.119 0 15.359-5.119 15.359-15.359v-15.359z" />
<glyph unicode="&#xe921;" glyph-name="industry-whitepaper-ppoint" d="M686.074 959.994h-501.744c-40.959 0-76.798-35.838-76.798-76.798v-870.372c0-40.959 35.838-76.798 76.798-76.798h655.339c40.959 0 76.798 35.838 76.798 76.798v711.656l-230.393 235.512zM706.554 842.239l97.276-97.276h-97.276v97.276zM839.669 2.585h-655.339c-5.119 0-10.24 5.119-10.24 10.24v870.372c0 5.119 5.119 10.24 10.24 10.24h455.666v-158.714c0-35.838 25.6-61.438 61.438-61.438h143.355v-665.578c5.119 0 0-5.119-5.119-5.119zM686.074 560.647h-363.509c-20.479 0-30.719-15.36-30.719-30.719 0-20.479 15.36-30.719 30.719-30.719h363.509c20.479 0 30.719 15.36 30.719 30.719s-15.36 30.719-30.719 30.719zM686.074 391.692h-363.509c-20.479 0-30.719-15.36-30.719-30.719 0-20.479 15.36-30.719 30.719-30.719h363.509c20.479 0 30.719 15.36 30.719 30.719s-15.36 30.719-30.719 30.719zM686.074 222.738h-363.509c-20.479 0-30.719-15.36-30.719-30.719s15.36-30.719 30.719-30.719h363.509c20.479 0 30.719 15.36 30.719 30.719s-15.36 30.719-30.719 30.719z" />
<glyph unicode="&#xe922;" glyph-name="industry-solution-ppoint" d="M507.030 699.018c-149.12 0-268.416-119.296-268.416-268.416 0-89.472 44.736-169.002 114.326-218.71v-149.12c0-59.648 49.706-109.354 109.354-109.354h99.414c59.648 0 109.354 49.706 109.354 109.354v149.12c69.59 49.706 114.326 129.238 114.326 218.71-4.97 149.12-129.238 268.416-278.358 268.416zM601.472 57.802c0-24.854-19.882-39.766-39.766-39.766h-99.414c-24.854 0-39.766 19.882-39.766 39.766v14.912h178.944v-14.912zM601.472 246.688v-109.354h-59.648v188.886h24.854c19.882 0 34.794 14.912 34.794 34.794s-14.912 34.794-34.794 34.794h-119.296c-19.882 0-34.794-14.912-34.794-34.794s14.912-34.794 34.794-34.794h24.854v-188.886h-59.648v109.354c-64.618 34.794-114.326 104.384-114.326 183.914 0 114.326 89.472 203.798 203.798 203.798s203.798-89.472 203.798-203.798c4.97-84.502-39.766-149.12-104.384-183.914zM507.030 798.431c19.882 0 34.794 14.912 34.794 34.794v74.56c0 19.882-14.912 34.794-34.794 34.794s-34.794-14.912-34.794-34.794v-79.53c4.97-14.912 19.882-29.824 34.794-29.824zM278.378 758.666c9.942-9.942 19.882-14.912 29.824-14.912 4.97 0 9.942 0 14.912 4.97 14.912 9.942 19.882 29.824 9.942 44.736l-39.766 69.59c-9.942 14.912-29.824 19.882-44.736 9.942-9.942-9.942-14.912-29.824-9.942-44.736l39.766-69.59zM79.552 639.37l69.59-39.766c0-4.97 9.942-4.97 14.912-4.97 9.942 0 24.854 4.97 29.824 14.912 9.942 14.912 4.97 34.794-9.942 44.736l-69.59 39.766c-19.882 9.942-39.766 4.97-49.706-9.942-4.97-14.912 0-34.794 14.912-44.736zM144.171 425.632c0 19.882-14.912 34.794-34.794 34.794h-74.56c-19.882 0-34.794-14.912-34.794-34.794 0-14.912 14.912-29.824 34.794-29.824h79.53c14.912 0 29.824 14.912 29.824 29.824zM149.142 256.628l-69.59-39.766c-14.912-9.942-19.882-29.824-9.942-44.736 4.97-9.942 14.912-14.912 29.824-14.912 4.97 0 9.942 0 14.912 4.97l69.59 34.794c14.912 9.942 19.882 29.824 9.942 44.736-9.942 19.882-29.824 24.854-44.736 14.912zM944.448 221.834l-69.59 39.766c-14.912 9.942-34.794 4.97-44.736-9.942s-4.97-34.794 9.942-44.736l69.59-39.766c4.97-4.97 9.942-4.97 14.912-4.97 9.942 0 24.854 4.97 29.824 14.912 9.942 14.912 4.97 34.794-9.942 44.736zM989.183 465.396h-79.53c-19.882 0-34.794-14.912-34.794-34.794s14.912-34.794 34.794-34.794h79.53c19.882 0 34.794 14.912 34.794 34.794s-14.912 34.794-34.794 34.794zM859.946 599.604c4.97 0 9.942 0 14.912 4.97l69.59 39.766c14.912 9.942 19.882 29.824 9.942 44.736s-29.824 19.882-44.736 9.942l-69.59-39.766c-14.912-9.942-19.882-29.824-9.942-44.736 4.97-9.942 14.912-14.912 29.824-14.912zM765.504 872.991c-14.912 9.942-34.794 4.97-44.736-9.942l-39.766-69.59c-9.942-14.912-4.97-34.794 9.942-44.736 9.942 0 14.912-4.97 19.882-4.97 9.942 0 24.854 4.97 29.824 14.912l39.766 69.59c4.97 19.882 0 39.766-14.912 44.736z" />
<glyph unicode="&#xe923;" glyph-name="pressrelease-ppoint" d="M516.796 270.4c110.4 0 201.6 91.199 201.6 201.6v254.4c0 110.4-91.199 201.6-201.6 201.6s-201.6-91.199-201.6-201.6v-254.4c0-110.4 91.199-201.6 201.6-201.6zM377.598 726.398c0 76.799 62.399 139.2 139.2 139.2 67.2 0 124.8-47.999 134.399-115.2h-72c-19.199 0-33.599-14.4-33.599-33.599s14.4-33.599 33.599-33.599h76.799v-62.399h-76.799c-19.199 0-33.599-14.4-33.599-33.599s14.4-33.599 33.599-33.599h76.799v-57.6h-76.799c-19.199 0-33.599-14.4-33.599-33.599s14.4-33.599 33.599-33.599h67.2c-19.199-57.6-72-96-129.6-96-76.799 0-139.2 62.399-139.2 139.2v254.4zM771.196 73.6h-206.399v76.799c0 0 0 4.799 0 4.799 144 24 259.199 153.6 259.199 307.199 0 19.199-14.4 33.599-33.599 33.599s-33.599-14.4-33.599-33.599c0-134.399-110.4-244.8-244.8-244.8s-244.8 110.4-244.8 244.8c0 19.199-14.4 33.599-33.599 33.599s-33.599-14.4-33.599-33.599c0-153.6 110.4-278.399 259.199-307.199 0 0 0-4.799 0-4.799v-76.799h-206.399c-28.8 0-52.8-24-52.8-52.8s24-52.8 52.8-52.8h518.399c28.8 0 52.8 24 52.8 52.8s-24 52.8-52.8 52.8z" />
<glyph unicode="&#xe924;" glyph-name="news-ppoint" d="M947.199 714.241h-56.32v25.6c-10.24 56.32-56.32 97.279-112.639 97.279h-660.48c-66.559 0-117.76-51.199-117.76-112.639v-547.84c0-61.44 51.199-117.76 117.76-117.76v0h814.080c0 0 0 0 0 0 51.199 0 92.16 66.559 92.16 143.359v394.24c0 66.559-35.839 117.76-76.8 117.76zM117.759 84.481v25.6c-35.839 0-66.559 30.72-66.559 61.44v552.96c0 35.839 25.6 61.44 61.44 61.44h655.36c35.839 0 61.44-25.6 61.44-61.44v-522.24c0-35.839 10.24-66.559 20.479-92.16h-737.28l5.119-25.6zM931.839 110.082v0c-15.36 0-40.96 35.839-40.96 92.16v455.68h56.32c5.119 0 25.6-20.479 25.6-61.44v-394.24c0-56.32-25.6-92.16-40.96-92.16zM711.679 535.042h-256c-20.479 0-35.839-15.36-35.839-35.839s15.36-35.839 35.839-35.839h256c20.479 0 35.839 15.36 35.839 35.839s-20.479 35.839-35.839 35.839zM711.679 417.282h-256c-20.479 0-35.839-15.36-35.839-35.839s15.36-35.839 35.839-35.839h256c20.479 0 35.839 15.36 35.839 35.839s-20.479 35.839-35.839 35.839zM711.679 299.521h-256c-20.479 0-35.839-15.36-35.839-35.839s15.36-35.839 35.839-35.839h256c20.479 0 35.839 15.36 35.839 35.839s-20.479 35.839-35.839 35.839zM711.679 652.801h-573.439c-20.479 0-35.839-15.36-35.839-35.839s15.36-35.839 35.839-35.839h573.439c20.479 0 35.839 15.36 35.839 35.839s-20.479 35.839-35.839 35.839zM327.68 529.921h-174.079c-20.479 0-35.839-15.36-35.839-35.839v-225.28c0-20.479 15.36-35.839 35.839-35.839h174.079c20.479 0 35.839 15.36 35.839 35.839v225.28c0 20.479-15.36 35.839-35.839 35.839z" />
<glyph unicode="&#xe925;" glyph-name="media-ppoint" d="M741.25 805.901c-9.942 9.942-29.825 9.942-44.738 0-9.942-9.942-9.942-29.825 0-44.738 79.533-79.533 79.533-203.806 0-283.34-9.942-9.942-9.942-29.825 0-44.738 4.97-4.97 14.913-9.942 19.883-9.942s14.913 4.97 19.883 9.942c109.359 104.388 109.359 273.397 4.97 372.815zM870.492 930.174c-9.942 9.942-29.825 9.942-44.738 0-9.942-9.942-9.942-29.825 0-44.738 144.156-144.156 144.156-382.758 0-531.884-9.942-9.942-9.942-29.825 0-44.738 4.97-4.97 14.913-9.942 19.883-9.942s14.913 4.97 19.883 9.942c173.981 173.981 173.981 452.349 4.97 621.359zM313.754 438.058c9.942 9.942 9.942 29.825 0 44.738-79.533 79.533-79.533 203.806 0 283.34 9.942 9.942 9.942 29.825 0 44.738-9.942 9.942-29.825 9.942-44.738 0-99.418-99.418-99.418-268.427 0-367.845 4.97-4.97 14.913-9.942 19.883-9.942 14.913-4.97 19.883 0 24.855 4.97zM80.123 621.98c0 99.418 39.767 193.864 109.359 263.457 9.942 9.942 9.942 29.825 0 44.738s-29.825 14.913-44.738 0c-84.505-84.505-129.243-193.864-129.243-308.194s44.738-228.66 129.243-308.194c4.97-4.97 14.913-9.942 19.883-9.942 9.942 0 14.913 4.97 19.883 9.942 9.942 9.942 9.942 29.825 0 44.738-64.621 69.593-104.388 164.039-104.388 263.457zM557.327 547.416c24.855 14.913 44.738 44.738 44.738 79.533 0 49.708-39.767 94.446-94.446 94.446s-94.446-39.767-94.446-94.446c0-34.796 19.883-64.621 44.738-79.533l-169.009-566.679c-4.97-14.913 4.97-29.825 14.913-29.825 0 0 4.97 0 4.97 0 9.942 0 19.883 4.97 24.855 19.883l14.913 44.738h313.165l14.913-44.738c4.97-9.942 14.913-19.883 24.855-19.883 0 0 4.97 0 4.97 0 14.913 4.97 19.883 19.883 14.913 29.825l-164.039 566.679zM433.055 274.019c0 0 4.97 0 4.97 0h149.126l24.855-79.533h-203.806l24.855 79.533zM447.968 323.727l59.65 203.806 59.65-203.806h-119.301zM368.435 60.271l24.855 79.533c4.97 0 4.97 0 9.942 0h223.689l24.855-79.533h-283.34z" />
<glyph unicode="&#xe926;" glyph-name="blog-ppoint" d="M814.079 688.64h-225.28c-20.479 0-40.96-5.119-61.44-10.24-20.479 87.040-102.4 153.6-194.56 153.6-112.639 0-204.799-92.16-204.799-204.799 0-56.32 25.6-107.52 61.44-143.359-112.639-40.96-189.439-153.6-189.439-276.48v-143.359h665.599v153.6h30.72l148.48-117.76-5.119 117.76c102.4 10.24 184.32 102.4 184.32 204.799v61.44c0 112.639-92.16 204.799-209.92 204.799zM179.198 632.32c0 87.040 71.68 153.6 153.6 153.6 76.8 0 138.24-56.32 153.6-127.999-61.44-35.839-97.279-97.279-102.4-174.079-15.36-5.119-30.72-10.24-51.199-10.24-87.040 5.119-153.6 71.68-153.6 158.719zM619.518 110.080h-573.439v97.279c0 112.639 81.919 220.159 189.439 245.76 30.72-15.36 61.44-25.6 92.16-25.6 15.36 0 35.839 0 51.199 5.119v-15.36c0-112.639 92.16-209.92 209.92-209.92h25.6v-97.279zM977.918 422.4c0-87.040-71.68-158.719-158.719-158.719h-25.6l5.119-61.44-81.919 61.44h-122.88c-87.040 0-158.719 71.68-158.719 158.719v61.44c0 87.040 71.68 158.719 158.719 158.719h225.28c87.040 0 158.719-71.68 158.719-158.719v-61.44z" />
<glyph unicode="&#xe927;" glyph-name="angle-double-right" horiz-adv-x="567" d="M341.607 448.002c0-4.695-2.348-9.977-5.869-13.499l-273.506-273.506c-3.522-3.522-8.803-5.869-13.499-5.869s-9.977 2.348-13.499 5.869l-29.346 29.346c-3.522 3.522-5.869 8.803-5.869 13.499s2.348 9.977 5.869 13.499l230.66 230.66-230.66 230.66c-3.522 3.522-5.869 8.803-5.869 13.499s2.348 9.977 5.869 13.499l29.346 29.346c3.522 3.522 8.803 5.869 13.499 5.869s9.977-2.348 13.499-5.869l273.506-273.506c3.522-3.522 5.869-8.803 5.869-13.499zM566.985 448.002c0-4.695-2.348-9.977-5.869-13.499l-273.506-273.506c-3.522-3.522-8.803-5.869-13.499-5.869s-9.977 2.348-13.499 5.869l-29.346 29.346c-3.522 3.522-5.869 8.803-5.869 13.499s2.348 9.977 5.869 13.499l230.66 230.66-230.66 230.66c-3.522 3.522-5.869 8.803-5.869 13.499s2.348 9.977 5.869 13.499l29.346 29.346c3.522 3.522 8.803 5.869 13.499 5.869s9.977-2.348 13.499-5.869l273.506-273.506c3.522-3.522 5.869-8.803 5.869-13.499z" />
<glyph unicode="&#xe928;" glyph-name="angle-double-left" horiz-adv-x="603" d="M363.303 188.326c0-4.993-2.497-10.611-6.242-14.357l-31.21-31.21c-3.746-3.746-9.363-6.242-14.357-6.242s-10.611 2.497-14.357 6.242l-290.877 290.877c-3.746 3.746-6.242 9.363-6.242 14.357s2.497 10.611 6.242 14.357l290.877 290.877c3.746 3.746 9.363 6.242 14.357 6.242s10.611-2.497 14.357-6.242l31.21-31.21c3.746-3.746 6.242-9.363 6.242-14.357s-2.497-10.611-6.242-14.357l-245.31-245.31 245.31-245.31c3.746-3.746 6.242-9.363 6.242-14.357zM602.995 188.326c0-4.993-2.497-10.611-6.242-14.357l-31.21-31.21c-3.746-3.746-9.363-6.242-14.357-6.242s-10.611 2.497-14.357 6.242l-290.877 290.877c-3.746 3.746-6.242 9.363-6.242 14.357s2.497 10.611 6.242 14.357l290.877 290.877c3.746 3.746 9.363 6.242 14.357 6.242s10.611-2.497 14.357-6.242l31.21-31.21c3.746-3.746 6.242-9.363 6.242-14.357s-2.497-10.611-6.242-14.357l-245.31-245.31 245.31-245.31c3.746-3.746 6.242-9.363 6.242-14.357z" />
<glyph unicode="&#xe929;" glyph-name="search-wide-ppoint" d="M962.559 38.4l-199.68 230.4c66.56 71.681 107.52 168.96 107.52 276.48 0 230.4-184.32 414.72-414.72 414.72s-414.72-184.32-414.72-414.72c0-230.4 184.32-414.72 414.72-414.72 76.8 0 153.6 20.48 215.040 61.44l204.8-235.52c10.241-15.36 25.601-20.48 46.080-20.48 15.36 0 25.601 5.12 40.961 15.36 20.48 25.601 20.48 61.44 0 87.041zM153.598 550.4c0 163.841 133.121 296.96 296.96 296.96s296.96-133.121 296.96-296.96-133.121-296.96-296.96-296.96-296.96 133.121-296.96 296.96z" />
<glyph unicode="&#xe92a;" glyph-name="threat-ppoint" d="M313.649 355.748v-18.45c0-23.063 18.45-41.513 41.513-41.513h101.476c23.063 0 41.513 18.45 41.513 41.513v18.45c36.901 27.675 59.963 69.189 59.963 115.314 0 83.026-64.576 147.603-147.603 147.603s-147.603-64.576-147.603-147.603c-9.226-46.125 13.838-87.638 50.739-115.314zM405.899 577.151c59.963 0 106.090-46.125 106.090-106.090 0-36.901-18.45-69.189-50.739-87.638l-9.226-4.612v-36.901h-18.45v13.838c0 4.612-4.612 13.838-13.838 13.838s-13.838-4.612-13.838-13.838v-13.838h-18.45v13.838c0 4.612-4.612 13.838-13.838 13.838s0-13.838 0-18.45v-13.838h-18.45v36.901l-9.226 4.612c-32.288 18.45-50.739 55.351-50.739 87.638 0 64.576 50.739 110.702 110.702 110.702zM387.45 448c0-10.19-8.261-18.45-18.45-18.45s-18.45 8.261-18.45 18.45c0 10.19 8.261 18.45 18.45 18.45s18.45-8.261 18.45-18.45zM456.638 448c0-10.19-8.261-18.45-18.45-18.45s-18.45 8.261-18.45 18.45c0 10.19 8.261 18.45 18.45 18.45s18.45-8.261 18.45-18.45zM788.743 461.838c-23.063 0-41.513-4.612-64.576-9.226-9.226 18.45-18.45 32.288-23.063 46.125l-115.314 198.34-87.638 147.603c-23.063 41.513-55.351 64.576-92.252 64.576s-69.189-23.063-92.252-64.576l-92.252-147.603-59.963-101.476-55.351-101.476-87.638-147.603c-18.45-36.901-23.063-69.189-13.838-96.864 0 0 0-4.612 0-4.612 18.45-87.638 73.801-142.989 147.603-142.989h428.969c46.125-69.189 119.927-115.314 207.566-115.314 129.151 0 235.241 106.090 235.241 235.241s-106.090 239.853-235.241 239.853zM55.345 323.461l87.638 152.215c32.288 55.351 83.026 147.603 115.314 202.954l87.638 147.603c13.838 27.675 36.901 41.513 59.963 41.513s41.513-13.838 59.963-41.513l87.638-147.603c32.288-55.351 83.026-147.603 115.314-198.34 9.226-13.838 13.838-27.675 23.063-41.513-78.414-36.901-133.765-119.927-133.765-212.178-9.226 0-23.063 0-32.288 0-64.576 0-166.053 0-230.629 0h-179.89c-64.576-4.612-92.252 41.513-59.963 96.864zM152.209 138.958c-41.513 0-69.189 23.063-83.026 46.125 13.838-4.612 27.675-4.612 41.513-4.612h401.294c9.226 0 23.063 0 36.901 0 4.612-13.838 4.612-27.675 13.838-41.513h-410.519zM756.456 74.382c0 0 0 0 0 0 4.612 36.901 4.612 78.414 9.226 115.314-18.45 0-36.901 0-59.963 0 36.901 64.576 78.414 124.539 115.314 184.502 0 0 0 0 0 0-4.612-36.901-4.612-78.414-9.226-115.314 18.45 0 36.901 0 59.963 0-41.513-64.576-78.414-124.539-115.314-184.502z" />
<glyph unicode="&#xe92b;" glyph-name="people-ppoint" d="M898.543 417.292c-20.479 0-35.838 15.36-35.838 35.838v30.719h-148.476c0 5.119-5.119 5.119-5.119 10.24-30.719 25.6-66.557 46.079-102.397 56.319 51.198 40.959 81.917 107.517 81.917 174.074 0 127.995-107.517 235.512-235.512 235.512s-240.633-107.517-240.633-235.512c0-71.678 30.719-133.116 81.917-174.074-138.236-51.198-235.512-184.314-235.512-337.909v-163.835h450.545c0 0 5.119 0 5.119 0 56.319-71.678 143.355-112.636 184.314-112.636h30.719c56.319 0 235.512 92.157 235.512 250.871v230.393h-66.557zM253.444 724.482c0 107.517 87.038 194.554 194.554 194.554s194.554-87.038 194.554-194.554-87.038-194.554-194.554-194.554c-107.517 0-194.554 87.038-194.554 194.554zM99.849 89.623v122.876c0 143.355 97.276 271.352 240.633 307.19 35.838-20.479 71.678-30.719 112.636-30.719s81.917 10.24 112.636 30.719c30.719-10.24 61.438-20.479 87.038-35.838h-81.917v-30.719c0-20.479-15.36-35.838-35.838-35.838h-61.438v-230.393c0-35.838 10.24-71.678 25.6-97.276h-399.347zM903.664 186.899c0-40.959-15.36-76.798-40.959-107.517l-302.071 286.711c30.719 10.24 51.198 30.719 61.438 56.319h184.314c15.36-35.838 51.198-61.438 92.157-61.438h5.119v-174.074z" />
<glyph unicode="&#xe92c;" glyph-name="data-ppoint" d="M908.198 337.381h-20.581c0 0 0 0 0 5.145v138.928c0 46.309-25.728 87.474-61.746 108.055v262.42c0 0 0 5.145 0 5.145s0 5.145 0 5.145c0 97.764-349.894 97.764-391.057 97.764s-391.057-5.145-391.057-97.764v-730.659c0-97.764 349.894-97.764 391.057-97.764 5.145 0 10.291 0 10.291 0v-30.873c0-36.018 30.873-66.891 66.891-66.891h401.348c36.018 0 66.891 30.873 66.891 66.891v277.856c-5.145 30.873-36.018 56.601-72.037 56.601zM511.995 337.381c-20.581 0-41.164-10.291-51.454-30.873-5.145 0-15.436 0-20.581 0-210.965 0-334.457 36.018-344.747 56.601v0 205.819c97.764-46.309 313.874-46.309 344.747-46.309 36.018 0 72.037 0 108.055 5.145-5.145-15.436-10.291-30.873-10.291-46.309v-138.928c0 0 0 0 0-5.145h-25.728zM825.871 476.309v-133.783c0 0 0 0 0-5.145h-231.547c0 0 0 0 0 5.145v138.928c0 30.873 25.728 56.601 56.601 56.601h113.2c36.018 0 61.746-25.728 61.746-61.746zM764.125 599.801h-113.2c-30.873 0-61.746-10.291-82.327-30.873-5.145 0-5.145 0-10.291 0-41.164-5.145-82.327-5.145-128.637-5.145-210.965 0-334.457 36.018-344.747 56.601v190.383c97.764-46.309 313.874-46.309 344.747-46.309s252.128 0 344.747 46.309v-205.819c0-5.145-5.145-5.145-10.291-5.145zM434.813 913.675c205.819 0 329.311-30.873 344.747-51.454-20.581-20.581-144.073-51.454-344.747-51.454s-329.311 30.873-344.747 51.454c15.436 20.581 138.928 51.454 344.747 51.454zM434.813 69.816c-210.965 0-334.457 36.018-344.747 56.601v185.238c97.764-46.309 313.874-46.309 344.747-46.309 5.145 0 10.291 0 10.291 0v-190.383c-5.145-5.145-10.291-5.145-10.291-5.145zM758.978 157.288c0-15.436-10.291-30.873-25.728-41.164v-56.601c0-10.291-10.291-20.581-20.581-20.581s-20.581 10.291-20.581 20.581v56.601c-20.581 5.145-30.873 20.581-30.873 41.164v15.436c0 25.728 20.581 41.164 41.164 41.164h15.436c25.728 0 41.164-20.581 41.164-41.164v-15.436z" />
<glyph unicode="&#xf002;" glyph-name="search" horiz-adv-x="951" d="M658.286 484.571q0 105.714-75.143 180.857t-180.857 75.143-180.857-75.143-75.143-180.857 75.143-180.857 180.857-75.143 180.857 75.143 75.143 180.857zM950.857 9.143q0-29.714-21.714-51.429t-51.429-21.714q-30.857 0-51.429 21.714l-196 195.429q-102.286-70.857-228-70.857-81.714 0-156.286 31.714t-128.571 85.714-85.714 128.571-31.714 156.286 31.714 156.286 85.714 128.571 128.571 85.714 156.286 31.714 156.286-31.714 128.571-85.714 85.714-128.571 31.714-156.286q0-125.714-70.857-228l196-196q21.143-21.143 21.143-51.429z" />
<glyph unicode="&#xf003;" glyph-name="envelope-o" d="M950.857 100.571v438.857q-18.286-20.571-39.429-37.714-153.143-117.714-243.429-193.143-29.143-24.571-47.429-38.286t-49.429-27.714-58.571-14h-1.143q-27.429 0-58.571 14t-49.429 27.714-47.429 38.286q-90.286 75.429-243.429 193.143-21.143 17.143-39.429 37.714v-438.857q0-7.429 5.429-12.857t12.857-5.429h841.143q7.429 0 12.857 5.429t5.429 12.857zM950.857 701.143v14t-0.286 7.429-1.714 7.143-3.143 5.143-5.143 4.286-8 1.429h-841.143q-7.429 0-12.857-5.429t-5.429-12.857q0-96 84-162.286 110.286-86.857 229.143-181.143 3.429-2.857 20-16.857t26.286-21.429 25.429-18 28.857-15.714 24.571-5.143h1.143q11.429 0 24.571 5.143t28.857 15.714 25.429 18 26.286 21.429 20 16.857q118.857 94.286 229.143 181.143 30.857 24.571 57.429 66t26.571 75.143zM1024 722.286v-621.714q0-37.714-26.857-64.571t-64.571-26.857h-841.143q-37.714 0-64.571 26.857t-26.857 64.571v621.714q0 37.714 26.857 64.571t64.571 26.857h841.143q37.714 0 64.571-26.857t26.857-64.571z" />
<glyph unicode="&#xf008;" glyph-name="film" horiz-adv-x="1097" d="M219.429 45.714v73.143q0 14.857-10.857 25.714t-25.714 10.857h-73.143q-14.857 0-25.714-10.857t-10.857-25.714v-73.143q0-14.857 10.857-25.714t25.714-10.857h73.143q14.857 0 25.714 10.857t10.857 25.714zM219.429 265.143v73.143q0 14.857-10.857 25.714t-25.714 10.857h-73.143q-14.857 0-25.714-10.857t-10.857-25.714v-73.143q0-14.857 10.857-25.714t25.714-10.857h73.143q14.857 0 25.714 10.857t10.857 25.714zM219.429 484.571v73.143q0 14.857-10.857 25.714t-25.714 10.857h-73.143q-14.857 0-25.714-10.857t-10.857-25.714v-73.143q0-14.857 10.857-25.714t25.714-10.857h73.143q14.857 0 25.714 10.857t10.857 25.714zM804.571 45.714v292.571q0 14.857-10.857 25.714t-25.714 10.857h-438.857q-14.857 0-25.714-10.857t-10.857-25.714v-292.571q0-14.857 10.857-25.714t25.714-10.857h438.857q14.857 0 25.714 10.857t10.857 25.714zM219.429 704v73.143q0 14.857-10.857 25.714t-25.714 10.857h-73.143q-14.857 0-25.714-10.857t-10.857-25.714v-73.143q0-14.857 10.857-25.714t25.714-10.857h73.143q14.857 0 25.714 10.857t10.857 25.714zM1024 45.714v73.143q0 14.857-10.857 25.714t-25.714 10.857h-73.143q-14.857 0-25.714-10.857t-10.857-25.714v-73.143q0-14.857 10.857-25.714t25.714-10.857h73.143q14.857 0 25.714 10.857t10.857 25.714zM804.571 484.571v292.571q0 14.857-10.857 25.714t-25.714 10.857h-438.857q-14.857 0-25.714-10.857t-10.857-25.714v-292.571q0-14.857 10.857-25.714t25.714-10.857h438.857q14.857 0 25.714 10.857t10.857 25.714zM1024 265.143v73.143q0 14.857-10.857 25.714t-25.714 10.857h-73.143q-14.857 0-25.714-10.857t-10.857-25.714v-73.143q0-14.857 10.857-25.714t25.714-10.857h73.143q14.857 0 25.714 10.857t10.857 25.714zM1024 484.571v73.143q0 14.857-10.857 25.714t-25.714 10.857h-73.143q-14.857 0-25.714-10.857t-10.857-25.714v-73.143q0-14.857 10.857-25.714t25.714-10.857h73.143q14.857 0 25.714 10.857t10.857 25.714zM1024 704v73.143q0 14.857-10.857 25.714t-25.714 10.857h-73.143q-14.857 0-25.714-10.857t-10.857-25.714v-73.143q0-14.857 10.857-25.714t25.714-10.857h73.143q14.857 0 25.714 10.857t10.857 25.714zM1097.143 795.429v-768q0-37.714-26.857-64.571t-64.571-26.857h-914.286q-37.714 0-64.571 26.857t-26.857 64.571v768q0 37.714 26.857 64.571t64.571 26.857h914.286q37.714 0 64.571-26.857t26.857-64.571z" />
<glyph unicode="&#xf017;" glyph-name="clock-o" horiz-adv-x="878" d="M512 649.143v-256q0-8-5.143-13.143t-13.143-5.143h-182.857q-8 0-13.143 5.143t-5.143 13.143v36.571q0 8 5.143 13.143t13.143 5.143h128v201.143q0 8 5.143 13.143t13.143 5.143h36.571q8 0 13.143-5.143t5.143-13.143zM749.714 448q0 84.571-41.714 156t-113.143 113.143-156 41.714-156-41.714-113.143-113.143-41.714-156 41.714-156 113.143-113.143 156-41.714 156 41.714 113.143 113.143 41.714 156zM877.714 448q0-119.429-58.857-220.286t-159.714-159.714-220.286-58.857-220.286 58.857-159.714 159.714-58.857 220.286 58.857 220.286 159.714 159.714 220.286 58.857 220.286-58.857 159.714-159.714 58.857-220.286z" />
<glyph unicode="&#xf019;" glyph-name="download" horiz-adv-x="951" d="M731.429 192q0 14.857-10.857 25.714t-25.714 10.857-25.714-10.857-10.857-25.714 10.857-25.714 25.714-10.857 25.714 10.857 10.857 25.714zM877.714 192q0 14.857-10.857 25.714t-25.714 10.857-25.714-10.857-10.857-25.714 10.857-25.714 25.714-10.857 25.714 10.857 10.857 25.714zM950.857 320v-182.857q0-22.857-16-38.857t-38.857-16h-841.143q-22.857 0-38.857 16t-16 38.857v182.857q0 22.857 16 38.857t38.857 16h265.714l77.143-77.714q33.143-32 77.714-32t77.714 32l77.714 77.714h265.143q22.857 0 38.857-16t16-38.857zM765.143 645.143q9.714-23.429-8-40l-256-256q-10.286-10.857-25.714-10.857t-25.714 10.857l-256 256q-17.714 16.571-8 40 9.714 22.286 33.714 22.286h146.286v256q0 14.857 10.857 25.714t25.714 10.857h146.286q14.857 0 25.714-10.857t10.857-25.714v-256h146.286q24 0 33.714-22.286z" />
<glyph unicode="&#xf025;" glyph-name="headphones" horiz-adv-x="951" d="M950.857 453.714q0-94.857-34.286-179.429l-11.429-28-105.714-18.857q-12.571-47.429-51.714-78t-89.429-30.571v-18.286q0-8-5.143-13.143t-13.143-5.143h-36.571q-8 0-13.143 5.143t-5.143 13.143v329.143q0 8 5.143 13.143t13.143 5.143h36.571q8 0 13.143-5.143t5.143-13.143v-18.286q40.571 0 74.286-20.286t53.143-54.571l38.857 6.857q16.571 54.286 16.571 110.286 0 84.571-50.286 159.429t-135.143 119.429-180.286 44.571-180.286-44.571-135.143-119.429-50.286-159.429q0-56 16.571-110.286l38.857-6.857q19.429 34.286 53.143 54.571t74.286 20.286v18.286q0 8 5.143 13.143t13.143 5.143h36.571q8 0 13.143-5.143t5.143-13.143v-329.143q0-8-5.143-13.143t-13.143-5.143h-36.571q-8 0-13.143 5.143t-5.143 13.143v18.286q-50.286 0-89.429 30.571t-51.714 78l-105.714 18.857-11.429 28q-34.286 84.571-34.286 179.429 0 86.286 38.286 166.286t102.286 138.571 152 93.429 182.857 34.857 182.857-34.857 152-93.429 102.286-138.571 38.286-166.286z" />
<glyph unicode="&#xf05a;" glyph-name="info-circle" horiz-adv-x="878" d="M585.143 173.714v91.429q0 8-5.143 13.143t-13.143 5.143h-54.857v292.571q0 8-5.143 13.143t-13.143 5.143h-182.857q-8 0-13.143-5.143t-5.143-13.143v-91.429q0-8 5.143-13.143t13.143-5.143h54.857v-182.857h-54.857q-8 0-13.143-5.143t-5.143-13.143v-91.429q0-8 5.143-13.143t13.143-5.143h256q8 0 13.143 5.143t5.143 13.143zM512 685.714v91.429q0 8-5.143 13.143t-13.143 5.143h-109.714q-8 0-13.143-5.143t-5.143-13.143v-91.429q0-8 5.143-13.143t13.143-5.143h109.714q8 0 13.143 5.143t5.143 13.143zM877.714 448q0-119.429-58.857-220.286t-159.714-159.714-220.286-58.857-220.286 58.857-159.714 159.714-58.857 220.286 58.857 220.286 159.714 159.714 220.286 58.857 220.286-58.857 159.714-159.714 58.857-220.286z" />
<glyph unicode="&#xf064;" glyph-name="mail-forward" d="M1024 594.286q0-14.857-10.857-25.714l-292.571-292.571q-10.857-10.857-25.714-10.857t-25.714 10.857-10.857 25.714v146.286h-128q-56 0-100.286-3.429t-88-12.286-76-24.286-60.286-39.714-45.714-57.714-27.714-79.143-10-103.429q0-31.429 2.857-70.286 0-3.429 1.429-13.429t1.429-15.143q0-8.571-4.857-14.286t-13.429-5.714q-9.143 0-16 9.714-4 5.143-7.429 12.571t-7.714 17.143-6 13.714q-72.571 162.857-72.571 257.714 0 113.714 30.286 190.286 92.571 230.286 500 230.286h128v146.286q0 14.857 10.857 25.714t25.714 10.857 25.714-10.857l292.571-292.571q10.857-10.857 10.857-25.714z" />
<glyph unicode="&#xf071;" glyph-name="exclamation-triangle" d="M585.143 174.286v108.571q0 8-5.429 13.429t-12.857 5.429h-109.714q-7.429 0-12.857-5.429t-5.429-13.429v-108.571q0-8 5.429-13.429t12.857-5.429h109.714q7.429 0 12.857 5.429t5.429 13.429zM584 388l10.286 262.286q0 6.857-5.714 10.857-7.429 6.286-13.714 6.286h-125.714q-6.286 0-13.714-6.286-5.714-4-5.714-12l9.714-261.143q0-5.714 5.714-9.429t13.714-3.714h105.714q8 0 13.429 3.714t6 9.429zM576 921.714l438.857-804.571q20-36-1.143-72-9.714-16.571-26.571-26.286t-36.286-9.714h-877.714q-19.429 0-36.286 9.714t-26.571 26.286q-21.143 36-1.143 72l438.857 804.571q9.714 17.714 26.857 28t37.143 10.286 37.143-10.286 26.857-28z" />
<glyph unicode="&#xf075;" glyph-name="comment" d="M1024 448q0-99.429-68.571-183.714t-186.286-133.143-257.143-48.857q-40 0-82.857 4.571-113.143-100-262.857-138.286-28-8-65.143-12.571-9.714-1.143-17.429 5.143t-10 16.571v0.571q-1.714 2.286-0.286 6.857t1.143 5.714 2.571 5.429l3.429 5.143t4 4.857 4.571 5.143q4 4.571 17.714 19.714t19.714 21.714 17.714 22.571 18.571 29.143 15.429 33.714 14.857 43.429q-89.714 50.857-141.429 125.714t-51.714 160.571q0 74.286 40.571 142t109.143 116.857 163.429 78 198.857 28.857q139.429 0 257.143-48.857t186.286-133.143 68.571-183.714z" />
<glyph unicode="&#xf07a;" glyph-name="shopping-cart" horiz-adv-x="951" d="M365.714 82.286q0-29.714-21.714-51.429t-51.429-21.714-51.429 21.714-21.714 51.429 21.714 51.429 51.429 21.714 51.429-21.714 21.714-51.429zM877.714 82.286q0-29.714-21.714-51.429t-51.429-21.714-51.429 21.714-21.714 51.429 21.714 51.429 51.429 21.714 51.429-21.714 21.714-51.429zM950.857 704v-292.571q0-13.714-9.429-24.286t-23.143-12.286l-596.571-69.714q7.429-34.286 7.429-40 0-9.143-13.714-36.571h525.714q14.857 0 25.714-10.857t10.857-25.714-10.857-25.714-25.714-10.857h-585.143q-14.857 0-25.714 10.857t-10.857 25.714q0 6.286 4.571 18t9.143 20.571 12.286 22.857 8.857 16.857l-101.143 470.286h-116.571q-14.857 0-25.714 10.857t-10.857 25.714 10.857 25.714 25.714 10.857h146.286q9.143 0 16.286-3.714t11.143-8.857 7.429-14 4.571-14.857 3.143-16.857 2.571-14.857h686.286q14.857 0 25.714-10.857t10.857-25.714z" />
<glyph unicode="&#xf080;" glyph-name="bar-chart" horiz-adv-x="1170" d="M365.714 448v-292.571h-146.286v292.571h146.286zM585.143 740.571v-585.143h-146.286v585.143h146.286zM1170.286 82.286v-73.143h-1170.286v877.714h73.143v-804.571h1097.143zM804.571 594.286v-438.857h-146.286v438.857h146.286zM1024 813.714v-658.286h-146.286v658.286h146.286z" />
<glyph unicode="&#xf085;" glyph-name="cogs" horiz-adv-x="1097" d="M512 448q0 60.571-42.857 103.429t-103.429 42.857-103.429-42.857-42.857-103.429 42.857-103.429 103.429-42.857 103.429 42.857 42.857 103.429zM950.857 155.429q0 29.714-21.714 51.429t-51.429 21.714-51.429-21.714-21.714-51.429q0-30.286 21.429-51.714t51.714-21.429 51.714 21.429 21.429 51.714zM950.857 740.571q0 29.714-21.714 51.429t-51.429 21.714-51.429-21.714-21.714-51.429q0-30.286 21.429-51.714t51.714-21.429 51.714 21.429 21.429 51.714zM731.429 500v-105.714q0-5.714-4-11.143t-9.143-6l-88.571-13.714q-6.286-20-18.286-43.429 19.429-27.429 51.429-65.714 4-5.714 4-11.429 0-6.857-4-10.857-13.143-17.143-47.143-51.143t-44.857-34q-6.286 0-12 4l-65.714 51.429q-21.143-10.857-44-17.714-6.286-61.714-13.143-88.571-4-13.714-17.143-13.714h-106.286q-6.286 0-11.429 4.286t-5.714 10l-13.143 87.429q-19.429 5.714-42.857 17.714l-67.429-50.857q-4-4-11.429-4-6.286 0-12 4.571-82.286 76-82.286 91.429 0 5.143 4 10.857 5.714 8 23.429 30.286t26.857 34.857q-13.143 25.143-20 46.857l-86.857 13.714q-5.714 0.571-9.714 5.429t-4 11.143v105.714q0 5.714 4 11.143t9.143 6l88.571 13.714q6.286 20 18.286 43.429-19.429 27.429-51.429 65.714-4 6.286-4 11.429 0 6.857 4 11.429 12.571 17.143 46.857 50.857t45.143 33.714q6.286 0 12-4l65.714-51.429q19.429 10.286 44 18.286 6.286 61.714 13.143 88 4 13.714 17.143 13.714h106.286q6.286 0 11.429-4.286t5.714-10l13.143-87.429q19.429-5.714 42.857-17.714l67.429 50.857q4.571 4 11.429 4 6.286 0 12-4.571 82.286-76 82.286-91.429 0-5.143-4-10.857-6.857-9.143-24-30.857t-25.714-34.286q13.143-27.429 19.429-46.857l86.857-13.143q5.714-1.143 9.714-6t4-11.143zM1097.143 195.429v-80q0-9.143-85.143-17.714-6.857-15.429-17.143-29.714 29.143-64.571 29.143-78.857 0-2.286-2.286-4-69.714-40.571-70.857-40.571-4.571 0-26.286 26.857t-29.714 38.857q-11.429-1.143-17.143-1.143t-17.143 1.143q-8-12-29.714-38.857t-26.286-26.857q-1.143 0-70.857 40.571-2.286 1.714-2.286 4 0 14.286 29.143 78.857-10.286 14.286-17.143 29.714-85.143 8.571-85.143 17.714v80q0 9.143 85.143 17.714 7.429 16.571 17.143 29.714-29.143 64.571-29.143 78.857 0 2.286 2.286 4 2.286 1.143 20 11.429t33.714 19.429 17.143 9.143q4.571 0 26.286-26.571t29.714-38.571q11.429 1.143 17.143 1.143t17.143-1.143q29.143 40.571 52.571 64l3.429 1.143q2.286 0 70.857-40 2.286-1.714 2.286-4 0-14.286-29.143-78.857 9.714-13.143 17.143-29.714 85.143-8.571 85.143-17.714zM1097.143 780.571v-80q0-9.143-85.143-17.714-6.857-15.429-17.143-29.714 29.143-64.571 29.143-78.857 0-2.286-2.286-4-69.714-40.571-70.857-40.571-4.571 0-26.286 26.857t-29.714 38.857q-11.429-1.143-17.143-1.143t-17.143 1.143q-8-12-29.714-38.857t-26.286-26.857q-1.143 0-70.857 40.571-2.286 1.714-2.286 4 0 14.286 29.143 78.857-10.286 14.286-17.143 29.714-85.143 8.571-85.143 17.714v80q0 9.143 85.143 17.714 7.429 16.571 17.143 29.714-29.143 64.571-29.143 78.857 0 2.286 2.286 4 2.286 1.143 20 11.429t33.714 19.429 17.143 9.143q4.571 0 26.286-26.571t29.714-38.571q11.429 1.143 17.143 1.143t17.143-1.143q29.143 40.571 52.571 64l3.429 1.143q2.286 0 70.857-40 2.286-1.714 2.286-4 0-14.286-29.143-78.857 9.714-13.143 17.143-29.714 85.143-8.571 85.143-17.714z" />
<glyph unicode="&#xf086;" glyph-name="comments" d="M804.571 521.143q0-79.429-53.714-146.857t-146.571-106.571-202-39.143q-49.143 0-100.571 9.143-70.857-50.286-158.857-73.143-20.571-5.143-49.143-9.143h-1.714q-6.286 0-11.714 4.571t-6.571 12q-0.571 1.714-0.571 3.714t0.286 3.714 1.143 3.429l1.429 2.857t2 3.143 2.286 2.857 2.571 2.857 2.286 2.571q2.857 3.429 13.143 14.286t14.857 16.857 12.857 16.571 14.286 22 11.714 25.143q-70.857 41.143-111.429 101.143t-40.571 128q0 79.429 53.714 146.857t146.571 106.571 202 39.143 202-39.143 146.571-106.571 53.714-146.857zM1024 374.857q0-68.571-40.571-128.286t-111.429-100.857q5.714-13.714 11.714-25.143t14.286-22 12.857-16.571 14.857-16.857 13.143-14.286q0.571-0.571 2.286-2.571t2.571-2.857 2.286-2.857 2-3.143l1.429-2.857t1.143-3.429 0.286-3.714-0.571-3.714q-1.714-8-7.429-12.571t-12.571-4q-28.571 4-49.143 9.143-88 22.857-158.857 73.143-51.429-9.143-100.571-9.143-154.857 0-269.714 75.429 33.143-2.286 50.286-2.286 92 0 176.571 25.714t150.857 73.714q71.429 52.571 109.714 121.143t38.286 145.143q0 44-13.143 86.857 73.714-40.571 116.571-101.714t42.857-131.429z" />
<glyph unicode="&#xf08d;" glyph-name="thumb-tack" horiz-adv-x="658" d="M274.286 466.286v256q0 8-5.143 13.143t-13.143 5.143-13.143-5.143-5.143-13.143v-256q0-8 5.143-13.143t13.143-5.143 13.143 5.143 5.143 13.143zM658.286 265.143q0-14.857-10.857-25.714t-25.714-10.857h-245.143l-29.143-276q-1.143-6.857-6-11.714t-11.714-4.857h-0.571q-15.429 0-18.286 15.429l-43.429 277.143h-230.857q-14.857 0-25.714 10.857t-10.857 25.714q0 70.286 44.857 126.571t101.429 56.286v292.571q-29.714 0-51.429 21.714t-21.714 51.429 21.714 51.429 51.429 21.714h365.714q29.714 0 51.429-21.714t21.714-51.429-21.714-51.429-51.429-21.714v-292.571q56.571 0 101.429-56.286t44.857-126.571z" />
<glyph unicode="&#xf095;" glyph-name="phone" horiz-adv-x="805" d="M804.571 251.429q0-15.429-5.714-40.286t-12-39.143q-12-28.571-69.714-60.571-53.714-29.143-106.286-29.143-15.429 0-30 2t-32.857 7.143-27.143 8.286-31.714 11.714-28 10.286q-56 20-100 47.429-73.143 45.143-151.143 123.143t-123.143 151.143q-27.429 44-47.429 100-1.714 5.143-10.286 28t-11.714 31.714-8.286 27.143-7.143 32.857-2 30q0 52.571 29.143 106.286 32 57.714 60.571 69.714 14.286 6.286 39.143 12t40.286 5.714q8 0 12-1.714 10.286-3.429 30.286-43.429 6.286-10.857 17.143-30.857t20-36.286 17.714-30.571q1.714-2.286 10-14.286t12.286-20.286 4-16.286q0-11.429-16.286-28.571t-35.429-31.429-35.429-30.286-16.286-26.286q0-5.143 2.857-12.857t4.857-11.714 8-13.714 6.571-10.857q43.429-78.286 99.429-134.286t134.286-99.429q1.143-0.571 10.857-6.571t13.714-8 11.714-4.857 12.857-2.857q10.286 0 26.286 16.286t30.286 35.429 31.429 35.429 28.571 16.286q8 0 16.286-4t20.286-12.286 14.286-10q14.286-8.571 30.571-17.714t36.286-20 30.857-17.143q40-20 43.429-30.286 1.714-4 1.714-12z" />
<glyph unicode="&#xf099;" glyph-name="twitter" horiz-adv-x="951" d="M925.714 726.857q-38.286-56-92.571-95.429 0.571-8 0.571-24 0-74.286-21.714-148.286t-66-142-105.429-120.286-147.429-83.429-184.571-31.143q-154.857 0-283.429 82.857 20-2.286 44.571-2.286 128.571 0 229.143 78.857-60 1.143-107.429 36.857t-65.143 91.143q18.857-2.857 34.857-2.857 24.571 0 48.571 6.286-64 13.143-106 63.714t-42 117.429v2.286q38.857-21.714 83.429-23.429-37.714 25.143-60 65.714t-22.286 88q0 50.286 25.143 93.143 69.143-85.143 168.286-136.286t212.286-56.857q-4.571 21.714-4.571 42.286 0 76.571 54 130.571t130.571 54q80 0 134.857-58.286 62.286 12 117.143 44.571-21.143-65.714-81.143-101.714 53.143 5.714 106.286 28.571z" />
<glyph unicode="&#xf09a;" glyph-name="facebook" horiz-adv-x="602" d="M548 953.143v-150.857h-89.714q-49.143 0-66.286-20.571t-17.143-61.714v-108h167.429l-22.286-169.143h-145.143v-433.714h-174.857v433.714h-145.714v169.143h145.714v124.571q0 106.286 59.429 164.857t158.286 58.571q84 0 130.286-6.857z" />
<glyph unicode="&#xf09e;" glyph-name="rss" horiz-adv-x="806" d="M219.429 192q0-45.714-32-77.714t-77.714-32-77.714 32-32 77.714 32 77.714 77.714 32 77.714-32 32-77.714zM512 121.714q1.143-16-9.714-27.429-10.286-12-26.857-12h-77.143q-14.286 0-24.571 9.429t-11.429 23.714q-12.571 130.857-105.429 223.714t-223.714 105.429q-14.286 1.143-23.714 11.429t-9.429 24.571v77.143q0 16.571 12 26.857 9.714 9.714 24.571 9.714h2.857q91.429-7.429 174.857-46t148-103.714q65.143-64.571 103.714-148t46-174.857zM804.571 120.571q1.143-15.429-10.286-26.857-10.286-11.429-26.286-11.429h-81.714q-14.857 0-25.429 10t-11.143 24.286q-6.857 122.857-57.714 233.429t-132.286 192-192 132.286-233.429 58.286q-14.286 0.571-24.286 11.143t-10 24.857v81.714q0 16 11.429 26.286 10.286 10.286 25.143 10.286h1.714q149.714-7.429 286.571-68.571t243.143-168q106.857-106.286 168-243.143t68.571-286.571z" />
<glyph unicode="&#xf0a0;" glyph-name="hdd-o" horiz-adv-x="878" d="M594.286 265.143q0-18.857-13.429-32.286t-32.286-13.429-32.286 13.429-13.429 32.286 13.429 32.286 32.286 13.429 32.286-13.429 13.429-32.286zM740.571 265.143q0-18.857-13.429-32.286t-32.286-13.429-32.286 13.429-13.429 32.286 13.429 32.286 32.286 13.429 32.286-13.429 13.429-32.286zM804.571 173.714v182.857q0 7.429-5.429 12.857t-12.857 5.429h-694.857q-7.429 0-12.857-5.429t-5.429-12.857v-182.857q0-7.429 5.429-12.857t12.857-5.429h694.857q7.429 0 12.857 5.429t5.429 12.857zM101.714 448h674.286l-89.714 275.429q-2.286 7.429-9.143 12.286t-14.857 4.857h-446.857q-8 0-14.857-4.857t-9.143-12.286zM877.714 356.571v-182.857q0-37.714-26.857-64.571t-64.571-26.857h-694.857q-37.714 0-64.571 26.857t-26.857 64.571v182.857q0 14.286 9.143 42.857l112.571 346.286q9.714 30.286 36 49.143t57.714 18.857h446.857q31.429 0 57.714-18.857t36-49.143l112.571-346.286q9.143-28.571 9.143-42.857z" />
<glyph unicode="&#xf0a1;" glyph-name="bullhorn" d="M950.857 594.286q30.286 0 51.714-21.429t21.429-51.714-21.429-51.714-51.714-21.429v-219.429q0-29.714-21.714-51.429t-51.429-21.714q-238.286 198.286-464 217.143-33.143-10.857-52-37.714t-17.714-57.429 22.857-52.857q-11.429-18.857-13.143-37.429t3.429-33.143 19.143-31.429 27.429-28.571 35.143-28.857q-16.571-33.143-63.714-47.429t-96.286-6.571-75.429 31.714q-4 13.143-16.857 50t-18.286 54-13.143 50.857-8.571 57.714 2 56.286 12.571 63.143h-69.714q-37.714 0-64.571 26.857t-26.857 64.571v109.714q0 37.714 26.857 64.571t64.571 26.857h274.286q248.571 0 512 219.429 29.714 0 51.429-21.714t21.714-51.429v-219.429zM877.714 249.143v545.143q-225.143-172.571-438.857-196v-154.286q215.429-24 438.857-194.857z" />
<glyph unicode="&#xf0ac;" glyph-name="globe" horiz-adv-x="878" d="M438.857 886.857q119.429 0 220.286-58.857t159.714-159.714 58.857-220.286-58.857-220.286-159.714-159.714-220.286-58.857-220.286 58.857-159.714 159.714-58.857 220.286 58.857 220.286 159.714 159.714 220.286 58.857zM595.429 589.143q-1.143-0.571-5.429-5.429t-7.714-5.429q1.143 0 2.571 2.857t2.857 6.286 2 4q3.429 4 12.571 8.571 8 3.429 29.714 6.857 19.429 4.571 29.143-6.286-1.143 1.143 5.429 7.429t8.286 6.857q1.714 1.143 8.571 2.571t8.571 4.286l1.143 12.571q-6.857-0.571-10 4t-3.714 12q0-1.143-3.429-4.571 0 4-2.571 4.571t-6.571-0.571-5.143-0.571q-5.714 1.714-8.571 4.286t-4.571 9.429-2.286 8.571q-1.143 2.857-5.429 6t-5.429 6q-0.571 1.143-1.429 3.143t-1.714 3.714-2.286 3.143-3.143 1.429-4-2.857-4.286-5.714-2.571-2.857q-1.714 1.143-3.429 0.857t-2.571-0.571-2.571-1.714-2.857-2q-1.714-1.143-4.857-1.714t-4.857-1.143q8.571 2.857-0.571 6.286-5.714 2.286-9.143 1.714 5.143 2.286 4.286 6.857t-4.857 8h2.857q-0.571 2.286-4.857 4.857t-10 4.857-7.429 3.429q-4.571 2.857-19.429 5.429t-18.857 0.286q-2.857-3.429-2.571-6t2.286-8 2-7.143q0.571-3.429-3.143-7.429t-3.714-6.857q0-4 8-8.857t5.714-12.286q-1.714-4.571-9.143-9.143t-9.143-6.857q-2.857-4.571-0.857-10.571t6-9.429q1.143-1.143 0.857-2.286t-2-2.571-3.143-2.286-3.714-2l-1.714-1.143q-6.286-2.857-11.714 3.429t-7.714 14.857q-4 14.286-9.143 17.143-13.143 4.571-16.571-0.571-2.857 7.429-23.429 14.857-14.286 5.143-33.143 2.286 3.429 0.571 0 8.571-4 8.571-10.857 6.857 1.714 3.429 2.286 10t0.571 7.714q1.714 7.429 6.857 13.143 0.571 0.571 4 4.857t5.429 7.714 0.286 3.429q20-2.286 28.571 6.286 2.857 2.857 6.571 9.714t6 9.714q5.143 3.429 8 3.143t8.286-3.143 8.286-2.857q8-0.571 8.857 6.286t-4.286 11.429q6.857-0.571 1.714 9.714-2.857 4-4.571 5.143-6.857 2.286-15.429-2.857-4.571-2.286 1.143-4.571-0.571 0.571-5.429-6t-9.429-10-9.143 2.857q-0.571 0.571-3.143 7.714t-5.429 7.714q-4.571 0-9.143-8.571 1.714 4.571-6.286 8.571t-13.714 4.571q10.857 6.857-4.571 15.429-4 2.286-11.714 2.857t-11.143-2.286q-2.857-4-3.143-6.571t2.857-4.571 6-3.143 6.571-2.286 4.857-1.714q8-5.714 4.571-8-1.143-0.571-4.857-2t-6.571-2.571-3.429-2.286q-1.714-2.286 0-8t-1.143-8q-2.857 2.857-5.143 10t-4 9.429q4-5.143-14.286-3.429l-5.714 0.571q-2.286 0-9.143-1.143t-11.714-0.571-7.714 4.571q-2.286 4.571 0 11.429 0.571 2.286 2.286 1.143-2.286 1.714-6.286 5.429t-5.714 4.857q-26.286-8.571-53.714-23.429 3.429-0.571 6.857 0.571 2.857 1.143 7.429 3.714t5.714 3.143q19.429 8 24 4l2.857 2.857q8-9.143 11.429-14.286-4 2.286-17.143 0.571-11.429-3.429-12.571-6.857 4-6.857 2.857-10.286-2.286 1.714-6.571 5.714t-8.286 6.286-8.571 2.857q-9.143 0-12.571-0.571-83.429-45.714-134.286-126.857 4-4 6.857-4.571 2.286-0.571 2.857-5.143t1.429-6.286 6.571 1.714q5.143-4.571 1.714-10.857 0.571 0.571 25.143-15.429 10.857-9.714 12-12 1.714-6.286-5.714-10.286-0.571 1.143-5.143 5.143t-5.143 2.286q-1.714-2.857 0.286-10.571t6-7.143q-4 0-5.429-9.143t-1.429-20.286-0.571-13.429l1.143-0.571q-1.714-6.857 3.143-19.714t12.286-11.143q-7.429-1.714 11.429-24.571 3.429-4.571 4.571-5.143 1.714-1.143 6.857-4.286t8.571-5.714 5.714-6q2.286-2.857 5.714-12.857t8-13.429q-1.143-3.429 5.429-11.429t6-13.143q-0.571 0-1.429-0.571t-1.429-0.571q1.714-4 8.857-8t8.857-7.429q0.571-1.714 1.143-5.714t1.714-6.286 4.571-1.143q1.143 11.429-13.714 35.429-8.571 14.286-9.714 16.571-1.714 2.857-3.143 8.857t-2.571 8.286q1.143 0 3.429-0.857t4.857-2 4.286-2.286 1.143-1.714q-1.714-4 1.143-10t6.857-10.571 9.714-10.857 6.857-7.429q3.429-3.429 8-11.143t0-7.714q5.143 0 11.429-5.714t9.714-11.429q2.857-4.571 4.571-14.857t2.857-13.714q1.143-4 4.857-7.714t7.143-5.429l9.143-4.571t7.429-4q2.857-1.143 10.571-6t12.286-6.571q5.714-2.286 9.143-2.286t8.286 1.429 7.714 2q8.571 1.143 16.571-8.571t12-12q20.571-10.857 31.429-6.286-1.143-0.571 0.286-4.286t4.571-8.857 5.143-8.286 3.143-4.857q2.857-3.429 10.286-8.571t10.286-8.571q3.429 2.286 4 5.143-1.714-4.571 4-11.429t10.286-5.714q8 1.714 8 18.286-17.714-8.571-28 10.286 0 0.571-1.429 3.143t-2.286 4.857-1.429 4.857 0 4.286 2.857 1.714q5.143 0 5.714 2t-1.143 7.143-2.286 7.429q-0.571 4.571-6.286 11.429t-6.857 8.571q-2.857-5.143-9.143-4.571t-9.143 5.143q0-0.571-0.857-3.143t-0.857-3.714q-7.429 0-8.571 0.571 0.571 1.714 1.429 10t2 12.857q0.571 2.286 3.143 6.857t4.286 8.286 2.286 7.143-2.571 5.429-10 1.429q-10.857-0.571-14.857-11.429-0.571-1.714-1.714-6t-2.857-6.571-5.143-4q-4-1.714-13.714-1.143t-13.714 2.857q-7.429 4.571-12.857 16.571t-5.429 21.143q0 5.714 1.429 15.143t1.714 14.286-3.143 14q1.714 1.143 5.143 5.429t5.714 6q1.143 0.571 2.571 0.857t2.571 0 2.286 0.857 1.714 3.429q-0.571 0.571-2.286 1.714-1.714 1.714-2.286 1.714 4-1.714 16.286 0.857t15.714-0.857q8.571-6.286 12.571 1.143 0 0.571-1.429 5.429t-0.286 7.714q2.857-15.429 16.571-5.143 1.714-1.714 8.857-2.857t10-2.857q1.714-1.143 4-3.143t3.143-2.571 2.857 0.286 4.857 3.714q5.714-8 6.857-13.714 6.286-22.857 10.857-25.143 4-1.714 6.286-1.143t2.571 5.429 0 8-0.857 7.143l-0.571 4.571v10.286l-0.571 4.571q-8.571 1.714-10.571 6.857t0.857 10.571 8.571 10.571q0.571 0.571 4.571 2t8.857 3.714 7.143 4.571q12 10.857 8.571 20 4 0 6.286 5.143-0.571 0-2.857 1.714t-4.286 2.857-2.571 1.143q5.143 2.857 1.143 9.143 2.857 1.714 4.286 6.286t4.286 5.714q5.143-6.857 12-1.143 4 4.571 0.571 9.143 2.857 4 11.714 6t10.571 5.429q4-1.143 4.571 1.143t0.571 6.857 1.714 6.857q2.286 2.857 8.571 5.143t7.429 2.857l9.714 6.286q1.714 2.286 0 2.286 10.286-1.143 17.714 6.286 5.714 6.286-3.429 11.429 1.714 3.429-1.714 5.429t-8.571 3.143q1.714 0.571 6.571 0.286t6 0.857q8.571 5.714-4 9.143-9.714 2.857-24.571-6.857zM502.286 88q117.714 20.571 200.571 108-1.714 1.714-7.143 2.571t-7.143 2q-10.286 4-13.714 4.571 0.571 4-1.429 7.429t-4.571 5.143-7.143 4.571-6.286 4q-1.143 1.143-4 3.429t-4 3.143-4.286 2.571-4.857 1.143-5.714-0.571l-1.714-0.571q-1.714-0.571-3.143-1.429t-3.143-1.714-2.286-1.714 0-1.429q-12 9.714-20.571 12.571-2.857 0.571-6.286 3.143t-6 4-5.714 0.857-6.571-4q-2.857-2.857-3.429-8.571t-1.143-7.429q-4 2.857 0 10t1.143 10.571q-1.714 3.429-6 2.571t-6.857-2.571-6.571-4.857-5.143-3.714-4.857-3.143-4.857-4.286q-1.714-2.286-3.429-6.857t-2.857-6.286q-1.143 2.286-6.571 3.714t-5.429 3.143q1.143-5.714 2.286-20t2.857-21.714q4-17.714-6.857-27.429-15.429-14.286-16.571-22.857-2.286-12.571 6.857-14.857 0-4-4.571-11.714t-4-12.286q0-3.429 1.143-9.143z" />
<glyph unicode="&#xf0ad;" glyph-name="wrench" horiz-adv-x="962" d="M219.429 118.857q0 14.857-10.857 25.714t-25.714 10.857-25.714-10.857-10.857-25.714 10.857-25.714 25.714-10.857 25.714 10.857 10.857 25.714zM587.429 358.857l-389.714-389.714q-21.143-21.143-51.429-21.143-29.714 0-52 21.143l-60.571 61.714q-21.714 20.571-21.714 51.429 0 30.286 21.714 52l389.143 389.143q22.286-56 65.429-99.143t99.143-65.429zM949.714 607.429q0-22.286-13.143-60.571-26.857-76.571-94-124.286t-147.714-47.714q-105.714 0-180.857 75.143t-75.143 180.857 75.143 180.857 180.857 75.143q33.143 0 69.429-9.429t61.429-26.571q9.143-6.286 9.143-16t-9.143-16l-167.429-96.571v-128l110.286-61.143q2.857 1.714 45.143 27.714t77.429 46.286 40.286 20.286q8.571 0 13.429-5.714t4.857-14.286z" />
<glyph unicode="&#xf0b1;" glyph-name="briefcase" d="M365.714 813.714h292.571v73.143h-292.571v-73.143zM1024 448v-274.286q0-37.714-26.857-64.571t-64.571-26.857h-841.143q-37.714 0-64.571 26.857t-26.857 64.571v274.286h384v-91.429q0-14.857 10.857-25.714t25.714-10.857h182.857q14.857 0 25.714 10.857t10.857 25.714v91.429h384zM585.143 448v-73.143h-146.286v73.143h146.286zM1024 722.286v-219.429h-1024v219.429q0 37.714 26.857 64.571t64.571 26.857h201.143v91.429q0 22.857 16 38.857t38.857 16h329.143q22.857 0 38.857-16t16-38.857v-91.429h201.143q37.714 0 64.571-26.857t26.857-64.571z" />
<glyph unicode="&#xf0c0;" glyph-name="users" horiz-adv-x="1097" d="M338.857 448q-92.571-2.857-151.429-73.143h-76.571q-46.857 0-78.857 23.143t-32 67.714q0 201.714 70.857 201.714 3.429 0 24.857-12t55.714-24.286 68-12.286q38.286 0 76 13.143-2.857-21.143-2.857-37.714 0-79.429 46.286-146.286zM950.857 84q0-68.571-41.714-108.286t-110.857-39.714h-499.429q-69.143 0-110.857 39.714t-41.714 108.286q0 30.286 2 59.143t8 62.286 15.143 62 24.571 55.714 35.429 46.286 48.857 30.571 63.714 11.429q5.714 0 24.571-12.286t41.714-27.429 61.143-27.429 77.143-12.286 77.143 12.286 61.143 27.429 41.714 27.429 24.571 12.286q34.857 0 63.714-11.429t48.857-30.571 35.429-46.286 24.571-55.714 15.143-62 8-62.286 2-59.143zM365.714 813.714q0-60.571-42.857-103.429t-103.429-42.857-103.429 42.857-42.857 103.429 42.857 103.429 103.429 42.857 103.429-42.857 42.857-103.429zM768 594.286q0-90.857-64.286-155.143t-155.143-64.286-155.143 64.286-64.286 155.143 64.286 155.143 155.143 64.286 155.143-64.286 64.286-155.143zM1097.143 465.714q0-44.571-32-67.714t-78.857-23.143h-76.571q-58.857 70.286-151.429 73.143 46.286 66.857 46.286 146.286 0 16.571-2.857 37.714 37.714-13.143 76-13.143 33.714 0 68 12.286t55.714 24.286 24.857 12q70.857 0 70.857-201.714zM1024 813.714q0-60.571-42.857-103.429t-103.429-42.857-103.429 42.857-42.857 103.429 42.857 103.429 103.429 42.857 103.429-42.857 42.857-103.429z" />
<glyph unicode="&#xf0c3;" glyph-name="flask" horiz-adv-x="951" d="M872.571 132.571q32-50.857 12.286-87.143t-80.286-36.286h-658.286q-60.571 0-80.286 36.286t12.286 87.143l287.429 453.143v228h-36.571q-14.857 0-25.714 10.857t-10.857 25.714 10.857 25.714 25.714 10.857h292.571q14.857 0 25.714-10.857t10.857-25.714-10.857-25.714-25.714-10.857h-36.571v-228zM427.429 546.857l-155.429-245.143h406.857l-155.429 245.143-11.429 17.714v249.143h-73.143v-249.143z" />
<glyph unicode="&#xf0c6;" glyph-name="paperclip" horiz-adv-x="805" d="M802.286 168.571q0-66.857-45.143-112t-112-45.143q-77.143 0-134.286 57.143l-444 443.429q-64.571 65.714-64.571 154.857 0 90.857 62.857 154.286t153.714 63.429q90.286 0 156-64.571l345.714-346.286q5.714-5.714 5.714-12.571 0-9.143-17.429-26.571t-26.571-17.429q-7.429 0-13.143 5.714l-346.286 346.857q-45.143 44-103.429 44-60.571 0-102.286-42.857t-41.714-103.429q0-60 43.429-103.429l443.429-444q36-36 82.857-36 36.571 0 60.571 24t24 60.571q0 46.857-36 82.857l-332 332q-14.857 13.714-34.286 13.714-16.571 0-27.429-10.857t-10.857-27.429q0-18.286 14.286-33.714l234.286-234.286q5.714-5.714 5.714-12.571 0-9.143-17.714-26.857t-26.857-17.714q-6.857 0-12.571 5.714l-234.286 234.286q-36 34.857-36 85.143 0 46.857 32.571 79.429t79.429 32.571q50.286 0 85.143-36l332-332q57.143-56 57.143-134.286z" />
<glyph unicode="&#xf0d5;" glyph-name="google-plus" horiz-adv-x="1317" d="M821.143 438.286q0-118.857-49.714-211.714t-141.714-145.143-210.857-52.286q-85.143 0-162.857 33.143t-133.714 89.143-89.143 133.714-33.143 162.857 33.143 162.857 89.143 133.714 133.714 89.143 162.857 33.143q163.429 0 280.571-109.714l-113.714-109.143q-66.857 64.571-166.857 64.571-70.286 0-130-35.429t-94.571-96.286-34.857-132.857 34.857-132.857 94.571-96.286 130-35.429q47.429 0 87.143 13.143t65.429 32.857 44.857 44.857 28 47.429 12.286 42.286h-237.714v144h395.429q6.857-36 6.857-69.714zM1316.571 508v-120h-119.429v-119.429h-120v119.429h-119.429v120h119.429v119.429h120v-119.429h119.429z" />
<glyph unicode="&#xf0e0;" glyph-name="envelope" d="M1024 554.286v-453.714q0-37.714-26.857-64.571t-64.571-26.857h-841.143q-37.714 0-64.571 26.857t-26.857 64.571v453.714q25.143-28 57.714-49.714 206.857-140.571 284-197.143 32.571-24 52.857-37.429t54-27.429 62.857-14h1.143q29.143 0 62.857 14t54 27.429 52.857 37.429q97.143 70.286 284.571 197.143 32.571 22.286 57.143 49.714zM1024 722.286q0-45.143-28-86.286t-69.714-70.286q-214.857-149.143-267.429-185.714-5.714-4-24.286-17.429t-30.857-21.714-29.714-18.571-32.857-15.429-28.571-5.143h-1.143q-13.143 0-28.571 5.143t-32.857 15.429-29.714 18.571-30.857 21.714-24.286 17.429q-52 36.571-149.714 104.286t-117.143 81.429q-35.429 24-66.857 66t-31.429 78q0 44.571 23.714 74.286t67.714 29.714h841.143q37.143 0 64.286-26.857t27.143-64.571z" />
<glyph unicode="&#xf0e1;" glyph-name="linkedin" horiz-adv-x="878" d="M199.429 602.857v-566.286h-188.571v566.286h188.571zM211.429 777.714q0.571-41.714-28.857-69.714t-77.429-28h-1.143q-46.857 0-75.429 28t-28.571 69.714q0 42.286 29.429 70t76.857 27.714 76-27.714 29.143-70zM877.714 361.143v-324.571h-188v302.857q0 60-23.143 94t-72.286 34q-36 0-60.286-19.714t-36.286-48.857q-6.286-17.143-6.286-46.286v-316h-188q1.143 228 1.143 369.714t-0.571 169.143l-0.571 27.429h188v-82.286h-1.143q11.429 18.286 23.429 32t32.286 29.714 49.714 24.857 65.429 8.857q97.714 0 157.143-64.857t59.429-190z" />
<glyph unicode="&#xf0e4;" glyph-name="tachometer" d="M219.429 301.714q0 30.286-21.429 51.714t-51.714 21.429-51.714-21.429-21.429-51.714 21.429-51.714 51.714-21.429 51.714 21.429 21.429 51.714zM329.143 557.714q0 30.286-21.429 51.714t-51.714 21.429-51.714-21.429-21.429-51.714 21.429-51.714 51.714-21.429 51.714 21.429 21.429 51.714zM573.714 282.857l57.714 218.286q3.429 14.857-4.286 27.714t-22 16.857-27.429-3.714-17.143-22.571l-57.714-218.286q-34.286-2.857-61.143-24.857t-36-56.286q-11.429-44 11.429-83.429t66.857-50.857 83.429 11.429 50.857 66.857q9.143 34.286-3.429 66.857t-41.143 52zM950.857 301.714q0 30.286-21.429 51.714t-51.714 21.429-51.714-21.429-21.429-51.714 21.429-51.714 51.714-21.429 51.714 21.429 21.429 51.714zM585.143 667.429q0 30.286-21.429 51.714t-51.714 21.429-51.714-21.429-21.429-51.714 21.429-51.714 51.714-21.429 51.714 21.429 21.429 51.714zM841.143 557.714q0 30.286-21.429 51.714t-51.714 21.429-51.714-21.429-21.429-51.714 21.429-51.714 51.714-21.429 51.714 21.429 21.429 51.714zM1024 301.714q0-149.143-80.571-276-10.857-16.571-30.857-16.571h-801.143q-20 0-30.857 16.571-80.571 126.286-80.571 276 0 104 40.571 198.857t109.143 163.429 163.429 109.143 198.857 40.571 198.857-40.571 163.429-109.143 109.143-163.429 40.571-198.857z" />
<glyph unicode="&#xf0e6;" glyph-name="comments-o" d="M402.286 740.571q-87.429 0-163.429-29.714t-120.857-80.571-44.857-109.143q0-46.857 30.286-90.286t85.143-75.429l55.429-32-20-48q19.429 11.429 35.429 22.286l25.143 17.714 30.286-5.714q44.571-8 87.429-8 87.429 0 163.429 29.714t120.857 80.571 44.857 109.143-44.857 109.143-120.857 80.571-163.429 29.714zM402.286 813.714q109.143 0 202-39.143t146.571-106.571 53.714-146.857-53.714-146.857-146.571-106.571-202-39.143q-49.143 0-100.571 9.143-70.857-50.286-158.857-73.143-20.571-5.143-49.143-9.143h-1.714q-6.286 0-11.714 4.571t-6.571 12q-0.571 1.714-0.571 3.714t0.286 3.714 1.143 3.429l1.429 2.857t2 3.143 2.286 2.857 2.571 2.857 2.286 2.571q2.857 3.429 13.143 14.286t14.857 16.857 12.857 16.571 14.286 22 11.714 25.143q-70.857 41.143-111.429 101.143t-40.571 128q0 79.429 53.714 146.857t146.571 106.571 202 39.143zM872 145.714q5.714-13.714 11.714-25.143t14.286-22 12.857-16.571 14.857-16.857 13.143-14.286q0.571-0.571 2.286-2.571t2.571-2.857 2.286-2.857 2-3.143l1.429-2.857t1.143-3.429 0.286-3.714-0.571-3.714q-1.714-8-7.429-12.571t-12.571-4q-28.571 4-49.143 9.143-88 22.857-158.857 73.143-51.429-9.143-100.571-9.143-154.857 0-269.714 75.429 33.143-2.286 50.286-2.286 92 0 176.571 25.714t150.857 73.714q71.429 52.571 109.714 121.143t38.286 145.143q0 44-13.143 86.857 73.714-40.571 116.571-101.714t42.857-131.429q0-68.571-40.571-128.286t-111.429-100.857z" />
<glyph unicode="&#xf0e8;" glyph-name="sitemap" d="M1024 246.857v-182.857q0-22.857-16-38.857t-38.857-16h-182.857q-22.857 0-38.857 16t-16 38.857v182.857q0 22.857 16 38.857t38.857 16h54.857v109.714h-292.571v-109.714h54.857q22.857 0 38.857-16t16-38.857v-182.857q0-22.857-16-38.857t-38.857-16h-182.857q-22.857 0-38.857 16t-16 38.857v182.857q0 22.857 16 38.857t38.857 16h54.857v109.714h-292.571v-109.714h54.857q22.857 0 38.857-16t16-38.857v-182.857q0-22.857-16-38.857t-38.857-16h-182.857q-22.857 0-38.857 16t-16 38.857v182.857q0 22.857 16 38.857t38.857 16h54.857v109.714q0 29.714 21.714 51.429t51.429 21.714h292.571v109.714h-54.857q-22.857 0-38.857 16t-16 38.857v182.857q0 22.857 16 38.857t38.857 16h182.857q22.857 0 38.857-16t16-38.857v-182.857q0-22.857-16-38.857t-38.857-16h-54.857v-109.714h292.571q29.714 0 51.429-21.714t21.714-51.429v-109.714h54.857q22.857 0 38.857-16t16-38.857z" />
<glyph unicode="&#xf0e9;" glyph-name="umbrella" horiz-adv-x="951" d="M512 486.857v-331.429q0-59.429-43.429-102.857t-102.857-43.429-102.857 43.429-43.429 102.857q0 14.857 10.857 25.714t25.714 10.857 25.714-10.857 10.857-25.714q0-28.571 22.286-50.857t50.857-22.286 50.857 22.286 22.286 50.857v331.429q18.857 6.286 36.571 6.286t36.571-6.286zM950.857 471.429q0-7.429-5.429-12.857t-12.857-5.429q-6.286 0-13.143 5.714-28 26.286-53.143 39.429t-58.286 13.143q-38.857 0-73.143-21.143t-58.857-55.429q-4-5.714-10-16t-8.286-13.714q-6.286-9.714-16-9.714-10.286 0-16.571 9.714-2.286 3.429-8.286 13.714t-10 16q-24.571 34.286-58.571 55.429t-72.857 21.143-72.857-21.143-58.571-55.429q-4-5.714-10-16t-8.286-13.714q-6.286-9.714-16.571-9.714-9.714 0-16 9.714-2.286 3.429-8.286 13.714t-10 16q-24.571 34.286-58.857 55.429t-73.143 21.143q-33.143 0-58.286-13.143t-53.143-39.429q-6.857-5.714-13.143-5.714-7.429 0-12.857 5.429t-5.429 12.857q0 2.857 0.571 4 25.714 104.571 98.571 182.571t170.286 116.857 206 38.857q80 0 156.857-22.857t140.857-64.857 111.143-106.857 66-143.714q0.571-1.143 0.571-4zM512 886.857v-56q-24 1.143-36.571 1.143t-36.571-1.143v56q0 14.857 10.857 25.714t25.714 10.857 25.714-10.857 10.857-25.714z" />
<glyph unicode="&#xf0eb;" glyph-name="lightbulb-o" horiz-adv-x="585" d="M420.571 630.857q0-7.429-5.429-12.857t-12.857-5.429-12.857 5.429-5.429 12.857q0 26.286-30.857 40.571t-60.571 14.286q-7.429 0-12.857 5.429t-5.429 12.857 5.429 12.857 12.857 5.429q28.571 0 56.857-9.143t49.714-30.857 21.429-51.429zM512 630.857q0 41.143-19.714 76.571t-51.429 58-70.286 35.429-78 12.857-78-12.857-70.286-35.429-51.429-58-19.714-76.571q0-57.714 38.857-102.857 5.714-6.286 17.429-18.857t17.429-18.857q73.143-87.429 80.571-170.286h130.286q7.429 82.857 80.571 170.286 5.714 6.286 17.429 18.857t17.429 18.857q38.857 45.143 38.857 102.857zM585.143 630.857q0-88.571-58.857-153.143-25.714-28-42.571-49.714t-34-54.571-19.429-61.429q26.857-16 26.857-46.857 0-21.143-14.286-36.571 14.286-15.429 14.286-36.571 0-29.714-25.714-46.286 7.429-13.143 7.429-26.857 0-26.286-18-40.571t-44.286-14.286q-11.429-25.143-34.286-40t-49.714-14.857-49.714 14.857-34.286 40q-26.286 0-44.286 14.286t-18 40.571q0 13.714 7.429 26.857-25.714 16.571-25.714 46.286 0 21.143 14.286 36.571-14.286 15.429-14.286 36.571 0 30.857 26.857 46.857-2.286 28.571-19.429 61.429t-34 54.571-42.571 49.714q-58.857 64.571-58.857 153.143 0 56.571 25.429 105.429t66.857 81.143 93.714 50.857 106.571 18.571 106.571-18.571 93.714-50.857 66.857-81.143 25.429-105.429z" />
<glyph unicode="&#xf0ed;" glyph-name="cloud-download" horiz-adv-x="1097" d="M731.429 429.714q0 8-5.143 13.143t-13.143 5.143h-128v201.143q0 7.429-5.429 12.857t-12.857 5.429h-109.714q-7.429 0-12.857-5.429t-5.429-12.857v-201.143h-128q-7.429 0-12.857-5.429t-5.429-12.857q0-8 5.143-13.143l201.143-201.143q5.143-5.143 13.143-5.143t13.143 5.143l200.571 200.571q5.714 6.857 5.714 13.714zM1097.143 301.714q0-90.857-64.286-155.143t-155.143-64.286h-621.714q-105.714 0-180.857 75.143t-75.143 180.857q0 74.286 40 137.143t107.429 94.286q-1.143 17.143-1.143 24.571 0 121.143 85.714 206.857t206.857 85.714q89.143 0 163.143-49.714t107.714-132q40.571 35.429 94.857 35.429 60.571 0 103.429-42.857t42.857-103.429q0-43.429-23.429-78.857 74.286-17.714 122-77.429t47.714-136.286z" />
<glyph unicode="&#xf0f2;" glyph-name="suitcase" d="M365.714 740.571h292.571v73.143h-292.571v-73.143zM164.571 740.571v-731.429h-36.571q-52.571 0-90.286 37.714t-37.714 90.286v475.429q0 52.571 37.714 90.286t90.286 37.714h36.571zM804.571 740.571v-731.429h-585.143v731.429h73.143v91.429q0 22.857 16 38.857t38.857 16h329.143q22.857 0 38.857-16t16-38.857v-91.429h73.143zM1024 612.571v-475.429q0-52.571-37.714-90.286t-90.286-37.714h-36.571v731.429h36.571q52.571 0 90.286-37.714t37.714-90.286z" />
<glyph unicode="&#xf0f6;" glyph-name="file-text-o" horiz-adv-x="878" d="M838.857 742.857q16-16 27.429-43.429t11.429-50.286v-658.286q0-22.857-16-38.857t-38.857-16h-768q-22.857 0-38.857 16t-16 38.857v914.286q0 22.857 16 38.857t38.857 16h512q22.857 0 50.286-11.429t43.429-27.429zM585.143 882.286v-214.857h214.857q-5.714 16.571-12.571 23.429l-178.857 178.857q-6.857 6.857-23.429 12.571zM804.571 9.143v585.143h-237.714q-22.857 0-38.857 16t-16 38.857v237.714h-438.857v-877.714h731.429zM219.429 502.857q0 8 5.143 13.143t13.143 5.143h402.286q8 0 13.143-5.143t5.143-13.143v-36.571q0-8-5.143-13.143t-13.143-5.143h-402.286q-8 0-13.143 5.143t-5.143 13.143v36.571zM640 374.857q8 0 13.143-5.143t5.143-13.143v-36.571q0-8-5.143-13.143t-13.143-5.143h-402.286q-8 0-13.143 5.143t-5.143 13.143v36.571q0 8 5.143 13.143t13.143 5.143h402.286zM640 228.571q8 0 13.143-5.143t5.143-13.143v-36.571q0-8-5.143-13.143t-13.143-5.143h-402.286q-8 0-13.143 5.143t-5.143 13.143v36.571q0 8 5.143 13.143t13.143 5.143h402.286z" />
<glyph unicode="&#xf104;" glyph-name="angle-left" horiz-adv-x="384" d="M358.286 649.143q0-7.429-5.714-13.143l-224.571-224.571 224.571-224.571q5.714-5.714 5.714-13.143t-5.714-13.143l-28.571-28.571q-5.714-5.714-13.143-5.714t-13.143 5.714l-266.286 266.286q-5.714 5.714-5.714 13.143t5.714 13.143l266.286 266.286q5.714 5.714 13.143 5.714t13.143-5.714l28.571-28.571q5.714-5.714 5.714-13.143z" />
<glyph unicode="&#xf105;" glyph-name="angle-right" horiz-adv-x="347" d="M340 411.429q0-7.429-5.714-13.143l-266.286-266.286q-5.714-5.714-13.143-5.714t-13.143 5.714l-28.571 28.571q-5.714 5.714-5.714 13.143t5.714 13.143l224.571 224.571-224.571 224.571q-5.714 5.714-5.714 13.143t5.714 13.143l28.571 28.571q5.714 5.714 13.143 5.714t13.143-5.714l266.286-266.286q5.714-5.714 5.714-13.143z" />
<glyph unicode="&#xf107;" glyph-name="angle-down" horiz-adv-x="658" d="M614.286 539.429q0-7.429-5.714-13.143l-266.286-266.286q-5.714-5.714-13.143-5.714t-13.143 5.714l-266.286 266.286q-5.714 5.714-5.714 13.143t5.714 13.143l28.571 28.571q5.714 5.714 13.143 5.714t13.143-5.714l224.571-224.571 224.571 224.571q5.714 5.714 13.143 5.714t13.143-5.714l28.571-28.571q5.714-5.714 5.714-13.143z" />
<glyph unicode="&#xf109;" glyph-name="laptop" horiz-adv-x="1097" d="M237.714 228.571q-37.714 0-64.571 26.857t-26.857 64.571v402.286q0 37.714 26.857 64.571t64.571 26.857h621.714q37.714 0 64.571-26.857t26.857-64.571v-402.286q0-37.714-26.857-64.571t-64.571-26.857h-621.714zM219.429 722.286v-402.286q0-7.429 5.429-12.857t12.857-5.429h621.714q7.429 0 12.857 5.429t5.429 12.857v402.286q0 7.429-5.429 12.857t-12.857 5.429h-621.714q-7.429 0-12.857-5.429t-5.429-12.857zM1005.714 192h91.429v-54.857q0-22.857-26.857-38.857t-64.571-16h-914.286q-37.714 0-64.571 16t-26.857 38.857v54.857h1005.714zM594.286 137.143q9.143 0 9.143 9.143t-9.143 9.143h-91.429q-9.143 0-9.143-9.143t9.143-9.143h91.429z" />
<glyph unicode="&#xf10b;" glyph-name="mobile" horiz-adv-x="439" d="M265.143 155.429q0 18.857-13.429 32.286t-32.286 13.429-32.286-13.429-13.429-32.286 13.429-32.286 32.286-13.429 32.286 13.429 13.429 32.286zM384 246.857v402.286q0 7.429-5.429 12.857t-12.857 5.429h-292.571q-7.429 0-12.857-5.429t-5.429-12.857v-402.286q0-7.429 5.429-12.857t12.857-5.429h292.571q7.429 0 12.857 5.429t5.429 12.857zM274.286 731.429q0 9.143-9.143 9.143h-91.429q-9.143 0-9.143-9.143t9.143-9.143h91.429q9.143 0 9.143 9.143zM438.857 740.571v-585.143q0-29.714-21.714-51.429t-51.429-21.714h-292.571q-29.714 0-51.429 21.714t-21.714 51.429v585.143q0 29.714 21.714 51.429t51.429 21.714h292.571q29.714 0 51.429-21.714t21.714-51.429z" />
<glyph unicode="&#xf115;" glyph-name="folder-open-o" horiz-adv-x="1091" d="M1017.714 428q0 20-30.286 20h-621.714q-22.857 0-48.857-12.286t-40.857-30l-168-207.429q-10.286-13.714-10.286-22.857 0-20 30.286-20h621.714q22.857 0 49.143 12.571t40.571 30.286l168 207.429q10.286 12.571 10.286 22.286zM365.714 521.143h438.857v91.429q0 22.857-16 38.857t-38.857 16h-329.143q-22.857 0-38.857 16t-16 38.857v36.571q0 22.857-16 38.857t-38.857 16h-182.857q-22.857 0-38.857-16t-16-38.857v-487.429l146.286 180q25.143 30.286 66.286 50t80 19.714zM1090.857 428q0-35.429-26.286-68.571l-168.571-207.429q-24.571-30.286-66.286-50t-80-19.714h-621.714q-52.571 0-90.286 37.714t-37.714 90.286v548.571q0 52.571 37.714 90.286t90.286 37.714h182.857q52.571 0 90.286-37.714t37.714-90.286v-18.286h310.857q52.571 0 90.286-37.714t37.714-90.286v-91.429h109.714q30.857 0 56.571-14t38.286-40.286q8.571-18.286 8.571-38.857z" />
<glyph unicode="&#xf121;" glyph-name="code" horiz-adv-x="1097" d="M352.571 160.571l-28.571-28.571q-5.714-5.714-13.143-5.714t-13.143 5.714l-266.286 266.286q-5.714 5.714-5.714 13.143t5.714 13.143l266.286 266.286q5.714 5.714 13.143 5.714t13.143-5.714l28.571-28.571q5.714-5.714 5.714-13.143t-5.714-13.143l-224.571-224.571 224.571-224.571q5.714-5.714 5.714-13.143t-5.714-13.143zM690.286 770.286l-213.143-737.714q-2.286-7.429-8.857-11.143t-13.429-1.429l-35.429 9.714q-7.429 2.286-11.143 8.857t-1.429 14l213.143 737.714q2.286 7.429 8.857 11.143t13.429 1.429l35.429-9.714q7.429-2.286 11.143-8.857t1.429-14zM1065.714 398.286l-266.286-266.286q-5.714-5.714-13.143-5.714t-13.143 5.714l-28.571 28.571q-5.714 5.714-5.714 13.143t5.714 13.143l224.571 224.571-224.571 224.571q-5.714 5.714-5.714 13.143t5.714 13.143l28.571 28.571q5.714 5.714 13.143 5.714t13.143-5.714l266.286-266.286q5.714-5.714 5.714-13.143t-5.714-13.143z" />
<glyph unicode="&#xf126;" glyph-name="code-fork" horiz-adv-x="585" d="M164.571 118.857q0 22.857-16 38.857t-38.857 16-38.857-16-16-38.857 16-38.857 38.857-16 38.857 16 16 38.857zM164.571 777.143q0 22.857-16 38.857t-38.857 16-38.857-16-16-38.857 16-38.857 38.857-16 38.857 16 16 38.857zM530.286 704q0 22.857-16 38.857t-38.857 16-38.857-16-16-38.857 16-38.857 38.857-16 38.857 16 16 38.857zM585.143 704q0-29.714-14.857-55.143t-40-39.714q-1.143-164-129.143-236.571-38.857-21.714-116-46.286-73.143-22.857-96.857-40.571t-23.714-57.143v-14.857q25.143-14.286 40-39.714t14.857-55.143q0-45.714-32-77.714t-77.714-32-77.714 32-32 77.714q0 29.714 14.857 55.143t40 39.714v468.571q-25.143 14.286-40 39.714t-14.857 55.143q0 45.714 32 77.714t77.714 32 77.714-32 32-77.714q0-29.714-14.857-55.143t-40-39.714v-284q30.857 14.857 88 32.571 31.429 9.714 50 16.857t40.286 17.714 33.714 22.571 23.143 29.143 16 39.714 4.857 52.286q-25.143 14.286-40 39.714t-14.857 55.143q0 45.714 32 77.714t77.714 32 77.714-32 32-77.714z" />
<glyph unicode="&#xf12e;" glyph-name="puzzle-piece" horiz-adv-x="951" d="M950.857 332.571q0-46.286-25.429-77.143t-70.571-30.857q-23.429 0-44.286 10t-33.714 21.714-32.286 21.714-40.571 10q-62.857 0-62.857-70.857 0-22.286 9.143-65.714t8.571-65.714v-2.857q-12.571 0-18.857-0.571-19.429-1.714-55.714-6.571t-66-7.714-56-2.857q-34.857 0-58.857 15.143t-24 47.714q0 21.143 10 40.571t21.714 32.286 21.714 33.714 10 44.286q0 45.143-30.857 70.571t-77.143 25.429q-48 0-81.714-26t-33.714-72.857q0-24.571 8.571-47.429t19.143-36.857 19.143-30.286 8.571-28.857q0-25.714-26.286-50.857-21.143-20-66.857-20-54.286 0-140 13.714-5.143 1.143-15.714 2.286t-15.714 2.286l-7.429 1.143q-0.571 0-1.714 0.571-1.143 0-1.143 0.571v585.143q1.143-0.571 10-2t19.429-2.857 12.286-2q85.714-13.714 140-13.714 45.714 0 66.857 20 26.286 25.143 26.286 50.857 0 12.571-8.571 28.857t-19.143 30.286-19.143 36.857-8.571 47.429q0 46.857 33.714 72.857t82.286 26q45.714 0 76.571-25.429t30.857-70.571q0-23.429-10-44.286t-21.714-33.714-21.714-32.286-10-40.571q0-32.571 24-47.714t58.857-15.143q36.571 0 102.857 8.571t93.143 9.714v-1.143q-0.571-1.143-2-10t-2.857-19.429-2-12.286q-13.714-85.714-13.714-140 0-45.714 20-66.857 25.143-26.286 50.857-26.286 12.571 0 28.857 8.571t30.286 19.143 36.857 19.143 47.429 8.571q46.857 0 72.857-33.714t26-81.714z" />
<glyph unicode="&#xf130;" glyph-name="microphone" horiz-adv-x="658" d="M658.286 557.714v-73.143q0-126.286-84.286-219.714t-208.286-107.143v-75.429h146.286q14.857 0 25.714-10.857t10.857-25.714-10.857-25.714-25.714-10.857h-365.714q-14.857 0-25.714 10.857t-10.857 25.714 10.857 25.714 25.714 10.857h146.286v75.429q-124 13.714-208.286 107.143t-84.286 219.714v73.143q0 14.857 10.857 25.714t25.714 10.857 25.714-10.857 10.857-25.714v-73.143q0-105.714 75.143-180.857t180.857-75.143 180.857 75.143 75.143 180.857v73.143q0 14.857 10.857 25.714t25.714 10.857 25.714-10.857 10.857-25.714zM512 777.143v-292.571q0-75.429-53.714-129.143t-129.143-53.714-129.143 53.714-53.714 129.143v292.571q0 75.429 53.714 129.143t129.143 53.714 129.143-53.714 53.714-129.143z" />
<glyph unicode="&#xf132;" glyph-name="shield" horiz-adv-x="731" d="M621.714 411.429v365.714h-256v-649.714q68 36 121.714 78.286 134.286 105.143 134.286 205.714zM731.429 850.286v-438.857q0-49.143-19.143-97.429t-47.429-85.714-67.429-72.857-72.286-58.857-69.143-44.286-51.143-28.286-24.286-11.429q-6.857-3.429-14.857-3.429t-14.857 3.429q-9.143 4-24.286 11.429t-51.143 28.286-69.143 44.286-72.286 58.857-67.429 72.857-47.429 85.714-19.143 97.429v438.857q0 14.857 10.857 25.714t25.714 10.857h658.286q14.857 0 25.714-10.857t10.857-25.714z" />
<glyph unicode="&#xf13e;" glyph-name="unlock-alt" horiz-adv-x="658" d="M603.429 521.143q22.857 0 38.857-16t16-38.857v-329.143q0-22.857-16-38.857t-38.857-16h-548.571q-22.857 0-38.857 16t-16 38.857v329.143q0 22.857 16 38.857t38.857 16h18.286v182.857q0 105.714 75.143 180.857t180.857 75.143 180.857-75.143 75.143-180.857q0-14.857-10.857-25.714t-25.714-10.857h-36.571q-14.857 0-25.714 10.857t-10.857 25.714q0 60.571-42.857 103.429t-103.429 42.857-103.429-42.857-42.857-103.429v-182.857h420.571z" />
<glyph unicode="&#xf155;" glyph-name="usd" horiz-adv-x="580" d="M558.857 282.857q0-87.429-56.857-150.571t-147.714-78v-100q0-8-5.143-13.143t-13.143-5.143h-77.143q-7.429 0-12.857 5.429t-5.429 12.857v100q-37.714 5.143-72.857 17.714t-58 25.429-42.286 27.429-26.571 21.429-10 10.286q-9.714 12-1.143 23.429l58.857 77.143q4 5.714 13.143 6.857 8.571 1.143 13.714-5.143l1.143-1.143q64.571-56.571 138.857-71.429 21.143-4.571 42.286-4.571 46.286 0 81.429 24.571t35.143 69.714q0 16-8.571 30.286t-19.143 24-33.429 21.429-37.714 18.286-45.714 18.571q-22.286 9.143-35.143 14.286t-35.143 15.143-35.714 17.714-32.286 20.286-30.571 24.286-24.857 28-20.286 33.143-12 38-4.857 44.571q0 78.857 56 138.286t145.714 76.571v102.857q0 7.429 5.429 12.857t12.857 5.429h77.143q8 0 13.143-5.143t5.143-13.143v-100.571q32.571-3.429 63.143-13.143t49.714-19.143 36.286-21.429 22.286-16.571 8.571-8q9.714-10.286 2.857-21.714l-46.286-83.429q-4.571-8.571-13.143-9.143-8-1.714-15.429 4-1.714 1.714-8.286 6.857t-22.286 15.143-33.429 18.286-42.571 14.857-48.857 6.571q-54.286 0-88.571-24.571t-34.286-63.429q0-14.857 4.857-27.429t16.857-23.714 22.571-18.857 32-17.714 34.571-15.429 40-15.714q30.286-11.429 46.286-18t43.429-20 43.143-24.286 35.429-28.571 30.286-36.286 18-43.714 7.429-53.714z" />
<glyph unicode="&#xf167;" glyph-name="youtube" horiz-adv-x="878" d="M554.857 249.143v-120.571q0-38.286-22.286-38.286-13.143 0-25.714 12.571v172q12.571 12.571 25.714 12.571 22.286 0 22.286-38.286zM748 248.571v-26.286h-51.429v26.286q0 38.857 25.714 38.857t25.714-38.857zM196 373.143h61.143v53.714h-178.286v-53.714h60v-325.143h57.143v325.143zM360.571 48h50.857v282.286h-50.857v-216q-17.143-24-32.571-24-10.286 0-12 12-0.571 1.714-0.571 20v208h-50.857v-223.429q0-28 4.571-41.714 6.857-21.143 33.143-21.143 27.429 0 58.286 34.857v-30.857zM605.714 132.571v112.571q0 41.714-5.143 56.571-9.714 32-40.571 32-28.571 0-53.143-30.857v124h-50.857v-378.857h50.857v27.429q25.714-31.429 53.143-31.429 30.857 0 40.571 31.429 5.143 15.429 5.143 57.143zM798.857 138.286v7.429h-52q0-29.143-1.143-34.857-4-20.571-22.857-20.571-26.286 0-26.286 39.429v49.714h102.286v58.857q0 45.143-15.429 66.286-22.286 29.143-60.571 29.143-38.857 0-61.143-29.143-16-21.143-16-66.286v-98.857q0-45.143 16.571-66.286 22.286-29.143 61.714-29.143 41.143 0 61.714 30.286 10.286 15.429 12 30.857 1.143 5.143 1.143 33.143zM451.429 660v120q0 39.429-24.571 39.429t-24.571-39.429v-120q0-40 24.571-40t24.571 40zM862.286 230.857q0-133.714-14.857-200-8-33.714-33.143-56.571t-58.286-26.286q-105.143-12-317.143-12t-317.143 12q-33.143 3.429-58.571 26.286t-32.857 56.571q-14.857 64-14.857 200 0 133.714 14.857 200 8 33.714 33.143 56.571t58.857 26.857q104.571 11.429 316.571 11.429t317.143-11.429q33.143-4 58.571-26.857t32.857-56.571q14.857-64 14.857-200zM292 960h58.286l-69.143-228v-154.857h-57.143v154.857q-8 42.286-34.857 121.143-21.143 58.857-37.143 106.857h60.571l40.571-150.286zM503.429 769.714v-100q0-46.286-16-67.429-21.143-29.143-60.571-29.143-38.286 0-60 29.143-16 21.714-16 67.429v100q0 45.714 16 66.857 21.714 29.143 60 29.143 39.429 0 60.571-29.143 16-21.143 16-66.857zM694.857 862.286v-285.143h-52v31.429q-30.286-35.429-58.857-35.429-26.286 0-33.714 21.143-4.571 13.714-4.571 42.857v225.143h52v-209.714q0-18.857 0.571-20 1.714-12.571 12-12.571 15.429 0 32.571 24.571v217.714h52z" />
<glyph unicode="&#xf16a;" glyph-name="youtube-play" d="M731.429 448q0 21.143-17.143 30.857l-292.571 182.857q-17.714 11.429-37.143 1.143-18.857-10.286-18.857-32v-365.714q0-21.714 18.857-32 9.143-4.571 17.714-4.571 11.429 0 19.429 5.714l292.571 182.857q17.143 9.714 17.143 30.857zM1024 448q0-54.857-0.571-85.714t-4.857-78-12.857-84.286q-9.143-41.714-39.429-70.286t-70.857-33.143q-126.857-14.286-383.429-14.286t-383.429 14.286q-40.571 4.571-71.143 33.143t-39.714 70.286q-8 37.143-12.286 84.286t-4.857 78-0.571 85.714 0.571 85.714 4.857 78 12.857 84.286q9.143 41.714 39.429 70.286t70.857 33.143q126.857 14.286 383.429 14.286t383.429-14.286q40.571-4.571 71.143-33.143t39.714-70.286q8-37.143 12.286-84.286t4.857-78 0.571-85.714z" />
<glyph unicode="&#xf179;" glyph-name="apple" horiz-adv-x="796" d="M796 265.714q-22.286-71.429-70.286-142.857-73.714-112-146.857-112-28 0-80 18.286-49.143 18.286-86.286 18.286-34.857 0-81.143-18.857-46.286-19.429-75.429-19.429-86.857 0-172 148-84 149.143-84 287.429 0 130.286 64.571 213.714 64 82.286 162.286 82.286 41.143 0 101.143-17.143 59.429-17.143 78.857-17.143 25.714 0 81.714 19.429 58.286 19.429 98.857 19.429 68 0 121.714-37.143 29.714-20.571 59.429-57.143-45.143-38.286-65.143-67.429-37.143-53.714-37.143-118.286 0-70.857 39.429-127.429t90.286-72zM581.143 936q0-34.857-16.571-77.714-17.143-42.857-53.143-78.857-30.857-30.857-61.714-41.143-21.143-6.286-59.429-9.714 1.714 85.143 44.571 146.857 42.286 61.143 142.857 84.571 0.571-1.714 1.429-6.286t1.429-6.286q0-2.286 0.286-5.714t0.286-5.714z" />
<glyph unicode="&#xf17b;" glyph-name="android" horiz-adv-x="805" d="M281.714 684q9.143 0 15.714 6.571t6.571 15.714-6.571 15.714-15.714 6.571-15.429-6.571-6.286-15.714 6.286-15.714 15.429-6.571zM522.857 684q9.143 0 15.429 6.571t6.286 15.714-6.286 15.714-15.429 6.571-15.714-6.571-6.571-15.714 6.571-15.714 15.714-6.571zM58.857 578.857q24 0 41.143-17.143t17.143-41.143v-245.714q0-24.571-16.857-41.714t-41.429-17.143-41.714 17.143-17.143 41.714v245.714q0 24 17.143 41.143t41.714 17.143zM664.571 568v-380.571q0-26.286-18.286-44.571t-44-18.286h-42.857v-129.714q0-24.571-17.143-41.714t-41.714-17.143-41.714 17.143-17.143 41.714v129.714h-78.857v-129.714q0-24.571-17.143-41.714t-41.714-17.143q-24 0-41.143 17.143t-17.143 41.714l-0.571 129.714h-42.286q-26.286 0-44.571 18.286t-18.286 44.571v380.571h524.571zM532 799.429q61.143-31.429 97.714-87.714t36.571-123.143h-528.571q0 66.857 36.571 123.143t98.286 87.714l-40.571 74.857q-4 7.429 2.857 11.429 7.429 3.429 11.429-3.429l41.143-75.429q54.286 24 114.857 24t114.857-24l41.143 75.429q4 6.857 11.429 3.429 6.857-4 2.857-11.429zM804.571 520.571v-245.714q0-24.571-17.143-41.714t-41.714-17.143q-24 0-41.143 17.143t-17.143 41.714v245.714q0 24.571 17.143 41.429t41.143 16.857q24.571 0 41.714-16.857t17.143-41.429z" />
<glyph unicode="&#xf19c;" glyph-name="university" horiz-adv-x="1097" d="M548.571 960l548.571-219.429v-73.143h-73.143q0-14.857-11.714-25.714t-27.714-10.857h-872q-16 0-27.714 10.857t-11.714 25.714h-73.143v73.143zM146.286 594.286h146.286v-438.857h73.143v438.857h146.286v-438.857h73.143v438.857h146.286v-438.857h73.143v438.857h146.286v-438.857h33.714q16 0 27.714-10.857t11.714-25.714v-36.571h-950.857v36.571q0 14.857 11.714 25.714t27.714 10.857h33.714v438.857zM1057.714 45.714q16 0 27.714-10.857t11.714-25.714v-73.143h-1097.143v73.143q0 14.857 11.714 25.714t27.714 10.857h1018.286z" />
<glyph unicode="&#xf19d;" glyph-name="graduation-cap" horiz-adv-x="1317" d="M1013.714 482.286l10.286-180.571q2.286-39.429-46.857-73.143t-134.286-53.429-184.571-19.714-184.571 19.714-134.286 53.429-46.857 73.143l10.286 180.571 328-103.429q12.571-4 27.429-4t27.429 4zM1316.571 667.429q0-13.143-12.571-17.714l-640-201.143q-2.286-0.571-5.714-0.571t-5.714 0.571l-372.571 117.714q-24.571-19.429-40.571-63.714t-19.429-102q36-20.571 36-62.286 0-39.429-33.143-61.143l33.143-247.429q1.143-8-4.571-14.286-5.143-6.286-13.714-6.286h-109.714q-8.571 0-13.714 6.286-5.714 6.286-4.571 14.286l33.143 247.429q-33.143 21.714-33.143 61.143 0 41.714 37.143 63.429 6.286 118.286 56 188.571l-190.286 59.429q-12.571 4.571-12.571 17.714t12.571 17.714l640 201.143q2.286 0.571 5.714 0.571t5.714-0.571l640-201.143q12.571-4.571 12.571-17.714z" />
<glyph unicode="&#xf1b3;" glyph-name="cubes" horiz-adv-x="1243" d="M365.714 27.429l219.429 109.714v179.429l-219.429-93.714v-195.429zM329.143 286.857l230.857 98.857-230.857 98.857-230.857-98.857zM950.857 27.429l219.429 109.714v179.429l-219.429-93.714v-195.429zM914.286 286.857l230.857 98.857-230.857 98.857-230.857-98.857zM658.286 454.286l219.429 94.286v152l-219.429-93.714v-152.571zM621.714 670.857l252 108-252 108-252-108zM1243.429 374.857v-237.714q0-20.571-10.857-38.286t-29.714-26.857l-256-128q-14.286-8-32.571-8t-32.571 8l-256 128q-2.857 1.143-4 2.286-1.143-1.143-4-2.286l-256-128q-14.286-8-32.571-8t-32.571 8l-256 128q-18.857 9.143-29.714 26.857t-10.857 38.286v237.714q0 21.714 12.286 40t32.286 27.429l248 106.286v228.571q0 21.714 12.286 40t32.286 27.429l256 109.714q13.143 5.714 28.571 5.714t28.571-5.714l256-109.714q20-9.143 32.286-27.429t12.286-40v-228.571l248-106.286q20.571-9.143 32.571-27.429t12-40z" />
</font>
</defs>
</svg>
