<svg id="Layer_1" data-name="Layer 1" xmlns="http://www.w3.org/2000/svg" viewBox="0 0 345.37 186.34"><defs><style>.cls-1{fill:#fff;}.cls-2{fill:none;}</style></defs><title>vetcom</title><path class="cls-1" d="M209,104.17h-0.23c-4.31-5.48-9.67-9.21-17-9.21-11.3,0-19.34,9.32-19.34,20.27s7.46,20.28,18.88,20.28c7.81,0,13.29-3.5,17.83-9.44h0.23v12.47A29.94,29.94,0,0,1,192,144.14c-16.55,0-29.13-12.35-29.13-28.9a28.9,28.9,0,0,1,29.25-28.9A29.5,29.5,0,0,1,209,91.82v12.35Z" transform="translate(-7.44 -5.66)"/><path class="cls-1" d="M225.11,115.24c0,11.19,7.93,20.28,19.46,20.28S264,126.43,264,115.24,256.1,95,244.57,95s-19.46,9.21-19.46,20.28m-9.32.12a28.78,28.78,0,1,1,28.78,28.78,28.75,28.75,0,0,1-28.78-28.78" transform="translate(-7.44 -5.66)"/><path class="cls-1" d="M290.35,93.8h0.23a15.46,15.46,0,0,1,13.17-7.46,16.79,16.79,0,0,1,15.15,9.09c3.26-6.06,9.79-9.09,16.43-9.09,14,0,17.48,11.42,17.48,23v33.33h-9.32V110.81c0-7.11-.46-15.85-10-15.85-10.72,0-11.89,10.37-11.89,18.64v29h-9.32V111.51c0-6.76-.82-16.55-9.79-16.55-11,0-12.12,11.07-12.12,19.34v28.32H281V87.85h9.32V93.8Z" transform="translate(-7.44 -5.66)"/><path class="cls-1" d="M23.08,47.42H12.57l0.54-2.2H51.39L51,47.42H36.47S26.36,113.47,26,114.86C61.59,63.23,96.33,21.34,132.35,8.1,160.56-2.27,176.89,23.65,177,26.39c-7.51-8.45-16.18-22.26-40-17.23C86.08,21,14,139.15,9.51,143.32a20.4,20.4,0,0,0-2.08-.54Z" transform="translate(-7.44 -5.66)"/><path class="cls-1" d="M86.22,85c-12.45,0-18,14.23-21.15,24.17a31.9,31.9,0,0,0,10,2c14.92,0,19.47-12,19.47-17.69,0-4.84-3.19-8.43-8.28-8.43m13.27,42.55c-2.89,4-11.31,16.58-26.41,16.58-7.46,0-21.69-5.66-21.69-23.47,0-21.31,19.89-37.86,37.18-37.86,6.92,0,15,3.29,15,12,0,10.65-13,18.52-28.58,18.52a27.73,27.73,0,0,1-10.51-2.06,66.55,66.55,0,0,0-2.37,14.5c0,9.09,2.91,16.15,13,16.15,11.91,0,20.6-12.3,22.93-15.34Z" transform="translate(-7.44 -5.66)"/><path class="cls-1" d="M129,88.05H119l0.72-2.22h10.08l5.9-18.92a20,20,0,0,0,12.45-3.85l-7.19,22.78h16.16l-0.66,2.22H140.25l-13.57,42.82a26.62,26.62,0,0,0-1,6.24,3.9,3.9,0,0,0,4.27,4c4.42,0,14.23-6.77,20.75-16.31l1.5,1.12c-6,7.47-14.65,17.42-25.15,17.42-6.62,0-11.34-2.64-11.34-9.83,0-2.75,1-6.22,2.22-10.08Z" transform="translate(-7.44 -5.66)"/><rect class="cls-2" width="345.37" height="138.48"/><path class="cls-1" d="M168.58,170.52h7.66a10.87,10.87,0,0,1,3.18.44,7.38,7.38,0,0,1,2.47,1.27,5.73,5.73,0,0,1,1.61,2,6.22,6.22,0,0,1,.57,2.73V177a6,6,0,0,1-2.46,5,8,8,0,0,1-2.62,1.27,11.54,11.54,0,0,1-3.15.42h-5.7v7.87h-1.57V170.52Zm7.36,11.82a9.29,9.29,0,0,0,2.68-.36,6.14,6.14,0,0,0,2.07-1,4.85,4.85,0,0,0,1.34-1.65,4.78,4.78,0,0,0,.48-2.15v-0.06a5,5,0,0,0-.47-2.23,4.38,4.38,0,0,0-1.31-1.59,6.08,6.08,0,0,0-2-1,9.49,9.49,0,0,0-2.59-.33h-6v10.41h5.79Z" transform="translate(-7.44 -5.66)"/><path class="cls-1" d="M195,192a6.82,6.82,0,0,1-2.59-.47,5.42,5.42,0,0,1-3.15-3.32,7.65,7.65,0,0,1-.41-2.55v-9.41h1.48v9.14a5.55,5.55,0,0,0,1.27,3.82,4.57,4.57,0,0,0,3.62,1.43,5.41,5.41,0,0,0,2.1-.41,5.2,5.2,0,0,0,1.7-1.13,5.12,5.12,0,0,0,1.13-1.73,5.87,5.87,0,0,0,.41-2.22v-8.9H202v15.38h-1.48v-2.87a7.18,7.18,0,0,1-2.11,2.29A5.84,5.84,0,0,1,195,192Z" transform="translate(-7.44 -5.66)"/><path class="cls-1" d="M216.21,192a7.07,7.07,0,0,1-2.11-.3,6.7,6.7,0,0,1-1.73-.81,7.77,7.77,0,0,1-1.39-1.18,10.82,10.82,0,0,1-1.1-1.39v3.32h-1.48v-22h1.48v10.08a10.72,10.72,0,0,1,1.12-1.45,7.65,7.65,0,0,1,1.4-1.21,7.21,7.21,0,0,1,1.72-.83,6.61,6.61,0,0,1,2.1-.32,7.21,7.21,0,0,1,2.73.54,7.41,7.41,0,0,1,2.4,1.57,7.79,7.79,0,0,1,1.7,2.52,8.36,8.36,0,0,1,.65,3.36v0.06a8.35,8.35,0,0,1-.65,3.36,8,8,0,0,1-1.7,2.53,7.48,7.48,0,0,1-2.4,1.6A7,7,0,0,1,216.21,192Zm-0.14-1.42a6.22,6.22,0,0,0,2.37-.45,5.59,5.59,0,0,0,1.92-1.3,6,6,0,0,0,1.29-2.07,7.66,7.66,0,0,0,.47-2.76v-0.06a7.47,7.47,0,0,0-.48-2.75,6.24,6.24,0,0,0-1.32-2.1,5.9,5.9,0,0,0-4.25-1.79,5.93,5.93,0,0,0-2.34.48,6.35,6.35,0,0,0-2,1.36,6.71,6.71,0,0,0-1.41,2.08,6.62,6.62,0,0,0-.53,2.68V184a6.73,6.73,0,0,0,.53,2.7,6.4,6.4,0,0,0,3.42,3.42A5.93,5.93,0,0,0,216.07,190.58Z" transform="translate(-7.44 -5.66)"/><path class="cls-1" d="M229.27,169.62h1.48v22h-1.48v-22Z" transform="translate(-7.44 -5.66)"/><path class="cls-1" d="M237.35,170.22h1.84v2h-1.84v-2Zm0.18,6H239v15.38h-1.48V176.25Z" transform="translate(-7.44 -5.66)"/><path class="cls-1" d="M252.34,192a7.42,7.42,0,0,1-3.09-.65,8,8,0,0,1-2.49-1.74,7.89,7.89,0,0,1-1.64-2.53,8,8,0,0,1-.59-3.08v-0.06a8,8,0,0,1,.59-3.08,8.26,8.26,0,0,1,1.64-2.56,7.79,7.79,0,0,1,2.49-1.76,7.4,7.4,0,0,1,3.09-.65,7.86,7.86,0,0,1,2,.23,7.56,7.56,0,0,1,1.64.63,8,8,0,0,1,1.37.92,13.5,13.5,0,0,1,1.16,1.09l-1.06,1.09a11.75,11.75,0,0,0-2.2-1.78,5.41,5.41,0,0,0-2.93-.75,5.92,5.92,0,0,0-2.46.51,6.09,6.09,0,0,0-2,1.4,6.61,6.61,0,0,0-1.31,2.09,6.85,6.85,0,0,0-.48,2.58v0.06a6.81,6.81,0,0,0,1.85,4.71,6.27,6.27,0,0,0,2,1.41,6,6,0,0,0,2.47.51,5.72,5.72,0,0,0,2.91-.74,9,9,0,0,0,2.25-1.83l1,0.91a11,11,0,0,1-2.67,2.2A7,7,0,0,1,252.34,192Z" transform="translate(-7.44 -5.66)"/><path class="cls-1" d="M268.24,192a7.8,7.8,0,0,1-2.14-.3,6.14,6.14,0,0,1-1.9-.91,4.82,4.82,0,0,1-1.37-1.51,4.11,4.11,0,0,1-.53-2.11v-0.06a4.48,4.48,0,0,1,.5-2.14,4.57,4.57,0,0,1,1.37-1.57,6.4,6.4,0,0,1,2.11-1,10.61,10.61,0,0,1,2.75-.33,18.82,18.82,0,0,1,2.8.18,21.17,21.17,0,0,1,2.29.48v-0.66a4.41,4.41,0,0,0-1.34-3.51,5.49,5.49,0,0,0-3.73-1.17,9.14,9.14,0,0,0-2.59.35,12.69,12.69,0,0,0-2.23.89l-0.54-1.3a15.7,15.7,0,0,1,2.56-1,10.56,10.56,0,0,1,2.9-.37A6.57,6.57,0,0,1,274,177.7a5.87,5.87,0,0,1,1.57,4.34v9.59h-1.45v-2.56a7.63,7.63,0,0,1-1,1.07,6.45,6.45,0,0,1-1.28.94A7.43,7.43,0,0,1,268.24,192Zm0.09-1.42a7.13,7.13,0,0,0,2.23-.35,6.14,6.14,0,0,0,1.86-1,4.63,4.63,0,0,0,1.27-1.49,4,4,0,0,0,.47-1.92v-1.74q-1-.24-2.26-0.47a17.39,17.39,0,0,0-3-.23,6.21,6.21,0,0,0-3.76,1,3.08,3.08,0,0,0-1.31,2.6v0.06a3,3,0,0,0,.36,1.49,3.4,3.4,0,0,0,1,1.1,4.63,4.63,0,0,0,1.43.69A5.94,5.94,0,0,0,268.33,190.58Z" transform="translate(-7.44 -5.66)"/><path class="cls-1" d="M286.76,191.91a5.74,5.74,0,0,1-1.69-.24,3.55,3.55,0,0,1-2.29-2.1,4.9,4.9,0,0,1-.33-1.88V177.61h-2.23v-1.36h2.23v-4.92h1.48v4.92h5.4v1.36h-5.4v9.9a2.76,2.76,0,0,0,.86,2.32,3.53,3.53,0,0,0,2.22.66,4.93,4.93,0,0,0,1.09-.11,6.69,6.69,0,0,0,1.18-.4v1.39a6.5,6.5,0,0,1-1.19.41A5.82,5.82,0,0,1,286.76,191.91Z" transform="translate(-7.44 -5.66)"/><path class="cls-1" d="M294.48,170.22h1.84v2h-1.84v-2Zm0.18,6h1.48v15.38h-1.48V176.25Z" transform="translate(-7.44 -5.66)"/><path class="cls-1" d="M309.54,192a7.57,7.57,0,0,1-3.15-.65,8.07,8.07,0,0,1-2.49-1.74,7.8,7.8,0,0,1-1.64-2.53,8.09,8.09,0,0,1-.59-3.08v-0.06a8.07,8.07,0,0,1,2.25-5.64,8,8,0,0,1,2.52-1.76,7.66,7.66,0,0,1,3.17-.65,7.55,7.55,0,0,1,3.15.65,8.1,8.1,0,0,1,2.49,1.73,7.83,7.83,0,0,1,1.64,2.53,8.09,8.09,0,0,1,.59,3.08v0.06a8.07,8.07,0,0,1-2.25,5.64,8,8,0,0,1-2.52,1.76A7.67,7.67,0,0,1,309.54,192Zm0.06-1.42a6.09,6.09,0,0,0,2.53-.53,6.24,6.24,0,0,0,2-1.41,6.43,6.43,0,0,0,1.3-2.09,7,7,0,0,0,.47-2.55v-0.06a7,7,0,0,0-.48-2.6,6.51,6.51,0,0,0-1.35-2.12,6.28,6.28,0,0,0-2-1.41,6.18,6.18,0,0,0-2.5-.51,6.08,6.08,0,0,0-2.53.53,6.23,6.23,0,0,0-2,1.41,6.44,6.44,0,0,0-1.3,2.09,7,7,0,0,0-.47,2.55v0.06a7,7,0,0,0,.48,2.6,6.52,6.52,0,0,0,1.35,2.12,6.25,6.25,0,0,0,2,1.41A6.16,6.16,0,0,0,309.59,190.58Z" transform="translate(-7.44 -5.66)"/><path class="cls-1" d="M322.78,176.25h1.48v2.87a7.16,7.16,0,0,1,2.11-2.29,5.84,5.84,0,0,1,3.44-.94,6.82,6.82,0,0,1,2.59.47,5.5,5.5,0,0,1,1.95,1.31,5.56,5.56,0,0,1,1.21,2,7.66,7.66,0,0,1,.41,2.55v9.41h-1.48V182.5a5.55,5.55,0,0,0-1.27-3.82,4.58,4.58,0,0,0-3.62-1.43,5.38,5.38,0,0,0-2.11.41,5.25,5.25,0,0,0-1.69,1.13,5.14,5.14,0,0,0-1.13,1.73,5.88,5.88,0,0,0-.41,2.22v8.9h-1.48V176.25Z" transform="translate(-7.44 -5.66)"/><path class="cls-1" d="M347,191.94a9.59,9.59,0,0,1-3.38-.63,10.4,10.4,0,0,1-2.93-1.63l0.87-1.18a10.57,10.57,0,0,0,2.66,1.49,8,8,0,0,0,2.87.53,4.35,4.35,0,0,0,2.64-.78,2.51,2.51,0,0,0,1.07-2.14v-0.06a2,2,0,0,0-.33-1.14,3.07,3.07,0,0,0-.91-0.84,5.92,5.92,0,0,0-1.3-.6l-1.54-.48-1.88-.57a7.59,7.59,0,0,1-1.7-.77,4,4,0,0,1-1.22-1.16,3,3,0,0,1-.47-1.72V180.2a3.79,3.79,0,0,1,.38-1.7,4.16,4.16,0,0,1,1-1.34,4.7,4.7,0,0,1,1.6-.89,6.36,6.36,0,0,1,2.05-.32,9.45,9.45,0,0,1,2.85.46,9.68,9.68,0,0,1,2.61,1.26l-0.78,1.24a10.21,10.21,0,0,0-2.28-1.12,7.49,7.49,0,0,0-2.46-.42,3.94,3.94,0,0,0-2.55.77,2.36,2.36,0,0,0-1,1.91v0.06a1.74,1.74,0,0,0,.36,1.1,3.12,3.12,0,0,0,1,.8,7.63,7.63,0,0,0,1.37.59l1.6,0.5q0.94,0.27,1.84.59a6.86,6.86,0,0,1,1.63.81,4.1,4.1,0,0,1,1.16,1.19,3.16,3.16,0,0,1,.44,1.72v0.06a4.08,4.08,0,0,1-1.54,3.27,5.27,5.27,0,0,1-1.69.9A6.68,6.68,0,0,1,347,191.94Z" transform="translate(-7.44 -5.66)"/></svg>