<?xml version="1.0" standalone="no"?>
<!DOCTYPE svg PUBLIC "-//W3C//DTD SVG 1.1//EN" "http://www.w3.org/Graphics/SVG/1.1/DTD/svg11.dtd" >
<svg xmlns="http://www.w3.org/2000/svg">
<metadata>Generated by IcoMoon</metadata>
<defs>
<font id="abaxis" horiz-adv-x="1024">
<font-face units-per-em="1024" ascent="960" descent="-64" />
<missing-glyph horiz-adv-x="1024" />
<glyph unicode="&#x20;" horiz-adv-x="512" d="" />
<glyph unicode="&#xe900;" glyph-name="search" d="M1024 29.091c0-93.091-93.091-93.091-93.091-93.091l-266.333 266.287c-69.027-50.176-153.74-80.105-245.667-80.105-231.377 0-418.909 187.532-418.909 418.909s187.532 418.909 418.909 418.909 418.909-187.532 418.909-418.909c0-91.927-29.975-176.64-80.151-245.713l266.333-266.287zM418.909 866.909c-179.945 0-325.818-145.873-325.818-325.818s145.873-325.818 325.818-325.818 325.818 145.873 325.818 325.818-145.873 325.818-325.818 325.818z" />
<glyph unicode="&#xe901;" glyph-name="arrow-drop-down" d="M298 534h428l-214-214z" />
<glyph unicode="&#xe902;" glyph-name="linkedin" d="M384 576h177.106v-90.782h2.532c24.64 44.194 84.958 90.782 174.842 90.782 186.946 0 221.52-116.376 221.52-267.734v-308.266h-184.61v273.278c0 65.184-1.334 149.026-96.028 149.026-96.148 0-110.82-70.986-110.82-144.292v-278.012h-184.542v576zM64 576h192v-576h-192v576zM256 736c0-53.019-42.981-96-96-96s-96 42.981-96 96c0 53.019 42.981 96 96 96s96-42.981 96-96z" />
<glyph unicode="&#xe903;" glyph-name="youtube" d="M832 832h-640c-105.6 0-192-86.4-192-192v-384c0-105.6 86.4-192 192-192h640c105.6 0 192 86.4 192 192v384c0 105.6-86.4 192-192 192zM384 192v512l320-256-320-256z" />
<glyph unicode="&#xe904;" glyph-name="arrow-right" d="M992 448l-480 480v-288h-512v-384h512v-288z" />
<glyph unicode="&#xe905;" glyph-name="arrow-left" d="M32 448l480-480v288h512v384h-512v288z" />
<glyph unicode="&#xe906;" glyph-name="warning" d="M512 867.226l429.102-855.226h-858.206l429.104 855.226zM512 960c-22.070 0-44.14-14.882-60.884-44.648l-437.074-871.112c-33.486-59.532-5-108.24 63.304-108.24h869.308c68.3 0 96.792 48.708 63.3 108.24h0.002l-437.074 871.112c-16.742 29.766-38.812 44.648-60.882 44.648v0zM576 128c0-35.346-28.654-64-64-64s-64 28.654-64 64c0 35.346 28.654 64 64 64s64-28.654 64-64zM512 256c-35.346 0-64 28.654-64 64v192c0 35.346 28.654 64 64 64s64-28.654 64-64v-192c0-35.346-28.654-64-64-64z" />
<glyph unicode="&#xe907;" glyph-name="instagram" d="M854 960h-684c-93.5 0-170-76.5-170-170v-684c0-93.5 76.5-170 170-170h684c93.5 0 170 76.5 170 170v684c0 93.5-76.5 170-170 170zM327.8 512h368.4c6.988-20.058 10.8-41.59 10.8-64 0-107.524-87.476-195-195-195s-195 87.476-195 195c0 22.41 3.812 43.942 10.8 64zM896 511.95v-383.95c0-35.2-28.8-64-64-64h-640c-35.2 0-64 28.8-64 64v384h100.108c-4.642-20.602-7.108-42.016-7.108-64 0-160.458 130.542-291 291-291s291 130.542 291 291c0 21.984-2.464 43.398-7.108 64l100.108-0.050zM896 736c0-17.6-14.4-32-32-32h-64c-17.6 0-32 14.4-32 32v64c0 17.6 14.4 32 32 32h64c17.6 0 32-14.4 32-32v-64z" />
<glyph unicode="&#xe908;" glyph-name="caret-right" horiz-adv-x="329" d="M329.143 448q0-14.857-10.857-25.714l-256-256q-10.857-10.857-25.714-10.857t-25.714 10.857-10.857 25.714v512q0 14.857 10.857 25.714t25.714 10.857 25.714-10.857l256-256q10.857-10.857 10.857-25.714z" />
<glyph unicode="&#xe909;" glyph-name="paw" d="M512 960c-282.77 0-512-229.23-512-512s229.23-512 512-512c282.77 0 512 229.23 512 512s-229.23 512-512 512zM541.494 663.579c15.596 63.125 64.186 105.243 108.532 94.316s67.475-70.976 51.773-134.1-64.186-105.349-108.532-94.316-67.156 71.082-51.773 134.1zM387.13 757.895c44.24 10.609 92.831-31.191 108.426-94.316s-7.533-123.067-51.773-134.1-92.831 31.191-108.426 94.316 7.851 123.173 52.091 134.1zM216.64 429.010c-26.523 54.956-16.975 114.579 21.218 133.145s91.027-10.609 117.656-65.989 16.975-114.579-21.218-133.145-90.815 11.034-117.338 66.095zM736.491 175.662s-32.358-57.926-112.988-14.216c-24.573 14.388-54.11 22.884-85.632 22.884-22.963 0-44.872-4.509-64.892-12.689-108.977-50.616-135.713-1.814-135.713-1.814s-40.952 40.315 23.234 158.395 159.138 112.458 159.138 112.458 75.007 9.654 162.957-104.501 54.637-160.411 54.637-160.411zM825.714 437.497c-26.523-54.956-79.251-84.874-117.55-65.989s-47.954 78.19-21.218 133.145 79.251 84.874 117.656 65.989 48.378-78.084 21.855-133.039z" />
<glyph unicode="&#xe90a;" glyph-name="cow" d="M554.225 395.272s-24.932-145.664 2.122-207.092c3.077-6.896 5.411-13.262 7.639-19.415v0-0.743c7.358-16.361 20.552-29.004 36.867-35.469 5.005-2.38 13.627-15.093 13.627-29.82 0-0.956-0.036-1.903-0.108-2.84 0.008-20.563-12.511-37.326-28.107-37.326-13.898 0-25.356 13.474-27.584 31.191h-91.451c-2.228-17.717-13.686-31.191-27.584-31.191-15.489 0-28.114 16.763-28.114 37.45-0.082 0.917-0.128 1.983-0.128 3.061 0 15.009 9.033 27.907 21.96 33.556 21.926 21.059 38.423 47.263 47.698 76.672-19.288-35.675-14.323-26.928-7.605-19.862 15.628 113.878-6.651 194.72-6.651 194.72s-107.153 78.084-64.504 127.31c31.301 34.433 74.2 57.834 122.485 64.007 25.145-7.873 64.792-30.282 91.61-63.484 38.829-47.946-62.171-120.725-62.171-120.725zM1024.106 448.318c0-0.094 0-0.206 0-0.318 0-282.77-229.23-512-512-512s-512 229.23-512 512c0 282.77 229.23 512 512 512 0 0 0 0 0 0 282.77 0 512-229.23 512-512 0-0.037 0-0.075 0-0.112zM899.766 580.615h-215.367s116.701 93.785 60.791 238.177c0 0-27.902-192.557-174.84-192.557h-147.044s-152.030 19.733-152.030 189.48c0 0-55.698-167.201 60.791-238.177h-202.636s5.092-164.761 172.293-114.049c29.136-166.067 79.308-314.623 148.489-451.962-77.956 187.157-72.303 159.228-72.303 129.978 0-3.509-0.081-7-0.242-10.47-2.528-47.674-17.699-103.373 73.54-113.557 0 0 40.527-27.902 119.141 0 0 0 76.068 0 76.068 73.522s-2.546 50.712-2.546 50.712 2.546 70.976 22.81 103.864 50.712 222.793 50.712 222.793 159.562-62.913 182.266 111.927z" />
<glyph unicode="&#xe90b;" glyph-name="horseshoe" d="M300.983 253.003c0-9.726-7.885-17.611-17.611-17.611s-17.611 7.885-17.611 17.611c0 9.726 7.885 17.611 17.611 17.611s17.611-7.885 17.611-17.611zM348.831 680.872c0-9.726-7.885-17.611-17.611-17.611s-17.611 7.885-17.611 17.611c0 9.726 7.885 17.611 17.611 17.611s17.611-7.885 17.611-17.611zM248.786 449.91c0-9.726-7.885-17.611-17.611-17.611s-17.611 7.885-17.611 17.611c0 9.726 7.885 17.611 17.611 17.611s17.611-7.885 17.611-17.611zM713.363 680.872c0-9.726-7.885-17.611-17.611-17.611s-17.611 7.885-17.611 17.611c0 9.726 7.885 17.611 17.611 17.611s17.611-7.885 17.611-17.611zM512.106 960c-282.77 0-512-229.23-512-512s229.23-512 512-512c282.77 0 512 229.23 512 512s-229.23 512-512 512zM838.657 344.666c-23.128-116.701-116.701-186.828-140.572-206.879-52.728-39.086-118.847-62.883-190.483-63.777-77.717 0.122-144.98 42.558-172.033 58.366s-148.529 121.475-157.653 267.14 90.39 267.14 110.442 290.268 0 28.114-21.218 27.16-20.051 12.094-20.051 12.094l10.609 54.213c2.331 4.639 6.95 7.824 12.335 8.077 6.496 0.64 14.323 1.013 22.238 1.013 22.179 0 43.674-2.93 64.119-8.424 38.485-11.7 33.393-44.801 31.377-74.931s-16.020-52.197-35.116-80.312-107.471-164.655-57.29-285.175 175.794-144.603 205.925-144.603 100.469 9.018 149.59 43.179 90.39 90.39 94.422 176.749-63.655 198.816-75.325 217.913-35.116 47.211-34.162 97.392 40.209 52.197 40.209 52.197 36.177 4.986 65.247 7.002 29.069-10.609 29.175-11.988l7.002-31.191c9.018-40.209-15.065-31.085-15.065-31.085h-13.049c-21.218 0-13.049-17.081-14.11-20.051s26.099-27.16 62.276-99.408 64.186-138.238 41.164-254.727zM528.338 136.514c0-9.726-7.885-17.611-17.611-17.611s-17.611 7.885-17.611 17.611c0 9.726 7.885 17.611 17.611 17.611s17.611-7.885 17.611-17.611zM813.832 449.91c0-9.726-7.885-17.611-17.611-17.611s-17.611 7.885-17.611 17.611c0 9.726 7.885 17.611 17.611 17.611s17.611-7.885 17.611-17.611zM761.634 253.003c0-9.726-7.885-17.611-17.611-17.611s-17.611 7.885-17.611 17.611c0 9.726 7.885 17.611 17.611 17.611s17.611-7.885 17.611-17.611z" />
<glyph unicode="&#xe90c;" glyph-name="rabbit" d="M512 960c-282.77 0-512-229.23-512-512s229.23-512 512-512c282.77 0 512 229.23 512 512s-229.23 512-512 512zM671.138 293.742c2.465-6.718 3.891-14.475 3.891-22.565 0-16.543-5.963-31.693-15.856-43.419l-2.57-36.819s27.69 0 22.385-32.889-17.081-32.889-17.081-32.889h-39.572c-23.701 0.284-43.775 15.5-51.274 36.664-2.36-1.461-5.246-2.494-8.374-2.494-2.273 0-4.419 0.546-6.314 1.514 0.149-0.812 0.189-1.714 0.189-2.625 0-16.758-13.585-30.342-30.342-30.342-0.561 0-1.119 0.015-1.673 0.045l-173.914-0.003c-37.559 7.46-68.296 31.588-84.647 64.181-5.635-11.31-16.36-14.423-27.812-14.423-34.16 0-61.852 27.692-61.852 61.852s27.692 61.852 61.852 61.852c0.15 0 0.3-0.001 0.449-0.002 0.003 0 0.033 0 0.063 0 4.439 0 8.769-0.464 12.946-1.345 73.857 231.14 311.079 127.382 311.079 127.382 8.123 25.258 22.525 46.594 41.394 62.901-112.823 48.744-189.293 136.931-239.135 240.364s-40.648 10.98-9.139 58.721 123.809-35.541 123.809-35.541c-26.311 65.883 6.578 75.113 6.578 75.113 110.654 10.609 212.184-322.732 212.184-322.732 36.92 1.273 98.772-46.15 121.157-127.31s-148.847-85.192-148.847-85.192z" />
<glyph unicode="&#xe90d;" glyph-name="microscope" d="M627.852 615.731c0-20.742-16.815-37.557-37.557-37.557s-37.557 16.815-37.557 37.557c0 20.742 16.815 37.557 37.557 37.557 0 0 0 0 0 0 20.742 0 37.557-16.815 37.557-37.557zM1024 448.106c0-282.77-229.23-512-512-512s-512 229.23-512 512c0 282.77 229.23 512 512 512s512-229.23 512-512zM768.849 188.817c0 21.738-17.622 39.36-39.36 39.36 0 0 0 0 0 0h-96.756c68.281 43.705 112.893 119.158 112.893 205.032 0 74.939-33.974 141.943-87.359 186.45-1.944 22.493-14.135 41.522-31.845 52.484l28.591 40.131c1.696 2.47 2.709 5.525 2.709 8.817 0 5.409-2.735 10.179-6.898 13.003l-14.059 9.477 11.14 16.656 7.426-4.986c0.49-0.323 1.091-0.516 1.737-0.516 1.077 0 2.030 0.535 2.606 1.355l21.225 31.838c0.323 0.49 0.516 1.091 0.516 1.737 0 1.077-0.535 2.030-1.355 2.606l-77.139 51.037c-0.49 0.323-1.091 0.516-1.737 0.516-1.077 0-2.030-0.535-2.606-1.355l-21.225-31.838c-0.323-0.49-0.516-1.091-0.516-1.737 0-1.077 0.535-2.030 1.355-2.606l7.861-5.311-11.14-16.656-13.368 8.912c-2.47 1.696-5.525 2.709-8.817 2.709-5.409 0-10.179-2.735-13.003-6.898l-196.199-292.126c-1.696-2.47-2.709-5.525-2.709-8.817 0-5.409 2.735-10.179 6.898-13.003l13.423-8.947-15.277-22.704 8.806-5.941-7.426-10.609 7.32-4.986-5.517-8.275 29.069-19.521 5.517 8.275 7.32-4.88 7.426 10.609 9.018-6.047 15.277 22.704 14.004-9.442c2.47-1.696 5.525-2.709 8.817-2.709 5.409 0 10.179 2.735 13.003 6.898l94.457 140.627c10.605-7.587 23.837-12.132 38.131-12.132 6.097 0 12.001 0.827 17.606 2.375 32.061-29.225 52.433-71.339 52.433-118.21 0-87.421-70.869-158.289-158.289-158.289-35.738 0-68.71 11.844-95.205 31.821l40.505-0.29c0 0 0 0 0 0 14.472 0 26.205 11.732 26.205 26.205s-11.732 26.205-26.205 26.205c0 0 0 0 0 0h-199.453c-14.472 0-26.205-11.732-26.205-26.205s11.732-26.205 26.205-26.205h46.574c28.227-45.266 69.582-80.044 118.703-99.4l-144.165 21.422c-21.738 0-39.36-17.622-39.36-39.36s17.622-39.36 39.36-39.36h459.697c0.002 0 0.003 0 0.005 0 21.738 0 39.36 17.622 39.36 39.36 0 0.224-0.002 0.447-0.006 0.67z" />
<glyph unicode="&#xe90e;" glyph-name="salamander" d="M512 960c-281.6 0-512-230.4-512-512s230.4-512 512-512c281.6 0 512 230.4 512 512s-230.4 512-512 512zM816 697.6c-9.6-3.2-19.2 3.2-19.2 9.6h-12.8c0-6.4-3.2-12.8-9.6-19.2-3.2-3.2-3.2-3.2-6.4-6.4l3.2-9.6c6.4 0 12.8-6.4 16-16s-3.2-19.2-12.8-19.2c-9.6 0-16 6.4-19.2 16 0 6.4 0 12.8 3.2 16l-3.2 6.4c-12.8-3.2-25.6-3.2-35.2 6.4-16-6.4-28.8-16-32-22.4 3.2 0 3.2-3.2 3.2-3.2 92.8-115.2-12.8-214.4-12.8-214.4s-9.6-12.8-22.4-28.8c131.2 9.6 92.8-54.4 92.8-54.4l-32-54.4c3.2-3.2 9.6-6.4 12.8-9.6l9.6 6.4c0 6.4 3.2 12.8 9.6 16 9.6 6.4 19.2 3.2 22.4-3.2s0-16-6.4-22.4c-6.4-3.2-12.8-3.2-19.2 0l-9.6-3.2c3.2-6.4 3.2-16 3.2-22.4l9.6-3.2c3.2 3.2 12.8 6.4 19.2 3.2 9.6-3.2 16-12.8 12.8-19.2s-12.8-12.8-22.4-9.6c-6.4 3.2-12.8 9.6-12.8 16l-9.6 3.2c-3.2-3.2-3.2-6.4-6.4-9.6l6.4-9.6c6.4 3.2 12.8 0 19.2-6.4 6.4-9.6 6.4-19.2 0-22.4-6.4-6.4-16-3.2-22.4 6.4-3.2 6.4-6.4 12.8-3.2 19.2l-6.4 9.6c-6.4-3.2-16-3.2-22.4-3.2l-9.6-16c3.2-3.2 6.4-9.6 3.2-16 0-9.6-9.6-16-16-16-9.6 0-12.8 9.6-12.8 19.2s6.4 16 16 16l3.2 12.8c-6.4 3.2-12.8 9.6-16 16 0 3.2-3.2 6.4-3.2 9.6h-9.6c-3.2-6.4-9.6-9.6-19.2-9.6s-16 9.6-16 16c0 9.6 9.6 12.8 19.2 12.8 6.4 0 12.8-3.2 12.8-9.6h6.4c0 9.6 3.2 19.2 9.6 25.6l3.2 38.4c-28.8-9.6-57.6-12.8-83.2-6.4 0-3.2-3.2-3.2-3.2-6.4-28.8-38.4-92.8-51.2-131.2-54.4s-80-19.2-80-19.2-150.4-70.4-60.8-182.4c89.6-112 192-67.2 192-67.2-102.4-70.4-275.2 51.2-265.6 160 6.4 108.8 102.4 134.4 192 160s89.6 57.6 89.6 57.6v3.2c-25.6 35.2-28.8 70.4-28.8 70.4s0 35.2-16 41.6c-12.8 3.2-35.2-3.2-48-6.4 0 0 0-3.2 0-3.2l6.4-9.6c3.2 0 6.4-3.2 9.6-6.4 3.2-6.4 3.2-16-3.2-19.2s-12.8 0-19.2 6.4c-3.2 6.4-3.2 12.8 0 16l-3.2 3.2c0 0-3.2-3.2-3.2-3.2-3.2-3.2-6.4-3.2-9.6-3.2v-12.8c3.2-3.2 3.2-6.4 0-12.8s-9.6-12.8-16-9.6c-6.4 3.2-9.6 9.6-6.4 16s6.4 9.6 12.8 9.6v6.4c-3.2 0-6.4 0-6.4 3.2l-9.6-6.4c0-6.4 0-9.6-6.4-12.8-6.4-6.4-16-3.2-19.2 0-3.2 6.4-3.2 12.8 3.2 19.2 3.2 3.2 9.6 3.2 12.8 3.2l9.6 6.4c0 0 0 0 0 0-3.2 3.2-3.2 9.6-3.2 16l-16 3.2c-3.2-3.2-6.4-6.4-12.8-6.4-9.6 0-12.8 6.4-12.8 12.8s6.4 12.8 16 9.6c6.4 0 9.6-3.2 12.8-9.6l16-3.2c3.2 3.2 6.4 9.6 9.6 9.6 0 0 0 0 0 0l-3.2 12.8c-6.4 0-9.6 9.6-9.6 16s6.4 12.8 12.8 12.8c6.4 0 12.8-6.4 9.6-16 0-3.2-3.2-6.4-3.2-9.6l3.2-12.8c9.6 0 19.2-3.2 25.6-9.6 64 44.8 80 41.6 99.2 16 6.4-9.6 19.2-22.4 38.4-38.4 12.8 19.2 16 48 0 76.8-6.4 9.6-12.8 22.4-16 28.8-38.4-48-54.4-28.8-54.4-28.8l-35.2 19.2c-6.4-3.2-12.8-3.2-19.2-3.2h-6.4c3.2-3.2 3.2-12.8 0-16-3.2-6.4-12.8-9.6-19.2-6.4s-6.4 12.8 0 19.2c3.2 3.2 6.4 6.4 9.6 6.4l3.2 6.4c0 0 0 0 0 0-3.2 3.2-3.2 3.2-6.4 6.4l-12.8-3.2c-3.2-3.2-6.4-6.4-9.6-6.4-9.6 0-16 3.2-16 9.6s6.4 12.8 12.8 12.8c6.4 0 12.8-3.2 12.8-6.4l6.4 3.2c0 3.2 0 6.4 0 6.4l-9.6 9.6c-3.2-3.2-9.6-3.2-16 0s-9.6 12.8-6.4 19.2c3.2 6.4 12.8 6.4 19.2 3.2 3.2-3.2 6.4-6.4 6.4-9.6l9.6-6.4c0 0 0 0 0 0 3.2 3.2 6.4 6.4 12.8 9.6l-3.2 16c-3.2 0-6.4 6.4-9.6 9.6-3.2 6.4 0 16 6.4 16 6.4 3.2 12.8-3.2 16-9.6s0-12.8-3.2-16l3.2-16c6.4 0 9.6-3.2 12.8-6.4 0 0 0 0 0 0l9.6 6.4c0 6.4 3.2 12.8 9.6 12.8 6.4 3.2 16 0 16-9.6 3.2-6.4-3.2-12.8-9.6-16-3.2 0-6.4 0-9.6 0l-9.6-6.4c0-3.2 3.2-3.2 3.2-6.4l25.6-9.6c12.8 16 22.4 32 35.2 44.8 0 6.4 0 9.6 0 9.6-3.2 12.8-9.6 9.6-9.6 9.6-57.6-19.2-83.2 32-83.2 32s-80 121.6-54.4 156.8c25.6 35.2 128 9.6 179.2-19.2 48-32 38.4-92.8 38.4-92.8 6.4-3.2 16-12.8 32-22.4 41.6-6.4 73.6 0 89.6 6.4 0 3.2 3.2 6.4 3.2 9.6l-9.6 6.4c-6.4-3.2-12.8 0-19.2 3.2-6.4 6.4-9.6 16-3.2 22.4s16 6.4 22.4 0c6.4-6.4 9.6-12.8 6.4-19.2l9.6-6.4c6.4 6.4 12.8 9.6 22.4 9.6v9.6c-9.6 3.2-12.8 9.6-12.8 19.2s6.4 19.2 16 19.2c9.6 0 16-9.6 16-19.2 0-6.4-3.2-12.8-9.6-16v-9.6c3.2 0 9.6-3.2 12.8-3.2l6.4 6.4c-6.4 3.2-6.4 12.8 0 19.2 6.4 9.6 16 9.6 22.4 6.4 6.4-6.4 6.4-16 3.2-22.4s-9.6-9.6-16-9.6l-6.4-9.6c6.4-6.4 9.6-12.8 9.6-22.4h12.8c3.2 3.2 6.4 6.4 12.8 9.6 9.6 3.2 19.2-3.2 22.4-9.6 0-9.6-6.4-19.2-19.2-19.2z" />
<glyph unicode="&#xe90f;" glyph-name="gorilla" d="M460.8 406.4l-6.4 48c0 0-12.8-48-92.8-54.4 0 0 0-32 12.8-44.8s35.2-35.2 44.8-89.6l19.2-19.2 12.8 6.4v12.8c0 0-38.4 35.2-25.6 76.8 12.8 38.4 16 44.8 35.2 64zM512 960c-281.6 0-512-230.4-512-512s230.4-512 512-512c281.6 0 512 230.4 512 512s-230.4 512-512 512zM870.4 172.8c0 0-32 0-60.8 0-32 0-12.8 19.2-22.4 32-6.4 9.6 0 41.6-9.6 48-9.6 3.2-19.2 19.2-38.4 35.2-16 12.8-80 102.4-76.8 150.4s-9.6 96-9.6 96c-6.4 0-19.2 0-19.2 0l-6.4-9.6c-3.2-12.8-6.4-35.2-19.2-48s-44.8-48-44.8-48l-3.2-35.2c0 0 16-25.6 12.8-57.6s-35.2-64-35.2-64v-19.2c6.4-6.4 22.4-22.4 22.4-51.2 0-25.6-19.2-28.8-19.2-28.8s-166.4 0-188.8 0c-22.4 0-16-12.8-32 32-12.8 41.6-54.4 89.6-54.4 89.6-9.6-6.4-41.6-64-41.6-64 12.8-9.6 19.2-32 19.2-32s16 0 16-16c0-16-22.4-12.8-22.4-12.8s-67.2 0-86.4 0-25.6 22.4-12.8 44.8c16 22.4 9.6 9.6 12.8 41.6s22.4 108.8 22.4 108.8-38.4 41.6-38.4 108.8c0 70.4 60.8 99.2 96 137.6s137.6 32 137.6 32c22.4 9.6 89.6 57.6 124.8 96s57.6 44.8 67.2 48c9.6 3.2 38.4 6.4 54.4 35.2s28.8 35.2 28.8 35.2c38.4 0 54.4-38.4 54.4-38.4 35.2-28.8 51.2-96 51.2-96 19.2-12.8 12.8-32 0-41.6s-12.8-32-12.8-32 22.4-12.8 16-28.8c-6.4-16-25.6-35.2-25.6-35.2 12.8-6.4 12.8-16 22.4-51.2 12.8-35.2 19.2-67.2 19.2-67.2s0-12.8 38.4-57.6c38.4-44.8 25.6-96 25.6-96 41.6-41.6 41.6-83.2 41.6-86.4s12.8-9.6 12.8-28.8c3.2-25.6-16-25.6-16-25.6z" />
<glyph unicode="&#xe910;" glyph-name="cloud" d="M512 959.788c-282.77 0-512-229.23-512-512s229.23-512 512-512c282.77 0 512 229.23 512 512s-229.23 512-512 512zM772.031 257.883h-486.22c-73.619 1.632-132.673 61.696-132.673 135.554 0 73.298 58.163 133.012 130.854 135.505 11.111 96.872 92.561 171.478 191.437 171.478 91.768 0 168.526-64.265 187.724-150.246 7.563 1.448 16.024 3.027 24.854 3.027 40.004 0 72.437-32.418 72.461-72.417q0-1.806 0-3.503c3.565 0.405 7.697 0.636 11.883 0.637 60.525-0.030 109.751-49.275 109.751-110.018 0-60.761-49.256-110.017-110.017-110.017-0.019 0-0.037 0-0.056 0z" />
<glyph unicode="&#xe911;" glyph-name="heart" d="M512 960c-282.77 0-512-229.23-512-512s229.23-512 512-512c282.77 0 512 229.23 512 512s-229.23 512-512 512zM512.849 75.405v0c-386.281 250.165-376.202 457.999-376.202 457.999s-15.171 205.818 180.356 205.818c155.319 0 194.148-101.742 195.634-106.092 1.485 3.925 40.315 106.092 195.634 106.092 195.74 0 180.356-205.818 180.356-205.818s10.609-207.834-375.672-457.999zM560.166 539.77h-87.314v-91.133h-91.77v-84.768h91.77v-91.133h87.314v91.133h91.663v84.768h-91.663v91.133z" />
<glyph unicode="&#xe912;" glyph-name="cross" d="M512.106 959.576c-282.77 0-512-229.23-512-512s229.23-512 512-512c282.77 0 512 229.23 512 512s-229.23 512-512 512zM837.702 360.474h-226.188v-224.915h-177.386v224.915h-226.082v172.718h226.082v224.809h177.386v-224.915h226.082v-172.293z" />
<glyph unicode="&#xe913;" glyph-name="hospital" d="M542.979 276.343l0.106 0.212-0.106-0.106v-0.106zM474.443 277.935v0 0-0.637zM479.536 177.996v0 0 0 0l-0.637 0.637zM474.762 276.343v0 0zM479.536 177.996l-0.955 0.955-1.061 0.955 0.955-0.849zM543.403 278.147v0 0 0.637zM512 959.576c-282.77 0-512-229.23-512-512s229.23-512 512-512c282.77 0 512 229.23 512 512s-229.23 512-512 512zM509.56 829.082c0.732 0.045 1.588 0.071 2.45 0.071 23.437 0 42.437-19 42.437-42.437 0-18.659-12.043-34.506-28.78-40.191l-0.299-251.102c-4.954 0.395-10.726 0.621-16.55 0.621s-11.596-0.225-17.307-0.668l1.393 251.485c-17.157 5.704-29.312 21.611-29.312 40.356 0 23.437 19 42.437 42.437 42.437 1.243 0 2.474-0.053 3.689-0.158zM270.853 658.274s-45.301-6.896-52.197 29.494c0 0-47.211-12.837-63.019 33.525 0 0 206.773 2.971 221.52 19.733s54.107 10.609 54.107 10.609 14.747-0.955 20.688-24.613c0.398-8.237 7.173-14.764 15.472-14.764 3.625 0 6.959 1.245 9.598 3.331l-0.033-105.374s-83.707-33.525-126.037 25.568c-0.424 0.212-56.547-27.266-80.206 22.916zM338.752 535.95c3.183 41.376 55.38 47.954 75.113 49.863s51.136-3.183 60.897-29.812-2.122-28.539-2.122-28.539c-6.671-2.496-14.379-3.941-22.425-3.941-10.863 0-21.111 2.633-30.14 7.296s-34.961 25.608-35.067-3.886c0-18.248 39.148-30.661 69.278-37.45-25.108-6.952-46.61-19.955-63.617-37.367 13.329 12.011 10.359 9.571 7.707 7.131-43.073 20.476-61.746 49.651-59.305 77.129zM515.925 38.485c-1.167-15.065-2.228-28.22-3.289-39.148-2.016-21.218-3.607-34.056-3.607-34.056s-1.591 12.413-3.607 34.056c-1.061 10.609-2.122 23.977-3.289 39.148v1.167l1.697 0.637 12.625 5.305c-0.212-2.016-0.424-4.35-0.53-6.684zM517.623 55.99l-2.334-1.061-5.199-2.334-1.591-0.637-3.183-1.379-3.925-1.591h-0.955q-11.776-4.774-21.218-8.275l-9.336-3.289-8.275-2.652c-5.092-1.697-9.548-2.971-13.155-4.031l-10.609-2.971 9.23 6.684 25.78 18.884 13.049 9.76 4.986 3.819c5.623 4.35 11.67 9.018 17.717 14.004l2.758 2.334 5.305 4.562 3.289 2.864 1.91 1.804 2.44 2.334c0.743 0.743 1.697 1.591 2.334 2.334l1.061 1.167v0.53l1.061 1.697-0.849-1.167s0 0 0 0c-0.498 2.66-1.285 5.028-2.346 7.24 0.911-1.849-0.152 0.163-1.532 1.913l13.214 0.077c23.402 6.999 43.805 17.085 62.062 30.004l-39.995-22.153 3.713 1.697c0.944-3.849 1.485-8.268 1.485-12.814 0-0.008 0-0.016 0-0.025 0-0.053 0-0.117 0-0.182 0-4.73-0.659-9.306-1.889-13.642-1.371-4.8-3.699-9.284-6.758-13.166l2.918 4.287-0.637-0.955-1.167-1.591-1.379-1.485-2.122-2.122-2.652-2.44-0.637-0.53-0.955-0.743-1.91-1.379c-1.273-0.955-2.546-1.697-3.713-2.44l-3.607-2.228-8.275-4.562-2.652-1.379-8.381-4.031zM498.208 101.504h3.713l4.244 0.743 10.609 2.122h0.743l0.849-1.697v-1.167l-2.864-2.864-1.379-1.273-3.501-3.183-1.91-1.697-3.183-2.758-5.941-4.88c0 1.591 0 3.077 0 4.668zM568.335 30.21c-3.607 1.061-7.957 2.334-13.049 4.031l-8.275 2.758-9.336 3.289-12.413 4.668v4.88l3.819 1.804c3.077 1.485 6.259 3.077 9.548 4.88l5.411-4.138 25.674-18.99 9.23-6.79zM590.932 166.326c0-1.804-0.637-3.395-1.061-5.199-1.939-6.985-5.128-13.062-9.344-18.274 1.202 0.215-4.603-5.777-11.674-9.796l5.847 3.987h-0.53l-1.061-0.743-1.591-1.061-4.244-2.758h-1.591l-1.485-0.743-3.925-1.804-3.501-1.591-5.305-2.122-4.986-1.804-4.774-1.591-4.88-1.485-5.305-1.485h-0.849l-7.851-2.016h-3.395l-3.819-0.849h-0.955l-10.609-2.016-5.305-0.849h-5.305c0.11-0.048 0.237-0.075 0.371-0.075s0.262 0.028 0.378 0.078c0.030 0.075 0.052 0.167 0.052 0.263s-0.021 0.187-0.060 0.269-0.741-0.004-1.378-0.004c-2.17-2.224-3.645-5.135-4.066-8.377-0.348-0.472-0.797-3.094-0.892-5.807s0.502 4.53 0.502 4.53v0l-0.849 1.167 1.061-1.697v-20.582l-13.686-10.397-3.183 2.016c-1.273 0.849-2.44 1.485-3.713 2.44l-1.91 1.379-0.955 0.743-0.637 0.53-2.652 2.44-2.122 2.122-1.379 1.485-1.697 2.546-1.061 1.91c-2.163 4.072-3.61 8.843-4.035 13.903 0.090-2.723-0.531 1.71-0.531 6.289 0 0.212 0.001 0.423 0.004 0.634 0.020 4.603 0.616 9.089 1.721 13.371 1.515 5.86 4.15 11.497 7.641 16.49l-4.694-8.25c0.637 1.379 1.273 2.652 2.016 4.031 4.361 7.712 10.76 13.829 18.47 17.728-2.761-0.861 3.445 2.232 10.257 3.69l-7.933-2.533 2.652 0.955h5.729l1.697 0.53 3.713 1.273 7.745 2.971 7.533 3.183 8.593 3.925 5.835 2.864h0.53l0.955 0.53c2.546 1.273 5.092 2.758 7.426 4.138l1.061 0.637v1.061l-0.637 1.167v6.684l8.169 2.758c27.496 9.426 51.288 22.807 72.093 39.721l-45.995-29.111c20.507 10.607 37.771 24.674 51.673 41.605l-34.911-31.739c4.088-8.071 6.747-17.513 7.38-27.505-0.466 6.16 0.091 1.264 0.091-3.763 0-1.578-0.055-3.143-0.163-4.694 1.709-4.035 1.391-5.732 1.179-7.324zM495.45 167.599c0 1.804 0 3.501 0 5.305 4.138 1.379 11.776 3.289 11.776 3.289l10.609 2.864 6.472 1.804s0-0.849 0-1.273l-4.138-2.546-5.941-2.971c-4.456-2.122-9.442-4.244-15.596-6.79l-2.864-1.061s-0.743 0.849-0.849 1.273zM613.424 275.282v-2.652c0.019-0.285 0.030-0.619 0.030-0.955s-0.011-0.669-0.032-1l0.002-1.44v-2.334c0-1.273 0-2.652-0.743-3.925v-3.395l-0.849-2.971c-0.637-2.016-1.379-3.819-2.228-5.729s-1.697-3.501-2.652-5.305-1.91-3.289-2.971-4.88c-7.803-11.608-18.273-20.858-30.565-27.006 2.374-1.344-16.144-10.92-36.58-15.35 5.111-1.931-20.948-9.905-48.515-12.823 46.7 10.195 42.244 8.816 37.895 7.437v0l-9.867-2.864-11.246-2.971h-1.804l-2.546-0.743-2.016-0.637-2.016-0.743c-3.979-1.63-7.315-4.127-9.891-7.27 1.742 1.977 0.084-0.273-0.985-2.83l2.813 4.583c-1.457-1.82-2.52-4.019-3.020-6.424l1.323 2.817 1.061-0.637 1.273-0.743v-10.503h-6.684l-3.607-1.379-2.334-1.061c-7.594-3.904-13.882-9.368-18.634-16.007 1.158 3.049-4.739-5.824-7.697-15.95 3.627 9.147 2.991 7.874 2.354 6.495v0l-2.122 1.379-1.591 1.167-1.061 0.743-1.591 1.379c-6.023 5.466-10.451 12.589-12.569 20.648 0.196-2.802-1.827 3.818-2.408 10.848 1.503-6.883 0.761-5.185 0.442-3.488s0 3.395-0.53 4.986c-0.082 1.233-0.128 2.672-0.128 4.122 0 5.157 0.588 10.178 1.7 14.997 2.253 9.782 6.408 18.781 12.057 26.631-0.826 0.035 6.275 8.525 14.845 15.222l-14.895-15.459c1.167 1.697 2.44 3.289 3.713 4.774 11.013 12.688 25.662 21.955 42.32 26.188-6.585-1.196 3.397 1.801 13.94 2.921l-18.279-3.965h3.183l9.973 3.501c4.88 1.697 9.548 3.501 14.216 5.411v0l5.092 2.122 3.819 1.697 1.591 0.743 2.016 0.955 4.774 2.334 4.668 2.546 1.91 1.061 4.774 2.758 2.971 2.334-2.971 1.91v9.76l8.806 3.713c32.857 14.483 60.913 33.919 84.612 57.701-32.546-30.26-9.646-10.075 8.228 14.056l-42.976-43.218c6.685-7.535 11.831-16.597 14.845-26.584-3.765 11.991 0.545 1.13 1.639-10.663l-0.571 4.677c0-1.167 0-2.44 0-3.607s0-2.44 0-3.607-4.138-2.44-4.244-3.607zM492.585 270.296l12.307 4.244h0.849l3.395 1.061 12.837 4.244 4.031 1.485c0-0.955 0-2.016 0-2.971-10.721-6.219-23.273-10.653-36.647-12.524l19.46 4.143c-5.411-2.334-10.609-4.562-16.869-6.578v0 0c0.212 2.864 0.212 4.774 0.106 6.578zM631.99 395.803v-5.411l-0.53-3.183c0-2.122-0.849-4.244-1.379-6.366l-1.591-4.88c-1.771-5.341-4.266-9.974-7.422-14.072 1.271-0.595-4.643-9.124-11.908-16.288l10.949 13.173-2.546-3.607c-0.849-1.167-1.697-2.44-2.546-3.501l-2.652-3.183c-14.831-17.592-33.79-31.24-55.407-39.515 10.172 1.16-17.055-11.514-46.632-17.854 48.569 16.841 40.718 12.916 32.761 9.521s-12.837-5.411-19.309-7.851l-4.774-1.697-12.413-4.138-2.652-0.743h-2.334l-4.138-1.485-4.774-1.91-3.713-1.273-8.169-2.864v-2.228l-2.652-1.697 2.652-2.122v-12.413h-2.864l-6.896-2.44-5.092-2.334c-17.862-8.616-32.231-22.083-41.721-38.696 9.257 13.446 7.984 11.749 6.605 9.945l-1.061 0.849c-10.069 9.141-17.723 20.767-22.004 33.915 7.894-17.046 6.939-15.455 6.091-13.757s-1.804 3.501-2.546 5.305-1.591 3.713-2.122 5.729l-0.849 2.971v3.395c0 1.273 0 2.546-0.743 3.925v2.44c-0.079 0.286-0.125 0.615-0.125 0.955s0.046 0.668 0.131 0.981l-0.006 2.732c0 1.167 0 2.44 0 3.607s0 2.44 0 3.607 0 2.44 0 3.607l0.743 3.501c2.723 11.705 8.359 21.827 16.105 29.909 2.925 4.724 13.931 13.636 26.673 19.38l-19.12-12.051h0.53c12.287 10.266 27.101 17.949 43.354 21.994-11.182-1.139 10.476 6.58 33.634 9.471l-29.246-6.427 1.91 0.637 2.122 0.637 2.228 0.637 9.76 3.183c4.986 1.697 9.973 3.501 14.747 5.411v0l5.092 2.016 5.941 2.546h0.637l5.729 2.652 5.941 2.971c20.021 10.41 36.878 24.181 50.459 40.742-24.155-24.437-15.86-15.374-10.085-4.743-8.814-13.218-6.008-8.568-4.559-3.353-2.957-7.099-2.974-7.246-2.974-7.396s0.017-0.297 0.050-0.437l-0.003 0.013v3.819c-0.009 0.111-0.014 0.241-0.014 0.371s0.005 0.26 0.015 0.388l-0.001 0.62c-0.009 0.095-0.014 0.206-0.014 0.318s0.005 0.223 0.015 0.332c-0.001 0.622-0.001 1.153-0.001 1.683v0.637l-0.53 0.637c-3.974 4.37-9.151 7.579-15.008 9.105-4.189 3.13-16.213 6.843-28.961 8.085l17.659-3.398c59.16 12.227 111.666 32.165 159.741 59.075l-80.278-38.281c0.955-1.379 2.016-2.652 2.864-4.138 5.637-8.851 9.429-19.402 10.574-30.734-2.299 10.47-1.556 8.879-1.132 7.182v-2.44c0-0.849 0-1.591 0-2.44s0-3.183 0.53-4.774 0-3.077 0-4.668v-2.864c-0.955 3.077-1.273-1.591-1.273-1.167zM491.843 369.492c0 0.53 0 1.167 0 1.697v0q0 14.216 0 28.327 0 6.896 0 13.792c12.625 2.228 24.189 4.35 34.798 6.578 0-6.79 0-13.58 0-20.264v-15.489c-4.986-2.546-10.609-5.199-16.869-7.745s-11.564-4.668-18.46-7.108zM578.201 444.711c-17.353-6.42-37.414-10.608-58.304-11.646l28.81 3.477-5.411-0.955-9.548-1.591-19.097-3.395c-6.366-1.167-12.625-2.44-18.778-3.925l-8.7-2.228-6.896-1.167v-0.849l-2.122-0.743c-12.533-4.044-23.383-10.096-32.755-17.868 12.197 8.873 7.857 4.741 4.944-0.316l3.198 4.498v-0.637c-0.019-0.080-0.031-0.171-0.031-0.265s0.011-0.186 0.032-0.273c-0.017-0.246-0.026-0.542-0.026-0.841s0.009-0.595 0.027-0.889c0.004-0.055 0.007-0.166 0.007-0.278s-0.003-0.223-0.009-0.334l0.001-0.621c0.009-0.111 0.014-0.241 0.014-0.371s-0.005-0.26-0.015-0.388l0.001-0.726c-0.012 0.159-0.019 0.344-0.019 0.53s0.007 0.372 0.020 0.555l-0.001-0.767v-3.819c0.034 0.127 0.054 0.274 0.054 0.424s-0.020 0.297-0.057 0.436c2.611-4.718 6.3-8.539 10.749-11.23 2.615-3.926 13.024-10.357 24.674-13.965-15.581 6.723-12.186 4.601-8.579 2.585v-11.67h-0.743l-2.122-0.637-1.91-0.637-7.426-2.546c-24.087-9.098-44.696-22.37-61.926-39.103 16.767 15.607 3.288 2.828-6.927-12.333l22.385 25.018c-14.701 12.786-26.28 28.771-33.701 46.898l17.257-29.605c-0.849 1.061-1.697 2.334-2.546 3.501l-2.44 3.607-2.334 4.031c-4.888 8.31-8.363 18.053-9.812 28.444 3.482-15.417 2.054-10.147 1.568-4.607 1.666-9.090 1.136-7.499 0.605-5.802s-0.955 4.244-1.379 6.366 0 2.122 0 3.183v5.411s0 4.244 0 2.546v2.864c0 1.591 0 3.077 0 4.668s0 3.183 0.53 4.774 0 1.591 0 2.44v2.44c0 1.591 0.743 3.289 1.167 4.88 3.265 11.201 8.831 20.857 16.188 28.838-6.958-8.68-5.897-7.407-4.942-6.028 3.938 5.425 8.9 9.855 14.634 13.078l-8.268-5.651 3.395 3.183c1.167 1.061 2.228 2.016 3.395 2.864l3.501 2.652c2.334 1.591 4.668 3.183 7.002 4.456l3.501 1.91 3.395 1.697c2.334 1.167 4.456 2.016 6.79 2.971 13.724 5.507 29.61 9.046 46.219 9.82-7.871 0.258 7.134 1.937 22.496 2.137-12.699-0.393-5.485 0.137 1.093 0.456s13.792 0 20.37 0.637h6.578c19.839 3.077 98.878 16.869 98.878 42.437 0 29.494-35.435 3.925-35.435 3.925-8.596-4.419-18.756-7.010-29.522-7.010-8.14 0-15.935 1.481-23.128 4.188s-11.324 1.866-1.563 28.389 41.376 31.828 61.003 29.494 71.824-8.912 74.795-50.182c1.804-35.116-29.918-73.203-103.334-91.027zM799.509 688.723c-6.896-36.39-52.197-29.494-52.197-29.494-23.659-50.182-79.781-22.598-79.781-22.598-42.437-59.093-126.037-25.568-126.037-25.568v104.501c2.527-1.865 5.703-2.985 9.141-2.985 8.298 0 15.073 6.526 15.471 14.725 5.943 23.694 20.689 24.649 20.689 24.649s39.36 5.941 54.107-10.609 221.52-19.733 221.52-19.733c-16.232-46.15-63.443-33.419-63.443-33.419z" />
<glyph unicode="&#xe914;" glyph-name="aid-ribbon" d="M512 960c-282.77 0-512-229.23-512-512s229.23-512 512-512c282.77 0 512 229.23 512 512s-229.23 512-512 512zM444.101 816.564c18.248 14.216 84.237 28.645 138.874-14.429 0 0 19.733-19.521 9.442-73.734-24.455 12.972-53.465 20.589-84.254 20.589-31.746 0-61.601-8.097-87.611-22.339s-12.522 61.586 23.549 89.913zM414.501 800.225l9.124 4.774c-66.838-64.292 79.039-275.839 79.039-275.839l-64.61-119.566-74.264 131.342s-78.19 147.256 50.712 258.971zM422.883 79.33l-80.206 130.918 204.015 367.184s89.648 155.107 55.91 220.353c0 0 132.297-83.6 45.62-272.869-60.579-131.872-225.339-445.586-225.339-445.586zM624.458 79.33c0.955-3.289-99.196 169.747-99.196 169.747l64.716 132.509 110.23-160.093s-77.447-139.299-76.492-142.482z" />
<glyph unicode="&#xe915;" glyph-name="house-cross" d="M544.676 547.196h-91.982v-96.013h-96.756v-89.436h96.756v-96.013h91.982v96.013h96.756v89.436h-96.756v96.013zM512 960c-282.77 0-512-229.23-512-512s229.23-512 512-512c282.77 0 512 229.23 512 512s-229.23 512-512 512zM809.8 424.872h-67.156v-203.166c0-27.187-22.040-49.227-49.227-49.227h-393.814c-27.187 0-49.227 22.040-49.227 49.227v203.166h-67.156c-8.902 8.907-14.408 21.21-14.408 34.798s5.506 25.891 14.408 34.798l278.491 278.491c8.907 8.902 21.21 14.408 34.798 14.408s25.891-5.506 34.798-14.408l278.491-278.491c8.934-8.913 14.461-21.236 14.461-34.851 0-13.562-5.484-25.843-14.356-34.747z" />
<glyph unicode="&#xe916;" glyph-name="bear-cross" d="M351.165 680.448c16.372 27.787 40.111 49.697 68.549 63.4-34.816-11.231-43.362-6.808-52.941-6.808-16.816 0-30.448-13.632-30.448-30.448 0-11.054 5.891-20.732 14.704-26.067zM660.847 679.811c9.464 5.288 15.758 15.244 15.758 26.67 0 16.816-13.632 30.448-30.448 30.448-9.861 0-18.628-4.688-24.192-11.957 24.623-19.751 43.149-46.182 52.798-76.567zM512 960c-282.77 0-512-229.23-512-512s229.23-512 512-512c282.77 0 512 229.23 512 512s-229.23 512-512 512zM359.44 784.736c27.522-0.188 51.385-15.669 63.535-38.361 24.352 11.531 52.834 18.422 82.925 18.422s58.574-6.891 83.954-19.181c11.235 23.825 35.371 39.438 63.154 39.438 40.078 0 72.567-32.489 72.567-72.567 0-32.12-20.868-59.366-49.786-68.919 2.049-10.145 3.519-21.622 3.519-33.443 0-0.043 0-0.086 0-0.129 0-61.208-39.784-114.148-97.605-139.398 15.262 15.061 24.742 35.949 24.827 59.051-0.002 48.95-44.772 88.841-99.94 88.841s-99.939-39.891-99.939-89.117c0.21-23.919 10.407-45.416 26.618-60.555-60.143 24.696-101.731 78.591-101.731 141.185 0 0.035 0 0.077 0 0.118 0 11.976 1.509 23.6 4.347 34.691-28.502 9.368-48.334 36.048-48.334 67.36 0 39.839 32.104 72.18 71.852 72.563zM529.187 574.249c0.309-1.435 0.487-3.084 0.487-4.774 0-13.066-10.592-23.659-23.659-23.659s-23.659 10.592-23.659 23.659c0 13.044 10.557 23.623 23.593 23.658 0.611 0.062 1.317 0.097 2.031 0.097 10.931 0 19.931-8.265 21.092-18.887zM443.677 204.625q0-2.758 0-5.517v-0.955q-0.637-6.578-1.91-12.837v-0.849c0-1.91-0.849-3.925-1.379-5.835v0c-3.449-12.397-8.503-23.244-15.034-33.019l10.897 20.713c-9.751-25.406-30.636-44.606-56.516-51.847-42.573-14.461-97.741 19.489-117.474 77.733s2.758 116.701 49.333 134.1l2.546 0.955 4.031 1.273h1.061l3.607 0.849 4.031 0.743h31.615l2.44-0.637 2.122-0.637 2.546-0.849 2.016-0.743 2.546-0.955 2.016-0.743 2.546-1.167 1.804-0.849 2.652-1.379 1.697-0.849 2.758-1.485 1.591-0.955 2.758-1.804 1.379-0.955 2.864-2.016 1.273-0.849 3.077-2.334 0.955-0.743 2.652-4.774 0.743-0.637 3.501-3.289c18.866-18.465 32.037-42.681 36.675-69.809-0.456 6.58 2.081-7.851 2.081-22.875 0-1.021-0.012-2.040-0.035-3.056s0.427-0.698 0.427-1.228zM505.741 148.396c-0.014 0-0.031 0-0.048 0-20.757 0-40.881 2.71-60.037 7.794 2.584 1.86 3.539 3.982 4.387 6.21 5.161 13.182 8.224 28.438 8.387 44.389 13.396-11.795 29.545-16.281 46.741-16.281 18.391 0 35.584 5.131 50.225 14.040 0.083-16.478 3.523-31.774 9.378-45.81-0.576 1.54 0.273-0.475 1.122-2.491-18.097-5.053-38.879-7.957-60.34-7.957-0.009 0-0.019 0-0.028 0zM560.696 307.534v-35.329h-38.193v-37.875h-36.39v37.875h-38.193v35.329h38.193v37.875h36.283v-37.875h38.193zM751.662 190.833c-19.733-58.245-74.901-92.194-123.279-75.856-24.109 8.722-42.715 27.521-50.991 51.173l2.613-6.508c-4.647 9.557-7.865 20.67-9.033 32.387l5.213-23.157c-1.167 3.183-2.122 6.366-2.971 9.76v0c-2.284 8.964-3.595 19.254-3.595 29.851 0 14.809 2.561 29.021 7.263 42.215 7.646 23.429 21.792 43.885 40.297 59.279l-15.427-15.174 0.637 0.743 2.864 3.077 3.819 3.819 1.167 1.061 2.122 1.91 1.273 1.061 2.864 2.334 1.273 1.061 2.971 2.122 1.379 0.955 3.077 2.016 1.273 0.849 3.289 1.91 1.167 0.637 3.713 1.91h0.849q4.562 2.228 9.336 4.031h1.167l3.501 1.167h1.697l3.077 0.849h1.91l2.864 0.637h27.584l4.031-0.743 3.713-0.849h1.061l4.031-1.273c48.484-13.686 72.036-74.264 51.985-132.403zM741.901 379.677l-53.046-12.625c6.351-14.061 10.527-30.396 11.624-47.569-10.414 25.409-18.281 26.454-26.392 26.456-26.079-0.498-49.938-10.154-68.474-25.89-2.056-1.588-4.92-4.24-7.785-6.893-11.675 41.257-48.996 70.978-93.259 70.978-43.447 0-80.206-28.637-92.431-68.065-2.305 1.224-4.321 3.028-6.549 4.831-18.519 15.408-42.491 24.833-68.659 25.052l1.078-0.015c-8.855-0.017-17.41-1.269-25.512-3.594 4.847 17.132 11.496 32.036 20.39 45.309l-65.535-7.978c-27.461 3.325-48.533 26.491-48.533 54.579 0 30.351 24.604 54.956 54.956 54.956 6.876 0 13.456-1.263 19.523-3.569l119.719-28.625c26.996-13.356 58.78-21.17 92.389-21.17 34.204 0 66.517 8.093 95.13 22.468l115.48 27.452c5.645 2.144 12.172 3.385 18.988 3.385 30.351 0 54.956-24.604 54.956-54.956 0-27.919-20.82-50.976-47.781-54.492z" />
<glyph unicode="&#xe917;" glyph-name="three-dots" d="M512 960c-282.77 0-512-229.23-512-512s229.23-512 512-512c282.77 0 512 229.23 512 512s-229.23 512-512 512c0 0 0 0 0 0zM308.091 382.117c-37.089 0-67.156 30.067-67.156 67.156s30.067 67.156 67.156 67.156c37.089 0 67.156-30.067 67.156-67.156s-30.067-67.156-67.156-67.156c0 0 0 0 0 0zM520.275 382.117c-37.089 0-67.156 30.067-67.156 67.156s30.067 67.156 67.156 67.156c37.089 0 67.156-30.067 67.156-67.156s-30.067-67.156-67.156-67.156c0 0 0 0 0 0zM732.459 382.117c-37.089 0-67.156 30.067-67.156 67.156s30.067 67.156 67.156 67.156c37.089 0 67.156-30.067 67.156-67.156s-30.067-67.156-67.156-67.156c0 0 0 0 0 0z" />
<glyph unicode="&#xe918;" glyph-name="building" d="M342.995 516.429h68.217v-259.607h-68.217v259.607zM489.19 516.429h68.217v-259.607h-68.217v259.607zM526.216 696.043l-160.411-101.636h316.791l-156.38 101.636zM512 960c-282.77 0-512-229.23-512-512s229.23-512 512-512c282.77 0 512 229.23 512 512s-229.23 512-512 512zM851.494 544.332c-4.949-16.25-19.792-27.874-37.355-27.902h-32.56v-259.607h19.415c0.608 0.034 1.319 0.053 2.035 0.053 21.562 0 39.042-17.48 39.042-39.042s-17.48-39.042-39.042-39.042c-0.716 0-1.427 0.019-2.133 0.057l-565.796-0.004c-0.608-0.034-1.319-0.053-2.035-0.053-21.562 0-39.042 17.48-39.042 39.042s17.48 39.042 39.042 39.042c0.716 0 1.427-0.019 2.133-0.057l29.607 0.004v259.501h-32.889c-0.054 0-0.117 0-0.181 0-21.562 0-39.042 17.48-39.042 39.042 0 13.751 7.109 25.841 17.852 32.796l295.088 187.027c5.99 3.93 13.331 6.269 21.218 6.269s15.228-2.339 21.367-6.361l287.679-186.843c10.572-7.097 17.437-19.007 17.437-32.519 0-4.108-0.634-8.067-1.81-11.786zM635.385 516.429h68.217v-259.607h-68.217v259.607z" />
<glyph unicode="&#xe919;" glyph-name="link-external" horiz-adv-x="768" d="M640 192h-512v510.094l128 1.906v128h-256v-768h768v320h-128v-192zM384 832l128-128-192-192 128-128 192 192 128-128v384h-384z" />
<glyph unicode="&#xe91a;" glyph-name="location" d="M510.016-64c0 0-318.016 449.984-318.016 641.984 0 378.016 318.016 382.016 318.016 382.016s321.984-4 321.984-380c0-197.984-321.984-644-321.984-644zM512 768c-70.688 0-128-57.312-128-128s57.312-128 128-128 128 57.312 128 128-57.312 128-128 128z" />
<glyph unicode="&#xe91b;" glyph-name="fax" d="M164.571 740.571q37.714 0 64.571-26.857t26.857-64.571v-621.714q0-37.714-26.857-64.571t-64.571-26.857h-73.143q-37.714 0-64.571 26.857t-26.857 64.571v621.714q0 37.714 26.857 64.571t64.571 26.857h73.143zM950.857 647.429q33.143-19.429 53.143-53.143t20-73.143v-438.857q0-60.571-42.857-103.429t-103.429-42.857h-493.714q-37.714 0-64.571 26.857t-26.857 64.571v877.714q0 22.857 16 38.857t38.857 16h384q22.857 0 50.286-11.429t43.429-27.429l86.857-86.857q16-16 27.429-43.429t11.429-50.286v-93.143zM530.286 82.286v73.143q0 8-5.143 13.143t-13.143 5.143h-73.143q-8 0-13.143-5.143t-5.143-13.143v-73.143q0-8 5.143-13.143t13.143-5.143h73.143q8 0 13.143 5.143t5.143 13.143zM530.286 228.571v73.143q0 8-5.143 13.143t-13.143 5.143h-73.143q-8 0-13.143-5.143t-5.143-13.143v-73.143q0-8 5.143-13.143t13.143-5.143h73.143q8 0 13.143 5.143t5.143 13.143zM530.286 374.857v73.143q0 8-5.143 13.143t-13.143 5.143h-73.143q-8 0-13.143-5.143t-5.143-13.143v-73.143q0-8 5.143-13.143t13.143-5.143h73.143q8 0 13.143 5.143t5.143 13.143zM676.571 82.286v73.143q0 8-5.143 13.143t-13.143 5.143h-73.143q-8 0-13.143-5.143t-5.143-13.143v-73.143q0-8 5.143-13.143t13.143-5.143h73.143q8 0 13.143 5.143t5.143 13.143zM676.571 228.571v73.143q0 8-5.143 13.143t-13.143 5.143h-73.143q-8 0-13.143-5.143t-5.143-13.143v-73.143q0-8 5.143-13.143t13.143-5.143h73.143q8 0 13.143 5.143t5.143 13.143zM676.571 374.857v73.143q0 8-5.143 13.143t-13.143 5.143h-73.143q-8 0-13.143-5.143t-5.143-13.143v-73.143q0-8 5.143-13.143t13.143-5.143h73.143q8 0 13.143 5.143t5.143 13.143zM822.857 82.286v73.143q0 8-5.143 13.143t-13.143 5.143h-73.143q-8 0-13.143-5.143t-5.143-13.143v-73.143q0-8 5.143-13.143t13.143-5.143h73.143q8 0 13.143 5.143t5.143 13.143zM822.857 228.571v73.143q0 8-5.143 13.143t-13.143 5.143h-73.143q-8 0-13.143-5.143t-5.143-13.143v-73.143q0-8 5.143-13.143t13.143-5.143h73.143q8 0 13.143 5.143t5.143 13.143zM822.857 374.857v73.143q0 8-5.143 13.143t-13.143 5.143h-73.143q-8 0-13.143-5.143t-5.143-13.143v-73.143q0-8 5.143-13.143t13.143-5.143h73.143q8 0 13.143 5.143t5.143 13.143zM877.714 594.286v146.286h-91.429q-22.857 0-38.857 16t-16 38.857v91.429h-365.714v-292.571h512z" />
<glyph unicode="&#xe91c;" glyph-name="mail" d="M896 800h-768c-70.688 0-128-57.344-128-128v-416c0-70.688 57.312-128 128-128h768c70.688 0 128 57.312 128 128v416c0 70.656-57.312 128-128 128zM64 632l223.968-168-223.968-168v336zM960 256c0-35.328-28.736-64-64-64h-768c-35.296 0-64 28.672-64 64l250.624 188 139.776-104.864c17.056-12.736 37.312-19.2 57.6-19.2 20.256 0 40.512 6.432 57.568 19.2l139.808 104.864 250.624-188zM960 296l-224 168 224 168v-336zM550.368 364.736c-11.168-8.384-24.416-12.8-38.368-12.8s-27.232 4.448-38.4 12.8l-409.6 307.264c0 35.296 28.704 64 64 64h768c35.264 0 64-28.704 64-64l-409.632-307.264z" />
<glyph unicode="&#xe91d;" glyph-name="angle-double-left" horiz-adv-x="603" d="M358.286 173.714q0-7.429-5.714-13.143l-28.571-28.571q-5.714-5.714-13.143-5.714t-13.143 5.714l-266.286 266.286q-5.714 5.714-5.714 13.143t5.714 13.143l266.286 266.286q5.714 5.714 13.143 5.714t13.143-5.714l28.571-28.571q5.714-5.714 5.714-13.143t-5.714-13.143l-224.571-224.571 224.571-224.571q5.714-5.714 5.714-13.143zM577.714 173.714q0-7.429-5.714-13.143l-28.571-28.571q-5.714-5.714-13.143-5.714t-13.143 5.714l-266.286 266.286q-5.714 5.714-5.714 13.143t5.714 13.143l266.286 266.286q5.714 5.714 13.143 5.714t13.143-5.714l28.571-28.571q5.714-5.714 5.714-13.143t-5.714-13.143l-224.571-224.571 224.571-224.571q5.714-5.714 5.714-13.143z" />
<glyph unicode="&#xe91e;" glyph-name="angle-double-right" horiz-adv-x="567" d="M340 411.429q0-7.429-5.714-13.143l-266.286-266.286q-5.714-5.714-13.143-5.714t-13.143 5.714l-28.571 28.571q-5.714 5.714-5.714 13.143t5.714 13.143l224.571 224.571-224.571 224.571q-5.714 5.714-5.714 13.143t5.714 13.143l28.571 28.571q5.714 5.714 13.143 5.714t13.143-5.714l266.286-266.286q5.714-5.714 5.714-13.143zM559.429 411.429q0-7.429-5.714-13.143l-266.286-266.286q-5.714-5.714-13.143-5.714t-13.143 5.714l-28.571 28.571q-5.714 5.714-5.714 13.143t5.714 13.143l224.571 224.571-224.571 224.571q-5.714 5.714-5.714 13.143t5.714 13.143l28.571 28.571q5.714 5.714 13.143 5.714t13.143-5.714l266.286-266.286q5.714-5.714 5.714-13.143z" />
<glyph unicode="&#xe91f;" glyph-name="angle-left" horiz-adv-x="384" d="M358.286 649.143q0-7.429-5.714-13.143l-224.571-224.571 224.571-224.571q5.714-5.714 5.714-13.143t-5.714-13.143l-28.571-28.571q-5.714-5.714-13.143-5.714t-13.143 5.714l-266.286 266.286q-5.714 5.714-5.714 13.143t5.714 13.143l266.286 266.286q5.714 5.714 13.143 5.714t13.143-5.714l28.571-28.571q5.714-5.714 5.714-13.143z" />
<glyph unicode="&#xe920;" glyph-name="lab" d="M956.29 155.518l-316.29 527.024v213.458h32c17.6 0 32 14.4 32 32s-14.4 32-32 32h-320c-17.6 0-32-14.4-32-32s14.4-32 32-32h32v-213.458l-316.288-527.024c-72.442-120.734-16.512-219.518 124.288-219.518h640c140.8 0 196.73 98.784 124.29 219.518zM241.038 320l206.962 344.938v231.062h128v-231.062l206.964-344.938h-541.926z" />
<glyph unicode="&#xe921;" glyph-name="clock" horiz-adv-x="896" d="M384 384h256l64 64-64 64h-128v192l-64 64-64-64v-320zM448 896c-247.438 0-448-200.562-448-448s200.562-448 448-448c247.438 0 448 200.562 448 448s-200.562 448-448 448zM448 128c-176.25 0-320 143.75-320 320 0 175.938 144.188 319.5 320 320 175.812-0.5 320-144.062 320-320 0-176.25-143.75-320-320-320z" />
<glyph unicode="&#xe922;" glyph-name="calendar" d="M938.688 864h-138.688v64c0 17.696-14.304 32-32 32s-32-14.304-32-32v-64h-192v64c0 17.696-14.336 32-32 32s-32-14.304-32-32v-64h-192v64c0 17.696-14.336 32-32 32s-32-14.304-32-32v-64h-138.656c-47.136 0-85.344-38.176-85.344-85.312v-757.344c0-47.136 38.208-85.344 85.344-85.344h853.344c47.136 0 85.312 38.208 85.312 85.344v757.344c0 47.136-38.176 85.312-85.312 85.312zM960 21.344c0-11.776-9.568-21.344-21.312-21.344h-853.344c-11.776 0-21.344 9.568-21.344 21.344v757.344c0 11.744 9.568 21.312 21.344 21.312h138.656v-64c0-17.696 14.336-32 32-32s32 14.304 32 32v64h192v-64c0-17.696 14.336-32 32-32s32 14.304 32 32v64h192v-64c0-17.696 14.304-32 32-32s32 14.304 32 32v64h138.688c11.744 0 21.312-9.568 21.312-21.312v-757.344zM224 576h128v-96h-128zM224 416h128v-96h-128zM224 256h128v-96h-128zM448 256h128v-96h-128zM448 416h128v-96h-128zM448 576h128v-96h-128zM672 256h128v-96h-128zM672 416h128v-96h-128zM672 576h128v-96h-128z" />
<glyph unicode="&#xe923;" glyph-name="angle-up" horiz-adv-x="658" d="M614.286 283.429q0-7.429-5.714-13.143l-28.571-28.571q-5.714-5.714-13.143-5.714t-13.143 5.714l-224.571 224.571-224.571-224.571q-5.714-5.714-13.143-5.714t-13.143 5.714l-28.571 28.571q-5.714 5.714-5.714 13.143t5.714 13.143l266.286 266.286q5.714 5.714 13.143 5.714t13.143-5.714l266.286-266.286q5.714-5.714 5.714-13.143z" />
<glyph unicode="&#xe924;" glyph-name="grid" d="M0.016 703.991h255.991v255.991h-255.991v-255.991zM384 703.991h255.991v255.991h-255.991v-255.991zM767.991 959.984v-255.991h255.991v255.991h-255.991zM0.016 320h255.991v255.991h-255.991v-255.991zM384 320h255.991v255.991h-255.991v-255.991zM767.991 320h255.991v255.991h-255.991v-255.991zM0.016-63.984h255.991v255.991h-255.991v-255.991zM384-63.984h255.991v255.991h-255.991v-255.991zM767.991-63.984h255.991v255.991h-255.991v-255.991z" />
<glyph unicode="&#xe925;" glyph-name="list" d="M0 960h256v-256h-256zM384 896h640v-128h-640zM0 576h256v-256h-256zM384 512h640v-128h-640zM0 192h256v-256h-256zM384 128h640v-128h-640z" />
<glyph unicode="&#xe926;" glyph-name="triangle-up" d="M768 243.2h-512l256 460.8 256-460.8z" />
<glyph unicode="&#xe927;" glyph-name="bars" horiz-adv-x="878" d="M877.714 192v-73.143q0-14.857-10.857-25.714t-25.714-10.857h-804.571q-14.857 0-25.714 10.857t-10.857 25.714v73.143q0 14.857 10.857 25.714t25.714 10.857h804.571q14.857 0 25.714-10.857t10.857-25.714zM877.714 484.571v-73.143q0-14.857-10.857-25.714t-25.714-10.857h-804.571q-14.857 0-25.714 10.857t-10.857 25.714v73.143q0 14.857 10.857 25.714t25.714 10.857h804.571q14.857 0 25.714-10.857t10.857-25.714zM877.714 777.143v-73.143q0-14.857-10.857-25.714t-25.714-10.857h-804.571q-14.857 0-25.714 10.857t-10.857 25.714v73.143q0 14.857 10.857 25.714t25.714 10.857h804.571q14.857 0 25.714-10.857t10.857-25.714z" />
<glyph unicode="&#xe928;" glyph-name="world" d="M496 960c-273.952 0-496-222.048-496-496s222.048-496 496-496 496 222.048 496 496-222.048 496-496 496zM927.2 480h-191.872c-1.76 70.88-14.368 138.592-36.736 200.576 43.2 18.016 83.136 41.984 119.552 70.304 64.736-72.672 105.216-167.040 109.056-270.88zM478.304 32.896c-53.184 44.288-97.792 101.792-130.432 168.576 41.888 13.088 86.272 20.256 132.128 21.728v-190.368c-0.576 0-1.12 0.032-1.696 0.064zM513.632 895.104c60.352-50.24 109.6-117.536 142.912-196.032-45.632-15.584-94.112-24.64-144.576-26.24v222.368c0.608-0.032 1.12-0.064 1.664-0.096zM566.944 889.664c88.32-14.688 167.552-55.936 229.248-115.648-33.504-25.696-70.112-47.456-109.696-63.936-29.12 69.024-69.984 130.048-119.552 179.584zM480 895.2v-222.368c-50.464 1.632-98.976 10.656-144.576 26.24 33.312 78.496 82.56 145.792 142.912 196.032 0.576 0.032 1.088 0.064 1.664 0.096zM305.472 710.048c-39.52 16.48-76.16 38.24-109.664 63.936 61.664 59.712 140.928 100.96 229.248 115.648-49.6-49.504-90.432-110.528-119.584-179.584zM323.36 669.568c49.344-17.12 101.92-27.104 156.64-28.768v-160.8h-191.328c1.728 67.008 13.6 131.040 34.688 189.568zM480 448v-192.8c-50.464-1.536-99.264-9.792-145.248-24.608-27.712 65.984-44.064 139.488-46.080 217.408h191.328zM425.056 38.336c-79.136 13.152-151.008 47.616-209.44 97.664 31.52 21.856 65.6 40.352 102.016 54.4 27.904-57.856 64.416-109.216 107.424-152.064zM512 32.8v190.368c45.824-1.472 90.24-8.64 132.128-21.728-32.672-66.784-77.248-124.288-130.432-168.576-0.544 0-1.12-0.032-1.696-0.064zM674.368 190.4c36.384-14.048 70.432-32.576 102.016-54.4-58.432-50.016-130.304-84.512-209.44-97.664 43.008 42.848 79.488 94.208 107.424 152.064zM657.248 230.592c-46.016 14.816-94.816 23.072-145.248 24.608v192.8h191.328c-2.016-77.92-18.4-151.424-46.080-217.408zM512 480v160.8c54.688 1.664 107.264 11.616 156.64 28.736 21.056-58.528 32.928-122.56 34.688-189.568h-191.328zM173.888 750.88c36.416-28.32 76.352-52.288 119.52-70.304-22.368-61.984-34.976-129.696-36.736-200.576h-191.872c3.84 103.84 44.32 198.208 109.088 270.88zM64.8 448h191.872c1.984-81.76 19.072-158.976 48.096-228.384-40.544-15.808-78.336-36.864-113.216-61.792-75.136 74.784-122.56 177.024-126.752 290.176zM800.448 157.856c-34.88 24.896-72.672 45.984-113.248 61.792 29.056 69.408 46.112 146.624 48.128 228.384h191.872c-4.192-113.184-51.648-215.424-126.752-290.176z" />
<glyph unicode="&#xe929;" glyph-name="quotes-left" d="M225 512c123.712 0 224-100.29 224-224 0-123.712-100.288-224-224-224s-224 100.288-224 224l-1 32c0 247.424 200.576 448 448 448v-128c-85.474 0-165.834-33.286-226.274-93.726-11.634-11.636-22.252-24.016-31.83-37.020 11.438 1.8 23.16 2.746 35.104 2.746zM801 512c123.71 0 224-100.29 224-224 0-123.712-100.29-224-224-224s-224 100.288-224 224l-1 32c0 247.424 200.576 448 448 448v-128c-85.474 0-165.834-33.286-226.274-93.726-11.636-11.636-22.254-24.016-31.832-37.020 11.44 1.8 23.16 2.746 35.106 2.746z" />
<glyph unicode="&#xe92a;" glyph-name="quotes-right" d="M800 320c-123.712 0-224 100.29-224 224 0 123.712 100.288 224 224 224s224-100.288 224-224l1-32c0-247.424-200.576-448-448-448v128c85.474 0 165.834 33.286 226.274 93.726 11.634 11.636 22.252 24.016 31.83 37.020-11.438-1.8-23.16-2.746-35.104-2.746zM224 320c-123.71 0-224 100.29-224 224 0 123.712 100.29 224 224 224s224-100.288 224-224l1-32c0-247.424-200.576-448-448-448v128c85.474 0 165.834 33.286 226.274 93.726 11.636 11.636 22.254 24.016 31.832 37.020-11.44-1.8-23.16-2.746-35.106-2.746z" />
<glyph unicode="&#xe92b;" glyph-name="check" horiz-adv-x="768" d="M640 768l-384-384-128 128-128-128 256-256 512 512-128 128z" />
<glyph unicode="&#xe92c;" glyph-name="in" d="M960 512c-35.376 0-64-28.656-64-64v-384h-768v384c0 35.344-28.624 64-64 64s-64-28.656-64-64v-448c0-35.344 28.624-64 64-64h896c35.376 0 64 28.656 64 64v448c0 35.344-28.624 64-64 64zM576 512v391.818c0 31.026-28.624 56.182-64 56.182s-64-25.156-64-56.182v-391.818h-192l256-256 256 256h-192z" />
<glyph unicode="&#xf099;" glyph-name="twitter" horiz-adv-x="951" d="M925.714 726.857q-38.286-56-92.571-95.429 0.571-8 0.571-24 0-74.286-21.714-148.286t-66-142-105.429-120.286-147.429-83.429-184.571-31.143q-154.857 0-283.429 82.857 20-2.286 44.571-2.286 128.571 0 229.143 78.857-60 1.143-107.429 36.857t-65.143 91.143q18.857-2.857 34.857-2.857 24.571 0 48.571 6.286-64 13.143-106 63.714t-42 117.429v2.286q38.857-21.714 83.429-23.429-37.714 25.143-60 65.714t-22.286 88q0 50.286 25.143 93.143 69.143-85.143 168.286-136.286t212.286-56.857q-4.571 21.714-4.571 42.286 0 76.571 54 130.571t130.571 54q80 0 134.857-58.286 62.286 12 117.143 44.571-21.143-65.714-81.143-101.714 53.143 5.714 106.286 28.571z" />
<glyph unicode="&#xf09a;" glyph-name="facebook, facebook-f" horiz-adv-x="585" d="M548 953.143v-150.857h-89.714q-49.143 0-66.286-20.571t-17.143-61.714v-108h167.429l-22.286-169.143h-145.143v-433.714h-174.857v433.714h-145.714v169.143h145.714v124.571q0 106.286 59.429 164.857t158.286 58.571q84 0 130.286-6.857z" />
<glyph unicode="&#xf0d5;" glyph-name="google-plus" horiz-adv-x="951" d="M420 505.143q0-20.571 18.286-40.286t44.286-38.857 51.714-42 44-59.429 18.286-81.143q0-51.429-27.429-98.857-41.143-69.714-120.571-102.571t-170.286-32.857q-75.429 0-140.857 23.714t-98 78.571q-21.143 34.286-21.143 74.857 0 46.286 25.429 85.714t67.714 65.714q74.857 46.857 230.857 57.143-18.286 24-27.143 42.286t-8.857 41.714q0 20.571 12 48.571-26.286-2.286-38.857-2.286-84.571 0-142.571 55.143t-58 139.714q0 46.857 20.571 90.857t56.571 74.857q44 37.714 104.286 56t124.286 18.286h238.857l-78.857-50.286h-74.857q42.286-36 64-76t21.714-91.429q0-41.143-14-74t-33.714-53.143-39.714-37.143-34-35.143-14-37.714zM336.571 560q21.714 0 44.571 9.429t37.714 24.857q30.286 32.571 30.286 90.857 0 33.143-9.714 71.429t-27.714 74-48.286 59.143-66.857 23.429q-24 0-47.143-11.143t-37.429-30q-26.857-33.714-26.857-91.429 0-26.286 5.714-55.714t18-58.857 29.714-52.857 42.857-38.286 55.143-14.857zM337.714 61.143q33.143 0 63.714 7.429t56.571 22.286 41.714 41.714 15.714 62.286q0 14.286-4 28t-8.286 24-15.429 23.714-16.857 20-22 19.714-20.857 16.571-23.714 17.143-20.857 14.857q-9.143 1.143-27.429 1.143-30.286 0-60-4t-61.429-14.286-55.429-26.286-39.143-42.571-15.429-60.286q0-40 20-70.571t52.286-47.429 68-25.143 72.857-8.286zM800.571 561.714h121.714v-61.714h-121.714v-125.143h-60v125.143h-121.143v61.714h121.143v124h60v-124z" />
<glyph unicode="&#xf105;" glyph-name="angle-right" horiz-adv-x="366" d="M340 411.429q0-7.429-5.714-13.143l-266.286-266.286q-5.714-5.714-13.143-5.714t-13.143 5.714l-28.571 28.571q-5.714 5.714-5.714 13.143t5.714 13.143l224.571 224.571-224.571 224.571q-5.714 5.714-5.714 13.143t5.714 13.143l28.571 28.571q5.714 5.714 13.143 5.714t13.143-5.714l266.286-266.286q5.714-5.714 5.714-13.143z" />
<glyph unicode="&#xf107;" glyph-name="angle-down" horiz-adv-x="658" d="M614.286 539.429q0-7.429-5.714-13.143l-266.286-266.286q-5.714-5.714-13.143-5.714t-13.143 5.714l-266.286 266.286q-5.714 5.714-5.714 13.143t5.714 13.143l28.571 28.571q5.714 5.714 13.143 5.714t13.143-5.714l224.571-224.571 224.571 224.571q5.714 5.714 13.143 5.714t13.143-5.714l28.571-28.571q5.714-5.714 5.714-13.143z" />
</font>
</defs>
</svg>
