<?xml version="1.0" standalone="no"?>
<!DOCTYPE svg PUBLIC "-//W3C//DTD SVG 1.1//EN" "http://www.w3.org/Graphics/SVG/1.1/DTD/svg11.dtd" >
<svg xmlns="http://www.w3.org/2000/svg" xmlns:xlink="http://www.w3.org/1999/xlink" version="1.1">
<metadata>
Created by FontForge 20161013 at Fri Aug 28 19:53:23 2015
 By ,,,
B't`NUL
</metadata>
<defs>
<font id="UntitledTTF" horiz-adv-x="1" >
  <font-face 
    font-family="UntitledTTF"
    font-weight="700"
    font-style="italic"
    font-stretch="normal"
    units-per-em="2000"
    panose-1="2 11 8 4 2 1 1 1 1 2"
    ascent="1580"
    descent="-420"
    x-height="969"
    cap-height="1400"
    bbox="-175 -28494 34610 1564"
    underline-thickness="-30720"
    underline-position="-3072"
    slope="-3072"
    unicode-range="U+0020-FEFF"
  />
<missing-glyph horiz-adv-x="1161" 
d="M26 1400h1109v-1400h-1109v1400zM923 212v976h-685v-976h685z" />
    <glyph glyph-name=".notdef" horiz-adv-x="1161" 
d="M26 1400h1109v-1400h-1109v1400zM923 212v976h-685v-976h685z" />
    <glyph glyph-name="glyph1" horiz-adv-x="0" 
 />
    <glyph glyph-name="glyph2" horiz-adv-x="495" 
 />
    <glyph glyph-name="space" unicode=" " horiz-adv-x="495" 
 />
    <glyph glyph-name="exclam" unicode="!" horiz-adv-x="538" 
d="M383 481h-227l143 919h313zM213 355q38 0 72 -15t60 -41t41.5 -60.5t15.5 -72.5t-15.5 -73t-41.5 -61t-60 -41.5t-72 -15.5t-73 15.5t-61 41.5t-41.5 61t-15.5 73t15.5 72.5t41.5 60.5t61 41t73 15z" />
    <glyph glyph-name="quotedbl" unicode="&#x22;" horiz-adv-x="1101" 
d="M676 1440l-127 -597h-260l127 597h260zM1092 1440l-127 -597h-260l127 597h260z" />
    <glyph glyph-name="numbersign" unicode="#" horiz-adv-x="1396" 
d="M508 1070l111 330h240l-111 -330h239l111 330h239l-111 -330h203l-75 -224h-203l-96 -285h202l-74 -224h-203l-113 -337h-239l113 337h-239l-113 -337h-240l113 337h-202l74 224h203l96 285h-204l76 224h203zM577 561h239l96 285h-239z" />
    <glyph glyph-name="dollar" unicode="$" horiz-adv-x="1400" 
d="M1210 1022q-61 42 -125 67t-125 38l-69 -324q76 -18 140.5 -46.5t111.5 -70.5t74 -98.5t27 -129.5q0 -96 -38 -174t-106 -135t-164 -90.5t-211 -39.5l-41 -192h-222l44 206q-51 9 -103.5 23.5t-103.5 35t-98.5 48t-87.5 63.5l150 208q31 -29 66.5 -51t73.5 -39t77 -29
t77 -19l68 320q-78 16 -142 45.5t-109.5 73t-70.5 101t-25 128.5q0 87 32.5 166t97.5 139.5t161 97.5t224 40l38 180h222l-42 -197q82 -15 167 -47.5t171 -89.5zM966 423q0 47 -32 76.5t-97 49.5l-60 -285q41 7 76 20.5t60 33.5t39 46t14 59zM557 977q0 -51 33 -81t89 -48
l62 291q-49 -7 -84 -23t-57 -37.5t-32.5 -48t-10.5 -53.5z" />
    <glyph glyph-name="percent" unicode="%" horiz-adv-x="2015" 
d="M593 1425q78 0 144 -26t114 -72.5t74.5 -111t26.5 -141.5q0 -83 -31 -157.5t-85.5 -130.5t-128.5 -89t-161 -33q-79 0 -145 26t-114 72.5t-75 111t-27 141.5q0 83 31 157.5t86 130.5t129.5 89t161.5 33zM581 1217q-38 0 -70 -15t-55 -40.5t-36 -60t-13 -72.5
q0 -35 11 -63.5t31 -49.5t47.5 -32.5t60.5 -11.5q38 0 70 15t55 40.5t36 60t13 72.5q0 34 -11 63t-31 50t-47.5 32.5t-60.5 11.5zM636 0h-275l1110 1400h275zM1562 736q78 0 144 -26t113.5 -72.5t74.5 -111.5t27 -142q0 -83 -31 -157.5t-85.5 -130.5t-129 -89t-161.5 -33
q-78 0 -144 26t-114 72.5t-75 111t-27 141.5q0 83 31 157.5t86 131t129.5 89.5t161.5 33zM1550 527q-38 0 -70 -15t-55 -40.5t-36 -60t-13 -72.5q0 -35 11 -63.5t31 -49t47.5 -32t59.5 -11.5q38 0 70 15t55 40.5t36 59.5t13 72q0 34 -11 63t-31 50t-47 32.5t-60 11.5z" />
    <glyph glyph-name="ampersand" unicode="&#x26;" horiz-adv-x="1436" 
d="M1334 633l-282 -315l254 -318h-329l-105 133q-39 -34 -83.5 -63t-95.5 -50t-109 -33t-125 -12q-90 0 -165 22.5t-128.5 66t-83.5 108t-30 147.5q0 82 27.5 147.5t73.5 119t106 96t125 78.5q-27 39 -46.5 75t-32.5 70.5t-19.5 69t-6.5 71.5q0 76 26 145t77.5 121t130 82.5
t183.5 30.5q85 0 157 -23.5t124.5 -65.5t81.5 -101.5t29 -131.5q0 -73 -28 -132t-75 -108t-108 -89.5t-127 -76.5l159 -200l252 281zM500 207q69 0 124.5 26t110.5 75l-212 267q-42 -24 -77.5 -49t-61.5 -53t-40.5 -58.5t-14.5 -65.5q0 -68 47.5 -105t123.5 -37zM541 1041
q0 -14 3.5 -29.5t12 -35t23 -44t36.5 -55.5q44 23 82 46t66 48t44 53t16 60q0 52 -36 81t-102 29q-39 0 -66.5 -12t-45 -33t-25.5 -49t-8 -59z" />
    <glyph glyph-name="quotesingle" unicode="'" horiz-adv-x="685" 
d="M676 1440l-127 -597h-260l127 597h260z" />
    <glyph glyph-name="parenleft" unicode="(" horiz-adv-x="789" 
d="M874 1215q-117 -44 -208.5 -126.5t-154 -188.5t-95.5 -228.5t-33 -245.5q0 -162 55 -284t171 -220l-119 -223q-189 125 -286 307t-97 420q0 107 21.5 215t63 209t102 194t138 170t171 136.5t202.5 95.5z" />
    <glyph glyph-name="parenright" unicode=")" horiz-adv-x="789" 
d="M-49 -78q117 44 208.5 126.5t154 188.5t95.5 228.5t33 245.5q0 162 -55 284t-171 220l119 223q189 -125 286 -307t97 -420q0 -107 -21.5 -215t-63 -209.5t-102 -193.5t-138 -170t-171.5 -137.5t-202 -94.5z" />
    <glyph glyph-name="asterisk" unicode="*" horiz-adv-x="946" 
d="M528 1199l46 241h203l-60 -261l249 56l22 -197l-253 -48l102 -202l-182 -100l-94 206l-176 -182l-138 135l183 177l-219 97l101 184z" />
    <glyph glyph-name="plus" unicode="+" horiz-adv-x="1200" 
d="M388 72l74 349h-346l47 223h347l74 349h228l-74 -349h346l-47 -223h-347l-74 -349h-228z" />
    <glyph glyph-name="comma" unicode="," horiz-adv-x="524" 
d="M403 316l-252 -596h-234l194 596h292z" />
    <glyph glyph-name="hyphen" unicode="-" horiz-adv-x="794" 
d="M673 418h-581l48 228h581z" />
    <glyph glyph-name="period" unicode="." horiz-adv-x="538" 
d="M206 363q39 0 74 -15.5t61.5 -42t42 -61.5t15.5 -74t-15.5 -74.5t-42 -62.5t-61.5 -42.5t-74 -15.5t-74.5 15.5t-62 42.5t-42.5 62.5t-16 74.5t16 74t42.5 61.5t62 42t74.5 15.5z" />
    <glyph glyph-name="slash" unicode="/" horiz-adv-x="1036" 
d="M134 -200h-281l1063 1740h281z" />
    <glyph glyph-name="zero" unicode="0" horiz-adv-x="1403" 
d="M848 1425q118 0 213.5 -40t163 -113t103.5 -176t36 -228q0 -102 -21.5 -208t-63.5 -205.5t-103.5 -186.5t-141.5 -152.5t-177.5 -103t-210.5 -37.5q-119 0 -214 40.5t-162.5 113.5t-103.5 175.5t-36 227.5q0 101 21.5 207t63.5 205t103.5 186.5t141.5 153t177 103.5
t211 38zM832 1167q-68 0 -125 -27t-103.5 -73t-81.5 -107t-58.5 -129t-35.5 -138.5t-12 -136.5q0 -74 16.5 -133.5t48 -101.5t77 -65t103.5 -23q68 0 125 27t103.5 72.5t81.5 106t59 128.5t36 139t12 138q0 75 -16.5 135t-48 101.5t-77.5 64t-104 22.5z" />
    <glyph glyph-name="one" unicode="1" horiz-adv-x="796" 
d="M536 0h-273l220 1040l-341 -118l61 284l635 216z" />
    <glyph glyph-name="two" unicode="2" horiz-adv-x="1121" 
d="M215 1200q34 41 80 81.5t103.5 72.5t127 51.5t150.5 19.5q113 0 196.5 -33.5t138 -89t81.5 -126t27 -145.5q0 -69 -17.5 -129t-54 -118t-92.5 -117.5t-134 -126.5l-331 -287h513l-55 -253h-912l47 214l559 484q56 48 93.5 88t60.5 76t32.5 69t9.5 68q0 33 -12 63
t-36.5 53.5t-61 37.5t-84.5 14q-42 0 -79.5 -11t-71.5 -31t-65 -47.5t-59 -60.5z" />
    <glyph glyph-name="three" unicode="3" horiz-adv-x="1125" 
d="M206 1225q41 45 89.5 82t107 63t127.5 40.5t152 14.5q104 0 186.5 -27t140.5 -74.5t88.5 -111.5t30.5 -139q0 -62 -19.5 -119t-55.5 -105.5t-88 -88t-116 -65.5q82 -38 127 -105.5t45 -158.5q0 -96 -39 -179t-110 -144.5t-172.5 -97t-225.5 -35.5q-165 0 -283 52
t-184 144l181 172q50 -61 126.5 -91.5t164.5 -30.5q65 0 115 16.5t83.5 45t51 68t17.5 84.5q0 38 -17 66.5t-47 47t-71.5 28t-91.5 9.5h-154l51 240h144q64 0 117 16.5t90.5 44.5t58 65.5t20.5 79.5q0 34 -15 61.5t-41.5 46.5t-63.5 29t-81 10q-48 0 -91 -12t-80.5 -32
t-69 -46t-56.5 -53z" />
    <glyph glyph-name="four" unicode="4" horiz-adv-x="1150" 
d="M921 508h195l-54 -252h-195l-54 -256h-270l54 256h-607l46 216l639 927h312l-615 -891h279l80 373h269z" />
    <glyph glyph-name="five" unicode="5" horiz-adv-x="1128" 
d="M1077 1149h-540l-66 -280h112q126 0 217 -38.5t146 -103.5t74 -151t1 -181q-22 -110 -72.5 -189.5t-123 -130.5t-162.5 -75.5t-191 -24.5q-149 0 -269 53.5t-198 159.5l177 170q60 -71 136.5 -102t165.5 -31q57 0 102.5 14t78.5 39t53 60t27 76t-0.5 79t-34.5 67.5
t-76.5 47t-126.5 17.5h-335l179 775h779z" />
    <glyph glyph-name="six" unicode="6" horiz-adv-x="1176" 
d="M630 917h11q96 0 181 -30.5t148.5 -86.5t100 -135.5t36.5 -176.5q0 -105 -41 -198.5t-114 -163t-174 -110.5t-222 -41q-103 0 -194 31.5t-159.5 89t-108 139.5t-39.5 183q0 46 9.5 94t31 100t56.5 108.5t86 118.5l468 561h342zM594 680q-58 0 -105 -19.5t-80.5 -53.5
t-51.5 -79t-18 -96q0 -47 16.5 -86t47 -67t73 -43.5t93.5 -15.5q56 0 103 19.5t80.5 53.5t52.5 79.5t19 97.5q0 48 -18 87t-49 66.5t-73 42t-90 14.5z" />
    <glyph glyph-name="seven" unicode="7" horiz-adv-x="1081" 
d="M1169 1176l-719 -1176h-322l715 1148h-653l53 252h970z" />
    <glyph glyph-name="eight" unicode="8" horiz-adv-x="1230" 
d="M770 1425q92 0 176.5 -25t149 -72t102.5 -114t38 -152q0 -60 -19.5 -115t-56.5 -102t-91.5 -85.5t-123.5 -64.5q82 -42 131.5 -108.5t49.5 -156.5q0 -94 -40.5 -177t-116 -144.5t-183.5 -97.5t-244 -36q-100 0 -188.5 25t-155 71.5t-105.5 112.5t-39 148q0 64 20.5 122
t59.5 107.5t96.5 88.5t132.5 65q-68 39 -108 100.5t-40 146.5q0 92 37.5 176t108.5 147.5t174.5 101.5t234.5 38zM618 596q-60 0 -109.5 -16.5t-85.5 -46t-55.5 -69t-19.5 -85.5q0 -38 17.5 -68.5t47 -51.5t69 -32t84.5 -11q61 0 111.5 16t87 44.5t56.5 68t20 86.5
q0 40 -18 70.5t-48.5 51.5t-71 32t-85.5 11zM751 1181q-59 0 -105.5 -16t-79 -44t-50 -66.5t-17.5 -82.5q0 -37 14.5 -65.5t40 -48t61.5 -30t80 -10.5q57 0 103.5 16t80 43.5t52 65.5t18.5 82q0 37 -16 66.5t-43.5 49t-63.5 30t-75 10.5z" />
    <glyph glyph-name="nine" unicode="9" horiz-adv-x="1176" 
d="M637 483h-10q-97 0 -182 30.5t-148 86.5t-99.5 135t-36.5 177q0 105 40.5 198.5t113.5 163t174 110.5t222 41q103 0 194.5 -31.5t159.5 -89t107.5 -139.5t39.5 -183q0 -46 -9 -94t-30.5 -100t-56.5 -108.5t-86 -118.5l-468 -561h-342zM674 720q57 0 104 19.5t80.5 53.5
t52 79t18.5 96q0 47 -17 86t-47.5 67t-73 43.5t-93.5 15.5q-56 0 -102.5 -19.5t-80.5 -53.5t-52.5 -79.5t-18.5 -97.5q0 -48 18 -87t49 -66.5t73 -42t90 -14.5z" />
    <glyph glyph-name="colon" unicode=":" horiz-adv-x="538" 
d="M339 995q39 0 74 -15.5t61.5 -42t42 -61.5t15.5 -74t-15.5 -74.5t-42 -62.5t-61.5 -42.5t-74 -15.5t-74.5 15.5t-62 42.5t-42.5 62.5t-16 74.5t16 74t42.5 61.5t62 42t74.5 15.5zM204 363q39 0 74 -15.5t61.5 -42t42 -61.5t15.5 -74t-15.5 -74.5t-42 -62.5t-61.5 -42.5
t-74 -15.5t-74 15.5t-62 42.5t-42.5 62.5t-15.5 74.5t15.5 74t42.5 61.5t62 42t74 15.5z" />
    <glyph glyph-name="semicolon" unicode=";" horiz-adv-x="524" 
d="M334 995q39 0 74 -15.5t61.5 -42t42 -61.5t15.5 -74t-15.5 -74.5t-42 -62.5t-61.5 -42.5t-74 -15.5t-74.5 15.5t-62 42.5t-42.5 62.5t-16 74.5t16 74t42.5 61.5t62 42t74.5 15.5zM403 316l-252 -596h-234l194 596h292z" />
    <glyph glyph-name="less" unicode="&#x3c;" horiz-adv-x="1200" 
d="M221 654l900 381l-60 -278l-620 -242l517 -243l-52 -242l-737 381z" />
    <glyph glyph-name="equal" unicode="=" horiz-adv-x="1200" 
d="M1001 209h-920l47 223h921zM1092 633h-921l47 223h921z" />
    <glyph glyph-name="greater" unicode="&#x3e;" horiz-adv-x="1200" 
d="M1002 411l-900 -381l60 278l620 242l-517 243l52 242l737 -381z" />
    <glyph glyph-name="question" unicode="?" horiz-adv-x="865" 
d="M167 478l72 340h109q149 0 217 49t68 130q0 40 -21.5 70t-59.5 50.5t-92 31t-118 10.5q-23 0 -52 -0.5t-47 -2.5l16 263q26 2 57 3.5t63 1.5q121 0 221.5 -26.5t172.5 -77t112 -123.5t40 -166q0 -91 -30.5 -167.5t-91.5 -133.5t-152.5 -93.5t-212.5 -47.5l-31 -111h-240z
M237 356q38 0 72 -15t60 -41t41.5 -60.5t15.5 -72.5q0 -39 -15.5 -73.5t-41.5 -61t-60 -42t-72 -15.5t-73 15.5t-61 41.5t-41.5 61t-15.5 73q0 39 15.5 73.5t41.5 60.5t61 41t73 15z" />
    <glyph glyph-name="at" unicode="@" horiz-adv-x="1866" 
d="M1323 -189q-107 -74 -223 -103.5t-240 -29.5q-107 0 -204 23.5t-179.5 68t-149.5 108.5t-113.5 145t-72 177.5t-25.5 205.5q0 124 29.5 239.5t85 217t135.5 185t181.5 144t222 93.5t257.5 33q156 0 291.5 -49.5t235.5 -139.5t157 -216.5t57 -281.5q0 -111 -27.5 -210.5
t-80.5 -174.5t-129.5 -119.5t-175.5 -44.5q-46 0 -84.5 10.5t-69 28.5t-53 42.5t-37.5 52.5q-42 -50 -102 -82t-142 -32q-73 0 -134.5 26t-105.5 73t-69 112.5t-25 144.5q0 88 29 168t80.5 140.5t122 96t153.5 35.5q81 0 137.5 -29.5t91.5 -81.5l19 91h211l-85 -396
q-5 -24 -7.5 -45.5t-2.5 -39.5q0 -61 24.5 -90.5t68.5 -29.5q41 0 72.5 29.5t53 78t32.5 111.5t11 129q0 113 -39.5 204.5t-110 156t-168.5 99t-215 34.5q-102 0 -190.5 -25.5t-162.5 -72t-132.5 -111t-99 -142.5t-61.5 -167.5t-21 -185.5q0 -128 40 -228t111 -168.5
t169.5 -104.5t214.5 -36q94 0 175 21.5t162 74.5zM942 695q-41 0 -75.5 -17.5t-59.5 -47.5t-38.5 -69.5t-13.5 -83.5q0 -41 12 -73.5t33.5 -55t50.5 -34.5t64 -12q42 0 76.5 17.5t59.5 47.5t39 70t14 84q0 39 -12 71.5t-33.5 55t-51 35t-65.5 12.5z" />
    <glyph glyph-name="A" unicode="A" horiz-adv-x="1465" 
d="M1335 0h-285l-51 326h-583l-188 -326h-304l831 1400h339zM564 583h395l-84 538z" />
    <glyph glyph-name="B" unicode="B" horiz-adv-x="1359" 
d="M892 1400q105 0 190 -24.5t145 -69t92.5 -107.5t32.5 -141q0 -60 -17.5 -114t-50.5 -100t-81 -81t-108 -56q44 -18 79.5 -52t58 -78t29 -97.5t-6.5 -110.5q-25 -108 -75.5 -179t-126.5 -113t-178.5 -59.5t-230.5 -17.5h-595l298 1400h545zM458 582l-72 -336l293 -1
q59 0 108 6.5t86.5 23.5t62 46t34.5 73q11 50 0.5 85.5t-40 58.5t-75 33.5t-104.5 10.5h-293zM579 1154l-69 -327h265q78 0 132.5 14t88.5 39.5t49.5 60.5t15.5 77q0 37 -17 62.5t-46 42t-68.5 24t-85.5 7.5h-265z" />
    <glyph glyph-name="C" unicode="C" horiz-adv-x="1451" 
d="M1354 224q-106 -119 -241 -184t-304 -65q-148 0 -272.5 48.5t-214.5 136t-140.5 209t-50.5 267.5q0 170 59.5 314.5t164.5 250t248 165t310 59.5q39 0 86.5 -4t99 -15.5t105 -33t105 -55.5t98.5 -82.5t86 -115.5l-232 -154q-58 95 -150 144t-214 49q-97 0 -183.5 -38
t-151 -105t-102 -159t-37.5 -199q0 -95 31 -171.5t85 -130.5t126.5 -83t155.5 -29q99 0 184 41t153 116z" />
    <glyph glyph-name="D" unicode="D" horiz-adv-x="1519" 
d="M842 1400q150 0 270 -44t203.5 -122.5t128 -187t44.5 -236.5q0 -168 -57.5 -315.5t-167.5 -257.5t-270 -173.5t-365 -63.5h-579l298 1400h495zM576 1139l-187 -878h272q125 0 224 39t167.5 108t104.5 163.5t36 205.5q0 80 -23 146.5t-70 114.5t-119 74.5t-171 26.5h-234z
" />
    <glyph glyph-name="E" unicode="E" horiz-adv-x="1294" 
d="M1162 578h-705l-69 -322h744l-55 -256h-1028l298 1400h1018l-55 -256h-733l-66 -310h706z" />
    <glyph glyph-name="F" unicode="F" horiz-adv-x="1250" 
d="M1150 567h-696l-120 -567h-285l298 1400h1007l-55 -257h-722l-68 -319h696z" />
    <glyph glyph-name="G" unicode="G" horiz-adv-x="1579" 
d="M1218 1015q-54 68 -135 107t-189 39q-99 0 -185.5 -38t-151 -106.5t-101.5 -163t-37 -208.5q0 -95 29.5 -171t83.5 -129t128.5 -81.5t164.5 -28.5q160 0 261.5 77.5t143.5 225.5h-362l51 233h621q2 -23 0 -49t-5 -52q-20 -161 -82.5 -290t-158.5 -219t-220 -138.5
t-268 -48.5q-146 0 -270 47.5t-214.5 133.5t-141.5 206t-51 265q0 173 60.5 319.5t166.5 253t250 166.5t311 60q51 0 117 -8.5t136 -33t138 -69t124 -116.5z" />
    <glyph glyph-name="H" unicode="H" horiz-adv-x="1532" 
d="M512 836h657l121 564h285l-299 -1400h-285l123 576h-658l-122 -576h-285l298 1400h285z" />
    <glyph glyph-name="I" unicode="I" horiz-adv-x="589" 
d="M334 0h-285l298 1400h285z" />
    <glyph glyph-name="J" unicode="J" horiz-adv-x="1074" 
d="M930 485q-28 -135 -77.5 -231.5t-118 -158.5t-156 -91t-192.5 -29q-67 0 -128.5 13.5t-115.5 39t-98.5 62t-77.5 83.5l177 197q19 -26 44 -49.5t56 -41t67.5 -27.5t77.5 -10q106 0 171 71.5t98 228.5l181 858h284z" />
    <glyph glyph-name="K" unicode="K" horiz-adv-x="1388" 
d="M511 833h105l549 567h362l-708 -701l476 -699h-327l-386 576h-126l-122 -576h-285l298 1400h285z" />
    <glyph glyph-name="L" unicode="L" horiz-adv-x="1184" 
d="M389 261h717l-56 -261h-1001l298 1400h285z" />
    <glyph glyph-name="M" unicode="M" horiz-adv-x="1824" 
d="M1569 0h-284l222 1039l-512 -904h-296l-146 905l-220 -1040h-284l298 1400h399l150 -952l547 952h424z" />
    <glyph glyph-name="N" unicode="N" horiz-adv-x="1545" 
d="M1290 0h-262l-490 964l-205 -964h-284l298 1400h263l489 -964l205 964h284z" />
    <glyph glyph-name="O" unicode="O" horiz-adv-x="1632" 
d="M915 1425q146 0 270.5 -47t215.5 -132.5t142.5 -206t51.5 -268.5q0 -109 -26 -210t-75 -189.5t-119 -161.5t-157.5 -125.5t-190.5 -81.5t-218 -29q-146 0 -270.5 47t-215.5 132.5t-142.5 206.5t-51.5 269q0 108 26 209t75 189.5t119 161.5t157.5 125.5t190.5 81.5t218 29
zM897 1158q-106 0 -193.5 -41.5t-150.5 -111.5t-97.5 -162.5t-34.5 -194.5q0 -93 30 -168t84 -128t128.5 -81.5t164.5 -28.5q105 0 192.5 41t150 111t97.5 162.5t35 195.5q0 92 -30 167t-84 128t-128.5 82t-163.5 29z" />
    <glyph glyph-name="P" unicode="P" horiz-adv-x="1279" 
d="M443 512l-109 -512h-285l298 1400h500q114 0 200.5 -29.5t145 -82t88.5 -123.5t30 -154q0 -113 -39 -205t-113.5 -157t-183 -101t-246.5 -36h-286zM577 1143l-80 -376h246q137 0 208.5 55.5t71.5 158.5q0 77 -52 119.5t-157 42.5h-237z" />
    <glyph glyph-name="Q" unicode="Q" horiz-adv-x="1664" 
d="M915 1425q146 0 270.5 -47t215.5 -132.5t142.5 -206t51.5 -268.5q0 -137 -41 -261t-117 -226l186 -284h-316l-66 99q-91 -60 -199.5 -92.5t-232.5 -32.5q-146 0 -270.5 47t-215.5 132.5t-142.5 206.5t-51.5 269q0 108 26 209t75 189.5t119 161.5t157.5 125.5t190.5 81.5
t218 29zM897 1158q-106 0 -193.5 -41.5t-150.5 -111.5t-97.5 -162.5t-34.5 -194.5q0 -93 30 -168t84 -128t128.5 -81.5t164.5 -28.5q75 0 140.5 21t120.5 59l-209 322h314l68 -104q20 49 30.5 102t10.5 110q0 92 -30 167t-84 128t-128.5 82t-163.5 29z" />
    <glyph glyph-name="R" unicode="R" horiz-adv-x="1329" 
d="M880 1400q113 0 200 -29.5t146 -80.5t89 -120t30 -148q0 -50 -11 -102.5t-35.5 -102.5t-64 -94.5t-96.5 -79.5t-134 -57.5t-175 -27.5l385 -558h-326l-362 557h-74l-118 -557h-285l298 1400h533zM577 1142l-73 -342h295q77 0 126.5 17t78.5 45t40.5 62t11.5 69
q0 69 -53.5 109t-156.5 40h-269z" />
    <glyph glyph-name="S" unicode="S" horiz-adv-x="1328" 
d="M1189 1037q-53 37 -108.5 61.5t-110.5 39.5t-106.5 21.5t-95.5 6.5q-69 0 -118 -14.5t-80 -39t-45.5 -56t-14.5 -64.5q0 -36 17 -61.5t46 -44t69 -31t87 -21.5l84 -16q88 -17 164 -46.5t131 -74.5t86.5 -108t31.5 -145q0 -107 -44 -194t-122.5 -148.5t-188.5 -94.5
t-242 -33q-64 0 -142 10t-158.5 33.5t-157.5 61t-138 91.5l161 224q50 -45 110 -76t121 -50t119 -27.5t103 -8.5q59 0 110 11.5t88.5 33t59 54t21.5 74.5q0 33 -15.5 57.5t-46 43.5t-77 33t-107.5 25l-89 17q-86 16 -156 47t-120.5 77.5t-78 108t-27.5 139.5q0 95 36 181
t107.5 150.5t177 102.5t245.5 38q63 0 131 -7t140 -25t145.5 -50t146.5 -82z" />
    <glyph glyph-name="T" unicode="T" horiz-adv-x="1193" 
d="M1301 1139h-419l-242 -1139h-285l242 1139h-427l56 261h1131z" />
    <glyph glyph-name="U" unicode="U" horiz-adv-x="1455" 
d="M1331 539q-31 -146 -89.5 -252.5t-142 -175.5t-191.5 -102.5t-237 -33.5q-116 0 -213.5 28.5t-168.5 84.5t-110.5 140.5t-39.5 196.5q0 68 17 151l176 824h286l-177 -827q-12 -57 -12 -102q0 -60 18.5 -103.5t53 -71t83 -41t108.5 -13.5q65 0 122.5 18t104 57.5t81 101
t52.5 148.5l176 833h285z" />
    <glyph glyph-name="V" unicode="V" horiz-adv-x="1433" 
d="M791 0h-340l-229 1400h284l164 -1118l630 1118h301z" />
    <glyph glyph-name="W" unicode="W" horiz-adv-x="2167" 
d="M1615 0h-330l-81 1003l-498 -1003h-344l-124 1400h282l79 -1078l529 1078h295l81 -1071l518 1071h297z" />
    <glyph glyph-name="X" unicode="X" horiz-adv-x="1341" 
d="M872 695l324 -695h-304l-213 486l-414 -486h-342l630 717l-312 683h303l202 -481l406 481h339z" />
    <glyph glyph-name="Y" unicode="Y" horiz-adv-x="1347" 
d="M832 552l-118 -552h-285l122 576l-348 824h298l230 -584l463 584h340z" />
    <glyph glyph-name="Z" unicode="Z" horiz-adv-x="1283" 
d="M1321 1175l-879 -918h717l-55 -257h-1090l50 231l877 912h-710l55 257h1082z" />
    <glyph glyph-name="bracketleft" unicode="[" horiz-adv-x="756" 
d="M536 -263h-543l354 1663h543l-50 -236h-279l-253 -1191h278z" />
    <glyph glyph-name="backslash" unicode="\" horiz-adv-x="1776" 
d="M288 1540h281l1063 -1740h-281z" />
    <glyph glyph-name="bracketright" unicode="]" horiz-adv-x="756" 
d="M256 1400h543l-354 -1663h-543l50 236h278l253 1191h-277z" />
    <glyph glyph-name="asciicircum" unicode="^" horiz-adv-x="1200" 
d="M184 635l357 765h243l357 -765h-266l-216 505l-214 -505h-261z" />
    <glyph glyph-name="underscore" unicode="_" horiz-adv-x="940" 
d="M775 -315h-950l45 212h950z" />
    <glyph glyph-name="grave" unicode="`" horiz-adv-x="1000" 
d="M628 1108l-264 315h312l201 -315h-249z" />
    <glyph glyph-name="a" unicode="a" horiz-adv-x="1199" 
d="M600 995q101 0 174 -32t118 -92l22 98h259l-206 -969h-254l17 80q-48 -48 -111.5 -77t-150.5 -29q-88 0 -163 34.5t-129.5 94.5t-85.5 141.5t-31 175.5q0 69 16.5 138.5t49 133.5t79 119t107 96t133 64.5t156.5 23.5zM548 218q54 0 101 20t83 55.5t59.5 83.5t30.5 105
q7 61 -6 110.5t-42.5 85t-72.5 55t-95 19.5q-59 0 -110 -24.5t-88 -66t-58 -97t-21 -117.5q0 -52 16 -94.5t45.5 -72.5t69.5 -46t88 -16z" />
    <glyph glyph-name="b" unicode="b" horiz-adv-x="1202" 
d="M602 -25q-102 0 -175 32t-118 92l-21 -99h-262l306 1440h262l-109 -510q44 30 99.5 48t129.5 18q92 0 170.5 -34.5t136 -94.5t90 -141.5t32.5 -175.5q0 -104 -37.5 -206.5t-107.5 -184.5t-170 -133t-226 -51zM653 751q-54 0 -101 -20t-83 -55t-59.5 -83t-30.5 -105
q-8 -61 5.5 -110.5t43 -85t72.5 -55t95 -19.5q60 0 110.5 24.5t88 66t58.5 96.5t21 117q0 52 -16.5 94.5t-45.5 72.5t-69.5 46t-88.5 16z" />
    <glyph glyph-name="c" unicode="c" horiz-adv-x="1023" 
d="M812 643q-24 34 -51 55.5t-54 33t-53 15.5t-49 4q-59 0 -109.5 -24t-87 -64.5t-57 -94.5t-20.5 -114q0 -52 16.5 -95t45.5 -74t68 -48t85 -17q60 0 112.5 23t97.5 71l171 -161q-75 -85 -175.5 -130.5t-215.5 -45.5q-107 0 -194 34.5t-149 96t-96 145.5t-34 183
q0 114 41 215t114.5 177t175.5 120.5t224 44.5q146 0 249.5 -58t163.5 -168z" />
    <glyph glyph-name="d" unicode="d" horiz-adv-x="1202" 
d="M600 995q101 0 174 -32t118 -92l122 569h262l-306 -1440h-257l17 79q-49 -47 -112 -76t-150 -29q-88 0 -163 34.5t-129.5 94.5t-85.5 141.5t-31 175.5q0 69 16.5 138.5t49 133.5t79 119t107 96t133 64.5t156.5 23.5zM548 218q54 0 101 20t83 55.5t59.5 83.5t30.5 105
q7 61 -6 110.5t-42.5 85t-72.5 55t-95 19.5q-59 0 -110 -24.5t-88 -66t-58 -97t-21 -117.5q0 -52 16 -94.5t45.5 -72.5t69.5 -46t88 -16z" />
    <glyph glyph-name="e" unicode="e" horiz-adv-x="1072" 
d="M910 111q-79 -70 -175 -103.5t-221 -33.5q-110 0 -195 32t-144 88.5t-89.5 134.5t-30.5 170q0 61 14 129t42.5 134.5t73.5 126.5t106.5 106t141.5 73t179 27q91 0 167 -28t131 -79.5t85 -124.5t30 -163q0 -25 -3 -52.5t-8 -54.5t-12 -51.5t-15 -43.5h-673
q3 -97 61 -149.5t161 -52.5q66 0 125 20t115 65zM597 770q-53 0 -93.5 -16.5t-71.5 -43.5t-52.5 -62t-35.5 -72h429q1 5 1 9v9q0 88 -48 132t-129 44z" />
    <glyph glyph-name="f" unicode="f" horiz-adv-x="818" 
d="M818 737h-284l-157 -737h-262l157 737h-179l49 232h179l31 144q37 171 132 261.5t255 90.5q90 0 160.5 -25t118.5 -66l-132 -195q-35 23 -71 33.5t-66 10.5q-52 0 -89 -35t-53 -112l-23 -107h283z" />
    <glyph glyph-name="g" unicode="g" horiz-adv-x="1194" 
d="M972 54q-24 -113 -71.5 -200t-116 -146t-156 -90t-191.5 -31q-133 0 -244.5 35t-211.5 104l122 206q72 -55 153.5 -85t171.5 -30q59 0 107.5 18t85 49.5t61 75.5t35.5 97l4 20q-45 -32 -101.5 -50.5t-131.5 -18.5q-92 0 -170 32t-135 88.5t-89 134t-32 169.5
q0 105 36.5 206.5t105.5 180.5t168 127.5t224 48.5q104 0 176 -32.5t115 -89.5l21 96h260zM544 248q59 0 109 21.5t86.5 59.5t57 90.5t20.5 115.5q0 48 -16 88t-44.5 69t-68.5 45.5t-87 16.5q-59 0 -109 -21.5t-86 -60t-56.5 -91.5t-20.5 -117q0 -47 16 -86.5t44.5 -68.5
t68 -45t86.5 -16z" />
    <glyph glyph-name="h" unicode="h" horiz-adv-x="1161" 
d="M742 995q76 0 136.5 -24t102.5 -67t64.5 -103t22.5 -131q0 -25 -2.5 -51.5t-8.5 -53.5l-121 -565h-262l117 544q7 31 7 64q0 30 -8 56t-26 45t-47 30t-70 11t-79.5 -12t-71.5 -39.5t-58.5 -71.5t-38.5 -107l-110 -520h-263l306 1440h262l-117 -553q59 61 126.5 84.5
t138.5 23.5z" />
    <glyph glyph-name="i" unicode="i" horiz-adv-x="521" 
d="M289 0h-263l206 969h263z" />
    <glyph glyph-name="j" unicode="j" horiz-adv-x="528" 
 />
    <glyph glyph-name="k" unicode="k" horiz-adv-x="1070" 
d="M422 624h78l321 345h329l-467 -477l288 -492h-289l-220 392h-90l-83 -392h-263l306 1440h263z" />
    <glyph glyph-name="l" unicode="l" horiz-adv-x="521" 
d="M289 0h-263l306 1440h263z" />
    <glyph glyph-name="m" unicode="m" horiz-adv-x="1809" 
d="M1379 995q78 0 140.5 -24t106 -67t67 -103t23.5 -131q0 -25 -2.5 -51.5t-8.5 -53.5l-122 -565h-262l117 544q7 31 7 64q0 30 -8 56t-26 45t-47.5 30t-71.5 11q-41 0 -79.5 -12t-71.5 -39.5t-58.5 -71.5t-38.5 -107l-110 -520h-261l116 544q8 39 7 76t-16.5 66t-47.5 46.5
t-86 17.5q-41 0 -79.5 -12t-71.5 -39.5t-58.5 -71.5t-38.5 -107l-110 -520h-262l206 969h252l-22 -98q61 70 133 97t147 27q104 0 177 -43.5t111 -118.5q36 45 77 76t85.5 50t91.5 27.5t95 8.5z" />
    <glyph glyph-name="n" unicode="n" horiz-adv-x="1161" 
d="M742 995q76 0 136.5 -24t102.5 -67t64.5 -103t22.5 -131q0 -25 -2.5 -51.5t-8.5 -53.5l-121 -565h-262l117 544q7 31 7 64q0 30 -8 56t-26 45t-47 30t-71 11q-41 0 -79.5 -12t-71.5 -39.5t-58.5 -71.5t-38.5 -107l-110 -520h-262l206 969h252l-22 -98q61 70 133 97
t147 27z" />
    <glyph glyph-name="o" unicode="o" horiz-adv-x="1171" 
d="M624 995q105 0 193.5 -34t153 -95t101 -146.5t36.5 -188.5q0 -114 -42 -215.5t-117 -177t-178 -120t-224 -44.5q-104 0 -193 33.5t-153.5 95t-101 147t-36.5 189.5q0 114 42 215t117 176.5t178 120t224 44.5zM606 752q-59 0 -109.5 -23.5t-87.5 -63.5t-58 -94.5
t-21 -115.5q0 -53 17 -96.5t48 -75t74 -49t94 -17.5q59 0 110 23.5t88.5 64t58.5 94.5t21 115q0 52 -17 96t-48 75.5t-74.5 49t-95.5 17.5z" />
    <glyph glyph-name="p" unicode="p" horiz-adv-x="1201" 
d="M601 -25q-101 0 -174 31.5t-118 91.5l-105 -498h-263l291 1369h256l-17 -79q48 46 111.5 76t150.5 30q88 0 163 -34.5t129.5 -94.5t85.5 -141.5t31 -175.5q0 -69 -16.5 -138.5t-49 -133.5t-79 -119t-107 -96t-133 -64.5t-156.5 -23.5zM653 751q-54 0 -101 -20t-83 -55
t-59.5 -83t-30.5 -105q-8 -61 5.5 -110.5t43 -85t72.5 -55t95 -19.5q59 0 110 24.5t88 66t58 96.5t21 117q0 52 -16 94.5t-45.5 72.5t-69.5 46t-88 16z" />
    <glyph glyph-name="q" unicode="q" horiz-adv-x="1200" 
d="M600 995q101 0 174 -32t118 -92l22 98h260l-291 -1369h-263l93 437q-43 -29 -98.5 -46t-127.5 -17q-92 0 -170.5 34.5t-135.5 94.5t-89.5 141.5t-32.5 175.5q0 69 16.5 138.5t49 133.5t79 119t107 96t133 64.5t156.5 23.5zM548 218q54 0 101 20t83 55.5t59.5 83.5
t30.5 105q7 61 -6 110.5t-42.5 85t-72.5 55t-95 19.5q-59 0 -110 -24.5t-88 -66t-58 -97t-21 -117.5q0 -52 16 -94.5t45.5 -72.5t69.5 -46t88 -16z" />
    <glyph glyph-name="r" unicode="r" horiz-adv-x="817" 
d="M288 0h-262l206 969h252l-23 -102q61 73 132 100.5t144 27.5q35 0 72.5 -7.5t71.5 -21.5l-84 -251q-29 15 -66.5 23t-74.5 8q-46 0 -87 -14t-75 -42.5t-59 -71.5t-38 -102z" />
    <glyph glyph-name="s" unicode="s" horiz-adv-x="967" 
d="M843 692q-34 21 -74.5 37t-82 26.5t-79.5 16t-68 5.5q-72 0 -111 -20.5t-44 -58.5q-3 -26 5.5 -41.5t26.5 -26t44.5 -17t59.5 -12.5l65 -12q82 -15 140 -42.5t93 -66t48 -87t6 -104.5q-9 -73 -42.5 -131t-90 -98.5t-135 -62.5t-176.5 -22q-58 0 -118.5 8.5t-118 25
t-110.5 41t-95 56.5l125 191q67 -46 149.5 -75.5t171.5 -29.5q86 0 128 23.5t47 66.5q4 37 -27.5 58t-106.5 34l-67 11q-83 13 -141.5 41t-94 67t-48.5 89t-6 109q9 74 42.5 130.5t88 95t128.5 58t164 19.5q123 0 228 -27.5t195 -79.5z" />
    <glyph glyph-name="t" unicode="t" horiz-adv-x="923" 
d="M876 737h-339l-75 -351q-9 -44 -5.5 -75.5t18.5 -52t40 -30.5t57 -10q42 0 84.5 14.5t84.5 40.5l92 -206q-68 -44 -144.5 -68t-164.5 -24q-101 0 -171.5 28.5t-111.5 82t-52 129t9 169.5l75 353h-181l50 232h181l62 288h263l-62 -288h340z" />
    <glyph glyph-name="u" unicode="u" horiz-adv-x="1152" 
d="M1013 401q-25 -119 -75.5 -200t-118.5 -131.5t-150.5 -72.5t-171.5 -22q-87 0 -160 23t-126 67.5t-82.5 110t-29.5 151.5q0 53 14 118l111 524h263l-116 -544q-7 -34 -7 -64q0 -75 43.5 -109t113.5 -34q43 0 81 14t69 42.5t54 71.5t35 101l110 522h264z" />
    <glyph glyph-name="v" unicode="v" horiz-adv-x="1085" 
d="M605 0h-301l-186 969h268l113 -704l390 704h284z" />
    <glyph glyph-name="w" unicode="w" horiz-adv-x="1703" 
d="M1156 295l345 674h283l-527 -969h-290l-76 656l-333 -656h-299l-133 969h262l75 -674l344 674h268z" />
    <glyph glyph-name="x" unicode="x" horiz-adv-x="1085" 
d="M694 475l262 -475h-285l-159 300l-258 -300h-315l449 495l-259 474h288l151 -305l256 305h316z" />
    <glyph glyph-name="y" unicode="y" horiz-adv-x="1120" 
d="M273 -404h-298l451 638l-313 735h282l196 -493l328 493h297z" />
    <glyph glyph-name="z" unicode="z" horiz-adv-x="1007" 
d="M964 770l-560 -537h472l-49 -233h-827l41 199l567 538h-464l50 232h813z" />
    <glyph glyph-name="braceleft" unicode="{" horiz-adv-x="874" 
d="M939 1168h-46q-95 0 -149.5 -42.5t-70.5 -140.5l-16 -94q-11 -68 -31 -121t-52.5 -93.5t-79 -69.5t-109.5 -48q53 -23 85.5 -56.5t47.5 -74t15 -86.5t-13 -95l-25 -94q-12 -47 -7.5 -81t24 -57t52 -34t75.5 -11h65l-50 -232h-86q-106 0 -179 36.5t-113.5 99t-48.5 146.5
t16 180l17 68q23 90 -24.5 138t-150.5 48l49 229q118 0 178 50t77 150l22 128q33 192 151.5 290.5t336.5 98.5h90z" />
    <glyph glyph-name="bar" unicode="|" horiz-adv-x="685" 
d="M313 -265h-260l354 1665h260z" />
    <glyph glyph-name="braceright" unicode="}" horiz-adv-x="874" 
d="M-29 -30h46q95 0 149 42.5t71 140.5l16 94q12 67 32 120.5t52.5 94t78 69.5t108.5 48q-53 22 -85.5 55.5t-47.5 74t-14.5 87t13.5 95.5l25 94q12 46 7.5 80.5t-24 57.5t-52 34t-75.5 11h-65l50 232h86q106 0 179 -36.5t113.5 -99t48.5 -146.5t-16 -180l-17 -68
q-23 -90 24.5 -138t150.5 -48l-49 -229q-118 0 -178 -50t-77 -150l-22 -128q-33 -192 -152 -290.5t-336 -98.5h-90z" />
    <glyph glyph-name="asciitilde" unicode="~" horiz-adv-x="1200" 
d="M1091 508q-74 -63 -151 -95.5t-162 -32.5q-67 0 -113.5 14t-85 30.5t-75.5 30.5t-84 14q-25 0 -47 -5.5t-44 -16t-45 -27t-48 -37.5l-100 173q74 63 151 95.5t162 32.5q67 0 113.5 -14t85 -30.5t75.5 -30.5t84 -14q49 0 91 21.5t93 64.5z" />
    <glyph glyph-name="uni00A0" unicode="&#xa0;" horiz-adv-x="495" 
 />
    <glyph glyph-name="exclamdown" unicode="&#xa1;" horiz-adv-x="538" 
d="M155 489h227l-143 -919h-313zM325 615q-38 0 -72 15t-60 41t-41.5 60.5t-15.5 72.5t15.5 72.5t41.5 61t60 42t72 15.5t72.5 -15.5t61 -42t42 -61t15.5 -72.5t-15.5 -72.5t-42 -60.5t-61 -41t-72.5 -15z" />
    <glyph glyph-name="cent" unicode="&#xa2;" horiz-adv-x="1400" 
d="M1058 861q-23 30 -47.5 49.5t-49.5 32.5l-107 -506q82 22 145 85l163 -158q-69 -78 -161.5 -122t-198.5 -50l-41 -192h-222l47 220q-69 24 -124.5 66t-94.5 98t-59.5 123.5t-20.5 143.5q0 107 37 203t104 170t160.5 121.5t206.5 57.5l42 197h222l-46 -216
q167 -50 255 -199zM548 668q0 -64 24.5 -114t66.5 -82l103 481q-44 -15 -79.5 -43.5t-61 -66t-39.5 -82t-14 -93.5z" />
    <glyph glyph-name="sterling" unicode="&#xa3;" horiz-adv-x="1400" 
d="M1130 0h-1044l54 253h152l72 338h-153l47 218h152l27 127q26 124 78.5 215.5t125.5 152.5t163 91t192 30q126 0 221.5 -41t155.5 -122l-199 -175q-74 80 -201 80q-48 0 -91 -14t-78 -47t-62 -86.5t-43 -131.5l-17 -79h473l-47 -218h-472l-71 -338h619z" />
    <glyph glyph-name="currency" unicode="&#xa4;" horiz-adv-x="1400" 
d="M1356 1082l-173 -143q29 -58 41.5 -125t3.5 -139q-9 -74 -38 -139.5t-74 -119.5l101 -127l-168 -139l-102 128q-59 -30 -124.5 -45.5t-134.5 -11.5q-73 4 -136 27.5t-115 62.5l-179 -149l-122 156l174 144q-30 58 -41.5 124.5t-3.5 138.5q9 73 37.5 138t73.5 119
l-102 129l168 140l103 -131q60 31 125.5 46.5t135.5 11.5q71 -4 134 -27t114 -61l179 147zM713 428q57 -3 109.5 15t94 53t69 84t34.5 106t-8 107.5t-47.5 89t-79.5 62t-104 26.5q-58 3 -110.5 -15.5t-94 -53t-69 -83t-34.5 -105.5t8 -108t47 -89.5t79.5 -62t105.5 -26.5z
" />
    <glyph glyph-name="yen" unicode="&#xa5;" horiz-adv-x="1400" 
d="M1151 269h-357l-57 -269h-270l57 269h-355l40 185h355l29 135h-357l41 185h273l-284 626h297l211 -508l424 508h324l-543 -626h280l-41 -185h-355l-29 -135h356z" />
    <glyph glyph-name="brokenbar" unicode="&#xa6;" horiz-adv-x="685" 
d="M519 706h-260l148 694h260zM313 -265h-260l148 694h260z" />
    <glyph glyph-name="section" unicode="&#xa7;" horiz-adv-x="1231" 
d="M1122 1091q-63 38 -146.5 67t-188.5 29q-49 0 -92.5 -9t-76.5 -25t-54.5 -38.5t-26.5 -49.5q-8 -40 5.5 -66.5t42.5 -44t70.5 -28t90.5 -17.5l64 -10q193 -30 278 -124t54 -240q-18 -82 -64.5 -138.5t-112.5 -94.5q45 -49 62 -113t1 -141q-19 -94 -72 -163t-128 -114.5
t-166 -67.5t-185 -22q-71 0 -142 10.5t-136 30.5t-121 50t-96 69l162 198q28 -23 65 -45t81.5 -39t95.5 -27t107 -10q49 0 93.5 8.5t79.5 24.5t57.5 39.5t28.5 53.5q7 37 -5 61.5t-41 41.5t-74.5 28t-103.5 21l-74 12q-82 14 -146 43.5t-105 73t-57 100.5t-1 126
q17 81 63.5 140.5t118.5 101.5q-48 49 -65 116t0 154q16 82 63.5 149t118 114.5t160.5 73t192 25.5q140 0 262.5 -35t214.5 -96zM534 692q-47 -19 -78.5 -49.5t-39.5 -71.5q-8 -36 6 -59t44.5 -38t74 -24.5t94.5 -16.5l64 -9q18 -3 35.5 -6t34.5 -8q42 18 70 46t36 63
q8 37 -4.5 63.5t-42.5 44.5t-76.5 29.5t-106.5 19.5l-73 10z" />
    <glyph glyph-name="dieresis" unicode="&#xa8;" horiz-adv-x="1070" 
 />
    <glyph glyph-name="copyright" unicode="&#xa9;" horiz-adv-x="1859" 
d="M923 -95q-159 0 -299.5 56.5t-246 157t-167 238t-61.5 299.5q0 113 31 221t88.5 203t137.5 175t178.5 138t212 90t236.5 32q106 0 204.5 -25.5t184 -73t156.5 -115t121.5 -151t78.5 -181t28 -205.5q0 -113 -31 -221t-88 -203t-137.5 -175t-178.5 -138t-211.5 -90
t-236.5 -32zM1018 1296q-90 0 -172 -23.5t-152.5 -66t-128.5 -101t-98.5 -128t-63 -147.5t-22.5 -160q0 -119 44.5 -219.5t120.5 -173t177.5 -113t214.5 -40.5q90 0 172 23.5t152.5 66t128.5 101t98.5 128t63 147.5t22.5 160q0 119 -44.5 219.5t-120.5 173t-177.5 113
t-214.5 40.5zM1188 811q-26 54 -71.5 82.5t-109.5 28.5q-48 0 -87.5 -19t-67.5 -51t-43 -74.5t-15 -90.5q0 -46 14.5 -81t40 -58.5t58.5 -35.5t71 -12q53 0 99.5 25t83.5 74l161 -121q-61 -86 -149.5 -135t-206.5 -49q-80 0 -152.5 25t-127.5 73.5t-87.5 119t-32.5 162.5
t32.5 174.5t92 144.5t142 98t183.5 36q64 0 122 -15t106.5 -43.5t85.5 -69t59 -92.5z" />
    <glyph glyph-name="ordfeminine" unicode="&#xaa;" horiz-adv-x="762" 
d="M501 1287q68 0 123 -17t93.5 -49t59 -78.5t20.5 -104.5q0 -37 -9 -79l-81 -381h-187l10 50q-35 -29 -81.5 -48.5t-103.5 -19.5q-51 0 -92.5 14.5t-71.5 40t-46 61.5t-16 78q0 54 21 98.5t60 76t95.5 49t127.5 17.5h178q1 5 1 10v10q0 48 -32.5 75t-103.5 27
q-57 0 -102 -17t-84 -38l-51 156q65 36 129 52.5t143 16.5zM407 715q40 0 80 18.5t72 48.5l17 79h-135q-56 0 -86.5 -22t-30.5 -59q0 -29 21 -47t62 -18z" />
    <glyph glyph-name="guillemotleft" unicode="&#xab;" horiz-adv-x="1087" 
d="M793 505l102 -363h-249l-109 390l276 390h275zM344 505l102 -363h-249l-109 390l276 390h275z" />
    <glyph glyph-name="logicalnot" unicode="&#xac;" horiz-adv-x="1200" 
d="M736 108l66 313h-693l47 223h921l-113 -536h-228z" />
    <glyph glyph-name="uni00AD" unicode="&#xad;" horiz-adv-x="794" 
d="M673 418h-581l48 228h581z" />
    <glyph glyph-name="registered" unicode="&#xae;" horiz-adv-x="1051" 
d="M662 1443q88 0 167.5 -31t139.5 -87t95 -134t35 -172q0 -95 -38.5 -182.5t-105 -155t-157 -107.5t-194.5 -40q-89 0 -168.5 31t-139.5 87t-95 134t-35 172q0 96 38 183.5t105 154.5t157.5 107t195.5 40zM611 668q71 0 133 28.5t107.5 76.5t72 110t26.5 128
q0 65 -23.5 120t-64 94.5t-94 61.5t-113.5 22q-73 0 -135.5 -28.5t-108.5 -76.5t-72 -109.5t-26 -127.5t24 -120.5t65 -94.5t95 -62t114 -22zM693 1195q41 0 71.5 -12.5t50 -33.5t27 -47.5t1.5 -54.5q-11 -51 -48.5 -79.5t-100.5 -36.5l108 -143h-131l-93 141h-7l-30 -141
h-116l86 407h182zM605 1094l-15 -71h75q25 0 40.5 7.5t19.5 25.5q5 18 -7.5 28t-37.5 10h-75z" />
    <glyph glyph-name="macron" unicode="&#xaf;" horiz-adv-x="1054" 
 />
    <glyph glyph-name="degree" unicode="&#xb0;" horiz-adv-x="852" 
d="M517 654q-78 0 -144.5 28.5t-115 77t-76.5 113t-28 137.5q0 84 31.5 159.5t87 131.5t132.5 89t167 33q77 0 143.5 -28.5t115 -77.5t76.5 -114.5t28 -138.5q0 -83 -32.5 -157.5t-88.5 -130.5t-132 -89t-164 -33zM530 857q36 0 69.5 15t60 41t42.5 61t16 75q0 34 -13 64.5
t-34.5 53.5t-51 36t-62.5 13q-36 0 -70 -15t-60 -40.5t-42 -60.5t-16 -75q0 -35 12.5 -66t34 -53.5t51 -35.5t63.5 -13z" />
    <glyph glyph-name="plusminus" unicode="&#xb1;" horiz-adv-x="1200" 
d="M452 317l55 259h-345l46 223h347l69 322h227l-69 -322h347l-47 -223h-347l-55 -259h-228zM959 0h-920l47 223h921z" />
    <glyph glyph-name="uni00B2" unicode="&#xb2;" horiz-adv-x="727" 
 />
    <glyph glyph-name="uni00B3" unicode="&#xb3;" horiz-adv-x="719" 
 />
    <glyph glyph-name="acute" unicode="&#xb4;" horiz-adv-x="1000" 
 />
    <glyph glyph-name="mu" unicode="&#xb5;" horiz-adv-x="1161" 
d="M-68 -400l293 1369h262l-117 -544q-7 -31 -7 -64q0 -30 8 -56t26 -45t47 -30t71 -11q41 0 79.5 12t71.5 39.5t58 71.5t39 107l110 520h262l-206 -969h-252l22 98q-61 -70 -133 -97t-147 -27q-81 0 -146 28l-85 -402h-256z" />
    <glyph glyph-name="paragraph" unicode="&#xb6;" horiz-adv-x="1287" 
d="M591 596q-95 4 -167 33t-120.5 77.5t-73 113.5t-24.5 141q0 47 10 97.5t33.5 99.5t61.5 93t95 77t134.5 52.5t178.5 19.5h245l-298 -1400h-202zM1067 1400h202l-298 -1400h-202z" />
    <glyph glyph-name="periodcentered" unicode="&#xb7;" horiz-adv-x="637" 
d="M335 726q39 0 74 -15.5t61.5 -42t42 -61.5t15.5 -74t-15.5 -74.5t-42 -62.5t-61.5 -42.5t-74 -15.5t-74.5 15.5t-62 42.5t-42.5 62.5t-16 74.5t16 74t42.5 61.5t62 42t74.5 15.5z" />
    <glyph glyph-name="cedilla" unicode="&#xb8;" horiz-adv-x="1000" 
 />
    <glyph glyph-name="uni00B9" unicode="&#xb9;" horiz-adv-x="530" 
 />
    <glyph glyph-name="ordmasculine" unicode="&#xba;" horiz-adv-x="855" 
d="M548 1287q74 0 137.5 -24t110 -67.5t72.5 -104.5t26 -135q0 -81 -30 -153t-83.5 -126t-126.5 -85.5t-160 -31.5q-74 0 -137 23.5t-109.5 67t-73 105t-26.5 136.5q0 81 30 152.5t83.5 125.5t126.5 85.5t160 31.5zM534 1106q-40 0 -74 -16t-59 -43.5t-39.5 -64.5t-14.5 -79
q0 -36 11.5 -65.5t32.5 -51.5t50 -34t64 -12q40 0 75 16t61 43.5t40.5 65t14.5 79.5q0 36 -12 66t-33.5 51t-51 33t-65.5 12z" />
    <glyph glyph-name="guillemotright" unicode="&#xbb;" horiz-adv-x="1087" 
d="M314 560l-102 363h249l109 -390l-276 -390h-275zM763 560l-102 363h249l109 -390l-276 -390h-275z" />
    <glyph glyph-name="onequarter" unicode="&#xbc;" horiz-adv-x="1654" 
 />
    <glyph glyph-name="onehalf" unicode="&#xbd;" horiz-adv-x="1763" 
 />
    <glyph glyph-name="threequarters" unicode="&#xbe;" horiz-adv-x="1820" 
 />
    <glyph glyph-name="questiondown" unicode="&#xbf;" horiz-adv-x="865" 
d="M698 492l-72 -340h-109q-149 0 -217 -49t-68 -130q0 -40 21.5 -70.5t59.5 -50.5t91.5 -30.5t118.5 -10.5q23 0 52 0.5t47 2.5l-16 -263q-26 -2 -57 -3.5t-63 -1.5q-122 0 -222.5 26.5t-172.5 77t-111.5 123.5t-39.5 166q0 91 30.5 167t91.5 133.5t152 94t212 47.5l32 111
h240zM628 614q-38 0 -72 15t-60 41t-41.5 60.5t-15.5 72.5q0 39 15.5 73.5t41.5 61t60 42t72 15.5t72.5 -15.5t61 -42t42 -61t15.5 -72.5q0 -39 -15.5 -73.5t-42 -60.5t-61 -41t-72.5 -15z" />
    <glyph glyph-name="Agrave" unicode="&#xc0;" horiz-adv-x="1465" 
d="M1335 0h-285l-51 326h-583l-188 -326h-304l831 1400h339zM564 583h395l-84 538z" />
    <glyph glyph-name="Aacute" unicode="&#xc1;" horiz-adv-x="1465" 
d="M1335 0h-285l-51 326h-583l-188 -326h-304l831 1400h339zM564 583h395l-84 538z" />
    <glyph glyph-name="Acircumflex" unicode="&#xc2;" horiz-adv-x="1465" 
d="M1335 0h-285l-51 326h-583l-188 -326h-304l831 1400h339zM564 583h395l-84 538z" />
    <glyph glyph-name="Atilde" unicode="&#xc3;" horiz-adv-x="1465" 
d="M1335 0h-285l-51 326h-583l-188 -326h-304l831 1400h339zM564 583h395l-84 538z" />
    <glyph glyph-name="Adieresis" unicode="&#xc4;" horiz-adv-x="1465" 
d="M1335 0h-285l-51 326h-583l-188 -326h-304l831 1400h339zM564 583h395l-84 538z" />
    <glyph glyph-name="Aring" unicode="&#xc5;" horiz-adv-x="1465" 
d="M1335 0h-285l-51 326h-583l-188 -326h-304l831 1400h339zM564 583h395l-84 538z" />
    <glyph glyph-name="AE" unicode="&#xc6;" horiz-adv-x="2301" 
d="M2084 0h-1028l62 294h-572l-269 -294h-358l1307 1400h1146l-55 -256h-733l-66 -310h706l-55 -256h-705l-69 -322h744zM1173 551l119 559l-511 -559h392z" />
    <glyph glyph-name="Ccedilla" unicode="&#xc7;" horiz-adv-x="1451" 
d="M1354 224q-106 -119 -241 -184t-304 -65q-148 0 -272.5 48.5t-214.5 136t-140.5 209t-50.5 267.5q0 170 59.5 314.5t164.5 250t248 165t310 59.5q39 0 86.5 -4t99 -15.5t105 -33t105 -55.5t98.5 -82.5t86 -115.5l-232 -154q-58 95 -150 144t-214 49q-97 0 -183.5 -38
t-151 -105t-102 -159t-37.5 -199q0 -95 31 -171.5t85 -130.5t126.5 -83t155.5 -29q99 0 184 41t153 116z" />
    <glyph glyph-name="Egrave" unicode="&#xc8;" horiz-adv-x="1294" 
d="M1162 578h-705l-69 -322h744l-55 -256h-1028l298 1400h1018l-55 -256h-733l-66 -310h706z" />
    <glyph glyph-name="Eacute" unicode="&#xc9;" horiz-adv-x="1294" 
d="M1162 578h-705l-69 -322h744l-55 -256h-1028l298 1400h1018l-55 -256h-733l-66 -310h706z" />
    <glyph glyph-name="Ecircumflex" unicode="&#xca;" horiz-adv-x="1294" 
d="M1162 578h-705l-69 -322h744l-55 -256h-1028l298 1400h1018l-55 -256h-733l-66 -310h706z" />
    <glyph glyph-name="Edieresis" unicode="&#xcb;" horiz-adv-x="1294" 
d="M1162 578h-705l-69 -322h744l-55 -256h-1028l298 1400h1018l-55 -256h-733l-66 -310h706z" />
    <glyph glyph-name="Igrave" unicode="&#xcc;" horiz-adv-x="589" 
d="M334 0h-285l298 1400h285z" />
    <glyph glyph-name="Iacute" unicode="&#xcd;" horiz-adv-x="589" 
d="M334 0h-285l298 1400h285z" />
    <glyph glyph-name="Icircumflex" unicode="&#xce;" horiz-adv-x="589" 
d="M334 0h-285l298 1400h285z" />
    <glyph glyph-name="Idieresis" unicode="&#xcf;" horiz-adv-x="589" 
d="M334 0h-285l298 1400h285z" />
    <glyph glyph-name="Eth" unicode="&#xd0;" horiz-adv-x="1635" 
d="M958 1400q150 0 270 -44t203.5 -122.5t128 -187t44.5 -236.5q0 -168 -57.5 -315.5t-167.5 -257.5t-270 -173.5t-365 -63.5h-579l123 581h-176l53 250h177l121 569h495zM895 581h-322l-68 -320h272q125 0 224 39t167.5 108t104.5 163.5t36 205.5q0 80 -23 146.5t-70 114.5
t-119 74.5t-171 26.5h-234l-65 -308h322z" />
    <glyph glyph-name="Ntilde" unicode="&#xd1;" horiz-adv-x="1545" 
d="M1290 0h-262l-490 964l-205 -964h-284l298 1400h263l489 -964l205 964h284z" />
    <glyph glyph-name="Ograve" unicode="&#xd2;" horiz-adv-x="1632" 
d="M915 1425q146 0 270.5 -47t215.5 -132.5t142.5 -206t51.5 -268.5q0 -109 -26 -210t-75 -189.5t-119 -161.5t-157.5 -125.5t-190.5 -81.5t-218 -29q-146 0 -270.5 47t-215.5 132.5t-142.5 206.5t-51.5 269q0 108 26 209t75 189.5t119 161.5t157.5 125.5t190.5 81.5t218 29
zM897 1158q-106 0 -193.5 -41.5t-150.5 -111.5t-97.5 -162.5t-34.5 -194.5q0 -93 30 -168t84 -128t128.5 -81.5t164.5 -28.5q105 0 192.5 41t150 111t97.5 162.5t35 195.5q0 92 -30 167t-84 128t-128.5 82t-163.5 29z" />
    <glyph glyph-name="Oacute" unicode="&#xd3;" horiz-adv-x="1632" 
d="M915 1425q146 0 270.5 -47t215.5 -132.5t142.5 -206t51.5 -268.5q0 -109 -26 -210t-75 -189.5t-119 -161.5t-157.5 -125.5t-190.5 -81.5t-218 -29q-146 0 -270.5 47t-215.5 132.5t-142.5 206.5t-51.5 269q0 108 26 209t75 189.5t119 161.5t157.5 125.5t190.5 81.5t218 29
zM897 1158q-106 0 -193.5 -41.5t-150.5 -111.5t-97.5 -162.5t-34.5 -194.5q0 -93 30 -168t84 -128t128.5 -81.5t164.5 -28.5q105 0 192.5 41t150 111t97.5 162.5t35 195.5q0 92 -30 167t-84 128t-128.5 82t-163.5 29z" />
    <glyph glyph-name="Ocircumflex" unicode="&#xd4;" horiz-adv-x="1632" 
d="M915 1425q146 0 270.5 -47t215.5 -132.5t142.5 -206t51.5 -268.5q0 -109 -26 -210t-75 -189.5t-119 -161.5t-157.5 -125.5t-190.5 -81.5t-218 -29q-146 0 -270.5 47t-215.5 132.5t-142.5 206.5t-51.5 269q0 108 26 209t75 189.5t119 161.5t157.5 125.5t190.5 81.5t218 29
zM897 1158q-106 0 -193.5 -41.5t-150.5 -111.5t-97.5 -162.5t-34.5 -194.5q0 -93 30 -168t84 -128t128.5 -81.5t164.5 -28.5q105 0 192.5 41t150 111t97.5 162.5t35 195.5q0 92 -30 167t-84 128t-128.5 82t-163.5 29z" />
    <glyph glyph-name="Otilde" unicode="&#xd5;" horiz-adv-x="1632" 
d="M915 1425q146 0 270.5 -47t215.5 -132.5t142.5 -206t51.5 -268.5q0 -109 -26 -210t-75 -189.5t-119 -161.5t-157.5 -125.5t-190.5 -81.5t-218 -29q-146 0 -270.5 47t-215.5 132.5t-142.5 206.5t-51.5 269q0 108 26 209t75 189.5t119 161.5t157.5 125.5t190.5 81.5t218 29
zM897 1158q-106 0 -193.5 -41.5t-150.5 -111.5t-97.5 -162.5t-34.5 -194.5q0 -93 30 -168t84 -128t128.5 -81.5t164.5 -28.5q105 0 192.5 41t150 111t97.5 162.5t35 195.5q0 92 -30 167t-84 128t-128.5 82t-163.5 29z" />
    <glyph glyph-name="Odieresis" unicode="&#xd6;" horiz-adv-x="1632" 
d="M915 1425q146 0 270.5 -47t215.5 -132.5t142.5 -206t51.5 -268.5q0 -109 -26 -210t-75 -189.5t-119 -161.5t-157.5 -125.5t-190.5 -81.5t-218 -29q-146 0 -270.5 47t-215.5 132.5t-142.5 206.5t-51.5 269q0 108 26 209t75 189.5t119 161.5t157.5 125.5t190.5 81.5t218 29
zM897 1158q-106 0 -193.5 -41.5t-150.5 -111.5t-97.5 -162.5t-34.5 -194.5q0 -93 30 -168t84 -128t128.5 -81.5t164.5 -28.5q105 0 192.5 41t150 111t97.5 162.5t35 195.5q0 92 -30 167t-84 128t-128.5 82t-163.5 29z" />
    <glyph glyph-name="multiply" unicode="&#xd7;" horiz-adv-x="1200" 
d="M801 107l-210 266l-352 -292l-137 172l338 279l-219 279l178 147l210 -266l352 291l137 -172l-338 -278l219 -279z" />
    <glyph glyph-name="Oslash" unicode="&#xd8;" horiz-adv-x="1632" 
d="M915 1425q131 0 243.5 -37t200.5 -106l165 147l152 -172l-167 -148q42 -72 64 -156.5t22 -181.5q0 -109 -26 -210t-75 -189.5t-119 -161.5t-157.5 -125.5t-190.5 -81.5t-218 -29q-125 0 -233 34t-195 97l-150 -134l-152 171l146 130q-46 75 -71 164.5t-25 192.5
q0 108 26 209t75 189.5t119 161.5t157.5 125.5t190.5 81.5t218 29zM897 1158q-106 0 -193.5 -41.5t-150.5 -111.5t-97.5 -162.5t-34.5 -194.5q0 -95 32 -173l687 612q-50 35 -111 53t-132 18zM1303 752q0 81 -25 151l-677 -602q48 -29 104.5 -44t122.5 -15q105 0 192.5 41
t150 111t97.5 162.5t35 195.5z" />
    <glyph glyph-name="Ugrave" unicode="&#xd9;" horiz-adv-x="1455" 
d="M1331 539q-31 -146 -89.5 -252.5t-142 -175.5t-191.5 -102.5t-237 -33.5q-116 0 -213.5 28.5t-168.5 84.5t-110.5 140.5t-39.5 196.5q0 68 17 151l176 824h286l-177 -827q-12 -57 -12 -102q0 -60 18.5 -103.5t53 -71t83 -41t108.5 -13.5q65 0 122.5 18t104 57.5t81 101
t52.5 148.5l176 833h285z" />
    <glyph glyph-name="Uacute" unicode="&#xda;" horiz-adv-x="1455" 
d="M1331 539q-31 -146 -89.5 -252.5t-142 -175.5t-191.5 -102.5t-237 -33.5q-116 0 -213.5 28.5t-168.5 84.5t-110.5 140.5t-39.5 196.5q0 68 17 151l176 824h286l-177 -827q-12 -57 -12 -102q0 -60 18.5 -103.5t53 -71t83 -41t108.5 -13.5q65 0 122.5 18t104 57.5t81 101
t52.5 148.5l176 833h285z" />
    <glyph glyph-name="Ucircumflex" unicode="&#xdb;" horiz-adv-x="1455" 
d="M1331 539q-31 -146 -89.5 -252.5t-142 -175.5t-191.5 -102.5t-237 -33.5q-116 0 -213.5 28.5t-168.5 84.5t-110.5 140.5t-39.5 196.5q0 68 17 151l176 824h286l-177 -827q-12 -57 -12 -102q0 -60 18.5 -103.5t53 -71t83 -41t108.5 -13.5q65 0 122.5 18t104 57.5t81 101
t52.5 148.5l176 833h285z" />
    <glyph glyph-name="Udieresis" unicode="&#xdc;" horiz-adv-x="1455" 
d="M1331 539q-31 -146 -89.5 -252.5t-142 -175.5t-191.5 -102.5t-237 -33.5q-116 0 -213.5 28.5t-168.5 84.5t-110.5 140.5t-39.5 196.5q0 68 17 151l176 824h286l-177 -827q-12 -57 -12 -102q0 -60 18.5 -103.5t53 -71t83 -41t108.5 -13.5q65 0 122.5 18t104 57.5t81 101
t52.5 148.5l176 833h285z" />
    <glyph glyph-name="Yacute" unicode="&#xdd;" horiz-adv-x="1347" 
d="M832 552l-118 -552h-285l122 576l-348 824h298l230 -584l463 584h340z" />
    <glyph glyph-name="Thorn" unicode="&#xde;" horiz-adv-x="1294" 
d="M581 1160h231q113 0 199.5 -29.5t145 -82t88.5 -124t30 -154.5q0 -113 -39 -204.5t-113.5 -157t-183 -101t-246.5 -35.5h-301l-58 -272h-285l298 1400h285zM526 902l-80 -375h261q137 0 208.5 55.5t71.5 158.5q0 76 -52 118.5t-157 42.5h-252z" />
    <glyph glyph-name="germandbls" unicode="&#xdf;" horiz-adv-x="1205" 
d="M231 993q24 111 67 198.5t109.5 148.5t158 93t211.5 32q105 0 187 -29t138.5 -79t86 -116.5t29.5 -141.5q0 -64 -20.5 -124t-57.5 -110t-89.5 -88.5t-115.5 -59.5q49 -16 88 -51.5t64 -84t34 -106t-3 -116.5q-22 -107 -69 -180.5t-113 -118.5t-149 -65t-177 -20
q-67 0 -121.5 9.5t-94.5 26.5l74 218q27 -12 62.5 -19t71.5 -7q47 0 89.5 9t76 30.5t57.5 57t33 89.5q8 48 -2.5 87.5t-39.5 68t-75.5 44t-109.5 15.5h-42l49 225h10q72 0 124 13.5t92 43.5q21 15 36.5 36.5t26.5 45t16.5 47.5t5.5 46q0 37 -15 67t-40.5 51.5t-59 33.5
t-71.5 12q-107 0 -175.5 -59t-96.5 -191l-207 -975h-263z" />
    <glyph glyph-name="agrave" unicode="&#xe0;" horiz-adv-x="1199" 
d="M600 995q101 0 174 -32t118 -92l22 98h259l-206 -969h-254l17 80q-48 -48 -111.5 -77t-150.5 -29q-88 0 -163 34.5t-129.5 94.5t-85.5 141.5t-31 175.5q0 69 16.5 138.5t49 133.5t79 119t107 96t133 64.5t156.5 23.5zM548 218q54 0 101 20t83 55.5t59.5 83.5t30.5 105
q7 61 -6 110.5t-42.5 85t-72.5 55t-95 19.5q-59 0 -110 -24.5t-88 -66t-58 -97t-21 -117.5q0 -52 16 -94.5t45.5 -72.5t69.5 -46t88 -16z" />
    <glyph glyph-name="aacute" unicode="&#xe1;" horiz-adv-x="1199" 
d="M600 995q101 0 174 -32t118 -92l22 98h259l-206 -969h-254l17 80q-48 -48 -111.5 -77t-150.5 -29q-88 0 -163 34.5t-129.5 94.5t-85.5 141.5t-31 175.5q0 69 16.5 138.5t49 133.5t79 119t107 96t133 64.5t156.5 23.5zM548 218q54 0 101 20t83 55.5t59.5 83.5t30.5 105
q7 61 -6 110.5t-42.5 85t-72.5 55t-95 19.5q-59 0 -110 -24.5t-88 -66t-58 -97t-21 -117.5q0 -52 16 -94.5t45.5 -72.5t69.5 -46t88 -16z" />
    <glyph glyph-name="acircumflex" unicode="&#xe2;" horiz-adv-x="1199" 
d="M600 995q101 0 174 -32t118 -92l22 98h259l-206 -969h-254l17 80q-48 -48 -111.5 -77t-150.5 -29q-88 0 -163 34.5t-129.5 94.5t-85.5 141.5t-31 175.5q0 69 16.5 138.5t49 133.5t79 119t107 96t133 64.5t156.5 23.5zM548 218q54 0 101 20t83 55.5t59.5 83.5t30.5 105
q7 61 -6 110.5t-42.5 85t-72.5 55t-95 19.5q-59 0 -110 -24.5t-88 -66t-58 -97t-21 -117.5q0 -52 16 -94.5t45.5 -72.5t69.5 -46t88 -16z" />
    <glyph glyph-name="atilde" unicode="&#xe3;" horiz-adv-x="1199" 
d="M600 995q101 0 174 -32t118 -92l22 98h259l-206 -969h-254l17 80q-48 -48 -111.5 -77t-150.5 -29q-88 0 -163 34.5t-129.5 94.5t-85.5 141.5t-31 175.5q0 69 16.5 138.5t49 133.5t79 119t107 96t133 64.5t156.5 23.5zM548 218q54 0 101 20t83 55.5t59.5 83.5t30.5 105
q7 61 -6 110.5t-42.5 85t-72.5 55t-95 19.5q-59 0 -110 -24.5t-88 -66t-58 -97t-21 -117.5q0 -52 16 -94.5t45.5 -72.5t69.5 -46t88 -16z" />
    <glyph glyph-name="adieresis" unicode="&#xe4;" horiz-adv-x="1199" 
d="M600 995q101 0 174 -32t118 -92l22 98h259l-206 -969h-254l17 80q-48 -48 -111.5 -77t-150.5 -29q-88 0 -163 34.5t-129.5 94.5t-85.5 141.5t-31 175.5q0 69 16.5 138.5t49 133.5t79 119t107 96t133 64.5t156.5 23.5zM548 218q54 0 101 20t83 55.5t59.5 83.5t30.5 105
q7 61 -6 110.5t-42.5 85t-72.5 55t-95 19.5q-59 0 -110 -24.5t-88 -66t-58 -97t-21 -117.5q0 -52 16 -94.5t45.5 -72.5t69.5 -46t88 -16z" />
    <glyph glyph-name="aring" unicode="&#xe5;" horiz-adv-x="1199" 
d="M600 995q101 0 174 -32t118 -92l22 98h259l-206 -969h-254l17 80q-48 -48 -111.5 -77t-150.5 -29q-88 0 -163 34.5t-129.5 94.5t-85.5 141.5t-31 175.5q0 69 16.5 138.5t49 133.5t79 119t107 96t133 64.5t156.5 23.5zM548 218q54 0 101 20t83 55.5t59.5 83.5t30.5 105
q7 61 -6 110.5t-42.5 85t-72.5 55t-95 19.5q-59 0 -110 -24.5t-88 -66t-58 -97t-21 -117.5q0 -52 16 -94.5t45.5 -72.5t69.5 -46t88 -16z" />
    <glyph glyph-name="ae" unicode="&#xe6;" horiz-adv-x="1700" 
d="M1537 111q-79 -70 -175 -103.5t-221 -33.5q-128 0 -221 43t-150 118q-77 -73 -173 -116.5t-219 -43.5q-79 0 -142.5 19t-107.5 54.5t-68 86t-24 112.5q0 76 29.5 137.5t84 104.5t132 66t173.5 23h257q3 19 3 39q0 69 -46.5 108.5t-150.5 39.5q-77 0 -138 -22t-114 -51
l-79 205q89 52 179 75t199 23q113 0 195 -35t129 -107q64 69 151 105.5t199 36.5q91 0 167.5 -28t131 -79.5t85 -124.5t30.5 -163q0 -25 -3 -52.5t-8.5 -54.5t-12.5 -51.5t-15 -43.5h-673q3 -97 61 -149.5t161 -52.5q67 0 126 20t114 65zM435 185q62 0 131.5 29t129.5 90
q-9 45 -9 95v3h-206q-81 0 -127 -32t-46 -88q0 -45 33 -71t94 -26zM1224 770q-53 0 -94.5 -16.5t-72.5 -44.5t-52.5 -63.5t-34.5 -73.5h430q1 5 1 11v11q0 88 -48 132t-129 44z" />
    <glyph glyph-name="ccedilla" unicode="&#xe7;" horiz-adv-x="1023" 
d="M812 643q-24 34 -51 55.5t-54 33t-53 15.5t-49 4q-59 0 -109.5 -24t-87 -64.5t-57 -94.5t-20.5 -114q0 -52 16.5 -95t45.5 -74t68 -48t85 -17q60 0 112.5 23t97.5 71l171 -161q-75 -85 -175.5 -130.5t-215.5 -45.5q-107 0 -194 34.5t-149 96t-96 145.5t-34 183
q0 114 41 215t114.5 177t175.5 120.5t224 44.5q146 0 249.5 -58t163.5 -168z" />
    <glyph glyph-name="egrave" unicode="&#xe8;" horiz-adv-x="1072" 
d="M910 111q-79 -70 -175 -103.5t-221 -33.5q-110 0 -195 32t-144 88.5t-89.5 134.5t-30.5 170q0 61 14 129t42.5 134.5t73.5 126.5t106.5 106t141.5 73t179 27q91 0 167 -28t131 -79.5t85 -124.5t30 -163q0 -25 -3 -52.5t-8 -54.5t-12 -51.5t-15 -43.5h-673
q3 -97 61 -149.5t161 -52.5q66 0 125 20t115 65zM597 770q-53 0 -93.5 -16.5t-71.5 -43.5t-52.5 -62t-35.5 -72h429q1 5 1 9v9q0 88 -48 132t-129 44z" />
    <glyph glyph-name="eacute" unicode="&#xe9;" horiz-adv-x="1072" 
d="M910 111q-79 -70 -175 -103.5t-221 -33.5q-110 0 -195 32t-144 88.5t-89.5 134.5t-30.5 170q0 61 14 129t42.5 134.5t73.5 126.5t106.5 106t141.5 73t179 27q91 0 167 -28t131 -79.5t85 -124.5t30 -163q0 -25 -3 -52.5t-8 -54.5t-12 -51.5t-15 -43.5h-673
q3 -97 61 -149.5t161 -52.5q66 0 125 20t115 65zM597 770q-53 0 -93.5 -16.5t-71.5 -43.5t-52.5 -62t-35.5 -72h429q1 5 1 9v9q0 88 -48 132t-129 44z" />
    <glyph glyph-name="ecircumflex" unicode="&#xea;" horiz-adv-x="1072" 
d="M910 111q-79 -70 -175 -103.5t-221 -33.5q-110 0 -195 32t-144 88.5t-89.5 134.5t-30.5 170q0 61 14 129t42.5 134.5t73.5 126.5t106.5 106t141.5 73t179 27q91 0 167 -28t131 -79.5t85 -124.5t30 -163q0 -25 -3 -52.5t-8 -54.5t-12 -51.5t-15 -43.5h-673
q3 -97 61 -149.5t161 -52.5q66 0 125 20t115 65zM597 770q-53 0 -93.5 -16.5t-71.5 -43.5t-52.5 -62t-35.5 -72h429q1 5 1 9v9q0 88 -48 132t-129 44z" />
    <glyph glyph-name="edieresis" unicode="&#xeb;" horiz-adv-x="1072" 
d="M910 111q-79 -70 -175 -103.5t-221 -33.5q-110 0 -195 32t-144 88.5t-89.5 134.5t-30.5 170q0 61 14 129t42.5 134.5t73.5 126.5t106.5 106t141.5 73t179 27q91 0 167 -28t131 -79.5t85 -124.5t30 -163q0 -25 -3 -52.5t-8 -54.5t-12 -51.5t-15 -43.5h-673
q3 -97 61 -149.5t161 -52.5q66 0 125 20t115 65zM597 770q-53 0 -93.5 -16.5t-71.5 -43.5t-52.5 -62t-35.5 -72h429q1 5 1 9v9q0 88 -48 132t-129 44z" />
    <glyph glyph-name="igrave" unicode="&#xec;" horiz-adv-x="521" 
d="M289 0h-263l206 969h263z" />
    <glyph glyph-name="iacute" unicode="&#xed;" horiz-adv-x="521" 
d="M289 0h-263l206 969h263z" />
    <glyph glyph-name="icircumflex" unicode="&#xee;" horiz-adv-x="521" 
d="M289 0h-263l206 969h263z" />
    <glyph glyph-name="idieresis" unicode="&#xef;" horiz-adv-x="521" 
d="M289 0h-263l206 969h263z" />
    <glyph glyph-name="eth" unicode="&#xf0;" horiz-adv-x="1170" 
d="M1029 1289l-158 -90q121 -129 180.5 -285.5t59.5 -324.5q0 -61 -9 -131q-13 -105 -60.5 -194t-120.5 -153.5t-167 -100.5t-201 -36q-108 0 -199 34t-156.5 94t-102 142t-36.5 178q0 107 39.5 201t108 164.5t159.5 111.5t194 41q84 0 152.5 -25t119.5 -71
q-52 135 -176 241l-211 -120l-81 141l147 82q-79 46 -169 84l141 186q74 -29 139 -65.5t122 -78.5l204 116zM599 709q-69 0 -120 -26t-84.5 -66t-50 -88.5t-16.5 -93.5q0 -50 17.5 -92t49.5 -72t76.5 -47t97.5 -17q75 0 127.5 27.5t85 68.5t47.5 88.5t15 87.5q0 51 -18 93.5
t-50.5 72.5t-77.5 47t-99 17z" />
    <glyph glyph-name="ntilde" unicode="&#xf1;" horiz-adv-x="1161" 
d="M742 995q76 0 136.5 -24t102.5 -67t64.5 -103t22.5 -131q0 -25 -2.5 -51.5t-8.5 -53.5l-121 -565h-262l117 544q7 31 7 64q0 30 -8 56t-26 45t-47 30t-71 11q-41 0 -79.5 -12t-71.5 -39.5t-58.5 -71.5t-38.5 -107l-110 -520h-262l206 969h252l-22 -98q61 70 133 97
t147 27z" />
    <glyph glyph-name="ograve" unicode="&#xf2;" horiz-adv-x="1171" 
d="M624 995q105 0 193.5 -34t153 -95t101 -146.5t36.5 -188.5q0 -114 -42 -215.5t-117 -177t-178 -120t-224 -44.5q-104 0 -193 33.5t-153.5 95t-101 147t-36.5 189.5q0 114 42 215t117 176.5t178 120t224 44.5zM606 752q-59 0 -109.5 -23.5t-87.5 -63.5t-58 -94.5
t-21 -115.5q0 -53 17 -96.5t48 -75t74 -49t94 -17.5q59 0 110 23.5t88.5 64t58.5 94.5t21 115q0 52 -17 96t-48 75.5t-74.5 49t-95.5 17.5z" />
    <glyph glyph-name="oacute" unicode="&#xf3;" horiz-adv-x="1171" 
d="M624 995q105 0 193.5 -34t153 -95t101 -146.5t36.5 -188.5q0 -114 -42 -215.5t-117 -177t-178 -120t-224 -44.5q-104 0 -193 33.5t-153.5 95t-101 147t-36.5 189.5q0 114 42 215t117 176.5t178 120t224 44.5zM606 752q-59 0 -109.5 -23.5t-87.5 -63.5t-58 -94.5
t-21 -115.5q0 -53 17 -96.5t48 -75t74 -49t94 -17.5q59 0 110 23.5t88.5 64t58.5 94.5t21 115q0 52 -17 96t-48 75.5t-74.5 49t-95.5 17.5z" />
    <glyph glyph-name="ocircumflex" unicode="&#xf4;" horiz-adv-x="1171" 
d="M624 995q105 0 193.5 -34t153 -95t101 -146.5t36.5 -188.5q0 -114 -42 -215.5t-117 -177t-178 -120t-224 -44.5q-104 0 -193 33.5t-153.5 95t-101 147t-36.5 189.5q0 114 42 215t117 176.5t178 120t224 44.5zM606 752q-59 0 -109.5 -23.5t-87.5 -63.5t-58 -94.5
t-21 -115.5q0 -53 17 -96.5t48 -75t74 -49t94 -17.5q59 0 110 23.5t88.5 64t58.5 94.5t21 115q0 52 -17 96t-48 75.5t-74.5 49t-95.5 17.5z" />
    <glyph glyph-name="otilde" unicode="&#xf5;" horiz-adv-x="1171" 
d="M624 995q105 0 193.5 -34t153 -95t101 -146.5t36.5 -188.5q0 -114 -42 -215.5t-117 -177t-178 -120t-224 -44.5q-104 0 -193 33.5t-153.5 95t-101 147t-36.5 189.5q0 114 42 215t117 176.5t178 120t224 44.5zM606 752q-59 0 -109.5 -23.5t-87.5 -63.5t-58 -94.5
t-21 -115.5q0 -53 17 -96.5t48 -75t74 -49t94 -17.5q59 0 110 23.5t88.5 64t58.5 94.5t21 115q0 52 -17 96t-48 75.5t-74.5 49t-95.5 17.5z" />
    <glyph glyph-name="odieresis" unicode="&#xf6;" horiz-adv-x="1171" 
d="M624 995q105 0 193.5 -34t153 -95t101 -146.5t36.5 -188.5q0 -114 -42 -215.5t-117 -177t-178 -120t-224 -44.5q-104 0 -193 33.5t-153.5 95t-101 147t-36.5 189.5q0 114 42 215t117 176.5t178 120t224 44.5zM606 752q-59 0 -109.5 -23.5t-87.5 -63.5t-58 -94.5
t-21 -115.5q0 -53 17 -96.5t48 -75t74 -49t94 -17.5q59 0 110 23.5t88.5 64t58.5 94.5t21 115q0 52 -17 96t-48 75.5t-74.5 49t-95.5 17.5z" />
    <glyph glyph-name="divide" unicode="&#xf7;" horiz-adv-x="1200" 
d="M1049 431h-921l47 223h921zM675 1058q33 0 62 -13t51.5 -35t35.5 -51.5t13 -62.5t-13 -63t-35.5 -52.5t-51.5 -35.5t-62 -13t-63 13t-52.5 35.5t-35.5 52.5t-13 63t13 62.5t35.5 51.5t52.5 35t63 13zM562 354q33 0 62 -13t51.5 -35.5t35.5 -52t13 -62.5t-13 -63
t-35.5 -52.5t-51.5 -35.5t-62 -13t-63 13t-52.5 35.5t-35.5 52.5t-13 63t13 62.5t35.5 52t52.5 35.5t63 13z" />
    <glyph glyph-name="oslash" unicode="&#xf8;" horiz-adv-x="1171" 
d="M624 995q84 0 157 -21.5t133 -61.5l124 110l135 -151l-122 -108q28 -51 43 -108.5t15 -123.5q0 -114 -42 -215.5t-117 -177t-178 -120t-224 -44.5q-84 0 -156.5 21t-132.5 61l-124 -110l-135 151l121 108q-28 51 -43 109.5t-15 124.5q0 114 42 215t117 176.5t178 120
t224 44.5zM607 759q-60 0 -112 -24t-90 -65.5t-59.5 -97t-21.5 -118.5q0 -40 9 -73l393 350q-54 28 -119 28zM848 515q0 18 -2 34.5t-6 33.5l-391 -348q52 -25 113 -25t113.5 24t90.5 65.5t60 97t22 118.5z" />
    <glyph glyph-name="ugrave" unicode="&#xf9;" horiz-adv-x="1152" 
d="M1013 401q-25 -119 -75.5 -200t-118.5 -131.5t-150.5 -72.5t-171.5 -22q-87 0 -160 23t-126 67.5t-82.5 110t-29.5 151.5q0 53 14 118l111 524h263l-116 -544q-7 -34 -7 -64q0 -75 43.5 -109t113.5 -34q43 0 81 14t69 42.5t54 71.5t35 101l110 522h264z" />
    <glyph glyph-name="uacute" unicode="&#xfa;" horiz-adv-x="1152" 
d="M1013 401q-25 -119 -75.5 -200t-118.5 -131.5t-150.5 -72.5t-171.5 -22q-87 0 -160 23t-126 67.5t-82.5 110t-29.5 151.5q0 53 14 118l111 524h263l-116 -544q-7 -34 -7 -64q0 -75 43.5 -109t113.5 -34q43 0 81 14t69 42.5t54 71.5t35 101l110 522h264z" />
    <glyph glyph-name="ucircumflex" unicode="&#xfb;" horiz-adv-x="1152" 
d="M1013 401q-25 -119 -75.5 -200t-118.5 -131.5t-150.5 -72.5t-171.5 -22q-87 0 -160 23t-126 67.5t-82.5 110t-29.5 151.5q0 53 14 118l111 524h263l-116 -544q-7 -34 -7 -64q0 -75 43.5 -109t113.5 -34q43 0 81 14t69 42.5t54 71.5t35 101l110 522h264z" />
    <glyph glyph-name="udieresis" unicode="&#xfc;" horiz-adv-x="1152" 
d="M1013 401q-25 -119 -75.5 -200t-118.5 -131.5t-150.5 -72.5t-171.5 -22q-87 0 -160 23t-126 67.5t-82.5 110t-29.5 151.5q0 53 14 118l111 524h263l-116 -544q-7 -34 -7 -64q0 -75 43.5 -109t113.5 -34q43 0 81 14t69 42.5t54 71.5t35 101l110 522h264z" />
    <glyph glyph-name="yacute" unicode="&#xfd;" horiz-adv-x="1120" 
d="M273 -404h-298l451 638l-313 735h282l196 -493l328 493h297z" />
    <glyph glyph-name="thorn" unicode="&#xfe;" horiz-adv-x="1201" 
d="M601 -25q-102 0 -174.5 31.5t-117.5 91.5l-105 -498h-263l391 1840h263l-109 -509q43 30 98.5 47.5t129.5 17.5q92 0 170.5 -34.5t135.5 -94.5t89.5 -142t32.5 -176q0 -69 -17 -138.5t-49 -133t-79 -119t-107 -96t-132.5 -64t-156.5 -23.5zM652 751q-54 0 -101 -20
t-83 -55t-59.5 -83t-30.5 -105q-8 -61 5.5 -110.5t43 -85t72.5 -55t95 -19.5q60 0 110.5 24.5t88 66t58.5 96.5t21 117q0 52 -16.5 94.5t-45.5 72.5t-69.5 46t-88.5 16z" />
    <glyph glyph-name="ydieresis" unicode="&#xff;" horiz-adv-x="1120" 
d="M273 -404h-298l451 638l-313 735h282l196 -493l328 493h297z" />
    <glyph glyph-name="Amacron" unicode="&#x100;" horiz-adv-x="1465" 
d="M1335 0h-285l-51 326h-583l-188 -326h-304l831 1400h339zM564 583h395l-84 538z" />
    <glyph glyph-name="amacron" unicode="&#x101;" horiz-adv-x="1199" 
d="M600 995q101 0 174 -32t118 -92l22 98h259l-206 -969h-254l17 80q-48 -48 -111.5 -77t-150.5 -29q-88 0 -163 34.5t-129.5 94.5t-85.5 141.5t-31 175.5q0 69 16.5 138.5t49 133.5t79 119t107 96t133 64.5t156.5 23.5zM548 218q54 0 101 20t83 55.5t59.5 83.5t30.5 105
q7 61 -6 110.5t-42.5 85t-72.5 55t-95 19.5q-59 0 -110 -24.5t-88 -66t-58 -97t-21 -117.5q0 -52 16 -94.5t45.5 -72.5t69.5 -46t88 -16z" />
    <glyph glyph-name="Abreve" unicode="&#x102;" horiz-adv-x="1465" 
d="M1335 0h-285l-51 326h-583l-188 -326h-304l831 1400h339zM564 583h395l-84 538z" />
    <glyph glyph-name="abreve" unicode="&#x103;" horiz-adv-x="1199" 
d="M600 995q101 0 174 -32t118 -92l22 98h259l-206 -969h-254l17 80q-48 -48 -111.5 -77t-150.5 -29q-88 0 -163 34.5t-129.5 94.5t-85.5 141.5t-31 175.5q0 69 16.5 138.5t49 133.5t79 119t107 96t133 64.5t156.5 23.5zM548 218q54 0 101 20t83 55.5t59.5 83.5t30.5 105
q7 61 -6 110.5t-42.5 85t-72.5 55t-95 19.5q-59 0 -110 -24.5t-88 -66t-58 -97t-21 -117.5q0 -52 16 -94.5t45.5 -72.5t69.5 -46t88 -16z" />
    <glyph glyph-name="Aogonek" unicode="&#x104;" horiz-adv-x="1465" 
d="M1335 0h-285l-51 326h-583l-188 -326h-304l831 1400h339zM564 583h395l-84 538z" />
    <glyph glyph-name="aogonek" unicode="&#x105;" horiz-adv-x="1199" 
d="M600 995q101 0 174 -32t118 -92l22 98h259l-206 -969h-254l17 80q-48 -48 -111.5 -77t-150.5 -29q-88 0 -163 34.5t-129.5 94.5t-85.5 141.5t-31 175.5q0 69 16.5 138.5t49 133.5t79 119t107 96t133 64.5t156.5 23.5zM548 218q54 0 101 20t83 55.5t59.5 83.5t30.5 105
q7 61 -6 110.5t-42.5 85t-72.5 55t-95 19.5q-59 0 -110 -24.5t-88 -66t-58 -97t-21 -117.5q0 -52 16 -94.5t45.5 -72.5t69.5 -46t88 -16z" />
    <glyph glyph-name="Cacute" unicode="&#x106;" horiz-adv-x="1451" 
d="M1354 224q-106 -119 -241 -184t-304 -65q-148 0 -272.5 48.5t-214.5 136t-140.5 209t-50.5 267.5q0 170 59.5 314.5t164.5 250t248 165t310 59.5q39 0 86.5 -4t99 -15.5t105 -33t105 -55.5t98.5 -82.5t86 -115.5l-232 -154q-58 95 -150 144t-214 49q-97 0 -183.5 -38
t-151 -105t-102 -159t-37.5 -199q0 -95 31 -171.5t85 -130.5t126.5 -83t155.5 -29q99 0 184 41t153 116z" />
    <glyph glyph-name="cacute" unicode="&#x107;" horiz-adv-x="1023" 
d="M812 643q-24 34 -51 55.5t-54 33t-53 15.5t-49 4q-59 0 -109.5 -24t-87 -64.5t-57 -94.5t-20.5 -114q0 -52 16.5 -95t45.5 -74t68 -48t85 -17q60 0 112.5 23t97.5 71l171 -161q-75 -85 -175.5 -130.5t-215.5 -45.5q-107 0 -194 34.5t-149 96t-96 145.5t-34 183
q0 114 41 215t114.5 177t175.5 120.5t224 44.5q146 0 249.5 -58t163.5 -168z" />
    <glyph glyph-name="Ccircumflex" unicode="&#x108;" horiz-adv-x="1451" 
d="M1354 224q-106 -119 -241 -184t-304 -65q-148 0 -272.5 48.5t-214.5 136t-140.5 209t-50.5 267.5q0 170 59.5 314.5t164.5 250t248 165t310 59.5q39 0 86.5 -4t99 -15.5t105 -33t105 -55.5t98.5 -82.5t86 -115.5l-232 -154q-58 95 -150 144t-214 49q-97 0 -183.5 -38
t-151 -105t-102 -159t-37.5 -199q0 -95 31 -171.5t85 -130.5t126.5 -83t155.5 -29q99 0 184 41t153 116z" />
    <glyph glyph-name="ccircumflex" unicode="&#x109;" horiz-adv-x="1023" 
d="M812 643q-24 34 -51 55.5t-54 33t-53 15.5t-49 4q-59 0 -109.5 -24t-87 -64.5t-57 -94.5t-20.5 -114q0 -52 16.5 -95t45.5 -74t68 -48t85 -17q60 0 112.5 23t97.5 71l171 -161q-75 -85 -175.5 -130.5t-215.5 -45.5q-107 0 -194 34.5t-149 96t-96 145.5t-34 183
q0 114 41 215t114.5 177t175.5 120.5t224 44.5q146 0 249.5 -58t163.5 -168z" />
    <glyph glyph-name="Cdotaccent" unicode="&#x10a;" horiz-adv-x="1451" 
d="M1354 224q-106 -119 -241 -184t-304 -65q-148 0 -272.5 48.5t-214.5 136t-140.5 209t-50.5 267.5q0 170 59.5 314.5t164.5 250t248 165t310 59.5q39 0 86.5 -4t99 -15.5t105 -33t105 -55.5t98.5 -82.5t86 -115.5l-232 -154q-58 95 -150 144t-214 49q-97 0 -183.5 -38
t-151 -105t-102 -159t-37.5 -199q0 -95 31 -171.5t85 -130.5t126.5 -83t155.5 -29q99 0 184 41t153 116z" />
    <glyph glyph-name="cdotaccent" unicode="&#x10b;" horiz-adv-x="1023" 
d="M812 643q-24 34 -51 55.5t-54 33t-53 15.5t-49 4q-59 0 -109.5 -24t-87 -64.5t-57 -94.5t-20.5 -114q0 -52 16.5 -95t45.5 -74t68 -48t85 -17q60 0 112.5 23t97.5 71l171 -161q-75 -85 -175.5 -130.5t-215.5 -45.5q-107 0 -194 34.5t-149 96t-96 145.5t-34 183
q0 114 41 215t114.5 177t175.5 120.5t224 44.5q146 0 249.5 -58t163.5 -168z" />
    <glyph glyph-name="Ccaron" unicode="&#x10c;" horiz-adv-x="1451" 
d="M1354 224q-106 -119 -241 -184t-304 -65q-148 0 -272.5 48.5t-214.5 136t-140.5 209t-50.5 267.5q0 170 59.5 314.5t164.5 250t248 165t310 59.5q39 0 86.5 -4t99 -15.5t105 -33t105 -55.5t98.5 -82.5t86 -115.5l-232 -154q-58 95 -150 144t-214 49q-97 0 -183.5 -38
t-151 -105t-102 -159t-37.5 -199q0 -95 31 -171.5t85 -130.5t126.5 -83t155.5 -29q99 0 184 41t153 116z" />
    <glyph glyph-name="ccaron" unicode="&#x10d;" horiz-adv-x="1023" 
d="M812 643q-24 34 -51 55.5t-54 33t-53 15.5t-49 4q-59 0 -109.5 -24t-87 -64.5t-57 -94.5t-20.5 -114q0 -52 16.5 -95t45.5 -74t68 -48t85 -17q60 0 112.5 23t97.5 71l171 -161q-75 -85 -175.5 -130.5t-215.5 -45.5q-107 0 -194 34.5t-149 96t-96 145.5t-34 183
q0 114 41 215t114.5 177t175.5 120.5t224 44.5q146 0 249.5 -58t163.5 -168z" />
    <glyph glyph-name="Dcaron" unicode="&#x10e;" horiz-adv-x="1519" 
d="M842 1400q150 0 270 -44t203.5 -122.5t128 -187t44.5 -236.5q0 -168 -57.5 -315.5t-167.5 -257.5t-270 -173.5t-365 -63.5h-579l298 1400h495zM576 1139l-187 -878h272q125 0 224 39t167.5 108t104.5 163.5t36 205.5q0 80 -23 146.5t-70 114.5t-119 74.5t-171 26.5h-234z
" />
    <glyph glyph-name="dcaron" unicode="&#x10f;" horiz-adv-x="1343" 
d="M600 995q101 0 174 -32t118 -92l122 569h262l-306 -1440h-257l17 79q-49 -47 -112 -76t-150 -29q-88 0 -163 34.5t-129.5 94.5t-85.5 141.5t-31 175.5q0 69 16.5 138.5t49 133.5t79 119t107 96t133 64.5t156.5 23.5zM548 218q54 0 101 20t83 55.5t59.5 83.5t30.5 105
q7 61 -6 110.5t-42.5 85t-72.5 55t-95 19.5q-59 0 -110 -24.5t-88 -66t-58 -97t-21 -117.5q0 -52 16 -94.5t45.5 -72.5t69.5 -46t88 -16z" />
    <glyph glyph-name="Dcroat" unicode="&#x110;" horiz-adv-x="1635" 
d="M958 1400q150 0 270 -44t203.5 -122.5t128 -187t44.5 -236.5q0 -168 -57.5 -315.5t-167.5 -257.5t-270 -173.5t-365 -63.5h-579l123 581h-176l53 250h177l121 569h495zM895 581h-322l-68 -320h272q125 0 224 39t167.5 108t104.5 163.5t36 205.5q0 80 -23 146.5t-70 114.5
t-119 74.5t-171 26.5h-234l-65 -308h322z" />
    <glyph glyph-name="dcroat" unicode="&#x111;" horiz-adv-x="1209" 
d="M1338 1090h-137l-231 -1090h-257l17 79q-49 -47 -112 -76t-150 -29q-88 0 -163 34.5t-129.5 94.5t-85.5 141.5t-31 175.5q0 69 16.5 138.5t49 133.5t79 119t107 96t133 64.5t156.5 23.5q101 0 174 -32t118 -92l47 219h-329l43 215h332l29 135h262l-29 -135h135zM548 218
q54 0 101 20t83 55.5t59.5 83.5t30.5 105q7 61 -6 110.5t-42.5 85t-72.5 55t-95 19.5q-59 0 -110 -24.5t-88 -66t-58 -97t-21 -117.5q0 -52 16 -94.5t45.5 -72.5t69.5 -46t88 -16z" />
    <glyph glyph-name="Emacron" unicode="&#x112;" horiz-adv-x="1294" 
d="M1162 578h-705l-69 -322h744l-55 -256h-1028l298 1400h1018l-55 -256h-733l-66 -310h706z" />
    <glyph glyph-name="emacron" unicode="&#x113;" horiz-adv-x="1072" 
d="M910 111q-79 -70 -175 -103.5t-221 -33.5q-110 0 -195 32t-144 88.5t-89.5 134.5t-30.5 170q0 61 14 129t42.5 134.5t73.5 126.5t106.5 106t141.5 73t179 27q91 0 167 -28t131 -79.5t85 -124.5t30 -163q0 -25 -3 -52.5t-8 -54.5t-12 -51.5t-15 -43.5h-673
q3 -97 61 -149.5t161 -52.5q66 0 125 20t115 65zM597 770q-53 0 -93.5 -16.5t-71.5 -43.5t-52.5 -62t-35.5 -72h429q1 5 1 9v9q0 88 -48 132t-129 44z" />
    <glyph glyph-name="Ebreve" unicode="&#x114;" horiz-adv-x="1294" 
d="M1162 578h-705l-69 -322h744l-55 -256h-1028l298 1400h1018l-55 -256h-733l-66 -310h706z" />
    <glyph glyph-name="ebreve" unicode="&#x115;" horiz-adv-x="1072" 
d="M910 111q-79 -70 -175 -103.5t-221 -33.5q-110 0 -195 32t-144 88.5t-89.5 134.5t-30.5 170q0 61 14 129t42.5 134.5t73.5 126.5t106.5 106t141.5 73t179 27q91 0 167 -28t131 -79.5t85 -124.5t30 -163q0 -25 -3 -52.5t-8 -54.5t-12 -51.5t-15 -43.5h-673
q3 -97 61 -149.5t161 -52.5q66 0 125 20t115 65zM597 770q-53 0 -93.5 -16.5t-71.5 -43.5t-52.5 -62t-35.5 -72h429q1 5 1 9v9q0 88 -48 132t-129 44z" />
    <glyph glyph-name="Edotaccent" unicode="&#x116;" horiz-adv-x="1294" 
d="M1162 578h-705l-69 -322h744l-55 -256h-1028l298 1400h1018l-55 -256h-733l-66 -310h706z" />
    <glyph glyph-name="edotaccent" unicode="&#x117;" horiz-adv-x="1072" 
d="M910 111q-79 -70 -175 -103.5t-221 -33.5q-110 0 -195 32t-144 88.5t-89.5 134.5t-30.5 170q0 61 14 129t42.5 134.5t73.5 126.5t106.5 106t141.5 73t179 27q91 0 167 -28t131 -79.5t85 -124.5t30 -163q0 -25 -3 -52.5t-8 -54.5t-12 -51.5t-15 -43.5h-673
q3 -97 61 -149.5t161 -52.5q66 0 125 20t115 65zM597 770q-53 0 -93.5 -16.5t-71.5 -43.5t-52.5 -62t-35.5 -72h429q1 5 1 9v9q0 88 -48 132t-129 44z" />
    <glyph glyph-name="Eogonek" unicode="&#x118;" horiz-adv-x="1294" 
d="M1162 578h-705l-69 -322h744l-55 -256h-1028l298 1400h1018l-55 -256h-733l-66 -310h706z" />
    <glyph glyph-name="eogonek" unicode="&#x119;" horiz-adv-x="1072" 
d="M910 111q-79 -70 -175 -103.5t-221 -33.5q-110 0 -195 32t-144 88.5t-89.5 134.5t-30.5 170q0 61 14 129t42.5 134.5t73.5 126.5t106.5 106t141.5 73t179 27q91 0 167 -28t131 -79.5t85 -124.5t30 -163q0 -25 -3 -52.5t-8 -54.5t-12 -51.5t-15 -43.5h-673
q3 -97 61 -149.5t161 -52.5q66 0 125 20t115 65zM597 770q-53 0 -93.5 -16.5t-71.5 -43.5t-52.5 -62t-35.5 -72h429q1 5 1 9v9q0 88 -48 132t-129 44z" />
    <glyph glyph-name="Ecaron" unicode="&#x11a;" horiz-adv-x="1294" 
d="M1162 578h-705l-69 -322h744l-55 -256h-1028l298 1400h1018l-55 -256h-733l-66 -310h706z" />
    <glyph glyph-name="ecaron" unicode="&#x11b;" horiz-adv-x="1072" 
d="M910 111q-79 -70 -175 -103.5t-221 -33.5q-110 0 -195 32t-144 88.5t-89.5 134.5t-30.5 170q0 61 14 129t42.5 134.5t73.5 126.5t106.5 106t141.5 73t179 27q91 0 167 -28t131 -79.5t85 -124.5t30 -163q0 -25 -3 -52.5t-8 -54.5t-12 -51.5t-15 -43.5h-673
q3 -97 61 -149.5t161 -52.5q66 0 125 20t115 65zM597 770q-53 0 -93.5 -16.5t-71.5 -43.5t-52.5 -62t-35.5 -72h429q1 5 1 9v9q0 88 -48 132t-129 44z" />
    <glyph glyph-name="Gcircumflex" unicode="&#x11c;" horiz-adv-x="1579" 
d="M1218 1015q-54 68 -135 107t-189 39q-99 0 -185.5 -38t-151 -106.5t-101.5 -163t-37 -208.5q0 -95 29.5 -171t83.5 -129t128.5 -81.5t164.5 -28.5q160 0 261.5 77.5t143.5 225.5h-362l51 233h621q2 -23 0 -49t-5 -52q-20 -161 -82.5 -290t-158.5 -219t-220 -138.5
t-268 -48.5q-146 0 -270 47.5t-214.5 133.5t-141.5 206t-51 265q0 173 60.5 319.5t166.5 253t250 166.5t311 60q51 0 117 -8.5t136 -33t138 -69t124 -116.5z" />
    <glyph glyph-name="gcircumflex" unicode="&#x11d;" horiz-adv-x="1194" 
d="M972 54q-24 -113 -71.5 -200t-116 -146t-156 -90t-191.5 -31q-133 0 -244.5 35t-211.5 104l122 206q72 -55 153.5 -85t171.5 -30q59 0 107.5 18t85 49.5t61 75.5t35.5 97l4 20q-45 -32 -101.5 -50.5t-131.5 -18.5q-92 0 -170 32t-135 88.5t-89 134t-32 169.5
q0 105 36.5 206.5t105.5 180.5t168 127.5t224 48.5q104 0 176 -32.5t115 -89.5l21 96h260zM544 248q59 0 109 21.5t86.5 59.5t57 90.5t20.5 115.5q0 48 -16 88t-44.5 69t-68.5 45.5t-87 16.5q-59 0 -109 -21.5t-86 -60t-56.5 -91.5t-20.5 -117q0 -47 16 -86.5t44.5 -68.5
t68 -45t86.5 -16z" />
    <glyph glyph-name="Gbreve" unicode="&#x11e;" horiz-adv-x="1579" 
d="M1218 1015q-54 68 -135 107t-189 39q-99 0 -185.5 -38t-151 -106.5t-101.5 -163t-37 -208.5q0 -95 29.5 -171t83.5 -129t128.5 -81.5t164.5 -28.5q160 0 261.5 77.5t143.5 225.5h-362l51 233h621q2 -23 0 -49t-5 -52q-20 -161 -82.5 -290t-158.5 -219t-220 -138.5
t-268 -48.5q-146 0 -270 47.5t-214.5 133.5t-141.5 206t-51 265q0 173 60.5 319.5t166.5 253t250 166.5t311 60q51 0 117 -8.5t136 -33t138 -69t124 -116.5z" />
    <glyph glyph-name="gbreve" unicode="&#x11f;" horiz-adv-x="1194" 
d="M972 54q-24 -113 -71.5 -200t-116 -146t-156 -90t-191.5 -31q-133 0 -244.5 35t-211.5 104l122 206q72 -55 153.5 -85t171.5 -30q59 0 107.5 18t85 49.5t61 75.5t35.5 97l4 20q-45 -32 -101.5 -50.5t-131.5 -18.5q-92 0 -170 32t-135 88.5t-89 134t-32 169.5
q0 105 36.5 206.5t105.5 180.5t168 127.5t224 48.5q104 0 176 -32.5t115 -89.5l21 96h260zM544 248q59 0 109 21.5t86.5 59.5t57 90.5t20.5 115.5q0 48 -16 88t-44.5 69t-68.5 45.5t-87 16.5q-59 0 -109 -21.5t-86 -60t-56.5 -91.5t-20.5 -117q0 -47 16 -86.5t44.5 -68.5
t68 -45t86.5 -16z" />
    <glyph glyph-name="Gdotaccent" unicode="&#x120;" horiz-adv-x="1579" 
d="M1218 1015q-54 68 -135 107t-189 39q-99 0 -185.5 -38t-151 -106.5t-101.5 -163t-37 -208.5q0 -95 29.5 -171t83.5 -129t128.5 -81.5t164.5 -28.5q160 0 261.5 77.5t143.5 225.5h-362l51 233h621q2 -23 0 -49t-5 -52q-20 -161 -82.5 -290t-158.5 -219t-220 -138.5
t-268 -48.5q-146 0 -270 47.5t-214.5 133.5t-141.5 206t-51 265q0 173 60.5 319.5t166.5 253t250 166.5t311 60q51 0 117 -8.5t136 -33t138 -69t124 -116.5z" />
    <glyph glyph-name="gdotaccent" unicode="&#x121;" horiz-adv-x="1194" 
d="M972 54q-24 -113 -71.5 -200t-116 -146t-156 -90t-191.5 -31q-133 0 -244.5 35t-211.5 104l122 206q72 -55 153.5 -85t171.5 -30q59 0 107.5 18t85 49.5t61 75.5t35.5 97l4 20q-45 -32 -101.5 -50.5t-131.5 -18.5q-92 0 -170 32t-135 88.5t-89 134t-32 169.5
q0 105 36.5 206.5t105.5 180.5t168 127.5t224 48.5q104 0 176 -32.5t115 -89.5l21 96h260zM544 248q59 0 109 21.5t86.5 59.5t57 90.5t20.5 115.5q0 48 -16 88t-44.5 69t-68.5 45.5t-87 16.5q-59 0 -109 -21.5t-86 -60t-56.5 -91.5t-20.5 -117q0 -47 16 -86.5t44.5 -68.5
t68 -45t86.5 -16z" />
    <glyph glyph-name="uni0122" unicode="&#x122;" horiz-adv-x="1579" 
d="M1218 1015q-54 68 -135 107t-189 39q-99 0 -185.5 -38t-151 -106.5t-101.5 -163t-37 -208.5q0 -95 29.5 -171t83.5 -129t128.5 -81.5t164.5 -28.5q160 0 261.5 77.5t143.5 225.5h-362l51 233h621q2 -23 0 -49t-5 -52q-20 -161 -82.5 -290t-158.5 -219t-220 -138.5
t-268 -48.5q-146 0 -270 47.5t-214.5 133.5t-141.5 206t-51 265q0 173 60.5 319.5t166.5 253t250 166.5t311 60q51 0 117 -8.5t136 -33t138 -69t124 -116.5z" />
    <glyph glyph-name="uni0123" unicode="&#x123;" horiz-adv-x="1194" 
d="M972 54q-24 -113 -71.5 -200t-116 -146t-156 -90t-191.5 -31q-133 0 -244.5 35t-211.5 104l122 206q72 -55 153.5 -85t171.5 -30q59 0 107.5 18t85 49.5t61 75.5t35.5 97l4 20q-45 -32 -101.5 -50.5t-131.5 -18.5q-92 0 -170 32t-135 88.5t-89 134t-32 169.5
q0 105 36.5 206.5t105.5 180.5t168 127.5t224 48.5q104 0 176 -32.5t115 -89.5l21 96h260zM544 248q59 0 109 21.5t86.5 59.5t57 90.5t20.5 115.5q0 48 -16 88t-44.5 69t-68.5 45.5t-87 16.5q-59 0 -109 -21.5t-86 -60t-56.5 -91.5t-20.5 -117q0 -47 16 -86.5t44.5 -68.5
t68 -45t86.5 -16z" />
    <glyph glyph-name="Hcircumflex" unicode="&#x124;" horiz-adv-x="1532" 
d="M512 836h657l121 564h285l-299 -1400h-285l123 576h-658l-122 -576h-285l298 1400h285z" />
    <glyph glyph-name="hcircumflex" unicode="&#x125;" horiz-adv-x="1161" 
d="M742 995q76 0 136.5 -24t102.5 -67t64.5 -103t22.5 -131q0 -25 -2.5 -51.5t-8.5 -53.5l-121 -565h-262l117 544q7 31 7 64q0 30 -8 56t-26 45t-47 30t-70 11t-79.5 -12t-71.5 -39.5t-58.5 -71.5t-38.5 -107l-110 -520h-263l306 1440h262l-117 -553q59 61 126.5 84.5
t138.5 23.5z" />
    <glyph glyph-name="Hbar" unicode="&#x126;" horiz-adv-x="1590" 
d="M1652 992h-131l-212 -992h-285l123 576h-658l-122 -576h-285l211 992h-137l44 218h139l41 190h285l-41 -190h658l41 190h285l-41 -190h129zM1202 836l33 156h-657l-33 -156h657z" />
    <glyph glyph-name="hbar" unicode="&#x127;" horiz-adv-x="1161" 
d="M868 1090h-348l-43 -203q59 61 126.5 84.5t138.5 23.5q76 0 136.5 -24t102.5 -67t64.5 -103t22.5 -131q0 -25 -2.5 -51.5t-8.5 -53.5l-121 -565h-262l117 544q7 31 7 64q0 30 -8 56t-26 45t-47 30t-70 11t-79.5 -12t-71.5 -39.5t-58.5 -71.5t-38.5 -107l-110 -520h-263
l231 1090h-117l43 215h120l29 135h262l-29 -135h347z" />
    <glyph glyph-name="Itilde" unicode="&#x128;" horiz-adv-x="589" 
d="M334 0h-285l298 1400h285z" />
    <glyph glyph-name="itilde" unicode="&#x129;" horiz-adv-x="521" 
d="M289 0h-263l206 969h263z" />
    <glyph glyph-name="Imacron" unicode="&#x12a;" horiz-adv-x="589" 
d="M334 0h-285l298 1400h285z" />
    <glyph glyph-name="imacron" unicode="&#x12b;" horiz-adv-x="521" 
d="M289 0h-263l206 969h263z" />
    <glyph glyph-name="Ibreve" unicode="&#x12c;" horiz-adv-x="589" 
d="M334 0h-285l298 1400h285z" />
    <glyph glyph-name="ibreve" unicode="&#x12d;" horiz-adv-x="521" 
d="M289 0h-263l206 969h263z" />
    <glyph glyph-name="Iogonek" unicode="&#x12e;" horiz-adv-x="589" 
d="M334 0h-285l298 1400h285z" />
    <glyph glyph-name="iogonek" unicode="&#x12f;" horiz-adv-x="521" 
d="M289 0h-263l206 969h263z" />
    <glyph glyph-name="Idotaccent" unicode="&#x130;" horiz-adv-x="589" 
d="M334 0h-285l298 1400h285z" />
    <glyph glyph-name="dotlessi" unicode="&#x131;" horiz-adv-x="521" 
d="M289 0h-263l206 969h263z" />
    <glyph glyph-name="IJ" unicode="&#x132;" horiz-adv-x="1663" 
d="M334 0h-285l298 1400h285zM1519 485q-28 -135 -77.5 -231.5t-118 -158.5t-156 -91t-192.5 -29q-67 0 -128.5 13.5t-115.5 39t-98.5 62t-77.5 83.5l177 197q19 -26 44 -49.5t56 -41t67.5 -27.5t77.5 -10q106 0 171 71.5t98 228.5l181 858h284z" />
    <glyph glyph-name="ij" unicode="&#x133;" horiz-adv-x="1049" 
d="M289 0h-263l206 969h263z" />
    <glyph glyph-name="Jcircumflex" unicode="&#x134;" horiz-adv-x="1074" 
d="M930 485q-28 -135 -77.5 -231.5t-118 -158.5t-156 -91t-192.5 -29q-67 0 -128.5 13.5t-115.5 39t-98.5 62t-77.5 83.5l177 197q19 -26 44 -49.5t56 -41t67.5 -27.5t77.5 -10q106 0 171 71.5t98 228.5l181 858h284z" />
    <glyph glyph-name="jcircumflex" unicode="&#x135;" horiz-adv-x="528" 
 />
    <glyph glyph-name="uni0136" unicode="&#x136;" horiz-adv-x="1388" 
d="M511 833h105l549 567h362l-708 -701l476 -699h-327l-386 576h-126l-122 -576h-285l298 1400h285z" />
    <glyph glyph-name="uni0137" unicode="&#x137;" horiz-adv-x="1070" 
d="M422 624h78l321 345h329l-467 -477l288 -492h-289l-220 392h-90l-83 -392h-263l306 1440h263z" />
    <glyph glyph-name="kgreenlandic" unicode="&#x138;" horiz-adv-x="1068" 
d="M970 0h-290l-219 392h-89l-83 -392h-263l206 969h263l-73 -345h77l321 345h328l-467 -477z" />
    <glyph glyph-name="Lacute" unicode="&#x139;" horiz-adv-x="1184" 
d="M389 261h717l-56 -261h-1001l298 1400h285z" />
    <glyph glyph-name="lacute" unicode="&#x13a;" horiz-adv-x="521" 
d="M289 0h-263l306 1440h263z" />
    <glyph glyph-name="uni013B" unicode="&#x13b;" horiz-adv-x="1184" 
d="M389 261h717l-56 -261h-1001l298 1400h285z" />
    <glyph glyph-name="uni013C" unicode="&#x13c;" horiz-adv-x="521" 
d="M289 0h-263l306 1440h263z" />
    <glyph glyph-name="Lcaron" unicode="&#x13d;" horiz-adv-x="1184" 
d="M389 261h717l-56 -261h-1001l298 1400h285z" />
    <glyph glyph-name="lcaron" unicode="&#x13e;" horiz-adv-x="662" 
d="M289 0h-263l306 1440h263z" />
    <glyph glyph-name="Ldot" unicode="&#x13f;" horiz-adv-x="1184" 
d="M389 261h717l-56 -261h-1001l298 1400h285z" />
    <glyph glyph-name="ldot" unicode="&#x140;" horiz-adv-x="730" 
d="M289 0h-263l306 1440h263z" />
    <glyph glyph-name="Lslash" unicode="&#x141;" horiz-adv-x="1304" 
d="M642 886l446 218l-62 -292l-446 -219l-71 -332h717l-56 -261h-1001l93 438l-202 -99l62 292l202 99l143 670h285z" />
    <glyph glyph-name="lslash" unicode="&#x142;" horiz-adv-x="701" 
d="M582 966l205 105l-58 -273l-205 -106l-147 -692h-263l115 541l-201 -103l58 273l201 103l133 626h263z" />
    <glyph glyph-name="Nacute" unicode="&#x143;" horiz-adv-x="1545" 
d="M1290 0h-262l-490 964l-205 -964h-284l298 1400h263l489 -964l205 964h284z" />
    <glyph glyph-name="nacute" unicode="&#x144;" horiz-adv-x="1161" 
d="M742 995q76 0 136.5 -24t102.5 -67t64.5 -103t22.5 -131q0 -25 -2.5 -51.5t-8.5 -53.5l-121 -565h-262l117 544q7 31 7 64q0 30 -8 56t-26 45t-47 30t-71 11q-41 0 -79.5 -12t-71.5 -39.5t-58.5 -71.5t-38.5 -107l-110 -520h-262l206 969h252l-22 -98q61 70 133 97
t147 27z" />
    <glyph glyph-name="uni0145" unicode="&#x145;" horiz-adv-x="1545" 
d="M1290 0h-262l-490 964l-205 -964h-284l298 1400h263l489 -964l205 964h284z" />
    <glyph glyph-name="uni0146" unicode="&#x146;" horiz-adv-x="1161" 
d="M742 995q76 0 136.5 -24t102.5 -67t64.5 -103t22.5 -131q0 -25 -2.5 -51.5t-8.5 -53.5l-121 -565h-262l117 544q7 31 7 64q0 30 -8 56t-26 45t-47 30t-71 11q-41 0 -79.5 -12t-71.5 -39.5t-58.5 -71.5t-38.5 -107l-110 -520h-262l206 969h252l-22 -98q61 70 133 97
t147 27z" />
    <glyph glyph-name="Ncaron" unicode="&#x147;" horiz-adv-x="1545" 
d="M1290 0h-262l-490 964l-205 -964h-284l298 1400h263l489 -964l205 964h284z" />
    <glyph glyph-name="ncaron" unicode="&#x148;" horiz-adv-x="1161" 
d="M742 995q76 0 136.5 -24t102.5 -67t64.5 -103t22.5 -131q0 -25 -2.5 -51.5t-8.5 -53.5l-121 -565h-262l117 544q7 31 7 64q0 30 -8 56t-26 45t-47 30t-71 11q-41 0 -79.5 -12t-71.5 -39.5t-58.5 -71.5t-38.5 -107l-110 -520h-262l206 969h252l-22 -98q61 70 133 97
t147 27z" />
    <glyph glyph-name="napostrophe" unicode="&#x149;" horiz-adv-x="1468" 
d="M1049 995q76 0 136.5 -24t102.5 -67t64.5 -103t22.5 -131q0 -25 -2.5 -51.5t-8.5 -53.5l-121 -565h-262l117 544q7 31 7 64q0 30 -8 56t-26 45t-47 30t-71 11q-41 0 -79.5 -12t-71.5 -39.5t-58.5 -71.5t-38.5 -107l-110 -520h-262l206 969h252l-22 -98q61 70 133 97
t147 27z" />
    <glyph glyph-name="Eng" unicode="&#x14a;" horiz-adv-x="1545" 
d="M1278 -58q-18 -85 -54 -151.5t-89.5 -113t-124.5 -71t-160 -24.5q-91 0 -170 24t-128 66l137 224q32 -25 71 -38t88 -13q68 0 107.5 41t55.5 115l5 23l-478 940l-205 -964h-284l298 1400h263l489 -964l205 964h284z" />
    <glyph glyph-name="eng" unicode="&#x14b;" horiz-adv-x="1162" 
d="M742 995q76 0 136.5 -24t102.5 -67t64.5 -103t22.5 -131q0 -25 -2.5 -51.5t-8.5 -53.5l-134 -625q-17 -78 -49 -134t-76 -92.5t-97 -54t-110 -17.5q-53 0 -97.5 10t-75.5 25l72 220q18 -7 36 -9.5t36 -2.5q37 0 68 25.5t43 81.5l118 552q7 31 7 64q0 30 -8 56t-26 45
t-47 30t-71 11q-41 0 -79.5 -12t-71.5 -39.5t-58.5 -71.5t-38.5 -107l-110 -520h-262l206 969h252l-22 -98q61 70 133 97t147 27z" />
    <glyph glyph-name="Omacron" unicode="&#x14c;" horiz-adv-x="1632" 
d="M915 1425q146 0 270.5 -47t215.5 -132.5t142.5 -206t51.5 -268.5q0 -109 -26 -210t-75 -189.5t-119 -161.5t-157.5 -125.5t-190.5 -81.5t-218 -29q-146 0 -270.5 47t-215.5 132.5t-142.5 206.5t-51.5 269q0 108 26 209t75 189.5t119 161.5t157.5 125.5t190.5 81.5t218 29
zM897 1158q-106 0 -193.5 -41.5t-150.5 -111.5t-97.5 -162.5t-34.5 -194.5q0 -93 30 -168t84 -128t128.5 -81.5t164.5 -28.5q105 0 192.5 41t150 111t97.5 162.5t35 195.5q0 92 -30 167t-84 128t-128.5 82t-163.5 29z" />
    <glyph glyph-name="omacron" unicode="&#x14d;" horiz-adv-x="1171" 
d="M624 995q105 0 193.5 -34t153 -95t101 -146.5t36.5 -188.5q0 -114 -42 -215.5t-117 -177t-178 -120t-224 -44.5q-104 0 -193 33.5t-153.5 95t-101 147t-36.5 189.5q0 114 42 215t117 176.5t178 120t224 44.5zM606 752q-59 0 -109.5 -23.5t-87.5 -63.5t-58 -94.5
t-21 -115.5q0 -53 17 -96.5t48 -75t74 -49t94 -17.5q59 0 110 23.5t88.5 64t58.5 94.5t21 115q0 52 -17 96t-48 75.5t-74.5 49t-95.5 17.5z" />
    <glyph glyph-name="Obreve" unicode="&#x14e;" horiz-adv-x="1632" 
d="M915 1425q146 0 270.5 -47t215.5 -132.5t142.5 -206t51.5 -268.5q0 -109 -26 -210t-75 -189.5t-119 -161.5t-157.5 -125.5t-190.5 -81.5t-218 -29q-146 0 -270.5 47t-215.5 132.5t-142.5 206.5t-51.5 269q0 108 26 209t75 189.5t119 161.5t157.5 125.5t190.5 81.5t218 29
zM897 1158q-106 0 -193.5 -41.5t-150.5 -111.5t-97.5 -162.5t-34.5 -194.5q0 -93 30 -168t84 -128t128.5 -81.5t164.5 -28.5q105 0 192.5 41t150 111t97.5 162.5t35 195.5q0 92 -30 167t-84 128t-128.5 82t-163.5 29z" />
    <glyph glyph-name="obreve" unicode="&#x14f;" horiz-adv-x="1171" 
d="M624 995q105 0 193.5 -34t153 -95t101 -146.5t36.5 -188.5q0 -114 -42 -215.5t-117 -177t-178 -120t-224 -44.5q-104 0 -193 33.5t-153.5 95t-101 147t-36.5 189.5q0 114 42 215t117 176.5t178 120t224 44.5zM606 752q-59 0 -109.5 -23.5t-87.5 -63.5t-58 -94.5
t-21 -115.5q0 -53 17 -96.5t48 -75t74 -49t94 -17.5q59 0 110 23.5t88.5 64t58.5 94.5t21 115q0 52 -17 96t-48 75.5t-74.5 49t-95.5 17.5z" />
    <glyph glyph-name="Ohungarumlaut" unicode="&#x150;" horiz-adv-x="1632" 
d="M915 1425q146 0 270.5 -47t215.5 -132.5t142.5 -206t51.5 -268.5q0 -109 -26 -210t-75 -189.5t-119 -161.5t-157.5 -125.5t-190.5 -81.5t-218 -29q-146 0 -270.5 47t-215.5 132.5t-142.5 206.5t-51.5 269q0 108 26 209t75 189.5t119 161.5t157.5 125.5t190.5 81.5t218 29
zM897 1158q-106 0 -193.5 -41.5t-150.5 -111.5t-97.5 -162.5t-34.5 -194.5q0 -93 30 -168t84 -128t128.5 -81.5t164.5 -28.5q105 0 192.5 41t150 111t97.5 162.5t35 195.5q0 92 -30 167t-84 128t-128.5 82t-163.5 29z" />
    <glyph glyph-name="ohungarumlaut" unicode="&#x151;" horiz-adv-x="1171" 
d="M624 995q105 0 193.5 -34t153 -95t101 -146.5t36.5 -188.5q0 -114 -42 -215.5t-117 -177t-178 -120t-224 -44.5q-104 0 -193 33.5t-153.5 95t-101 147t-36.5 189.5q0 114 42 215t117 176.5t178 120t224 44.5zM606 752q-59 0 -109.5 -23.5t-87.5 -63.5t-58 -94.5
t-21 -115.5q0 -53 17 -96.5t48 -75t74 -49t94 -17.5q59 0 110 23.5t88.5 64t58.5 94.5t21 115q0 52 -17 96t-48 75.5t-74.5 49t-95.5 17.5z" />
    <glyph glyph-name="OE" unicode="&#x152;" horiz-adv-x="2163" 
d="M2031 578h-705l-69 -322h744l-55 -256h-1179q-150 0 -270 44t-203 122.5t-127.5 187t-44.5 236.5q0 168 57.5 315.5t167 257.5t269.5 173.5t365 63.5h1253l-55 -256h-733l-66 -310h706zM417 623q0 -80 22.5 -146.5t69.5 -114.5t119 -74.5t171 -26.5h174l187 878h-212
q-125 0 -224 -39t-167 -108t-104 -163.5t-36 -205.5z" />
    <glyph glyph-name="oe" unicode="&#x153;" horiz-adv-x="1843" 
d="M1681 111q-79 -70 -175 -103.5t-221 -33.5q-123 0 -212.5 44t-143.5 121q-72 -77 -169.5 -121t-212.5 -44q-104 0 -193 33.5t-153.5 95t-101 147t-36.5 189.5q0 114 42 215t117 176.5t178 120t224 44.5q118 0 213 -47.5t155 -132.5q32 40 72 73t89 57t106 37t124 13
q91 0 167 -28t131 -79.5t85 -124.5t30 -163q0 -25 -3 -52.5t-8 -54.5t-12 -51.5t-15 -43.5h-673q3 -97 61 -149.5t161 -52.5q67 0 126 20t114 65zM606 752q-59 0 -109.5 -23.5t-87.5 -63.5t-58 -94.5t-21 -115.5q0 -53 17 -96.5t48 -75t74 -49t94 -17.5q59 0 110 23.5
t88.5 64t58.5 94.5t21 115q0 52 -17 96t-48 75.5t-74.5 49t-95.5 17.5zM1368 770q-53 0 -93.5 -16.5t-71.5 -43.5t-52.5 -62t-35.5 -72h429q1 5 1 9v9q0 88 -48 132t-129 44z" />
    <glyph glyph-name="Racute" unicode="&#x154;" horiz-adv-x="1329" 
d="M880 1400q113 0 200 -29.5t146 -80.5t89 -120t30 -148q0 -50 -11 -102.5t-35.5 -102.5t-64 -94.5t-96.5 -79.5t-134 -57.5t-175 -27.5l385 -558h-326l-362 557h-74l-118 -557h-285l298 1400h533zM577 1142l-73 -342h295q77 0 126.5 17t78.5 45t40.5 62t11.5 69
q0 69 -53.5 109t-156.5 40h-269z" />
    <glyph glyph-name="racute" unicode="&#x155;" horiz-adv-x="817" 
d="M288 0h-262l206 969h252l-23 -102q61 73 132 100.5t144 27.5q35 0 72.5 -7.5t71.5 -21.5l-84 -251q-29 15 -66.5 23t-74.5 8q-46 0 -87 -14t-75 -42.5t-59 -71.5t-38 -102z" />
    <glyph glyph-name="uni0156" unicode="&#x156;" horiz-adv-x="1329" 
d="M880 1400q113 0 200 -29.5t146 -80.5t89 -120t30 -148q0 -50 -11 -102.5t-35.5 -102.5t-64 -94.5t-96.5 -79.5t-134 -57.5t-175 -27.5l385 -558h-326l-362 557h-74l-118 -557h-285l298 1400h533zM577 1142l-73 -342h295q77 0 126.5 17t78.5 45t40.5 62t11.5 69
q0 69 -53.5 109t-156.5 40h-269z" />
    <glyph glyph-name="uni0157" unicode="&#x157;" horiz-adv-x="817" 
d="M288 0h-262l206 969h252l-23 -102q61 73 132 100.5t144 27.5q35 0 72.5 -7.5t71.5 -21.5l-84 -251q-29 15 -66.5 23t-74.5 8q-46 0 -87 -14t-75 -42.5t-59 -71.5t-38 -102z" />
    <glyph glyph-name="Rcaron" unicode="&#x158;" horiz-adv-x="1329" 
d="M880 1400q113 0 200 -29.5t146 -80.5t89 -120t30 -148q0 -50 -11 -102.5t-35.5 -102.5t-64 -94.5t-96.5 -79.5t-134 -57.5t-175 -27.5l385 -558h-326l-362 557h-74l-118 -557h-285l298 1400h533zM577 1142l-73 -342h295q77 0 126.5 17t78.5 45t40.5 62t11.5 69
q0 69 -53.5 109t-156.5 40h-269z" />
    <glyph glyph-name="rcaron" unicode="&#x159;" horiz-adv-x="817" 
d="M288 0h-262l206 969h252l-23 -102q61 73 132 100.5t144 27.5q35 0 72.5 -7.5t71.5 -21.5l-84 -251q-29 15 -66.5 23t-74.5 8q-46 0 -87 -14t-75 -42.5t-59 -71.5t-38 -102z" />
    <glyph glyph-name="Sacute" unicode="&#x15a;" horiz-adv-x="1328" 
d="M1189 1037q-53 37 -108.5 61.5t-110.5 39.5t-106.5 21.5t-95.5 6.5q-69 0 -118 -14.5t-80 -39t-45.5 -56t-14.5 -64.5q0 -36 17 -61.5t46 -44t69 -31t87 -21.5l84 -16q88 -17 164 -46.5t131 -74.5t86.5 -108t31.5 -145q0 -107 -44 -194t-122.5 -148.5t-188.5 -94.5
t-242 -33q-64 0 -142 10t-158.5 33.5t-157.5 61t-138 91.5l161 224q50 -45 110 -76t121 -50t119 -27.5t103 -8.5q59 0 110 11.5t88.5 33t59 54t21.5 74.5q0 33 -15.5 57.5t-46 43.5t-77 33t-107.5 25l-89 17q-86 16 -156 47t-120.5 77.5t-78 108t-27.5 139.5q0 95 36 181
t107.5 150.5t177 102.5t245.5 38q63 0 131 -7t140 -25t145.5 -50t146.5 -82z" />
    <glyph glyph-name="sacute" unicode="&#x15b;" horiz-adv-x="967" 
d="M843 692q-34 21 -74.5 37t-82 26.5t-79.5 16t-68 5.5q-72 0 -111 -20.5t-44 -58.5q-3 -26 5.5 -41.5t26.5 -26t44.5 -17t59.5 -12.5l65 -12q82 -15 140 -42.5t93 -66t48 -87t6 -104.5q-9 -73 -42.5 -131t-90 -98.5t-135 -62.5t-176.5 -22q-58 0 -118.5 8.5t-118 25
t-110.5 41t-95 56.5l125 191q67 -46 149.5 -75.5t171.5 -29.5q86 0 128 23.5t47 66.5q4 37 -27.5 58t-106.5 34l-67 11q-83 13 -141.5 41t-94 67t-48.5 89t-6 109q9 74 42.5 130.5t88 95t128.5 58t164 19.5q123 0 228 -27.5t195 -79.5z" />
    <glyph glyph-name="Scircumflex" unicode="&#x15c;" horiz-adv-x="1328" 
d="M1189 1037q-53 37 -108.5 61.5t-110.5 39.5t-106.5 21.5t-95.5 6.5q-69 0 -118 -14.5t-80 -39t-45.5 -56t-14.5 -64.5q0 -36 17 -61.5t46 -44t69 -31t87 -21.5l84 -16q88 -17 164 -46.5t131 -74.5t86.5 -108t31.5 -145q0 -107 -44 -194t-122.5 -148.5t-188.5 -94.5
t-242 -33q-64 0 -142 10t-158.5 33.5t-157.5 61t-138 91.5l161 224q50 -45 110 -76t121 -50t119 -27.5t103 -8.5q59 0 110 11.5t88.5 33t59 54t21.5 74.5q0 33 -15.5 57.5t-46 43.5t-77 33t-107.5 25l-89 17q-86 16 -156 47t-120.5 77.5t-78 108t-27.5 139.5q0 95 36 181
t107.5 150.5t177 102.5t245.5 38q63 0 131 -7t140 -25t145.5 -50t146.5 -82z" />
    <glyph glyph-name="scircumflex" unicode="&#x15d;" horiz-adv-x="967" 
d="M843 692q-34 21 -74.5 37t-82 26.5t-79.5 16t-68 5.5q-72 0 -111 -20.5t-44 -58.5q-3 -26 5.5 -41.5t26.5 -26t44.5 -17t59.5 -12.5l65 -12q82 -15 140 -42.5t93 -66t48 -87t6 -104.5q-9 -73 -42.5 -131t-90 -98.5t-135 -62.5t-176.5 -22q-58 0 -118.5 8.5t-118 25
t-110.5 41t-95 56.5l125 191q67 -46 149.5 -75.5t171.5 -29.5q86 0 128 23.5t47 66.5q4 37 -27.5 58t-106.5 34l-67 11q-83 13 -141.5 41t-94 67t-48.5 89t-6 109q9 74 42.5 130.5t88 95t128.5 58t164 19.5q123 0 228 -27.5t195 -79.5z" />
    <glyph glyph-name="Scedilla" unicode="&#x15e;" horiz-adv-x="1328" 
d="M1189 1037q-53 37 -108.5 61.5t-110.5 39.5t-106.5 21.5t-95.5 6.5q-69 0 -118 -14.5t-80 -39t-45.5 -56t-14.5 -64.5q0 -36 17 -61.5t46 -44t69 -31t87 -21.5l84 -16q88 -17 164 -46.5t131 -74.5t86.5 -108t31.5 -145q0 -107 -44 -194t-122.5 -148.5t-188.5 -94.5
t-242 -33q-64 0 -142 10t-158.5 33.5t-157.5 61t-138 91.5l161 224q50 -45 110 -76t121 -50t119 -27.5t103 -8.5q59 0 110 11.5t88.5 33t59 54t21.5 74.5q0 33 -15.5 57.5t-46 43.5t-77 33t-107.5 25l-89 17q-86 16 -156 47t-120.5 77.5t-78 108t-27.5 139.5q0 95 36 181
t107.5 150.5t177 102.5t245.5 38q63 0 131 -7t140 -25t145.5 -50t146.5 -82z" />
    <glyph glyph-name="scedilla" unicode="&#x15f;" horiz-adv-x="967" 
d="M843 692q-34 21 -74.5 37t-82 26.5t-79.5 16t-68 5.5q-72 0 -111 -20.5t-44 -58.5q-3 -26 5.5 -41.5t26.5 -26t44.5 -17t59.5 -12.5l65 -12q82 -15 140 -42.5t93 -66t48 -87t6 -104.5q-9 -73 -42.5 -131t-90 -98.5t-135 -62.5t-176.5 -22q-58 0 -118.5 8.5t-118 25
t-110.5 41t-95 56.5l125 191q67 -46 149.5 -75.5t171.5 -29.5q86 0 128 23.5t47 66.5q4 37 -27.5 58t-106.5 34l-67 11q-83 13 -141.5 41t-94 67t-48.5 89t-6 109q9 74 42.5 130.5t88 95t128.5 58t164 19.5q123 0 228 -27.5t195 -79.5z" />
    <glyph glyph-name="Scaron" unicode="&#x160;" horiz-adv-x="1328" 
d="M1189 1037q-53 37 -108.5 61.5t-110.5 39.5t-106.5 21.5t-95.5 6.5q-69 0 -118 -14.5t-80 -39t-45.5 -56t-14.5 -64.5q0 -36 17 -61.5t46 -44t69 -31t87 -21.5l84 -16q88 -17 164 -46.5t131 -74.5t86.5 -108t31.5 -145q0 -107 -44 -194t-122.5 -148.5t-188.5 -94.5
t-242 -33q-64 0 -142 10t-158.5 33.5t-157.5 61t-138 91.5l161 224q50 -45 110 -76t121 -50t119 -27.5t103 -8.5q59 0 110 11.5t88.5 33t59 54t21.5 74.5q0 33 -15.5 57.5t-46 43.5t-77 33t-107.5 25l-89 17q-86 16 -156 47t-120.5 77.5t-78 108t-27.5 139.5q0 95 36 181
t107.5 150.5t177 102.5t245.5 38q63 0 131 -7t140 -25t145.5 -50t146.5 -82z" />
    <glyph glyph-name="scaron" unicode="&#x161;" horiz-adv-x="967" 
d="M843 692q-34 21 -74.5 37t-82 26.5t-79.5 16t-68 5.5q-72 0 -111 -20.5t-44 -58.5q-3 -26 5.5 -41.5t26.5 -26t44.5 -17t59.5 -12.5l65 -12q82 -15 140 -42.5t93 -66t48 -87t6 -104.5q-9 -73 -42.5 -131t-90 -98.5t-135 -62.5t-176.5 -22q-58 0 -118.5 8.5t-118 25
t-110.5 41t-95 56.5l125 191q67 -46 149.5 -75.5t171.5 -29.5q86 0 128 23.5t47 66.5q4 37 -27.5 58t-106.5 34l-67 11q-83 13 -141.5 41t-94 67t-48.5 89t-6 109q9 74 42.5 130.5t88 95t128.5 58t164 19.5q123 0 228 -27.5t195 -79.5z" />
    <glyph glyph-name="uni0162" unicode="&#x162;" horiz-adv-x="1193" 
d="M1301 1139h-419l-242 -1139h-285l242 1139h-427l56 261h1131z" />
    <glyph glyph-name="uni0163" unicode="&#x163;" horiz-adv-x="923" 
d="M876 737h-339l-75 -351q-9 -44 -5.5 -75.5t18.5 -52t40 -30.5t57 -10q42 0 84.5 14.5t84.5 40.5l92 -206q-68 -44 -144.5 -68t-164.5 -24q-101 0 -171.5 28.5t-111.5 82t-52 129t9 169.5l75 353h-181l50 232h181l62 288h263l-62 -288h340z" />
    <glyph glyph-name="Tcaron" unicode="&#x164;" horiz-adv-x="1193" 
d="M1301 1139h-419l-242 -1139h-285l242 1139h-427l56 261h1131z" />
    <glyph glyph-name="tcaron" unicode="&#x165;" horiz-adv-x="923" 
d="M876 737h-339l-75 -351q-9 -44 -5.5 -75.5t18.5 -52t40 -30.5t57 -10q42 0 84.5 14.5t84.5 40.5l92 -206q-68 -44 -144.5 -68t-164.5 -24q-101 0 -171.5 28.5t-111.5 82t-52 129t9 169.5l75 353h-181l50 232h181l62 288h263l-62 -288h340z" />
    <glyph glyph-name="Tbar" unicode="&#x166;" horiz-adv-x="1193" 
d="M1020 581h-257l-123 -581h-285l123 581h-241l53 250h241l66 308h-427l56 261h1131l-56 -261h-419l-66 -308h258z" />
    <glyph glyph-name="tbar" unicode="&#x167;" horiz-adv-x="923" 
d="M876 737h-339l-27 -126h267l-43 -203h-268l-4 -22q-9 -44 -5.5 -75.5t18.5 -52t40 -30.5t57 -10q42 0 84.5 14.5t84.5 40.5l92 -206q-68 -44 -144.5 -68t-164.5 -24q-101 0 -171.5 28.5t-111.5 82t-52 129t9 169.5l5 24h-135l43 203h135l27 126h-181l50 232h181l62 288
h263l-62 -288h340z" />
    <glyph glyph-name="Utilde" unicode="&#x168;" horiz-adv-x="1455" 
d="M1331 539q-31 -146 -89.5 -252.5t-142 -175.5t-191.5 -102.5t-237 -33.5q-116 0 -213.5 28.5t-168.5 84.5t-110.5 140.5t-39.5 196.5q0 68 17 151l176 824h286l-177 -827q-12 -57 -12 -102q0 -60 18.5 -103.5t53 -71t83 -41t108.5 -13.5q65 0 122.5 18t104 57.5t81 101
t52.5 148.5l176 833h285z" />
    <glyph glyph-name="utilde" unicode="&#x169;" horiz-adv-x="1152" 
d="M1013 401q-25 -119 -75.5 -200t-118.5 -131.5t-150.5 -72.5t-171.5 -22q-87 0 -160 23t-126 67.5t-82.5 110t-29.5 151.5q0 53 14 118l111 524h263l-116 -544q-7 -34 -7 -64q0 -75 43.5 -109t113.5 -34q43 0 81 14t69 42.5t54 71.5t35 101l110 522h264z" />
    <glyph glyph-name="Umacron" unicode="&#x16a;" horiz-adv-x="1455" 
d="M1331 539q-31 -146 -89.5 -252.5t-142 -175.5t-191.5 -102.5t-237 -33.5q-116 0 -213.5 28.5t-168.5 84.5t-110.5 140.5t-39.5 196.5q0 68 17 151l176 824h286l-177 -827q-12 -57 -12 -102q0 -60 18.5 -103.5t53 -71t83 -41t108.5 -13.5q65 0 122.5 18t104 57.5t81 101
t52.5 148.5l176 833h285z" />
    <glyph glyph-name="umacron" unicode="&#x16b;" horiz-adv-x="1152" 
d="M1013 401q-25 -119 -75.5 -200t-118.5 -131.5t-150.5 -72.5t-171.5 -22q-87 0 -160 23t-126 67.5t-82.5 110t-29.5 151.5q0 53 14 118l111 524h263l-116 -544q-7 -34 -7 -64q0 -75 43.5 -109t113.5 -34q43 0 81 14t69 42.5t54 71.5t35 101l110 522h264z" />
    <glyph glyph-name="Ubreve" unicode="&#x16c;" horiz-adv-x="1455" 
d="M1331 539q-31 -146 -89.5 -252.5t-142 -175.5t-191.5 -102.5t-237 -33.5q-116 0 -213.5 28.5t-168.5 84.5t-110.5 140.5t-39.5 196.5q0 68 17 151l176 824h286l-177 -827q-12 -57 -12 -102q0 -60 18.5 -103.5t53 -71t83 -41t108.5 -13.5q65 0 122.5 18t104 57.5t81 101
t52.5 148.5l176 833h285z" />
    <glyph glyph-name="ubreve" unicode="&#x16d;" horiz-adv-x="1152" 
d="M1013 401q-25 -119 -75.5 -200t-118.5 -131.5t-150.5 -72.5t-171.5 -22q-87 0 -160 23t-126 67.5t-82.5 110t-29.5 151.5q0 53 14 118l111 524h263l-116 -544q-7 -34 -7 -64q0 -75 43.5 -109t113.5 -34q43 0 81 14t69 42.5t54 71.5t35 101l110 522h264z" />
    <glyph glyph-name="Uring" unicode="&#x16e;" horiz-adv-x="1455" 
d="M1331 539q-31 -146 -89.5 -252.5t-142 -175.5t-191.5 -102.5t-237 -33.5q-116 0 -213.5 28.5t-168.5 84.5t-110.5 140.5t-39.5 196.5q0 68 17 151l176 824h286l-177 -827q-12 -57 -12 -102q0 -60 18.5 -103.5t53 -71t83 -41t108.5 -13.5q65 0 122.5 18t104 57.5t81 101
t52.5 148.5l176 833h285z" />
    <glyph glyph-name="uring" unicode="&#x16f;" horiz-adv-x="1152" 
d="M1013 401q-25 -119 -75.5 -200t-118.5 -131.5t-150.5 -72.5t-171.5 -22q-87 0 -160 23t-126 67.5t-82.5 110t-29.5 151.5q0 53 14 118l111 524h263l-116 -544q-7 -34 -7 -64q0 -75 43.5 -109t113.5 -34q43 0 81 14t69 42.5t54 71.5t35 101l110 522h264z" />
    <glyph glyph-name="Uhungarumlaut" unicode="&#x170;" horiz-adv-x="1455" 
d="M1331 539q-31 -146 -89.5 -252.5t-142 -175.5t-191.5 -102.5t-237 -33.5q-116 0 -213.5 28.5t-168.5 84.5t-110.5 140.5t-39.5 196.5q0 68 17 151l176 824h286l-177 -827q-12 -57 -12 -102q0 -60 18.5 -103.5t53 -71t83 -41t108.5 -13.5q65 0 122.5 18t104 57.5t81 101
t52.5 148.5l176 833h285z" />
    <glyph glyph-name="uhungarumlaut" unicode="&#x171;" horiz-adv-x="1152" 
d="M1013 401q-25 -119 -75.5 -200t-118.5 -131.5t-150.5 -72.5t-171.5 -22q-87 0 -160 23t-126 67.5t-82.5 110t-29.5 151.5q0 53 14 118l111 524h263l-116 -544q-7 -34 -7 -64q0 -75 43.5 -109t113.5 -34q43 0 81 14t69 42.5t54 71.5t35 101l110 522h264z" />
    <glyph glyph-name="Uogonek" unicode="&#x172;" horiz-adv-x="1455" 
d="M1331 539q-31 -146 -89.5 -252.5t-142 -175.5t-191.5 -102.5t-237 -33.5q-116 0 -213.5 28.5t-168.5 84.5t-110.5 140.5t-39.5 196.5q0 68 17 151l176 824h286l-177 -827q-12 -57 -12 -102q0 -60 18.5 -103.5t53 -71t83 -41t108.5 -13.5q65 0 122.5 18t104 57.5t81 101
t52.5 148.5l176 833h285z" />
    <glyph glyph-name="uogonek" unicode="&#x173;" horiz-adv-x="1152" 
d="M1013 401q-25 -119 -75.5 -200t-118.5 -131.5t-150.5 -72.5t-171.5 -22q-87 0 -160 23t-126 67.5t-82.5 110t-29.5 151.5q0 53 14 118l111 524h263l-116 -544q-7 -34 -7 -64q0 -75 43.5 -109t113.5 -34q43 0 81 14t69 42.5t54 71.5t35 101l110 522h264z" />
    <glyph glyph-name="Wcircumflex" unicode="&#x174;" horiz-adv-x="2167" 
d="M1615 0h-330l-81 1003l-498 -1003h-344l-124 1400h282l79 -1078l529 1078h295l81 -1071l518 1071h297z" />
    <glyph glyph-name="wcircumflex" unicode="&#x175;" horiz-adv-x="1703" 
d="M1156 295l345 674h283l-527 -969h-290l-76 656l-333 -656h-299l-133 969h262l75 -674l344 674h268z" />
    <glyph glyph-name="Ycircumflex" unicode="&#x176;" horiz-adv-x="1347" 
d="M832 552l-118 -552h-285l122 576l-348 824h298l230 -584l463 584h340z" />
    <glyph glyph-name="ycircumflex" unicode="&#x177;" horiz-adv-x="1120" 
d="M273 -404h-298l451 638l-313 735h282l196 -493l328 493h297z" />
    <glyph glyph-name="Ydieresis" unicode="&#x178;" horiz-adv-x="1347" 
d="M832 552l-118 -552h-285l122 576l-348 824h298l230 -584l463 584h340z" />
    <glyph glyph-name="Zacute" unicode="&#x179;" horiz-adv-x="1283" 
d="M1321 1175l-879 -918h717l-55 -257h-1090l50 231l877 912h-710l55 257h1082z" />
    <glyph glyph-name="zacute" unicode="&#x17a;" horiz-adv-x="1007" 
d="M964 770l-560 -537h472l-49 -233h-827l41 199l567 538h-464l50 232h813z" />
    <glyph glyph-name="Zdotaccent" unicode="&#x17b;" horiz-adv-x="1283" 
d="M1321 1175l-879 -918h717l-55 -257h-1090l50 231l877 912h-710l55 257h1082z" />
    <glyph glyph-name="zdotaccent" unicode="&#x17c;" horiz-adv-x="1007" 
d="M964 770l-560 -537h472l-49 -233h-827l41 199l567 538h-464l50 232h813z" />
    <glyph glyph-name="Zcaron" unicode="&#x17d;" horiz-adv-x="1283" 
d="M1321 1175l-879 -918h717l-55 -257h-1090l50 231l877 912h-710l55 257h1082z" />
    <glyph glyph-name="zcaron" unicode="&#x17e;" horiz-adv-x="1007" 
d="M964 770l-560 -537h472l-49 -233h-827l41 199l567 538h-464l50 232h813z" />
    <glyph glyph-name="longs" unicode="&#x17f;" horiz-adv-x="649" 
d="M792 1179q-35 23 -71.5 33.5t-66.5 10.5q-51 0 -88 -35t-54 -112l-229 -1076h-263l237 1113q36 171 131.5 261.5t255.5 90.5q90 0 160.5 -25t118.5 -66z" />
    <glyph glyph-name="uni018F" unicode="&#x18f;" horiz-adv-x="1560" 
d="M274 -27334q58 94 121.5 126.5t135 50t151 65t169.5 47.5q147 0 270.5 -86.5t212.5 -206.5t138.5 -192.5t49.5 -181.5q0 -203 -26 -291.5t-74 -162t-116.5 -125.5t-152.5 -81t-182.5 -75.5t-207.5 -46.5q-144 0 -261.5 83.5t-201 199t-129 185t-45.5 124.5q0 98 5 125
t9 106h13833q-64 129 -114.5 175t-117.5 71t-106 38.5t-101 13.5q-109 0 -158 -25t-93 -60.5t-64 -57.5t-21 -275zM34008 -19036q134 0 189 45.5t96.5 108t53 100t263.5 112.5h-4861q53 -126 100.5 -171t113 -70.5t67.5 -25.5t3978 -99z" />
    <glyph glyph-name="florin" unicode="&#x192;" horiz-adv-x="1400" 
 />
    <glyph glyph-name="uni01B5" unicode="&#x1b5;" horiz-adv-x="1283" 
d="M26 1399h1109v-1400h-1109v1400zM923 211v976h-685v-976h685z" />
    <glyph glyph-name="uni01B6" unicode="&#x1b6;" horiz-adv-x="1007" 
d="M26 1399h1109v-1400h-1109v1400zM923 211v976h-685v-976h685z" />
    <glyph glyph-name="uni01CD" unicode="&#x1cd;" horiz-adv-x="1465" 
d="M26 1400h1109v-1400h-1109v1400zM923 212v976h-685v-976h685z" />
    <glyph glyph-name="uni01CE" unicode="&#x1ce;" horiz-adv-x="1199" 
d="M26 1400h1109v-1400h-1109v1400zM923 212v976h-685v-976h685z" />
    <glyph glyph-name="uni01CF" unicode="&#x1cf;" horiz-adv-x="589" 
d="M26 1400h1109v-1400h-1109v1400zM923 212v976h-685v-976h685z" />
    <glyph glyph-name="uni01D0" unicode="&#x1d0;" horiz-adv-x="521" 
d="M26 1400h1109v-1400h-1109v1400zM923 212v976h-685v-976h685z" />
    <glyph glyph-name="uni01D1" unicode="&#x1d1;" horiz-adv-x="1632" 
d="M26 1400h1109v-1400h-1109v1400zM923 212v976h-685v-976h685z" />
    <glyph glyph-name="uni01D2" unicode="&#x1d2;" horiz-adv-x="1171" 
d="M26 1400h1109v-1400h-1109v1400zM923 212v976h-685v-976h685z" />
    <glyph glyph-name="uni01D3" unicode="&#x1d3;" horiz-adv-x="1455" 
d="M26 1400h1109v-1400h-1109v1400zM923 212v976h-685v-976h685z" />
    <glyph glyph-name="uni01D4" unicode="&#x1d4;" horiz-adv-x="1152" 
d="M26 1400h1109v-1400h-1109v1400zM923 212v976h-685v-976h685z" />
    <glyph glyph-name="uni01D5" unicode="&#x1d5;" horiz-adv-x="1455" 
d="M26 1400h1109v-1400h-1109v1400zM923 212v976h-685v-976h685z" />
    <glyph glyph-name="uni01D6" unicode="&#x1d6;" horiz-adv-x="1152" 
d="M26 1400h1109v-1400h-1109v1400zM923 212v976h-685v-976h685z" />
    <glyph glyph-name="uni01D7" unicode="&#x1d7;" horiz-adv-x="1455" 
d="M26 1400h1109v-1400h-1109v1400zM923 212v976h-685v-976h685z" />
    <glyph glyph-name="uni01D8" unicode="&#x1d8;" horiz-adv-x="1152" 
d="M26 1400h1109v-1400h-1109v1400zM923 212v976h-685v-976h685z" />
    <glyph glyph-name="uni01D9" unicode="&#x1d9;" horiz-adv-x="1455" 
d="M26 1400h1109v-1400h-1109v1400zM923 212v976h-685v-976h685z" />
    <glyph glyph-name="uni01DA" unicode="&#x1da;" horiz-adv-x="1152" 
d="M26 1400h1109v-1400h-1109v1400zM923 212v976h-685v-976h685z" />
    <glyph glyph-name="uni01DB" unicode="&#x1db;" horiz-adv-x="1455" 
d="M26 1400h1109v-1400h-1109v1400zM923 212v976h-685v-976h685z" />
    <glyph glyph-name="uni01DC" unicode="&#x1dc;" horiz-adv-x="1152" 
d="M26 1400h1109v-1400h-1109v1400zM923 212v976h-685v-976h685z" />
    <glyph glyph-name="uni01E2" unicode="&#x1e2;" horiz-adv-x="2301" 
d="M26 1400h1109v-1400h-1109v1400zM923 212v976h-685v-976h685z" />
    <glyph glyph-name="uni01E3" unicode="&#x1e3;" horiz-adv-x="1700" 
d="M26 1400h1109v-1400h-1109v1400zM923 212v976h-685v-976h685z" />
    <glyph glyph-name="Gcaron" unicode="&#x1e6;" horiz-adv-x="1579" 
d="M26 1400h1109v-1400h-1109v1400zM923 212v976h-685v-976h685z" />
    <glyph glyph-name="gcaron" unicode="&#x1e7;" horiz-adv-x="1194" 
d="M26 1400h1109v-1400h-1109v1400zM923 212v976h-685v-976h685z" />
    <glyph glyph-name="Aringacute" unicode="&#x1fa;" horiz-adv-x="1465" 
d="M26 1400h1109v-1400h-1109v1400zM923 212v976h-685v-976h685z" />
    <glyph glyph-name="aringacute" unicode="&#x1fb;" horiz-adv-x="1199" 
d="M26 1400h1109v-1400h-1109v1400zM923 212v976h-685v-976h685z" />
    <glyph glyph-name="AEacute" unicode="&#x1fc;" horiz-adv-x="2301" 
d="M26 1400h1109v-1400h-1109v1400zM923 212v976h-685v-976h685z" />
    <glyph glyph-name="aeacute" unicode="&#x1fd;" horiz-adv-x="1700" 
d="M26 1400h1109v-1400h-1109v1400zM923 212v976h-685v-976h685z" />
    <glyph glyph-name="Oslashacute" unicode="&#x1fe;" horiz-adv-x="1632" 
d="M26 1400h1109v-1400h-1109v1400zM923 212v976h-685v-976h685z" />
    <glyph glyph-name="oslashacute" unicode="&#x1ff;" horiz-adv-x="1171" 
d="M26 1400h1109v-1400h-1109v1400zM923 212v976h-685v-976h685z" />
    <glyph glyph-name="uni0218" unicode="&#x218;" horiz-adv-x="1328" 
d="M26 1400h1109v-1400h-1109v1400zM923 212v976h-685v-976h685z" />
    <glyph glyph-name="uni0219" unicode="&#x219;" horiz-adv-x="967" 
d="M26 1400h1109v-1400h-1109v1400zM923 212v976h-685v-976h685z" />
    <glyph glyph-name="uni021A" unicode="&#x21a;" horiz-adv-x="1193" 
d="M26 1400h1109v-1400h-1109v1400zM923 212v976h-685v-976h685z" />
    <glyph glyph-name="uni021B" unicode="&#x21b;" horiz-adv-x="923" 
d="M26 1400h1109v-1400h-1109v1400zM923 212v976h-685v-976h685z" />
    <glyph glyph-name="uni0232" unicode="&#x232;" horiz-adv-x="1347" 
d="M26 1400h1109v-1400h-1109v1400zM923 212v976h-685v-976h685z" />
    <glyph glyph-name="uni0233" unicode="&#x233;" horiz-adv-x="1120" 
d="M26 1400h1109v-1400h-1109v1400zM923 212v976h-685v-976h685z" />
    <glyph glyph-name="uni0237" unicode="&#x237;" horiz-adv-x="528" 
 />
    <glyph glyph-name="uni0259" unicode="&#x259;" horiz-adv-x="1072" 
 />
    <glyph glyph-name="uni02BB" unicode="&#x2bb;" horiz-adv-x="524" 
d="M26 1400h1109v-1400h-1109v1400zM923 212v976h-685v-976h685z" />
    <glyph glyph-name="uni02BC" unicode="&#x2bc;" horiz-adv-x="524" 
d="M26 1400h1109v-1400h-1109v1400zM923 212v976h-685v-976h685z" />
    <glyph glyph-name="uni02BE" unicode="&#x2be;" horiz-adv-x="549" 
 />
    <glyph glyph-name="uni02BF" unicode="&#x2bf;" horiz-adv-x="549" 
 />
    <glyph glyph-name="circumflex" unicode="&#x2c6;" horiz-adv-x="1069" 
 />
    <glyph glyph-name="caron" unicode="&#x2c7;" horiz-adv-x="1069" 
d="M26 1400h1109v-1400h-1109v1400zM923 212v976h-685v-976h685z" />
    <glyph glyph-name="breve" unicode="&#x2d8;" horiz-adv-x="1069" 
d="M26 1400h1109v-1400h-1109v1400zM923 212v976h-685v-976h685z" />
    <glyph glyph-name="dotaccent" unicode="&#x2d9;" horiz-adv-x="598" 
d="M26 1400h1109v-1400h-1109v1400zM923 212v976h-685v-976h685z" />
    <glyph glyph-name="ring" unicode="&#x2da;" horiz-adv-x="1000" 
d="M26 1400h1109v-1400h-1109v1400zM923 212v976h-685v-976h685z" />
    <glyph glyph-name="ogonek" unicode="&#x2db;" horiz-adv-x="1105" 
d="M26 1400h1109v-1400h-1109v1400zM923 212v976h-685v-976h685z" />
    <glyph glyph-name="tilde" unicode="&#x2dc;" horiz-adv-x="1069" 
d="M26 1400h1109v-1400h-1109v1400zM923 212v976h-685v-976h685z" />
    <glyph glyph-name="hungarumlaut" unicode="&#x2dd;" horiz-adv-x="1069" 
d="M26 1400h1109v-1400h-1109v1400zM923 212v976h-685v-976h685z" />
    <glyph glyph-name="gravecomb" unicode="&#x300;" 
 />
    <glyph glyph-name="acutecomb" unicode="&#x301;" 
 />
    <glyph glyph-name="uni0302" unicode="&#x302;" 
 />
    <glyph glyph-name="tildecomb" unicode="&#x303;" 
 />
    <glyph glyph-name="uni0304" unicode="&#x304;" 
 />
    <glyph glyph-name="uni0306" unicode="&#x306;" 
 />
    <glyph glyph-name="uni0307" unicode="&#x307;" 
 />
    <glyph glyph-name="uni0308" unicode="&#x308;" 
 />
    <glyph glyph-name="uni030A" unicode="&#x30a;" 
 />
    <glyph glyph-name="uni030B" unicode="&#x30b;" 
 />
    <glyph glyph-name="uni030C" unicode="&#x30c;" 
 />
    <glyph glyph-name="uni0312" unicode="&#x312;" 
 />
    <glyph glyph-name="dotbelowcomb" unicode="&#x323;" 
d="M26 1400h1109v-1400h-1109v1400zM923 212v976h-685v-976h685z" />
    <glyph glyph-name="uni0326" unicode="&#x326;" 
 />
    <glyph glyph-name="uni0327" unicode="&#x327;" 
 />
    <glyph glyph-name="uni0328" unicode="&#x328;" 
 />
    <glyph glyph-name="uni032E" unicode="&#x32e;" 
 />
    <glyph glyph-name="uni0331" unicode="&#x331;" 
 />
    <glyph glyph-name="uni0335" unicode="&#x335;" 
 />
    <glyph glyph-name="uni0336" unicode="&#x336;" 
 />
    <glyph glyph-name="uni0394" unicode="&#x394;" horiz-adv-x="1381" 
d="M26 1399h1109v-1400h-1109v1400zM923 211v976h-685v-976h685z" />
    <glyph glyph-name="uni03A9" unicode="&#x3a9;" horiz-adv-x="1694" 
d="M289 -1h-263l306 1440h263z" />
    <glyph glyph-name="uni03BC" unicode="&#x3bc;" horiz-adv-x="1161" 
d="M26 1400h1109v-1400h-1109v1400zM923 212v976h-685v-976h685z" />
    <glyph glyph-name="pi" unicode="&#x3c0;" horiz-adv-x="1157" 
 />
    <glyph glyph-name="uni1E0C" unicode="&#x1e0c;" horiz-adv-x="1519" 
d="M26 1400h1109v-1400h-1109v1400zM923 212v976h-685v-976h685z" />
    <glyph glyph-name="uni1E0D" unicode="&#x1e0d;" horiz-adv-x="1202" 
d="M26 1400h1109v-1400h-1109v1400zM923 212v976h-685v-976h685z" />
    <glyph glyph-name="uni1E0E" unicode="&#x1e0e;" horiz-adv-x="1519" 
d="M26 1400h1109v-1400h-1109v1400zM923 212v976h-685v-976h685z" />
    <glyph glyph-name="uni1E0F" unicode="&#x1e0f;" horiz-adv-x="1202" 
d="M26 1400h1109v-1400h-1109v1400zM923 212v976h-685v-976h685z" />
    <glyph glyph-name="uni1E24" unicode="&#x1e24;" horiz-adv-x="1532" 
d="M26 1400h1109v-1400h-1109v1400zM923 212v976h-685v-976h685z" />
    <glyph glyph-name="uni1E25" unicode="&#x1e25;" horiz-adv-x="1161" 
d="M26 1400h1109v-1400h-1109v1400zM923 212v976h-685v-976h685z" />
    <glyph glyph-name="uni1E28" unicode="&#x1e28;" horiz-adv-x="1532" 
d="M26 1400h1109v-1400h-1109v1400zM923 212v976h-685v-976h685z" />
    <glyph glyph-name="uni1E29" unicode="&#x1e29;" horiz-adv-x="1161" 
d="M26 1400h1109v-1400h-1109v1400zM923 212v976h-685v-976h685z" />
    <glyph glyph-name="uni1E2A" unicode="&#x1e2a;" horiz-adv-x="1532" 
d="M26 1400h1109v-1400h-1109v1400zM923 212v976h-685v-976h685z" />
    <glyph glyph-name="uni1E2B" unicode="&#x1e2b;" horiz-adv-x="1161" 
d="M26 1400h1109v-1400h-1109v1400zM923 212v976h-685v-976h685z" />
    <glyph glyph-name="uni1E32" unicode="&#x1e32;" horiz-adv-x="1388" 
d="M26 1400h1109v-1400h-1109v1400zM923 212v976h-685v-976h685z" />
    <glyph glyph-name="uni1E33" unicode="&#x1e33;" horiz-adv-x="1070" 
d="M26 1400h1109v-1400h-1109v1400zM923 212v976h-685v-976h685z" />
    <glyph glyph-name="uni1E36" unicode="&#x1e36;" horiz-adv-x="1184" 
d="M26 1400h1109v-1400h-1109v1400zM923 212v976h-685v-976h685z" />
    <glyph glyph-name="uni1E37" unicode="&#x1e37;" horiz-adv-x="521" 
d="M26 1400h1109v-1400h-1109v1400zM923 212v976h-685v-976h685z" />
    <glyph glyph-name="uni1E38" unicode="&#x1e38;" horiz-adv-x="1184" 
d="M26 1400h1109v-1400h-1109v1400zM923 212v976h-685v-976h685z" />
    <glyph glyph-name="uni1E39" unicode="&#x1e39;" horiz-adv-x="521" 
d="M26 1400h1109v-1400h-1109v1400zM923 212v976h-685v-976h685z" />
    <glyph glyph-name="uni1E3A" unicode="&#x1e3a;" horiz-adv-x="1184" 
d="M26 1400h1109v-1400h-1109v1400zM923 212v976h-685v-976h685z" />
    <glyph glyph-name="uni1E3B" unicode="&#x1e3b;" horiz-adv-x="521" 
d="M26 1400h1109v-1400h-1109v1400zM923 212v976h-685v-976h685z" />
    <glyph glyph-name="uni1E40" unicode="&#x1e40;" horiz-adv-x="1824" 
d="M26 1400h1109v-1400h-1109v1400zM923 212v976h-685v-976h685z" />
    <glyph glyph-name="uni1E41" unicode="&#x1e41;" horiz-adv-x="1809" 
d="M26 1400h1109v-1400h-1109v1400zM923 212v976h-685v-976h685z" />
    <glyph glyph-name="uni1E42" unicode="&#x1e42;" horiz-adv-x="1824" 
d="M26 1400h1109v-1400h-1109v1400zM923 212v976h-685v-976h685z" />
    <glyph glyph-name="uni1E43" unicode="&#x1e43;" horiz-adv-x="1809" 
d="M26 1400h1109v-1400h-1109v1400zM923 212v976h-685v-976h685z" />
    <glyph glyph-name="uni1E44" unicode="&#x1e44;" horiz-adv-x="1545" 
d="M26 1400h1109v-1400h-1109v1400zM923 212v976h-685v-976h685z" />
    <glyph glyph-name="uni1E45" unicode="&#x1e45;" horiz-adv-x="1161" 
d="M26 1400h1109v-1400h-1109v1400zM923 212v976h-685v-976h685z" />
    <glyph glyph-name="uni1E46" unicode="&#x1e46;" horiz-adv-x="1545" 
d="M26 1400h1109v-1400h-1109v1400zM923 212v976h-685v-976h685z" />
    <glyph glyph-name="uni1E47" unicode="&#x1e47;" horiz-adv-x="1161" 
d="M26 1400h1109v-1400h-1109v1400zM923 212v976h-685v-976h685z" />
    <glyph glyph-name="uni1E48" unicode="&#x1e48;" horiz-adv-x="1545" 
d="M26 1400h1109v-1400h-1109v1400zM923 212v976h-685v-976h685z" />
    <glyph glyph-name="uni1E49" unicode="&#x1e49;" horiz-adv-x="1161" 
d="M26 1400h1109v-1400h-1109v1400zM923 212v976h-685v-976h685z" />
    <glyph glyph-name="uni1E58" unicode="&#x1e58;" horiz-adv-x="1329" 
d="M26 1400h1109v-1400h-1109v1400zM923 212v976h-685v-976h685z" />
    <glyph glyph-name="uni1E59" unicode="&#x1e59;" horiz-adv-x="817" 
d="M26 1400h1109v-1400h-1109v1400zM923 212v976h-685v-976h685z" />
    <glyph glyph-name="uni1E5A" unicode="&#x1e5a;" horiz-adv-x="1329" 
d="M26 1400h1109v-1400h-1109v1400zM923 212v976h-685v-976h685z" />
    <glyph glyph-name="uni1E5B" unicode="&#x1e5b;" horiz-adv-x="817" 
d="M26 1400h1109v-1400h-1109v1400zM923 212v976h-685v-976h685z" />
    <glyph glyph-name="uni1E5C" unicode="&#x1e5c;" horiz-adv-x="1329" 
d="M26 1400h1109v-1400h-1109v1400zM923 212v976h-685v-976h685z" />
    <glyph glyph-name="uni1E5D" unicode="&#x1e5d;" horiz-adv-x="817" 
d="M26 1400h1109v-1400h-1109v1400zM923 212v976h-685v-976h685z" />
    <glyph glyph-name="uni1E5E" unicode="&#x1e5e;" horiz-adv-x="1329" 
d="M26 1400h1109v-1400h-1109v1400zM923 212v976h-685v-976h685z" />
    <glyph glyph-name="uni1E5F" unicode="&#x1e5f;" horiz-adv-x="817" 
d="M26 1400h1109v-1400h-1109v1400zM923 212v976h-685v-976h685z" />
    <glyph glyph-name="uni1E62" unicode="&#x1e62;" horiz-adv-x="1328" 
d="M26 1400h1109v-1400h-1109v1400zM923 212v976h-685v-976h685z" />
    <glyph glyph-name="uni1E63" unicode="&#x1e63;" horiz-adv-x="967" 
d="M26 1400h1109v-1400h-1109v1400zM923 212v976h-685v-976h685z" />
    <glyph glyph-name="uni1E6C" unicode="&#x1e6c;" horiz-adv-x="1193" 
d="M26 1400h1109v-1400h-1109v1400zM923 212v976h-685v-976h685z" />
    <glyph glyph-name="uni1E6D" unicode="&#x1e6d;" horiz-adv-x="923" 
d="M26 1400h1109v-1400h-1109v1400zM923 212v976h-685v-976h685z" />
    <glyph glyph-name="uni1E6E" unicode="&#x1e6e;" horiz-adv-x="1193" 
d="M26 1400h1109v-1400h-1109v1400zM923 212v976h-685v-976h685z" />
    <glyph glyph-name="uni1E6F" unicode="&#x1e6f;" horiz-adv-x="923" 
d="M26 1400h1109v-1400h-1109v1400zM923 212v976h-685v-976h685z" />
    <glyph glyph-name="Wgrave" unicode="&#x1e80;" horiz-adv-x="2167" 
d="M26 1400h1109v-1400h-1109v1400zM923 212v976h-685v-976h685z" />
    <glyph glyph-name="wgrave" unicode="&#x1e81;" horiz-adv-x="1703" 
d="M26 1400h1109v-1400h-1109v1400zM923 212v976h-685v-976h685z" />
    <glyph glyph-name="Wacute" unicode="&#x1e82;" horiz-adv-x="2167" 
d="M26 1400h1109v-1400h-1109v1400zM923 212v976h-685v-976h685z" />
    <glyph glyph-name="wacute" unicode="&#x1e83;" horiz-adv-x="1703" 
d="M26 1400h1109v-1400h-1109v1400zM923 212v976h-685v-976h685z" />
    <glyph glyph-name="Wdieresis" unicode="&#x1e84;" horiz-adv-x="2167" 
d="M26 1400h1109v-1400h-1109v1400zM923 212v976h-685v-976h685z" />
    <glyph glyph-name="wdieresis" unicode="&#x1e85;" horiz-adv-x="1703" 
d="M26 1400h1109v-1400h-1109v1400zM923 212v976h-685v-976h685z" />
    <glyph glyph-name="uni1E88" unicode="&#x1e88;" horiz-adv-x="2167" 
d="M26 1400h1109v-1400h-1109v1400zM923 212v976h-685v-976h685z" />
    <glyph glyph-name="uni1E89" unicode="&#x1e89;" horiz-adv-x="1703" 
d="M26 1400h1109v-1400h-1109v1400zM923 212v976h-685v-976h685z" />
    <glyph glyph-name="uni1E92" unicode="&#x1e92;" horiz-adv-x="1283" 
d="M26 1400h1109v-1400h-1109v1400zM923 212v976h-685v-976h685z" />
    <glyph glyph-name="uni1E93" unicode="&#x1e93;" horiz-adv-x="1007" 
d="M26 1400h1109v-1400h-1109v1400zM923 212v976h-685v-976h685z" />
    <glyph glyph-name="uni1E94" unicode="&#x1e94;" horiz-adv-x="1283" 
d="M26 1400h1109v-1400h-1109v1400zM923 212v976h-685v-976h685z" />
    <glyph glyph-name="uni1E95" unicode="&#x1e95;" horiz-adv-x="1007" 
d="M26 1400h1109v-1400h-1109v1400zM923 212v976h-685v-976h685z" />
    <glyph glyph-name="uni1E96" unicode="&#x1e96;" horiz-adv-x="1161" 
d="M26 1400h1109v-1400h-1109v1400zM923 212v976h-685v-976h685z" />
    <glyph glyph-name="uni1E9E" unicode="&#x1e9e;" horiz-adv-x="1441" 
 />
    <glyph glyph-name="Ygrave" unicode="&#x1ef2;" horiz-adv-x="1347" 
d="M26 1400h1109v-1400h-1109v1400zM923 212v976h-685v-976h685z" />
    <glyph glyph-name="ygrave" unicode="&#x1ef3;" horiz-adv-x="1120" 
d="M26 1400h1109v-1400h-1109v1400zM923 212v976h-685v-976h685z" />
    <glyph glyph-name="uni1EF4" unicode="&#x1ef4;" horiz-adv-x="1347" 
d="M26 1400h1109v-1400h-1109v1400zM923 212v976h-685v-976h685z" />
    <glyph glyph-name="uni1EF5" unicode="&#x1ef5;" horiz-adv-x="1120" 
d="M26 1400h1109v-1400h-1109v1400zM923 212v976h-685v-976h685z" />
    <glyph glyph-name="uni2007" unicode="&#x2007;" horiz-adv-x="1403" 
 />
    <glyph glyph-name="uni2008" unicode="&#x2008;" horiz-adv-x="538" 
 />
    <glyph glyph-name="uni2009" unicode="&#x2009;" horiz-adv-x="165" 
 />
    <glyph glyph-name="uni200B" unicode="&#x200b;" horiz-adv-x="0" 
 />
    <glyph glyph-name="uni2010" unicode="&#x2010;" horiz-adv-x="794" 
d="M26 1400h1109v-1400h-1109v1400zM923 212v976h-685v-976h685z" />
    <glyph glyph-name="uni2011" unicode="&#x2011;" horiz-adv-x="794" 
d="M26 1400h1109v-1400h-1109v1400zM923 212v976h-685v-976h685z" />
    <glyph glyph-name="figuredash" unicode="&#x2012;" horiz-adv-x="1200" 
d="M26 1400h1109v-1400h-1109v1400zM923 212v976h-685v-976h685z" />
    <glyph glyph-name="endash" unicode="&#x2013;" horiz-adv-x="1135" 
 />
    <glyph glyph-name="emdash" unicode="&#x2014;" horiz-adv-x="1568" 
 />
    <glyph glyph-name="quoteleft" unicode="&#x2018;" horiz-adv-x="524" 
 />
    <glyph glyph-name="quoteright" unicode="&#x2019;" horiz-adv-x="524" 
 />
    <glyph glyph-name="quotesinglbase" unicode="&#x201a;" horiz-adv-x="524" 
 />
    <glyph glyph-name="quotedblleft" unicode="&#x201c;" horiz-adv-x="957" 
 />
    <glyph glyph-name="quotedblright" unicode="&#x201d;" horiz-adv-x="957" 
 />
    <glyph glyph-name="quotedblbase" unicode="&#x201e;" horiz-adv-x="957" 
 />
    <glyph glyph-name="dagger" unicode="&#x2020;" horiz-adv-x="788" 
 />
    <glyph glyph-name="daggerdbl" unicode="&#x2021;" horiz-adv-x="788" 
 />
    <glyph glyph-name="bullet" unicode="&#x2022;" horiz-adv-x="861" 
 />
    <glyph glyph-name="uni2023" unicode="&#x2023;" horiz-adv-x="1005" 
 />
    <glyph glyph-name="ellipsis" unicode="&#x2026;" horiz-adv-x="1644" 
 />
    <glyph glyph-name="perthousand" unicode="&#x2030;" horiz-adv-x="2845" 
 />
    <glyph glyph-name="minute" unicode="&#x2032;" horiz-adv-x="568" 
 />
    <glyph glyph-name="second" unicode="&#x2033;" horiz-adv-x="957" 
 />
    <glyph glyph-name="uni2034" unicode="&#x2034;" horiz-adv-x="1303" 
 />
    <glyph glyph-name="guilsinglleft" unicode="&#x2039;" horiz-adv-x="638" 
 />
    <glyph glyph-name="guilsinglright" unicode="&#x203a;" horiz-adv-x="638" 
 />
    <glyph glyph-name="fraction" unicode="&#x2044;" horiz-adv-x="476" 
 />
    <glyph glyph-name="uni2070" unicode="&#x2070;" horiz-adv-x="891" 
d="M152 1402h1109v-1400h-1109v1400zM1049 214v976h-685v-976h685z" />
    <glyph glyph-name="uni2071" unicode="&#x2071;" horiz-adv-x="438" 
 />
    <glyph glyph-name="uni2074" unicode="&#x2074;" horiz-adv-x="718" 
d="M150 1402h1109v-1400h-1109v1400zM1047 214v976h-685v-976h685z" />
    <glyph glyph-name="uni2075" unicode="&#x2075;" horiz-adv-x="716" 
d="M151 1402h1109v-1400h-1109v1400zM1048 214v976h-685v-976h685z" />
    <glyph glyph-name="uni2076" unicode="&#x2076;" horiz-adv-x="747" 
d="M150 1402h1109v-1400h-1109v1400zM1047 214v976h-685v-976h685z" />
    <glyph glyph-name="uni2077" unicode="&#x2077;" horiz-adv-x="682" 
d="M150 1402h1109v-1400h-1109v1400zM1047 214v976h-685v-976h685z" />
    <glyph glyph-name="uni2078" unicode="&#x2078;" horiz-adv-x="782" 
d="M151 1402h1109v-1400h-1109v1400zM1048 214v976h-685v-976h685z" />
    <glyph glyph-name="uni2079" unicode="&#x2079;" horiz-adv-x="747" 
d="M147 1402h1109v-1400h-1109v1400zM1044 214v976h-685v-976h685z" />
    <glyph glyph-name="uni207F" unicode="&#x207f;" horiz-adv-x="818" 
 />
    <glyph glyph-name="uni2080" unicode="&#x2080;" horiz-adv-x="891" 
d="M-49 1398h1109v-1400h-1109v1400zM848 210v976h-685v-976h685z" />
    <glyph glyph-name="uni2081" unicode="&#x2081;" horiz-adv-x="527" 
d="M-52 1398h1109v-1400h-1109v1400zM845 210v976h-685v-976h685z" />
    <glyph glyph-name="uni2082" unicode="&#x2082;" horiz-adv-x="727" 
d="M-51 1398h1109v-1400h-1109v1400zM846 210v976h-685v-976h685z" />
    <glyph glyph-name="uni2083" unicode="&#x2083;" horiz-adv-x="721" 
d="M-52 1398h1109v-1400h-1109v1400zM845 210v976h-685v-976h685z" />
    <glyph glyph-name="uni2084" unicode="&#x2084;" horiz-adv-x="718" 
d="M-53 1398h1109v-1400h-1109v1400zM844 210v976h-685v-976h685z" />
    <glyph glyph-name="uni2085" unicode="&#x2085;" horiz-adv-x="715" 
d="M-51 1398h1109v-1400h-1109v1400zM846 210v976h-685v-976h685z" />
    <glyph glyph-name="uni2086" unicode="&#x2086;" horiz-adv-x="747" 
d="M-52 1398h1109v-1400h-1109v1400zM845 210v976h-685v-976h685z" />
    <glyph glyph-name="uni2087" unicode="&#x2087;" horiz-adv-x="682" 
d="M-52 1398h1109v-1400h-1109v1400zM845 210v976h-685v-976h685z" />
    <glyph glyph-name="uni2088" unicode="&#x2088;" horiz-adv-x="782" 
d="M-50 1398h1109v-1400h-1109v1400zM847 210v976h-685v-976h685z" />
    <glyph glyph-name="uni2089" unicode="&#x2089;" horiz-adv-x="747" 
d="M-58 1398h1109v-1400h-1109v1400zM839 210v976h-685v-976h685z" />
    <glyph glyph-name="Euro" unicode="&#x20ac;" horiz-adv-x="1400" 
 />
    <glyph glyph-name="uni20BA" unicode="&#x20ba;" horiz-adv-x="1400" 
 />
    <glyph glyph-name="uni2100" unicode="&#x2100;" horiz-adv-x="2000" 
d="M26 1400h1109v-1400h-1109v1400zM923 212v976h-685v-976h685z" />
    <glyph glyph-name="uni2101" unicode="&#x2101;" horiz-adv-x="2000" 
d="M26 1400h1109v-1400h-1109v1400zM923 212v976h-685v-976h685z" />
    <glyph glyph-name="uni2105" unicode="&#x2105;" horiz-adv-x="2000" 
d="M109 1400h1109v-1400h-1109v1400zM1006 212v976h-685v-976h685z" />
    <glyph glyph-name="uni2106" unicode="&#x2106;" horiz-adv-x="2000" 
d="M113 1400h1109v-1400h-1109v1400zM1010 212v976h-685v-976h685z" />
    <glyph glyph-name="uni2113" unicode="&#x2113;" horiz-adv-x="1045" 
 />
    <glyph glyph-name="uni2116" unicode="&#x2116;" horiz-adv-x="2376" 
 />
    <glyph glyph-name="uni2117" unicode="&#x2117;" horiz-adv-x="1859" 
 />
    <glyph glyph-name="uni2120" unicode="&#x2120;" horiz-adv-x="1619" 
 />
    <glyph glyph-name="trademark" unicode="&#x2122;" horiz-adv-x="1615" 
 />
    <glyph glyph-name="Omega" unicode="&#x2126;" horiz-adv-x="1694" 
 />
    <glyph glyph-name="estimated" unicode="&#x212e;" horiz-adv-x="2000" 
 />
    <glyph glyph-name="uni214D" unicode="&#x214d;" horiz-adv-x="2053" 
 />
    <glyph glyph-name="uni2150" unicode="&#x2150;" horiz-adv-x="1749" 
d="M26 1400h1109v-1400h-1109v1400zM923 212v976h-685v-976h685z" />
    <glyph glyph-name="uni2151" unicode="&#x2151;" horiz-adv-x="1786" 
d="M26 1400h1109v-1400h-1109v1400zM923 212v976h-685v-976h685z" />
    <glyph glyph-name="uni2152" unicode="&#x2152;" horiz-adv-x="2466" 
d="M26 1400h1109v-1400h-1109v1400zM923 212v976h-685v-976h685z" />
    <glyph glyph-name="onethird" unicode="&#x2153;" horiz-adv-x="1759" 
d="M26 1400h1109v-1400h-1109v1400zM923 212v976h-685v-976h685z" />
    <glyph glyph-name="twothirds" unicode="&#x2154;" horiz-adv-x="1990" 
d="M26 1400h1109v-1400h-1109v1400zM923 212v976h-685v-976h685z" />
    <glyph glyph-name="uni2155" unicode="&#x2155;" horiz-adv-x="1756" 
d="M26 1400h1109v-1400h-1109v1400zM923 212v976h-685v-976h685z" />
    <glyph glyph-name="uni2156" unicode="&#x2156;" horiz-adv-x="1987" 
d="M26 1400h1109v-1400h-1109v1400zM923 212v976h-685v-976h685z" />
    <glyph glyph-name="uni2157" unicode="&#x2157;" horiz-adv-x="1922" 
d="M26 1400h1109v-1400h-1109v1400zM923 212v976h-685v-976h685z" />
    <glyph glyph-name="uni2158" unicode="&#x2158;" horiz-adv-x="1942" 
d="M26 1400h1109v-1400h-1109v1400zM923 212v976h-685v-976h685z" />
    <glyph glyph-name="uni2159" unicode="&#x2159;" horiz-adv-x="1677" 
d="M26 1400h1109v-1400h-1109v1400zM923 212v976h-685v-976h685z" />
    <glyph glyph-name="uni215A" unicode="&#x215a;" horiz-adv-x="1837" 
d="M26 1400h1109v-1400h-1109v1400zM923 212v976h-685v-976h685z" />
    <glyph glyph-name="oneeighth" unicode="&#x215b;" horiz-adv-x="1787" 
d="M26 1400h1109v-1400h-1109v1400zM923 212v976h-685v-976h685z" />
    <glyph glyph-name="threeeighths" unicode="&#x215c;" horiz-adv-x="1953" 
d="M26 1400h1109v-1400h-1109v1400zM923 212v976h-685v-976h685z" />
    <glyph glyph-name="fiveeighths" unicode="&#x215d;" horiz-adv-x="1947" 
d="M26 1400h1109v-1400h-1109v1400zM923 212v976h-685v-976h685z" />
    <glyph glyph-name="seveneighths" unicode="&#x215e;" horiz-adv-x="1840" 
d="M26 1400h1109v-1400h-1109v1400zM923 212v976h-685v-976h685z" />
    <glyph glyph-name="uni215F" unicode="&#x215f;" horiz-adv-x="1039" 
d="M26 1400h1109v-1400h-1109v1400zM923 212v976h-685v-976h685z" />
    <glyph glyph-name="uni2189" unicode="&#x2189;" horiz-adv-x="2087" 
d="M26 1400h1109v-1400h-1109v1400zM923 212v976h-685v-976h685z" />
    <glyph glyph-name="arrowleft" unicode="&#x2190;" horiz-adv-x="2000" 
 />
    <glyph glyph-name="arrowup" unicode="&#x2191;" horiz-adv-x="2000" 
 />
    <glyph glyph-name="arrowright" unicode="&#x2192;" horiz-adv-x="2000" 
 />
    <glyph glyph-name="arrowdown" unicode="&#x2193;" horiz-adv-x="2000" 
 />
    <glyph glyph-name="uni2196" unicode="&#x2196;" horiz-adv-x="2000" 
 />
    <glyph glyph-name="uni2197" unicode="&#x2197;" horiz-adv-x="2000" 
 />
    <glyph glyph-name="uni2198" unicode="&#x2198;" horiz-adv-x="2000" 
 />
    <glyph glyph-name="uni2199" unicode="&#x2199;" horiz-adv-x="2000" 
 />
    <glyph glyph-name="partialdiff" unicode="&#x2202;" horiz-adv-x="1172" 
 />
    <glyph glyph-name="emptyset" unicode="&#x2205;" horiz-adv-x="1339" 
 />
    <glyph glyph-name="emptyset" unicode="&#x2300;" horiz-adv-x="1339" 
 />
    <glyph glyph-name="Delta" unicode="&#x2206;" horiz-adv-x="1381" 
 />
    <glyph glyph-name="product" unicode="&#x220f;" horiz-adv-x="1814" 
 />
    <glyph glyph-name="summation" unicode="&#x2211;" horiz-adv-x="1592" 
 />
    <glyph glyph-name="minus" unicode="&#x2212;" horiz-adv-x="1200" 
 />
    <glyph glyph-name="uni2219" unicode="&#x2219;" horiz-adv-x="1200" 
d="M26 1400h1109v-1400h-1109v1400zM923 212v976h-685v-976h685z" />
    <glyph glyph-name="radical" unicode="&#x221a;" horiz-adv-x="1159" 
 />
    <glyph glyph-name="infinity" unicode="&#x221e;" horiz-adv-x="1738" 
 />
    <glyph glyph-name="integral" unicode="&#x222b;" horiz-adv-x="415" 
 />
    <glyph glyph-name="congruent" unicode="&#x2245;" horiz-adv-x="1200" 
 />
    <glyph glyph-name="approxequal" unicode="&#x2248;" horiz-adv-x="1200" 
 />
    <glyph glyph-name="uni2259" unicode="&#x2259;" horiz-adv-x="1200" 
 />
    <glyph glyph-name="notequal" unicode="&#x2260;" horiz-adv-x="1200" 
 />
    <glyph glyph-name="lessequal" unicode="&#x2264;" horiz-adv-x="1200" 
 />
    <glyph glyph-name="greaterequal" unicode="&#x2265;" horiz-adv-x="1200" 
 />
    <glyph glyph-name="dotmath" unicode="&#x22c5;" horiz-adv-x="1200" 
d="M26 1400h1109v-1400h-1109v1400zM923 212v976h-685v-976h685z" />
    <glyph glyph-name="uni2460" unicode="&#x2460;" horiz-adv-x="2050" 
 />
    <glyph glyph-name="uni2461" unicode="&#x2461;" horiz-adv-x="2050" 
 />
    <glyph glyph-name="uni2462" unicode="&#x2462;" horiz-adv-x="2050" 
 />
    <glyph glyph-name="uni2463" unicode="&#x2463;" horiz-adv-x="2050" 
 />
    <glyph glyph-name="uni2464" unicode="&#x2464;" horiz-adv-x="2050" 
 />
    <glyph glyph-name="uni2465" unicode="&#x2465;" horiz-adv-x="2050" 
 />
    <glyph glyph-name="uni2466" unicode="&#x2466;" horiz-adv-x="2050" 
 />
    <glyph glyph-name="uni2467" unicode="&#x2467;" horiz-adv-x="2050" 
 />
    <glyph glyph-name="uni2468" unicode="&#x2468;" horiz-adv-x="2050" 
 />
    <glyph glyph-name="uni24EA" unicode="&#x24ea;" horiz-adv-x="2050" 
 />
    <glyph glyph-name="uni24FF" unicode="&#x24ff;" horiz-adv-x="2050" 
 />
    <glyph glyph-name="uni2573" unicode="&#x2573;" horiz-adv-x="2172" 
 />
    <glyph glyph-name="uni2573" unicode="&#x2715;" horiz-adv-x="2172" 
 />
    <glyph glyph-name="lfblock" unicode="&#x258c;" horiz-adv-x="1800" 
 />
    <glyph glyph-name="lfblock" unicode="&#x25ae;" horiz-adv-x="1800" 
 />
    <glyph glyph-name="filledbox" unicode="&#x25a0;" horiz-adv-x="1800" 
 />
    <glyph glyph-name="H22073" unicode="&#x25a1;" horiz-adv-x="1800" 
 />
    <glyph glyph-name="triagup" unicode="&#x25b2;" horiz-adv-x="1800" 
 />
    <glyph glyph-name="uni25B3" unicode="&#x25b3;" horiz-adv-x="1800" 
 />
    <glyph glyph-name="uni25B4" unicode="&#x25b4;" horiz-adv-x="1200" 
 />
    <glyph glyph-name="uni25B8" unicode="&#x25b8;" horiz-adv-x="1200" 
 />
    <glyph glyph-name="triagdn" unicode="&#x25bc;" horiz-adv-x="1800" 
 />
    <glyph glyph-name="uni25BD" unicode="&#x25bd;" horiz-adv-x="1800" 
 />
    <glyph glyph-name="uni25BE" unicode="&#x25be;" horiz-adv-x="1200" 
 />
    <glyph glyph-name="uni25C2" unicode="&#x25c2;" horiz-adv-x="1199" 
 />
    <glyph glyph-name="uni25C6" unicode="&#x25c6;" horiz-adv-x="1800" 
 />
    <glyph glyph-name="uni25C7" unicode="&#x25c7;" horiz-adv-x="1800" 
 />
    <glyph glyph-name="lozenge" unicode="&#x25ca;" horiz-adv-x="1530" 
 />
    <glyph glyph-name="circle" unicode="&#x25cb;" horiz-adv-x="1800" 
 />
    <glyph glyph-name="H18533" unicode="&#x25cf;" horiz-adv-x="1800" 
 />
    <glyph glyph-name="uni25D0" unicode="&#x25d0;" horiz-adv-x="1800" 
 />
    <glyph glyph-name="uni25D6" unicode="&#x25d6;" horiz-adv-x="1800" 
 />
    <glyph glyph-name="uni25E7" unicode="&#x25e7;" horiz-adv-x="1800" 
 />
    <glyph glyph-name="uni2610" unicode="&#x2610;" horiz-adv-x="2200" 
 />
    <glyph glyph-name="uni2611" unicode="&#x2611;" horiz-adv-x="2200" 
 />
    <glyph glyph-name="uni2612" unicode="&#x2612;" horiz-adv-x="2200" 
 />
    <glyph glyph-name="heart" unicode="&#x2665;" horiz-adv-x="1800" 
 />
    <glyph glyph-name="uni2713" unicode="&#x2713;" horiz-adv-x="2200" 
 />
    <glyph glyph-name="uni2717" unicode="&#x2717;" horiz-adv-x="2200" 
 />
    <glyph glyph-name="uni2776" unicode="&#x2776;" horiz-adv-x="2050" 
 />
    <glyph glyph-name="uni2776" unicode="&#x278a;" horiz-adv-x="2050" 
 />
    <glyph glyph-name="uni2777" unicode="&#x2777;" horiz-adv-x="2050" 
 />
    <glyph glyph-name="uni2777" unicode="&#x278b;" horiz-adv-x="2050" 
 />
    <glyph glyph-name="uni2778" unicode="&#x2778;" horiz-adv-x="2050" 
 />
    <glyph glyph-name="uni2778" unicode="&#x278c;" horiz-adv-x="2050" 
 />
    <glyph glyph-name="uni2779" unicode="&#x2779;" horiz-adv-x="2050" 
 />
    <glyph glyph-name="uni2779" unicode="&#x278d;" horiz-adv-x="2050" 
 />
    <glyph glyph-name="uni277A" unicode="&#x277a;" horiz-adv-x="2050" 
 />
    <glyph glyph-name="uni277A" unicode="&#x278e;" horiz-adv-x="2050" 
 />
    <glyph glyph-name="uni277B" unicode="&#x277b;" horiz-adv-x="2050" 
 />
    <glyph glyph-name="uni277B" unicode="&#x278f;" horiz-adv-x="2050" 
 />
    <glyph glyph-name="uni277C" unicode="&#x277c;" horiz-adv-x="2050" 
 />
    <glyph glyph-name="uni277C" unicode="&#x2790;" horiz-adv-x="2050" 
 />
    <glyph glyph-name="uni277D" unicode="&#x277d;" horiz-adv-x="2050" 
 />
    <glyph glyph-name="uni277D" unicode="&#x2791;" horiz-adv-x="2050" 
 />
    <glyph glyph-name="uni277E" unicode="&#x277e;" horiz-adv-x="2050" 
 />
    <glyph glyph-name="uni277E" unicode="&#x2792;" horiz-adv-x="2050" 
 />
    <glyph glyph-name="uni2B51" unicode="&#x2b51;" horiz-adv-x="1800" 
 />
    <glyph glyph-name="uni2B52" unicode="&#x2b52;" horiz-adv-x="1800" 
 />
    <glyph glyph-name="uni2E17" unicode="&#x2e17;" horiz-adv-x="829" 
d="M26 1400h1109v-1400h-1109v1400zM923 212v976h-685v-976h685z" />
    <glyph glyph-name="uni2E38" unicode="&#x2e38;" horiz-adv-x="788" 
 />
    <glyph glyph-name="uniEA00" unicode="&#xea00;" horiz-adv-x="1800" 
 />
    <glyph glyph-name="uniEA01" unicode="&#xea01;" horiz-adv-x="1800" 
 />
    <glyph glyph-name="uniFB00" unicode="&#xfb00;" horiz-adv-x="1616" 
d="M26 1400h1109v-1400h-1109v1400zM923 212v976h-685v-976h685z" />
    <glyph glyph-name="uniFB01" unicode="&#xfb01;" horiz-adv-x="1339" 
d="M26 1400h1109v-1400h-1109v1400zM923 212v976h-685v-976h685z" />
    <glyph glyph-name="uniFB02" unicode="&#xfb02;" horiz-adv-x="1339" 
d="M26 1400h1109v-1400h-1109v1400zM923 212v976h-685v-976h685z" />
    <glyph glyph-name="uniFB03" unicode="&#xfb03;" horiz-adv-x="2137" 
d="M26 1400h1109v-1400h-1109v1400zM923 212v976h-685v-976h685z" />
    <glyph glyph-name="uniFB04" unicode="&#xfb04;" horiz-adv-x="2137" 
d="M26 1400h1109v-1400h-1109v1400zM923 212v976h-685v-976h685z" />
    <glyph glyph-name="uniFB05" unicode="&#xfb05;" horiz-adv-x="1439" 
 />
    <glyph glyph-name="uniFB06" unicode="&#xfb06;" horiz-adv-x="1883" 
d="M26 1400h1109v-1400h-1109v1400zM923 212v976h-685v-976h685z" />
    <glyph glyph-name="uniFEFF" unicode="&#xfeff;" horiz-adv-x="0" 
 />
    <glyph glyph-name="glyph618" horiz-adv-x="785" 
 />
    <glyph glyph-name="glyph619" horiz-adv-x="1238" 
 />
    <glyph glyph-name="glyph620" horiz-adv-x="691" 
 />
    <glyph glyph-name="glyph621" horiz-adv-x="1094" 
 />
    <glyph glyph-name="glyph622" horiz-adv-x="842" 
 />
    <glyph glyph-name="glyph623" horiz-adv-x="1201" 
 />
    <glyph glyph-name="glyph624" horiz-adv-x="1182" 
 />
    <glyph glyph-name="glyph625" horiz-adv-x="1840" 
 />
    <glyph glyph-name="glyph626" horiz-adv-x="1118" 
 />
    <glyph glyph-name="glyph627" horiz-adv-x="848" 
 />
    <glyph glyph-name="glyph628" horiz-adv-x="1070" 
 />
    <glyph glyph-name="glyph629" horiz-adv-x="800" 
 />
    <glyph glyph-name="glyph630" horiz-adv-x="1751" 
 />
    <glyph glyph-name="glyph631" horiz-adv-x="1035" 
 />
    <glyph glyph-name="glyph632" horiz-adv-x="1254" 
 />
    <glyph glyph-name="glyph633" horiz-adv-x="1251" 
 />
    <glyph glyph-name="glyph634" horiz-adv-x="927" 
 />
    <glyph glyph-name="glyph635" horiz-adv-x="1276" 
 />
    <glyph glyph-name="glyph636" horiz-adv-x="1165" 
 />
    <glyph glyph-name="glyph637" horiz-adv-x="778" 
 />
    <glyph glyph-name="glyph638" horiz-adv-x="1225" 
 />
    <glyph glyph-name="glyph639" horiz-adv-x="931" 
 />
    <glyph glyph-name="glyph640" horiz-adv-x="1339" 
 />
    <glyph glyph-name="glyph641" horiz-adv-x="531" 
 />
    <glyph glyph-name="glyph642" horiz-adv-x="751" 
 />
    <glyph glyph-name="glyph643" horiz-adv-x="1200" 
 />
    <glyph glyph-name="glyph644" horiz-adv-x="1200" 
 />
    <glyph glyph-name="glyph645" horiz-adv-x="808" 
 />
    <glyph glyph-name="glyph646" horiz-adv-x="879" 
 />
    <glyph glyph-name="glyph647" horiz-adv-x="668" 
 />
    <glyph glyph-name="glyph648" horiz-adv-x="1147" 
 />
    <glyph glyph-name="glyph649" horiz-adv-x="968" 
 />
    <glyph glyph-name="glyph650" horiz-adv-x="741" 
 />
    <glyph glyph-name="glyph651" horiz-adv-x="1061" 
 />
    <glyph glyph-name="glyph652" horiz-adv-x="1505" 
 />
    <glyph glyph-name="glyph653" horiz-adv-x="1120" 
 />
    <glyph glyph-name="glyph654" horiz-adv-x="1283" 
 />
    <glyph glyph-name="glyph655" horiz-adv-x="1283" 
 />
    <glyph glyph-name="glyph656" horiz-adv-x="1292" 
 />
    <glyph glyph-name="glyph657" horiz-adv-x="1292" 
 />
    <glyph glyph-name="glyph658" horiz-adv-x="1308" 
 />
    <glyph glyph-name="glyph659" horiz-adv-x="891" 
 />
    <glyph glyph-name="glyph660" horiz-adv-x="1200" 
 />
    <glyph glyph-name="glyph661" horiz-adv-x="1335" 
 />
    <glyph glyph-name="glyph662" horiz-adv-x="1335" 
 />
    <glyph glyph-name="glyph663" horiz-adv-x="1200" 
 />
    <glyph glyph-name="glyph664" horiz-adv-x="1200" 
 />
    <glyph glyph-name="glyph665" horiz-adv-x="1200" 
 />
    <glyph glyph-name="glyph666" horiz-adv-x="1403" 
 />
    <glyph glyph-name="glyph667" horiz-adv-x="1066" 
 />
    <glyph glyph-name="glyph668" horiz-adv-x="1073" 
 />
    <glyph glyph-name="glyph669" horiz-adv-x="1116" 
 />
    <glyph glyph-name="glyph670" horiz-adv-x="826" 
 />
    <glyph glyph-name="glyph671" horiz-adv-x="961" 
 />
    <glyph glyph-name="glyph672" horiz-adv-x="758" 
 />
    <glyph glyph-name="glyph673" horiz-adv-x="961" 
 />
    <glyph glyph-name="glyph674" horiz-adv-x="1194" 
 />
    <glyph glyph-name="glyph675" horiz-adv-x="1156" 
 />
    <glyph glyph-name="glyph676" horiz-adv-x="1729" 
 />
    <glyph glyph-name="glyph677" horiz-adv-x="1064" 
 />
    <glyph glyph-name="glyph678" horiz-adv-x="1092" 
 />
    <glyph glyph-name="glyph679" horiz-adv-x="1283" 
 />
    <glyph glyph-name="glyph680" horiz-adv-x="1052" 
 />
    <glyph glyph-name="glyph681" horiz-adv-x="1052" 
 />
    <glyph glyph-name="glyph682" horiz-adv-x="1007" 
 />
    <glyph glyph-name="glyph683" horiz-adv-x="1108" 
 />
    <glyph glyph-name="glyph684" horiz-adv-x="1069" 
 />
    <glyph glyph-name="glyph685" horiz-adv-x="1070" 
 />
    <glyph glyph-name="glyph686" horiz-adv-x="1112" 
 />
    <glyph glyph-name="glyph687" horiz-adv-x="1200" 
 />
    <glyph glyph-name="glyph688" horiz-adv-x="1200" 
 />
    <glyph glyph-name="glyph689" horiz-adv-x="693" 
 />
    <glyph glyph-name="glyph690" horiz-adv-x="802" 
 />
    <glyph glyph-name="glyph691" horiz-adv-x="1098" 
 />
    <glyph glyph-name="glyph692" horiz-adv-x="1120" 
 />
    <glyph glyph-name="glyph693" horiz-adv-x="1099" 
 />
    <glyph glyph-name="glyph694" horiz-adv-x="1158" 
 />
    <glyph glyph-name="glyph695" horiz-adv-x="1158" 
 />
    <glyph glyph-name="glyph696" horiz-adv-x="829" 
 />
    <glyph glyph-name="glyph697" horiz-adv-x="1087" 
 />
    <glyph glyph-name="glyph698" horiz-adv-x="638" 
 />
    <glyph glyph-name="glyph699" horiz-adv-x="983" 
 />
    <glyph glyph-name="glyph700" horiz-adv-x="1518" 
 />
    <glyph glyph-name="glyph701" 
 />
    <glyph glyph-name="glyph702" 
 />
    <glyph glyph-name="glyph703" 
 />
    <glyph glyph-name="glyph704" 
 />
    <glyph glyph-name="glyph705" 
 />
    <glyph glyph-name="glyph706" 
 />
    <glyph glyph-name="glyph707" 
 />
    <glyph glyph-name="glyph708" 
 />
    <glyph glyph-name="glyph709" 
 />
    <glyph glyph-name="glyph710" 
 />
    <glyph glyph-name="glyph711" 
 />
    <glyph glyph-name="glyph712" 
 />
    <glyph glyph-name="glyph713" 
 />
    <glyph glyph-name="glyph714" 
 />
    <glyph glyph-name="glyph715" 
 />
    <glyph glyph-name="glyph716" 
 />
    <glyph glyph-name="glyph717" 
 />
    <glyph glyph-name="glyph718" 
 />
    <glyph glyph-name="glyph719" 
 />
    <glyph glyph-name="glyph720" 
 />
    <glyph glyph-name="glyph721" horiz-adv-x="533" 
 />
    <glyph glyph-name="glyph722" horiz-adv-x="728" 
 />
    <glyph glyph-name="glyph723" horiz-adv-x="683" 
 />
    <glyph glyph-name="glyph724" horiz-adv-x="870" 
 />
    <glyph glyph-name="glyph725" horiz-adv-x="869" 
 />
    <glyph glyph-name="glyph726" horiz-adv-x="818" 
 />
    <glyph glyph-name="glyph727" horiz-adv-x="382" 
 />
    <glyph glyph-name="glyph728" horiz-adv-x="1274" 
 />
    <glyph glyph-name="glyph729" horiz-adv-x="720" 
 />
    <glyph glyph-name="glyph730" horiz-adv-x="718" 
 />
    <glyph glyph-name="glyph731" horiz-adv-x="717" 
 />
    <glyph glyph-name="glyph732" horiz-adv-x="747" 
 />
    <glyph glyph-name="glyph733" horiz-adv-x="782" 
 />
    <glyph glyph-name="glyph734" horiz-adv-x="609" 
 />
    <glyph glyph-name="glyph735" horiz-adv-x="747" 
 />
    <glyph glyph-name="glyph736" horiz-adv-x="1448" 
 />
    <glyph glyph-name="glyph737" horiz-adv-x="1639" 
 />
    <glyph glyph-name="glyph738" horiz-adv-x="1472" 
 />
    <glyph glyph-name="glyph739" horiz-adv-x="904" 
 />
    <glyph glyph-name="glyph740" horiz-adv-x="1148" 
 />
    <glyph glyph-name="glyph741" 
 />
    <glyph glyph-name="glyph742" horiz-adv-x="800" 
 />
    <glyph glyph-name="glyph743" horiz-adv-x="621" 
 />
    <glyph glyph-name="glyph744" horiz-adv-x="1450" 
 />
    <glyph glyph-name="glyph745" horiz-adv-x="2118" 
 />
    <glyph glyph-name="glyph746" horiz-adv-x="1200" 
 />
    <glyph glyph-name="glyph747" horiz-adv-x="1200" 
 />
    <glyph glyph-name="glyph748" horiz-adv-x="953" 
 />
    <glyph glyph-name="glyph749" horiz-adv-x="400" 
 />
    <glyph glyph-name="glyph750" horiz-adv-x="1093" 
 />
    <glyph glyph-name="glyph751" horiz-adv-x="797" 
 />
    <glyph glyph-name="glyph752" horiz-adv-x="469" 
 />
    <glyph glyph-name="glyph753" horiz-adv-x="2303" 
 />
    <glyph glyph-name="glyph754" horiz-adv-x="621" 
 />
    <glyph glyph-name="glyph755" horiz-adv-x="621" 
 />
    <glyph glyph-name="glyph756" horiz-adv-x="792" 
 />
    <glyph glyph-name="glyph757" horiz-adv-x="798" 
 />
    <glyph glyph-name="glyph758" horiz-adv-x="798" 
 />
    <glyph glyph-name="glyph759" horiz-adv-x="432" 
 />
    <glyph glyph-name="glyph760" horiz-adv-x="438" 
 />
    <glyph glyph-name="glyph761" horiz-adv-x="438" 
 />
    <glyph glyph-name="glyph762" horiz-adv-x="1188" 
 />
    <glyph glyph-name="glyph763" 
 />
    <glyph glyph-name="glyph764" 
 />
    <glyph glyph-name="glyph765" horiz-adv-x="1200" 
 />
    <glyph glyph-name="glyph766" horiz-adv-x="725" 
 />
    <glyph glyph-name="glyph767" horiz-adv-x="1001" 
 />
    <glyph glyph-name="glyph768" horiz-adv-x="703" 
 />
    <glyph glyph-name="glyph769" horiz-adv-x="931" 
 />
    <glyph glyph-name="glyph770" horiz-adv-x="1450" 
 />
    <glyph glyph-name="glyph771" horiz-adv-x="985" 
 />
    <glyph glyph-name="glyph772" horiz-adv-x="1200" 
 />
    <glyph glyph-name="glyph773" horiz-adv-x="1200" 
 />
    <glyph glyph-name="glyph774" horiz-adv-x="1200" 
 />
    <glyph glyph-name="glyph775" horiz-adv-x="1200" 
 />
    <glyph glyph-name="glyph776" horiz-adv-x="537" 
 />
    <glyph glyph-name="glyph777" horiz-adv-x="677" 
 />
    <glyph glyph-name="glyph778" horiz-adv-x="677" 
 />
    <glyph glyph-name="glyph779" horiz-adv-x="628" 
 />
    <glyph glyph-name="glyph780" horiz-adv-x="1292" 
 />
    <glyph glyph-name="glyph781" horiz-adv-x="628" 
 />
    <glyph glyph-name="glyph782" horiz-adv-x="1470" 
 />
    <glyph glyph-name="glyph783" horiz-adv-x="725" 
 />
    <glyph glyph-name="glyph784" horiz-adv-x="961" 
 />
    <glyph glyph-name="glyph785" horiz-adv-x="1010" 
 />
    <glyph glyph-name="glyph786" horiz-adv-x="886" 
 />
    <glyph glyph-name="glyph787" horiz-adv-x="961" 
 />
    <glyph glyph-name="glyph788" horiz-adv-x="927" 
 />
    <glyph glyph-name="glyph789" horiz-adv-x="930" 
 />
    <glyph glyph-name="glyph790" horiz-adv-x="929" 
 />
    <glyph glyph-name="glyph791" horiz-adv-x="935" 
 />
    <glyph glyph-name="glyph792" horiz-adv-x="690" 
 />
    <glyph glyph-name="glyph793" horiz-adv-x="1148" 
 />
    <glyph glyph-name="glyph794" horiz-adv-x="837" 
 />
    <glyph glyph-name="glyph795" horiz-adv-x="785" 
 />
    <glyph glyph-name="glyph796" horiz-adv-x="654" 
 />
    <glyph glyph-name="glyph797" horiz-adv-x="654" 
 />
    <glyph glyph-name="glyph798" horiz-adv-x="1168" 
 />
    <glyph glyph-name="glyph799" horiz-adv-x="1642" 
 />
    <glyph glyph-name="glyph800" horiz-adv-x="1200" 
 />
    <glyph glyph-name="glyph801" horiz-adv-x="1130" 
 />
    <glyph glyph-name="glyph802" horiz-adv-x="538" 
 />
    <glyph glyph-name="glyph803" horiz-adv-x="785" 
 />
    <glyph glyph-name="glyph804" horiz-adv-x="1532" 
 />
    <glyph glyph-name="glyph805" horiz-adv-x="1439" 
d="M26 1399h1109v-1400h-1109v1400zM923 211v976h-685v-976h685z" />
    <glyph glyph-name="glyph806" horiz-adv-x="925" 
d="M105 1400h1109v-1400h-1109v1400zM1002 212v976h-685v-976h685z" />
    <glyph glyph-name="glyph807" horiz-adv-x="1052" 
d="M26 1416h1109v-1400h-1109v1400zM923 228v976h-685v-976h685z" />
    <glyph glyph-name="glyph808" horiz-adv-x="1052" 
d="M26 1416h1109v-1400h-1109v1400zM923 228v976h-685v-976h685z" />
    <glyph glyph-name="glyph809" horiz-adv-x="1052" 
d="M26 1416h1109v-1400h-1109v1400zM923 228v976h-685v-976h685z" />
    <glyph glyph-name="glyph810" horiz-adv-x="1052" 
d="M26 1416h1109v-1400h-1109v1400zM923 228v976h-685v-976h685z" />
    <glyph glyph-name="glyph811" horiz-adv-x="1052" 
d="M26 1416h1109v-1400h-1109v1400zM923 228v976h-685v-976h685z" />
    <glyph glyph-name="glyph812" horiz-adv-x="1007" 
d="M26 1416h1109v-1400h-1109v1400zM923 228v976h-685v-976h685z" />
    <glyph glyph-name="glyph813" horiz-adv-x="1283" 
d="M26 1416h1109v-1400h-1109v1400zM923 228v976h-685v-976h685z" />
    <glyph glyph-name="glyph814" horiz-adv-x="1007" 
d="M26 1416h1109v-1400h-1109v1400zM923 228v976h-685v-976h685z" />
    <glyph glyph-name="glyph815" horiz-adv-x="1283" 
d="M26 1416h1109v-1400h-1109v1400zM923 228v976h-685v-976h685z" />
    <glyph glyph-name="glyph816" horiz-adv-x="1007" 
d="M26 1416h1109v-1400h-1109v1400zM923 228v976h-685v-976h685z" />
    <glyph glyph-name="glyph817" horiz-adv-x="1283" 
d="M26 1416h1109v-1400h-1109v1400zM923 228v976h-685v-976h685z" />
    <glyph glyph-name="glyph818" horiz-adv-x="1007" 
d="M26 1416h1109v-1400h-1109v1400zM923 228v976h-685v-976h685z" />
    <glyph glyph-name="glyph819" horiz-adv-x="1283" 
d="M26 1416h1109v-1400h-1109v1400zM923 228v976h-685v-976h685z" />
    <glyph glyph-name="glyph820" horiz-adv-x="1007" 
d="M26 1416h1109v-1400h-1109v1400zM923 228v976h-685v-976h685z" />
    <glyph glyph-name="glyph821" horiz-adv-x="1283" 
d="M26 1416h1109v-1400h-1109v1400zM923 228v976h-685v-976h685z" />
    <glyph glyph-name="glyph822" horiz-adv-x="808" 
d="M26 1416h1109v-1400h-1109v1400zM923 228v976h-685v-976h685z" />
    <glyph glyph-name="glyph823" horiz-adv-x="668" 
d="M26 1416h1109v-1400h-1109v1400zM923 228v976h-685v-976h685z" />
    <glyph glyph-name="glyph824" horiz-adv-x="668" 
d="M26 1399h1109v-1400h-1109v1400zM923 211v976h-685v-976h685z" />
    <glyph glyph-name="glyph825" horiz-adv-x="668" 
d="M26 1416h1109v-1400h-1109v1400zM923 228v976h-685v-976h685z" />
    <glyph glyph-name="glyph826" horiz-adv-x="1199" 
d="M26 1416h1109v-1400h-1109v1400zM923 228v976h-685v-976h685z" />
    <glyph glyph-name="glyph827" horiz-adv-x="808" 
d="M26 1416h1109v-1400h-1109v1400zM923 228v976h-685v-976h685z" />
    <glyph glyph-name="glyph828" horiz-adv-x="1397" 
d="M26 1400h1109v-1400h-1109v1400zM923 212v976h-685v-976h685z" />
    <glyph glyph-name="glyph829" horiz-adv-x="1079" 
d="M26 1400h1109v-1400h-1109v1400zM923 212v976h-685v-976h685z" />
    <glyph glyph-name="glyph830" horiz-adv-x="1079" 
d="M26 1400h1109v-1400h-1109v1400zM923 212v976h-685v-976h685z" />
    <glyph glyph-name="glyph831" horiz-adv-x="1079" 
d="M26 1400h1109v-1400h-1109v1400zM923 212v976h-685v-976h685z" />
    <glyph glyph-name="glyph832" horiz-adv-x="1079" 
d="M26 1400h1109v-1400h-1109v1400zM923 212v976h-685v-976h685z" />
    <glyph glyph-name="glyph833" horiz-adv-x="1079" 
d="M26 1400h1109v-1400h-1109v1400zM923 212v976h-685v-976h685z" />
    <glyph glyph-name="glyph834" horiz-adv-x="1079" 
d="M26 1400h1109v-1400h-1109v1400zM923 212v976h-685v-976h685z" />
    <glyph glyph-name="glyph835" horiz-adv-x="1079" 
d="M26 1400h1109v-1400h-1109v1400zM923 212v976h-685v-976h685z" />
    <glyph glyph-name="glyph836" horiz-adv-x="1079" 
d="M26 1400h1109v-1400h-1109v1400zM923 212v976h-685v-976h685z" />
    <glyph glyph-name="glyph837" horiz-adv-x="1079" 
d="M26 1400h1109v-1400h-1109v1400zM923 212v976h-685v-976h685z" />
    <glyph glyph-name="glyph838" horiz-adv-x="1079" 
d="M26 1400h1109v-1400h-1109v1400zM923 212v976h-685v-976h685z" />
    <glyph glyph-name="glyph839" horiz-adv-x="1074" 
d="M26 1400h1109v-1400h-1109v1400zM923 212v976h-685v-976h685z" />
    <glyph glyph-name="glyph840" horiz-adv-x="925" 
d="M105 1400h1109v-1400h-1109v1400zM1002 212v976h-685v-976h685z" />
    <glyph glyph-name="glyph841" horiz-adv-x="638" 
d="M26 1400h1109v-1400h-1109v1400zM923 212v976h-685v-976h685z" />
    <glyph glyph-name="glyph842" horiz-adv-x="1028" 
d="M26 1400h1109v-1400h-1109v1400zM923 212v976h-685v-976h685z" />
    <glyph glyph-name="glyph843" horiz-adv-x="1568" 
d="M26 1400h1109v-1400h-1109v1400zM923 212v976h-685v-976h685z" />
    <glyph glyph-name="glyph844" horiz-adv-x="1135" 
d="M26 1400h1109v-1400h-1109v1400zM923 212v976h-685v-976h685z" />
    <glyph glyph-name="glyph845" horiz-adv-x="1200" 
d="M26 1400h1109v-1400h-1109v1400zM923 212v976h-685v-976h685z" />
    <glyph glyph-name="glyph846" horiz-adv-x="804" 
d="M26 1400h1109v-1400h-1109v1400zM923 212v976h-685v-976h685z" />
    <glyph glyph-name="glyph847" horiz-adv-x="804" 
d="M26 1400h1109v-1400h-1109v1400zM923 212v976h-685v-976h685z" />
    <glyph glyph-name="glyph848" horiz-adv-x="1532" 
d="M26 1400h1109v-1400h-1109v1400zM923 212v976h-685v-976h685z" />
    <glyph glyph-name="glyph849" 
d="M26 1400h1109v-1400h-1109v1400zM923 212v976h-685v-976h685z" />
    <glyph glyph-name="glyph850" 
d="M26 1400h1109v-1400h-1109v1400zM923 212v976h-685v-976h685z" />
    <glyph glyph-name="glyph851" 
d="M26 1400h1109v-1400h-1109v1400zM923 212v976h-685v-976h685z" />
    <glyph glyph-name="glyph852" 
d="M26 1400h1109v-1400h-1109v1400zM923 212v976h-685v-976h685z" />
    <glyph glyph-name="glyph853" 
d="M26 1400h1109v-1400h-1109v1400zM923 212v976h-685v-976h685z" />
    <glyph glyph-name="glyph854" 
d="M26 1400h1109v-1400h-1109v1400zM923 212v976h-685v-976h685z" />
    <glyph glyph-name="glyph855" 
d="M26 1400h1109v-1400h-1109v1400zM923 212v976h-685v-976h685z" />
    <glyph glyph-name="glyph856" 
d="M26 1400h1109v-1400h-1109v1400zM923 212v976h-685v-976h685z" />
    <glyph glyph-name="glyph857" 
d="M26 1400h1109v-1400h-1109v1400zM923 212v976h-685v-976h685z" />
    <glyph glyph-name="glyph858" 
d="M26 1400h1109v-1400h-1109v1400zM923 212v976h-685v-976h685z" />
    <glyph glyph-name="glyph859" 
d="M26 1400h1109v-1400h-1109v1400zM923 212v976h-685v-976h685z" />
    <glyph glyph-name="glyph860" 
d="M26 1400h1109v-1400h-1109v1400zM923 212v976h-685v-976h685z" />
    <glyph glyph-name="glyph861" 
d="M26 1400h1109v-1400h-1109v1400zM923 212v976h-685v-976h685z" />
    <glyph glyph-name="glyph862" 
d="M26 1400h1109v-1400h-1109v1400zM923 212v976h-685v-976h685z" />
    <glyph glyph-name="glyph863" 
d="M26 1400h1109v-1400h-1109v1400zM923 212v976h-685v-976h685z" />
    <glyph glyph-name="glyph864" horiz-adv-x="865" 
d="M26 1400h1109v-1400h-1109v1400zM923 212v976h-685v-976h685z" />
    <glyph glyph-name="glyph865" horiz-adv-x="731" 
d="M26 1400h1109v-1400h-1109v1400zM923 212v976h-685v-976h685z" />
    <glyph glyph-name="glyph866" horiz-adv-x="794" 
d="M26 1400h1109v-1400h-1109v1400zM923 212v976h-685v-976h685z" />
    <glyph glyph-name="glyph867" horiz-adv-x="1086" 
d="M26 1400h1109v-1400h-1109v1400zM923 212v976h-685v-976h685z" />
    <glyph glyph-name="glyph868" horiz-adv-x="538" 
d="M26 1400h1109v-1400h-1109v1400zM923 212v976h-685v-976h685z" />
    <glyph glyph-name="glyph869" horiz-adv-x="874" 
d="M26 1400h1109v-1400h-1109v1400zM923 212v976h-685v-976h685z" />
    <glyph glyph-name="glyph870" horiz-adv-x="874" 
d="M26 1400h1109v-1400h-1109v1400zM923 212v976h-685v-976h685z" />
    <glyph glyph-name="glyph871" horiz-adv-x="766" 
d="M26 1400h1109v-1400h-1109v1400zM923 212v976h-685v-976h685z" />
    <glyph glyph-name="glyph872" horiz-adv-x="766" 
d="M26 1400h1109v-1400h-1109v1400zM923 212v976h-685v-976h685z" />
    <glyph glyph-name="glyph873" horiz-adv-x="1944" 
d="M26 1400h1109v-1400h-1109v1400zM923 212v976h-685v-976h685z" />
    <glyph glyph-name="glyph874" horiz-adv-x="794" 
d="M26 1400h1109v-1400h-1109v1400zM923 212v976h-685v-976h685z" />
    <glyph glyph-name="glyph875" horiz-adv-x="848" 
d="M26 1400h1109v-1400h-1109v1400zM923 212v976h-685v-976h685z" />
    <glyph glyph-name="glyph876" horiz-adv-x="848" 
d="M26 1400h1109v-1400h-1109v1400zM923 212v976h-685v-976h685z" />
    <glyph glyph-name="glyph877" horiz-adv-x="967" 
d="M26 1416h1109v-1400h-1109v1400zM923 228v976h-685v-976h685z" />
    <glyph glyph-name="glyph878" horiz-adv-x="879" 
d="M26 1416h1109v-1400h-1109v1400zM923 228v976h-685v-976h685z" />
    <glyph glyph-name="glyph879" horiz-adv-x="531" 
d="M26 1416h1109v-1400h-1109v1400zM923 228v976h-685v-976h685z" />
    <glyph glyph-name="glyph880" horiz-adv-x="2033" 
d="M26 1416h1109v-1400h-1109v1400zM923 228v976h-685v-976h685z" />
    <glyph glyph-name="glyph881" horiz-adv-x="2033" 
d="M74 1400h1109v-1400h-1109v1400zM971 212v976h-685v-976h685z" />
    <glyph glyph-name="glyph882" horiz-adv-x="3038" 
d="M26 1416h1109v-1400h-1109v1400zM923 228v976h-685v-976h685z" />
    <glyph glyph-name="glyph883" horiz-adv-x="2601" 
d="M26 1416h1109v-1400h-1109v1400zM923 228v976h-685v-976h685z" />
    <glyph glyph-name="glyph884" horiz-adv-x="2003" 
d="M26 1416h1109v-1400h-1109v1400zM923 228v976h-685v-976h685z" />
    <glyph glyph-name="glyph885" horiz-adv-x="1566" 
d="M26 1416h1109v-1400h-1109v1400zM923 228v976h-685v-976h685z" />
    <glyph glyph-name="glyph886" horiz-adv-x="2070" 
d="M26 1416h1109v-1400h-1109v1400zM923 228v976h-685v-976h685z" />
    <glyph glyph-name="glyph887" horiz-adv-x="1092" 
d="M26 1416h1109v-1400h-1109v1400zM923 228v976h-685v-976h685z" />
    <glyph glyph-name="glyph888" horiz-adv-x="1092" 
d="M26 1416h1109v-1400h-1109v1400zM923 228v976h-685v-976h685z" />
    <glyph glyph-name="glyph889" horiz-adv-x="1251" 
d="M26 1416h1109v-1400h-1109v1400zM923 228v976h-685v-976h685z" />
    <glyph glyph-name="glyph890" horiz-adv-x="1052" 
d="M26 1416h1109v-1400h-1109v1400zM923 228v976h-685v-976h685z" />
    <glyph glyph-name="glyph891" horiz-adv-x="1052" 
d="M26 1416h1109v-1400h-1109v1400zM923 228v976h-685v-976h685z" />
    <glyph glyph-name="glyph892" horiz-adv-x="1729" 
d="M26 1416h1109v-1400h-1109v1400zM923 228v976h-685v-976h685z" />
    <glyph glyph-name="glyph893" horiz-adv-x="1729" 
d="M26 1416h1109v-1400h-1109v1400zM923 228v976h-685v-976h685z" />
    <glyph glyph-name="glyph894" horiz-adv-x="1729" 
d="M26 1416h1109v-1400h-1109v1400zM923 228v976h-685v-976h685z" />
    <glyph glyph-name="glyph895" horiz-adv-x="1729" 
d="M26 1416h1109v-1400h-1109v1400zM923 228v976h-685v-976h685z" />
    <glyph glyph-name="glyph896" horiz-adv-x="961" 
d="M26 1416h1109v-1400h-1109v1400zM923 228v976h-685v-976h685z" />
    <glyph glyph-name="glyph897" horiz-adv-x="961" 
d="M26 1416h1109v-1400h-1109v1400zM923 228v976h-685v-976h685z" />
    <glyph glyph-name="glyph898" horiz-adv-x="1094" 
d="M26 1416h1109v-1400h-1109v1400zM923 228v976h-685v-976h685z" />
    <glyph glyph-name="glyph899" horiz-adv-x="1116" 
d="M26 1416h1109v-1400h-1109v1400zM923 228v976h-685v-976h685z" />
    <glyph glyph-name="glyph900" horiz-adv-x="1116" 
d="M26 1416h1109v-1400h-1109v1400zM923 228v976h-685v-976h685z" />
    <glyph glyph-name="glyph901" horiz-adv-x="1116" 
d="M26 1416h1109v-1400h-1109v1400zM923 228v976h-685v-976h685z" />
    <glyph glyph-name="glyph902" horiz-adv-x="1116" 
d="M26 1416h1109v-1400h-1109v1400zM923 228v976h-685v-976h685z" />
    <glyph glyph-name="glyph903" horiz-adv-x="1283" 
d="M26 1416h1109v-1400h-1109v1400zM923 228v976h-685v-976h685z" />
    <glyph glyph-name="glyph904" horiz-adv-x="1283" 
d="M26 1416h1109v-1400h-1109v1400zM923 228v976h-685v-976h685z" />
    <glyph glyph-name="glyph905" horiz-adv-x="1283" 
d="M26 1416h1109v-1400h-1109v1400zM923 228v976h-685v-976h685z" />
    <glyph glyph-name="glyph906" horiz-adv-x="1505" 
d="M26 1416h1109v-1400h-1109v1400zM923 228v976h-685v-976h685z" />
    <glyph glyph-name="glyph907" horiz-adv-x="1505" 
d="M26 1416h1109v-1400h-1109v1400zM923 228v976h-685v-976h685z" />
    <glyph glyph-name="glyph908" horiz-adv-x="968" 
d="M26 1416h1109v-1400h-1109v1400zM923 228v976h-685v-976h685z" />
    <glyph glyph-name="glyph909" horiz-adv-x="968" 
d="M26 1416h1109v-1400h-1109v1400zM923 228v976h-685v-976h685z" />
    <glyph glyph-name="glyph910" horiz-adv-x="968" 
d="M26 1416h1109v-1400h-1109v1400zM923 228v976h-685v-976h685z" />
    <glyph glyph-name="glyph911" horiz-adv-x="1147" 
d="M26 1416h1109v-1400h-1109v1400zM923 228v976h-685v-976h685z" />
    <glyph glyph-name="glyph912" horiz-adv-x="1251" 
d="M26 1416h1109v-1400h-1109v1400zM923 228v976h-685v-976h685z" />
    <glyph glyph-name="glyph913" horiz-adv-x="1251" 
d="M26 1416h1109v-1400h-1109v1400zM923 228v976h-685v-976h685z" />
    <glyph glyph-name="glyph914" horiz-adv-x="1251" 
d="M26 1416h1109v-1400h-1109v1400zM923 228v976h-685v-976h685z" />
    <glyph glyph-name="glyph915" horiz-adv-x="1225" 
d="M26 1416h1109v-1400h-1109v1400zM923 228v976h-685v-976h685z" />
    <glyph glyph-name="glyph916" horiz-adv-x="1225" 
d="M26 1416h1109v-1400h-1109v1400zM923 228v976h-685v-976h685z" />
    <glyph glyph-name="glyph917" 
d="M26 1400h1109v-1400h-1109v1400zM923 212v976h-685v-976h685z" />
    <glyph glyph-name="glyph918" 
d="M26 1400h1109v-1400h-1109v1400zM923 212v976h-685v-976h685z" />
    <glyph glyph-name="glyph919" 
d="M26 1400h1109v-1400h-1109v1400zM923 212v976h-685v-976h685z" />
    <glyph glyph-name="glyph920" horiz-adv-x="438" 
d="M26 1399h1109v-1400h-1109v1400zM923 211v976h-685v-976h685z" />
    <glyph glyph-name="glyph921" horiz-adv-x="438" 
d="M26 1399h1109v-1400h-1109v1400zM923 211v976h-685v-976h685z" />
    <glyph glyph-name="glyph922" horiz-adv-x="879" 
d="M26 1399h1109v-1400h-1109v1400zM923 211v976h-685v-976h685z" />
    <glyph glyph-name="glyph923" horiz-adv-x="1092" 
d="M26 1416h1109v-1400h-1109v1400zM923 228v976h-685v-976h685z" />
    <glyph glyph-name="glyph924" horiz-adv-x="961" 
d="M26 1416h1109v-1400h-1109v1400zM923 228v976h-685v-976h685z" />
    <glyph glyph-name="glyph925" horiz-adv-x="1094" 
d="M26 1416h1109v-1400h-1109v1400zM923 228v976h-685v-976h685z" />
    <glyph glyph-name="glyph926" horiz-adv-x="1292" 
d="M26 1416h1109v-1400h-1109v1400zM923 228v976h-685v-976h685z" />
    <glyph glyph-name="glyph927" horiz-adv-x="1840" 
d="M26 1416h1109v-1400h-1109v1400zM923 228v976h-685v-976h685z" />
    <glyph glyph-name="glyph928" horiz-adv-x="1182" 
d="M26 1416h1109v-1400h-1109v1400zM923 228v976h-685v-976h685z" />
    <glyph glyph-name="glyph929" horiz-adv-x="1254" 
d="M26 1416h1109v-1400h-1109v1400zM923 228v976h-685v-976h685z" />
    <glyph glyph-name="glyph930" horiz-adv-x="1840" 
d="M26 1416h1109v-1400h-1109v1400zM923 228v976h-685v-976h685z" />
    <glyph glyph-name="glyph931" horiz-adv-x="1194" 
d="M26 1416h1109v-1400h-1109v1400zM923 228v976h-685v-976h685z" />
    <glyph glyph-name="glyph932" horiz-adv-x="1194" 
d="M26 1416h1109v-1400h-1109v1400zM923 228v976h-685v-976h685z" />
    <glyph glyph-name="glyph933" horiz-adv-x="1194" 
d="M26 1416h1109v-1400h-1109v1400zM923 228v976h-685v-976h685z" />
    <glyph glyph-name="glyph934" horiz-adv-x="1194" 
d="M26 1416h1109v-1400h-1109v1400zM923 228v976h-685v-976h685z" />
    <glyph glyph-name="glyph935" horiz-adv-x="1194" 
d="M26 1416h1109v-1400h-1109v1400zM923 228v976h-685v-976h685z" />
    <glyph glyph-name="glyph936" horiz-adv-x="1292" 
d="M26 1416h1109v-1400h-1109v1400zM923 228v976h-685v-976h685z" />
    <glyph glyph-name="glyph937" horiz-adv-x="531" 
d="M26 1416h1109v-1400h-1109v1400zM923 228v976h-685v-976h685z" />
    <glyph glyph-name="glyph938" horiz-adv-x="1182" 
d="M26 1416h1109v-1400h-1109v1400zM923 228v976h-685v-976h685z" />
    <glyph glyph-name="glyph939" horiz-adv-x="1052" 
d="M26 1399h1109v-1400h-1109v1400zM923 211v976h-685v-976h685z" />
    <glyph glyph-name="glyph940" horiz-adv-x="1094" 
d="M26 1399h1109v-1400h-1109v1400zM923 211v976h-685v-976h685z" />
    <glyph glyph-name="glyph941" horiz-adv-x="1052" 
d="M26 1416h1109v-1400h-1109v1400zM923 228v976h-685v-976h685z" />
    <glyph glyph-name="glyph942" horiz-adv-x="1052" 
d="M26 1416h1109v-1400h-1109v1400zM923 228v976h-685v-976h685z" />
    <glyph glyph-name="glyph943" horiz-adv-x="1052" 
d="M26 1416h1109v-1400h-1109v1400zM923 228v976h-685v-976h685z" />
    <glyph glyph-name="glyph944" horiz-adv-x="1092" 
d="M26 1416h1109v-1400h-1109v1400zM923 228v976h-685v-976h685z" />
    <glyph glyph-name="glyph945" horiz-adv-x="1729" 
d="M26 1416h1109v-1400h-1109v1400zM923 228v976h-685v-976h685z" />
    <glyph glyph-name="glyph946" horiz-adv-x="1194" 
d="M26 1416h1109v-1400h-1109v1400zM923 228v976h-685v-976h685z" />
    <glyph glyph-name="glyph947" horiz-adv-x="1194" 
d="M26 1416h1109v-1400h-1109v1400zM923 228v976h-685v-976h685z" />
    <glyph glyph-name="glyph948" horiz-adv-x="1194" 
d="M26 1416h1109v-1400h-1109v1400zM923 228v976h-685v-976h685z" />
    <glyph glyph-name="glyph949" horiz-adv-x="1194" 
d="M26 1416h1109v-1400h-1109v1400zM923 228v976h-685v-976h685z" />
    <glyph glyph-name="glyph950" horiz-adv-x="1194" 
d="M26 1416h1109v-1400h-1109v1400zM923 228v976h-685v-976h685z" />
    <glyph glyph-name="glyph951" horiz-adv-x="1194" 
d="M26 1416h1109v-1400h-1109v1400zM923 228v976h-685v-976h685z" />
    <glyph glyph-name="glyph952" horiz-adv-x="961" 
d="M26 1416h1109v-1400h-1109v1400zM923 228v976h-685v-976h685z" />
    <glyph glyph-name="glyph953" horiz-adv-x="961" 
d="M26 1416h1109v-1400h-1109v1400zM923 228v976h-685v-976h685z" />
    <glyph glyph-name="glyph954" horiz-adv-x="1094" 
d="M26 1416h1109v-1400h-1109v1400zM923 228v976h-685v-976h685z" />
    <glyph glyph-name="glyph955" horiz-adv-x="1094" 
d="M26 1416h1109v-1400h-1109v1400zM923 228v976h-685v-976h685z" />
    <glyph glyph-name="glyph956" horiz-adv-x="1094" 
d="M26 1416h1109v-1400h-1109v1400zM923 228v976h-685v-976h685z" />
    <glyph glyph-name="glyph957" horiz-adv-x="1094" 
d="M26 1416h1109v-1400h-1109v1400zM923 228v976h-685v-976h685z" />
    <glyph glyph-name="glyph958" horiz-adv-x="1116" 
d="M26 1416h1109v-1400h-1109v1400zM923 228v976h-685v-976h685z" />
    <glyph glyph-name="glyph959" horiz-adv-x="1116" 
d="M26 1416h1109v-1400h-1109v1400zM923 228v976h-685v-976h685z" />
    <glyph glyph-name="glyph960" horiz-adv-x="1116" 
d="M26 1416h1109v-1400h-1109v1400zM923 228v976h-685v-976h685z" />
    <glyph glyph-name="glyph961" horiz-adv-x="1292" 
d="M26 1416h1109v-1400h-1109v1400zM923 228v976h-685v-976h685z" />
    <glyph glyph-name="glyph962" horiz-adv-x="1292" 
d="M26 1416h1109v-1400h-1109v1400zM923 228v976h-685v-976h685z" />
    <glyph glyph-name="glyph963" horiz-adv-x="1292" 
d="M26 1416h1109v-1400h-1109v1400zM923 228v976h-685v-976h685z" />
    <glyph glyph-name="glyph964" horiz-adv-x="1681" 
d="M26 1400h1109v-1400h-1109v1400zM923 212v976h-685v-976h685z" />
    <glyph glyph-name="glyph965" horiz-adv-x="1283" 
d="M26 1416h1109v-1400h-1109v1400zM923 228v976h-685v-976h685z" />
    <glyph glyph-name="glyph966" horiz-adv-x="1283" 
d="M26 1416h1109v-1400h-1109v1400zM923 228v976h-685v-976h685z" />
    <glyph glyph-name="glyph967" horiz-adv-x="1283" 
d="M26 1416h1109v-1400h-1109v1400zM923 228v976h-685v-976h685z" />
    <glyph glyph-name="glyph968" horiz-adv-x="967" 
d="M26 1416h1109v-1400h-1109v1400zM923 228v976h-685v-976h685z" />
    <glyph glyph-name="glyph969" horiz-adv-x="968" 
d="M26 1416h1109v-1400h-1109v1400zM923 228v976h-685v-976h685z" />
    <glyph glyph-name="glyph970" horiz-adv-x="968" 
d="M26 1416h1109v-1400h-1109v1400zM923 228v976h-685v-976h685z" />
    <glyph glyph-name="glyph971" horiz-adv-x="968" 
d="M26 1416h1109v-1400h-1109v1400zM923 228v976h-685v-976h685z" />
    <glyph glyph-name="glyph972" horiz-adv-x="1147" 
d="M26 1399h1109v-1400h-1109v1400zM923 211v976h-685v-976h685z" />
    <glyph glyph-name="glyph973" horiz-adv-x="1147" 
d="M26 1416h1109v-1400h-1109v1400zM923 228v976h-685v-976h685z" />
    <glyph glyph-name="glyph974" horiz-adv-x="879" 
d="M26 1416h1109v-1400h-1109v1400zM923 228v976h-685v-976h685z" />
    <glyph glyph-name="glyph975" horiz-adv-x="1410" 
d="M26 1416h1109v-1400h-1109v1400zM923 228v976h-685v-976h685z" />
    <glyph glyph-name="glyph976" horiz-adv-x="531" 
d="M26 1399h1109v-1400h-1109v1400zM923 211v976h-685v-976h685z" />
    <glyph glyph-name="glyph977" horiz-adv-x="531" 
d="M26 1416h1109v-1400h-1109v1400zM923 228v976h-685v-976h685z" />
    <glyph glyph-name="glyph978" horiz-adv-x="531" 
d="M26 1416h1109v-1400h-1109v1400zM923 228v976h-685v-976h685z" />
    <glyph glyph-name="glyph979" horiz-adv-x="531" 
d="M26 1416h1109v-1400h-1109v1400zM923 228v976h-685v-976h685z" />
    <glyph glyph-name="glyph980" horiz-adv-x="531" 
d="M26 1416h1109v-1400h-1109v1400zM923 228v976h-685v-976h685z" />
    <glyph glyph-name="glyph981" horiz-adv-x="531" 
d="M26 1416h1109v-1400h-1109v1400zM923 228v976h-685v-976h685z" />
    <glyph glyph-name="glyph982" horiz-adv-x="1251" 
d="M26 1416h1109v-1400h-1109v1400zM923 228v976h-685v-976h685z" />
    <glyph glyph-name="glyph983" horiz-adv-x="1254" 
d="M26 1416h1109v-1400h-1109v1400zM923 228v976h-685v-976h685z" />
    <glyph glyph-name="glyph984" horiz-adv-x="1254" 
d="M26 1416h1109v-1400h-1109v1400zM923 228v976h-685v-976h685z" />
    <glyph glyph-name="glyph985" horiz-adv-x="1254" 
d="M26 1416h1109v-1400h-1109v1400zM923 228v976h-685v-976h685z" />
    <glyph glyph-name="glyph986" horiz-adv-x="1254" 
d="M26 1416h1109v-1400h-1109v1400zM923 228v976h-685v-976h685z" />
    <glyph glyph-name="glyph987" horiz-adv-x="1070" 
d="M26 1416h1109v-1400h-1109v1400zM923 228v976h-685v-976h685z" />
    <glyph glyph-name="glyph988" horiz-adv-x="1070" 
d="M26 1416h1109v-1400h-1109v1400zM923 228v976h-685v-976h685z" />
    <glyph glyph-name="glyph989" horiz-adv-x="1070" 
d="M26 1416h1109v-1400h-1109v1400zM923 228v976h-685v-976h685z" />
    <glyph glyph-name="glyph990" horiz-adv-x="1070" 
d="M26 1416h1109v-1400h-1109v1400zM923 228v976h-685v-976h685z" />
    <glyph glyph-name="glyph991" horiz-adv-x="1070" 
d="M26 1416h1109v-1400h-1109v1400zM923 228v976h-685v-976h685z" />
    <glyph glyph-name="glyph992" horiz-adv-x="1339" 
d="M26 1399h1109v-1400h-1109v1400zM923 211v976h-685v-976h685z" />
    <glyph glyph-name="glyph993" horiz-adv-x="1225" 
d="M26 1416h1109v-1400h-1109v1400zM923 228v976h-685v-976h685z" />
    <glyph glyph-name="glyph994" horiz-adv-x="1165" 
d="M26 1416h1109v-1400h-1109v1400zM923 228v976h-685v-976h685z" />
    <glyph glyph-name="glyph995" horiz-adv-x="1165" 
d="M26 1416h1109v-1400h-1109v1400zM923 228v976h-685v-976h685z" />
    <glyph glyph-name="glyph996" horiz-adv-x="1165" 
d="M26 1416h1109v-1400h-1109v1400zM923 228v976h-685v-976h685z" />
    <glyph glyph-name="glyph997" horiz-adv-x="1165" 
d="M26 1416h1109v-1400h-1109v1400zM923 228v976h-685v-976h685z" />
    <glyph glyph-name="glyph998" horiz-adv-x="1182" 
d="M26 1416h1109v-1400h-1109v1400zM923 228v976h-685v-976h685z" />
    <glyph glyph-name="glyph999" horiz-adv-x="1182" 
d="M26 1416h1109v-1400h-1109v1400zM923 228v976h-685v-976h685z" />
    <glyph glyph-name="glyph1000" horiz-adv-x="1182" 
d="M26 1416h1109v-1400h-1109v1400zM923 228v976h-685v-976h685z" />
    <glyph glyph-name="glyph1001" horiz-adv-x="1092" 
d="M26 1416h1109v-1400h-1109v1400zM923 228v976h-685v-976h685z" />
    <glyph glyph-name="glyph1002" horiz-adv-x="1092" 
d="M26 1416h1109v-1400h-1109v1400zM923 228v976h-685v-976h685z" />
    <glyph glyph-name="glyph1003" horiz-adv-x="1194" 
d="M26 1416h1109v-1400h-1109v1400zM923 228v976h-685v-976h685z" />
    <glyph glyph-name="glyph1004" horiz-adv-x="1194" 
d="M26 1416h1109v-1400h-1109v1400zM923 228v976h-685v-976h685z" />
    <glyph glyph-name="glyph1005" horiz-adv-x="1194" 
d="M26 1416h1109v-1400h-1109v1400zM923 228v976h-685v-976h685z" />
    <glyph glyph-name="glyph1006" horiz-adv-x="1194" 
d="M26 1416h1109v-1400h-1109v1400zM923 228v976h-685v-976h685z" />
    <glyph glyph-name="glyph1007" horiz-adv-x="1292" 
d="M26 1416h1109v-1400h-1109v1400zM923 228v976h-685v-976h685z" />
    <glyph glyph-name="glyph1008" horiz-adv-x="1292" 
d="M26 1416h1109v-1400h-1109v1400zM923 228v976h-685v-976h685z" />
    <glyph glyph-name="glyph1009" horiz-adv-x="1292" 
d="M26 1416h1109v-1400h-1109v1400zM923 228v976h-685v-976h685z" />
    <glyph glyph-name="glyph1010" horiz-adv-x="1292" 
d="M26 1416h1109v-1400h-1109v1400zM923 228v976h-685v-976h685z" />
    <glyph glyph-name="glyph1011" horiz-adv-x="1292" 
d="M26 1416h1109v-1400h-1109v1400zM923 228v976h-685v-976h685z" />
    <glyph glyph-name="glyph1012" horiz-adv-x="1283" 
d="M26 1416h1109v-1400h-1109v1400zM923 228v976h-685v-976h685z" />
    <glyph glyph-name="glyph1013" horiz-adv-x="531" 
d="M26 1416h1109v-1400h-1109v1400zM923 228v976h-685v-976h685z" />
    <glyph glyph-name="glyph1014" horiz-adv-x="531" 
d="M26 1416h1109v-1400h-1109v1400zM923 228v976h-685v-976h685z" />
    <glyph glyph-name="glyph1015" horiz-adv-x="531" 
d="M26 1416h1109v-1400h-1109v1400zM923 228v976h-685v-976h685z" />
    <glyph glyph-name="glyph1016" horiz-adv-x="531" 
d="M26 1416h1109v-1400h-1109v1400zM923 228v976h-685v-976h685z" />
    <glyph glyph-name="glyph1017" horiz-adv-x="1070" 
d="M26 1416h1109v-1400h-1109v1400zM923 228v976h-685v-976h685z" />
    <glyph glyph-name="glyph1018" horiz-adv-x="1070" 
d="M26 1416h1109v-1400h-1109v1400zM923 228v976h-685v-976h685z" />
    <glyph glyph-name="glyph1019" horiz-adv-x="1070" 
d="M26 1416h1109v-1400h-1109v1400zM923 228v976h-685v-976h685z" />
    <glyph glyph-name="glyph1020" horiz-adv-x="1070" 
d="M26 1416h1109v-1400h-1109v1400zM923 228v976h-685v-976h685z" />
    <glyph glyph-name="glyph1021" horiz-adv-x="1165" 
d="M26 1416h1109v-1400h-1109v1400zM923 228v976h-685v-976h685z" />
    <glyph glyph-name="glyph1022" horiz-adv-x="1182" 
d="M26 1416h1109v-1400h-1109v1400zM923 228v976h-685v-976h685z" />
    <glyph glyph-name="glyph1023" horiz-adv-x="1182" 
d="M26 1416h1109v-1400h-1109v1400zM923 228v976h-685v-976h685z" />
    <glyph glyph-name="glyph1024" horiz-adv-x="1182" 
d="M26 1416h1109v-1400h-1109v1400zM923 228v976h-685v-976h685z" />
    <glyph glyph-name="glyph1025" horiz-adv-x="1182" 
d="M26 1416h1109v-1400h-1109v1400zM923 228v976h-685v-976h685z" />
    <glyph glyph-name="glyph1026" horiz-adv-x="1182" 
d="M26 1416h1109v-1400h-1109v1400zM923 228v976h-685v-976h685z" />
    <glyph glyph-name="glyph1027" horiz-adv-x="1182" 
d="M26 1416h1109v-1400h-1109v1400zM923 228v976h-685v-976h685z" />
    <glyph glyph-name="glyph1028" horiz-adv-x="2166" 
d="M26 1416h1109v-1400h-1109v1400zM923 228v976h-685v-976h685z" />
    <glyph glyph-name="glyph1029" horiz-adv-x="1200" 
 />
    <glyph glyph-name="glyph1030" horiz-adv-x="1200" 
d="M26 1399h1109v-1400h-1109v1400zM923 211v976h-685v-976h685z" />
    <glyph glyph-name="glyph1031" horiz-adv-x="1200" 
d="M26 1399h1109v-1400h-1109v1400zM923 211v976h-685v-976h685z" />
    <glyph glyph-name="glyph1032" horiz-adv-x="1200" 
d="M26 1399h1109v-1400h-1109v1400zM923 211v976h-685v-976h685z" />
    <glyph glyph-name="glyph1033" horiz-adv-x="1200" 
d="M26 1399h1109v-1400h-1109v1400zM923 211v976h-685v-976h685z" />
    <glyph glyph-name="glyph1034" horiz-adv-x="1200" 
d="M26 1399h1109v-1400h-1109v1400zM923 211v976h-685v-976h685z" />
    <glyph glyph-name="glyph1035" horiz-adv-x="1200" 
d="M26 1399h1109v-1400h-1109v1400zM923 211v976h-685v-976h685z" />
    <glyph glyph-name="glyph1036" horiz-adv-x="1200" 
d="M26 1399h1109v-1400h-1109v1400zM923 211v976h-685v-976h685z" />
    <glyph glyph-name="glyph1037" horiz-adv-x="1200" 
d="M26 1399h1109v-1400h-1109v1400zM923 211v976h-685v-976h685z" />
    <glyph glyph-name="glyph1038" horiz-adv-x="1200" 
 />
    <glyph glyph-name="glyph1039" horiz-adv-x="1200" 
d="M26 1400h1109v-1400h-1109v1400zM923 212v976h-685v-976h685z" />
    <glyph glyph-name="glyph1040" horiz-adv-x="1200" 
d="M26 1400h1109v-1400h-1109v1400zM923 212v976h-685v-976h685z" />
    <glyph glyph-name="glyph1041" horiz-adv-x="1200" 
d="M26 1400h1109v-1400h-1109v1400zM923 212v976h-685v-976h685z" />
    <glyph glyph-name="glyph1042" horiz-adv-x="1200" 
d="M26 1400h1109v-1400h-1109v1400zM923 212v976h-685v-976h685z" />
    <glyph glyph-name="glyph1043" horiz-adv-x="1200" 
d="M26 1400h1109v-1400h-1109v1400zM923 212v976h-685v-976h685z" />
    <glyph glyph-name="glyph1044" horiz-adv-x="1200" 
d="M26 1400h1109v-1400h-1109v1400zM923 212v976h-685v-976h685z" />
    <glyph glyph-name="glyph1045" horiz-adv-x="1200" 
d="M26 1400h1109v-1400h-1109v1400zM923 212v976h-685v-976h685z" />
    <glyph glyph-name="glyph1046" horiz-adv-x="1200" 
d="M26 1400h1109v-1400h-1109v1400zM923 212v976h-685v-976h685z" />
    <glyph glyph-name="glyph1047" horiz-adv-x="99" 
 />
    <glyph glyph-name="glyph1048" horiz-adv-x="747" 
d="M147 1402h1109v-1400h-1109v1400zM1044 214v976h-685v-976h685z" />
    <glyph glyph-name="glyph1049" horiz-adv-x="782" 
d="M151 1402h1109v-1400h-1109v1400zM1048 214v976h-685v-976h685z" />
    <glyph glyph-name="glyph1050" horiz-adv-x="682" 
d="M150 1402h1109v-1400h-1109v1400zM1047 214v976h-685v-976h685z" />
    <glyph glyph-name="glyph1051" horiz-adv-x="747" 
d="M150 1402h1109v-1400h-1109v1400zM1047 214v976h-685v-976h685z" />
    <glyph glyph-name="glyph1052" horiz-adv-x="716" 
d="M151 1402h1109v-1400h-1109v1400zM1048 214v976h-685v-976h685z" />
    <glyph glyph-name="glyph1053" horiz-adv-x="718" 
d="M150 1402h1109v-1400h-1109v1400zM1047 214v976h-685v-976h685z" />
    <glyph glyph-name="glyph1054" horiz-adv-x="719" 
d="M150 1402h1109v-1400h-1109v1400zM1047 214v976h-685v-976h685z" />
    <glyph glyph-name="glyph1055" horiz-adv-x="727" 
d="M150 1402h1109v-1400h-1109v1400zM1047 214v976h-685v-976h685z" />
    <glyph glyph-name="glyph1056" horiz-adv-x="530" 
d="M151 1402h1109v-1400h-1109v1400zM1048 214v976h-685v-976h685z" />
    <glyph glyph-name="glyph1057" horiz-adv-x="891" 
d="M152 1402h1109v-1400h-1109v1400zM1049 214v976h-685v-976h685z" />
    <glyph glyph-name="glyph1058" horiz-adv-x="730" 
d="M26 1400h1109v-1400h-1109v1400zM923 212v976h-685v-976h685z" />
    <glyph glyph-name="glyph1059" horiz-adv-x="1184" 
d="M26 1400h1109v-1400h-1109v1400zM923 212v976h-685v-976h685z" />
    <glyph glyph-name="glyph1060" horiz-adv-x="528" 
d="M26 1400h1109v-1400h-1109v1400zM923 212v976h-685v-976h685z" />
    <glyph glyph-name="glyph1061" horiz-adv-x="521" 
d="M26 1400h1109v-1400h-1109v1400zM923 212v976h-685v-976h685z" />
    <glyph glyph-name="glyph1062" horiz-adv-x="1079" 
 />
  </font>
</defs>
</svg>
