<svg xmlns="http://www.w3.org/2000/svg" viewBox="0 0 198.89 75.35"><defs><style>.cls-1{fill:#231f20;}.cls-2{fill:#db1927;}</style></defs><title>logo</title><polygon class="cls-1" points="79.21 47.04 73.58 47.04 90.09 25.14 94.96 25.14 110.81 46.93 105.09 46.93 102.06 42.76 84.38 42.76 87.7 38.85 99.31 38.85 92.63 29.39 79.21 47.04"/><polygon class="cls-1" points="5.63 47.04 0 47.04 16.5 25.14 21.38 25.14 37.23 46.93 31.51 46.93 28.48 42.76 10.8 42.76 14.12 38.85 25.73 38.85 19.05 29.39 5.63 47.04"/><path class="cls-1" d="M274.41,395.19c3.51-3.37.86-10.46-3.9-10.46l-23.7,0v21.83l23.74,0.05C276.14,406.65,280.38,398.56,274.41,395.19Zm-22.91-6.5h17.27c3.09,0,3.49,4.59,0,4.59H251.5V388.7Zm18.66,13.63H251.5v-5.07h18.66C273.25,397.26,273.65,402.33,270.16,402.33Z" transform="translate(-205.44 -359.59)"/><polygon class="cls-1" points="109.16 25.14 116.16 25.14 123.81 32.06 120.67 35.09 109.16 25.14"/><polygon class="cls-1" points="141.5 47.05 134.5 47.05 126.82 40.17 129.99 37.11 141.5 47.05"/><path class="cls-1" d="M340,384.72h7.09s-15.69,12.34-24.81,22.86c-12.76,14.73-15.3,28.86,4.71,24.35,25-5.63,44.93-23.55,44.93-23.55h2.85s-11.31,9-17.16,12.43c-15.17,8.79-27.45,14.46-38.7,14.12-11.81-.35-15-8.37-3.43-25.14C325,396,340,384.72,340,384.72Z" transform="translate(-205.44 -359.59)"/><rect class="cls-1" x="149.8" y="25.22" width="4.67" height="21.71"/><path class="cls-1" d="M398.44,388.91v-4.11H378.75c-9.84,0-10,12.49,0,12.49h13.39c3.94,0,3.94,5.12.05,5.12H372.62v4.11h20.31c8.72,0,9.56-13.22.39-13.22H378.81c-3.37,0-3.32-4.5.11-4.5C381.46,388.8,398.44,388.91,398.44,388.91Z" transform="translate(-205.44 -359.59)"/><path class="cls-2" d="M348.61,382.94H342s20-16.8,43.53-22.37c16.65-3.93,25.19,3.95,13.21,22.38h-2.26c5.41-9,15.4-28.73-22.56-14.4C363.31,372.56,348.61,382.94,348.61,382.94Z" transform="translate(-205.44 -359.59)"/></svg>