<?xml version="1.0" encoding="utf-8"?>
<!-- Generator: Adobe Illustrator 17.0.0, SVG Export Plug-In . SVG Version: 6.00 Build 0)  -->
<!DOCTYPE svg PUBLIC "-//W3C//DTD SVG 1.1//EN" "http://www.w3.org/Graphics/SVG/1.1/DTD/svg11.dtd">
<svg version="1.1" id="Layer_1" xmlns="http://www.w3.org/2000/svg" xmlns:xlink="http://www.w3.org/1999/xlink" x="0px" y="0px"
	 width="166px" height="32.078px" viewBox="0 0 166 32.078" enable-background="new 0 0 166 32.078" xml:space="preserve">
<image display="none" overflow="visible" enable-background="new    " width="165" height="31" id="Logo_xA0_Image" xlink:href="9B6CD7C9.png"  transform="matrix(0.9939 0 0 0.9677 1.1666 1.1875)">
</image>
<g>
	<path fill="#FFFFFF" d="M5.5,22.193v8.891H1.078V7.287h4.328v2.297c0.677-1.01,1.414-1.742,2.211-2.195s1.731-0.68,2.805-0.68
		c2.073,0,3.76,0.831,5.063,2.492c1.302,1.662,1.953,3.826,1.953,6.492c0,2.709-0.651,4.912-1.953,6.609
		c-1.302,1.698-2.969,2.547-5,2.547c-1.083,0-2.05-0.227-2.898-0.68C6.737,23.716,6.042,23.058,5.5,22.193z M9.172,10.615
		c-1.167,0-2.07,0.443-2.711,1.328C5.82,12.829,5.5,14.089,5.5,15.724c0,1.678,0.323,2.961,0.969,3.852s1.578,1.336,2.797,1.336
		c1.135,0,2.034-0.45,2.695-1.352c0.661-0.9,0.992-2.127,0.992-3.68c0-1.688-0.326-2.986-0.977-3.898
		C11.325,11.071,10.391,10.615,9.172,10.615z"/>
	<path fill="#FFFFFF" d="M30.453,6.833v4.641h-1.469c-1.281,0-2.242,0.323-2.883,0.969c-0.641,0.646-0.961,1.604-0.961,2.875v8.953
		h-4.547V7.287h4.188v3.031c0.677-1.25,1.406-2.148,2.188-2.695s1.739-0.82,2.875-0.82c0.063,0,0.164,0.005,0.305,0.016
		C30.289,6.829,30.391,6.833,30.453,6.833z"/>
	<path fill="#FFFFFF" d="M40.797,6.677c2.688,0,4.799,0.805,6.336,2.414c1.536,1.609,2.305,3.831,2.305,6.664
		c0,2.834-0.766,5.058-2.297,6.672c-1.531,1.615-3.646,2.422-6.344,2.422c-2.698,0-4.818-0.807-6.359-2.422
		c-1.542-1.614-2.313-3.838-2.313-6.672c0-2.822,0.771-5.041,2.313-6.656C35.979,7.485,38.099,6.677,40.797,6.677z M40.797,10.505
		c-1.281,0-2.273,0.461-2.977,1.383s-1.055,2.222-1.055,3.898c0,1.667,0.352,2.959,1.055,3.875c0.703,0.917,1.695,1.375,2.977,1.375
		s2.273-0.455,2.977-1.367c0.703-0.911,1.055-2.205,1.055-3.883c0-1.677-0.352-2.977-1.055-3.898S42.078,10.505,40.797,10.505z"/>
	<path fill="#FFFFFF" d="M60.344,6.677c2.688,0,4.799,0.805,6.336,2.414c1.536,1.609,2.305,3.831,2.305,6.664
		c0,2.834-0.766,5.058-2.297,6.672c-1.531,1.615-3.646,2.422-6.344,2.422c-2.698,0-4.818-0.807-6.359-2.422
		c-1.542-1.614-2.313-3.838-2.313-6.672c0-2.822,0.771-5.041,2.313-6.656C55.526,7.485,57.646,6.677,60.344,6.677z M60.344,10.505
		c-1.281,0-2.273,0.461-2.977,1.383s-1.055,2.222-1.055,3.898c0,1.667,0.352,2.959,1.055,3.875c0.703,0.917,1.695,1.375,2.977,1.375
		s2.273-0.455,2.977-1.367c0.703-0.911,1.055-2.205,1.055-3.883c0-1.677-0.352-2.977-1.055-3.898S61.625,10.505,60.344,10.505z"/>
	<path fill="#FFFFFF" d="M80.469,1.193v3.656h-1.188c-0.771,0-1.273,0.086-1.508,0.258s-0.352,0.503-0.352,0.992v1.188h3.047v3.188
		h-2.984v13.797H73V10.474h-2.516V7.287H73V5.708C73,4.157,73.411,3,74.234,2.24s2.067-1.141,3.734-1.141
		c0.614,0,1.102,0.008,1.461,0.023S80.135,1.162,80.469,1.193z"/>
	<path fill="#FFFFFF" d="M87.25,22.193v8.891h-4.422V7.287h4.328v2.297c0.677-1.01,1.414-1.742,2.211-2.195s1.731-0.68,2.805-0.68
		c2.073,0,3.76,0.831,5.063,2.492c1.302,1.662,1.953,3.826,1.953,6.492c0,2.709-0.651,4.912-1.953,6.609
		c-1.302,1.698-2.969,2.547-5,2.547c-1.083,0-2.05-0.227-2.898-0.68C88.487,23.716,87.792,23.058,87.25,22.193z M90.922,10.615
		c-1.167,0-2.07,0.443-2.711,1.328c-0.641,0.886-0.961,2.146-0.961,3.781c0,1.678,0.323,2.961,0.969,3.852s1.578,1.336,2.797,1.336
		c1.135,0,2.034-0.45,2.695-1.352c0.661-0.9,0.992-2.127,0.992-3.68c0-1.688-0.326-2.986-0.977-3.898
		C93.075,11.071,92.141,10.615,90.922,10.615z"/>
	<path fill="#FFFFFF" d="M110.094,6.677c2.688,0,4.799,0.805,6.336,2.414c1.536,1.609,2.305,3.831,2.305,6.664
		c0,2.834-0.766,5.058-2.297,6.672c-1.531,1.615-3.646,2.422-6.344,2.422c-2.698,0-4.818-0.807-6.359-2.422
		c-1.542-1.614-2.313-3.838-2.313-6.672c0-2.822,0.771-5.041,2.313-6.656C105.276,7.485,107.396,6.677,110.094,6.677z
		 M110.094,10.505c-1.281,0-2.273,0.461-2.977,1.383s-1.055,2.222-1.055,3.898c0,1.667,0.352,2.959,1.055,3.875
		c0.703,0.917,1.695,1.375,2.977,1.375s2.273-0.455,2.977-1.367c0.703-0.911,1.055-2.205,1.055-3.883
		c0-1.677-0.352-2.977-1.055-3.898S111.375,10.505,110.094,10.505z"/>
	<path fill="#FFFFFF" d="M122.016,1.255h4.547v4.141h-4.547V1.255z M122.016,7.287h4.547v16.984h-4.547V7.287z"/>
	<path fill="#FFFFFF" d="M146.296,12.693v11.578h-4.5V14.005c0-1.208-0.219-2.07-0.656-2.586s-1.151-0.773-2.141-0.773
		c-1.125,0-2.019,0.318-2.68,0.953c-0.662,0.636-0.992,1.5-0.992,2.594v10.078h-4.516V7.287h4.422v2.141
		c0.688-0.864,1.479-1.513,2.375-1.945c0.896-0.433,1.896-0.648,3-0.648c1.906,0,3.33,0.484,4.273,1.453
		C145.825,9.255,146.296,10.724,146.296,12.693z"/>
	<path fill="#FFFFFF" d="M150.874,2.677h4.547v4.609h2.844v3.188h-2.844v9.406c0,0.438,0.119,0.729,0.359,0.875
		c0.239,0.146,0.724,0.219,1.453,0.219h1.031v3.422c-0.292,0.01-0.737,0.028-1.336,0.055c-0.6,0.025-1.029,0.039-1.289,0.039
		c-1.834,0-3.086-0.32-3.758-0.961s-1.008-1.93-1.008-3.867v-9.188h-2.406V7.287h2.406L150.874,2.677L150.874,2.677z"/>
</g>
<g>
	<path fill="#FFFFFF" d="M159.425,21.311h2.355v0.514h-0.881v2.363h-0.592v-2.363h-0.883L159.425,21.311L159.425,21.311z"/>
	<path fill="#FFFFFF" d="M162.106,21.311h0.861l0.523,2.129l0.52-2.129h0.865v2.877h-0.561V22l-0.52,2.188h-0.605L162.663,22v2.188
		h-0.557L162.106,21.311L162.106,21.311z"/>
</g>
</svg>
